%TF.GenerationSoftware,KiCad,Pcbnew,9.0.3*%
%TF.CreationDate,2026-03-07T22:53:31+09:00*%
%TF.ProjectId,mizet,6d697a65-742e-46b6-9963-61645f706362,rev?*%
%TF.SameCoordinates,Original*%
%TF.FileFunction,Soldermask,Top*%
%TF.FilePolarity,Negative*%
%FSLAX46Y46*%
G04 Gerber Fmt 4.6, Leading zero omitted, Abs format (unit mm)*
G04 Created by KiCad (PCBNEW 9.0.3) date 2026-03-07 22:53:31*
%MOMM*%
%LPD*%
G01*
G04 APERTURE LIST*
G04 Aperture macros list*
%AMRoundRect*
0 Rectangle with rounded corners*
0 $1 Rounding radius*
0 $2 $3 $4 $5 $6 $7 $8 $9 X,Y pos of 4 corners*
0 Add a 4 corners polygon primitive as box body*
4,1,4,$2,$3,$4,$5,$6,$7,$8,$9,$2,$3,0*
0 Add four circle primitives for the rounded corners*
1,1,$1+$1,$2,$3*
1,1,$1+$1,$4,$5*
1,1,$1+$1,$6,$7*
1,1,$1+$1,$8,$9*
0 Add four rect primitives between the rounded corners*
20,1,$1+$1,$2,$3,$4,$5,0*
20,1,$1+$1,$4,$5,$6,$7,0*
20,1,$1+$1,$6,$7,$8,$9,0*
20,1,$1+$1,$8,$9,$2,$3,0*%
G04 Aperture macros list end*
%ADD10RoundRect,0.250000X-0.275000X-0.750000X0.275000X-0.750000X0.275000X0.750000X-0.275000X0.750000X0*%
%ADD11RoundRect,0.157500X-0.367500X-0.842500X0.367500X-0.842500X0.367500X0.842500X-0.367500X0.842500X0*%
%ADD12R,1.700000X1.700000*%
%ADD13C,1.700000*%
%ADD14C,2.000000*%
%ADD15R,2.000000X2.000000*%
%ADD16R,2.500000X3.000000*%
%ADD17O,1.600000X1.000000*%
%ADD18O,2.100000X1.000000*%
G04 APERTURE END LIST*
D10*
%TO.C,SW2*%
X125775000Y-75800000D03*
D11*
X130225000Y-75800000D03*
%TD*%
D12*
%TO.C,J2*%
X166300000Y-76190000D03*
D13*
X166300000Y-78730000D03*
X166300000Y-81270000D03*
X166300000Y-83810000D03*
%TD*%
D10*
%TO.C,SW5*%
X131275000Y-72350000D03*
D11*
X135725000Y-72350000D03*
%TD*%
D14*
%TO.C,SW1*%
X180800000Y-72500000D03*
X175800000Y-72500000D03*
D15*
X178300000Y-72500000D03*
D16*
X183900000Y-80000000D03*
X172700000Y-80000000D03*
D14*
X180800000Y-87000000D03*
X175800000Y-87000000D03*
%TD*%
D10*
%TO.C,SW3*%
X125775000Y-80000000D03*
D11*
X130225000Y-80000000D03*
%TD*%
D10*
%TO.C,SW4*%
X125775000Y-84200000D03*
D11*
X130225000Y-84200000D03*
%TD*%
D13*
%TO.C,J4*%
X138350000Y-87620000D03*
D12*
X140890000Y-87620000D03*
D13*
X143430000Y-87620000D03*
X145970000Y-87620000D03*
X148510000Y-87620000D03*
X151050000Y-87620000D03*
X153590000Y-87620000D03*
X156130000Y-87620000D03*
X158670000Y-87620000D03*
X161210000Y-87620000D03*
X163750000Y-87620000D03*
X166290000Y-87620000D03*
%TD*%
D17*
%TO.C,J1*%
X125450000Y-86545000D03*
D18*
X129630000Y-86545000D03*
D17*
X125450000Y-77905000D03*
D18*
X129630000Y-77905000D03*
%TD*%
D13*
%TO.C,J3*%
X138350000Y-72380000D03*
X140890000Y-72380000D03*
X143430000Y-72380000D03*
X145970000Y-72380000D03*
X148510000Y-72380000D03*
X151050000Y-72380000D03*
X153590000Y-72380000D03*
X156130000Y-72380000D03*
X158670000Y-72380000D03*
X161210000Y-72380000D03*
X163750000Y-72380000D03*
X166290000Y-72380000D03*
%TD*%
D12*
%TO.C,TP3*%
X169790000Y-83820000D03*
%TD*%
%TO.C,TP2*%
X169790000Y-76190000D03*
%TD*%
M02*
