%TF.GenerationSoftware,KiCad,Pcbnew,9.0.3*%
%TF.CreationDate,2026-03-07T22:57:06+09:00*%
%TF.ProjectId,mizet,6d697a65-742e-46b6-9963-61645f706362,rev?*%
%TF.SameCoordinates,Original*%
%TF.FileFunction,Soldermask,Bot*%
%TF.FilePolarity,Negative*%
%FSLAX46Y46*%
G04 Gerber Fmt 4.6, Leading zero omitted, Abs format (unit mm)*
G04 Created by KiCad (PCBNEW 9.0.3) date 2026-03-07 22:57:06*
%MOMM*%
%LPD*%
G01*
G04 APERTURE LIST*
G04 Aperture macros list*
%AMRoundRect*
0 Rectangle with rounded corners*
0 $1 Rounding radius*
0 $2 $3 $4 $5 $6 $7 $8 $9 X,Y pos of 4 corners*
0 Add a 4 corners polygon primitive as box body*
4,1,4,$2,$3,$4,$5,$6,$7,$8,$9,$2,$3,0*
0 Add four circle primitives for the rounded corners*
1,1,$1+$1,$2,$3*
1,1,$1+$1,$4,$5*
1,1,$1+$1,$6,$7*
1,1,$1+$1,$8,$9*
0 Add four rect primitives between the rounded corners*
20,1,$1+$1,$2,$3,$4,$5,0*
20,1,$1+$1,$4,$5,$6,$7,0*
20,1,$1+$1,$6,$7,$8,$9,0*
20,1,$1+$1,$8,$9,$2,$3,0*%
%AMFreePoly0*
4,1,23,0.500000,-0.750000,0.000000,-0.750000,0.000000,-0.745722,-0.065263,-0.745722,-0.191342,-0.711940,-0.304381,-0.646677,-0.396677,-0.554381,-0.461940,-0.441342,-0.495722,-0.315263,-0.495722,-0.250000,-0.500000,-0.250000,-0.500000,0.250000,-0.495722,0.250000,-0.495722,0.315263,-0.461940,0.441342,-0.396677,0.554381,-0.304381,0.646677,-0.191342,0.711940,-0.065263,0.745722,0.000000,0.745722,
0.000000,0.750000,0.500000,0.750000,0.500000,-0.750000,0.500000,-0.750000,$1*%
%AMFreePoly1*
4,1,23,0.000000,0.745722,0.065263,0.745722,0.191342,0.711940,0.304381,0.646677,0.396677,0.554381,0.461940,0.441342,0.495722,0.315263,0.495722,0.250000,0.500000,0.250000,0.500000,-0.250000,0.495722,-0.250000,0.495722,-0.315263,0.461940,-0.441342,0.396677,-0.554381,0.304381,-0.646677,0.191342,-0.711940,0.065263,-0.745722,0.000000,-0.745722,0.000000,-0.750000,-0.500000,-0.750000,
-0.500000,0.750000,0.000000,0.750000,0.000000,0.745722,0.000000,0.745722,$1*%
G04 Aperture macros list end*
%ADD10RoundRect,0.225000X-0.250000X0.225000X-0.250000X-0.225000X0.250000X-0.225000X0.250000X0.225000X0*%
%ADD11RoundRect,0.225000X0.225000X0.250000X-0.225000X0.250000X-0.225000X-0.250000X0.225000X-0.250000X0*%
%ADD12C,0.750000*%
%ADD13C,2.200000*%
%ADD14R,1.700000X1.700000*%
%ADD15C,1.700000*%
%ADD16C,2.000000*%
%ADD17R,2.000000X2.000000*%
%ADD18R,2.500000X3.000000*%
%ADD19RoundRect,0.237500X0.237500X-0.250000X0.237500X0.250000X-0.237500X0.250000X-0.237500X-0.250000X0*%
%ADD20RoundRect,0.155000X0.212500X0.155000X-0.212500X0.155000X-0.212500X-0.155000X0.212500X-0.155000X0*%
%ADD21C,0.650000*%
%ADD22R,1.450000X0.600000*%
%ADD23R,1.450000X0.300000*%
%ADD24O,1.600000X1.000000*%
%ADD25O,2.100000X1.000000*%
%ADD26RoundRect,0.155000X-0.212500X-0.155000X0.212500X-0.155000X0.212500X0.155000X-0.212500X0.155000X0*%
%ADD27RoundRect,0.250000X-0.450000X-0.350000X0.450000X-0.350000X0.450000X0.350000X-0.450000X0.350000X0*%
%ADD28RoundRect,0.225000X0.225000X0.375000X-0.225000X0.375000X-0.225000X-0.375000X0.225000X-0.375000X0*%
%ADD29RoundRect,0.237500X0.237500X-0.300000X0.237500X0.300000X-0.237500X0.300000X-0.237500X-0.300000X0*%
%ADD30RoundRect,0.050000X-0.050000X0.387500X-0.050000X-0.387500X0.050000X-0.387500X0.050000X0.387500X0*%
%ADD31RoundRect,0.050000X-0.387500X0.050000X-0.387500X-0.050000X0.387500X-0.050000X0.387500X0.050000X0*%
%ADD32RoundRect,0.144000X-1.456000X1.456000X-1.456000X-1.456000X1.456000X-1.456000X1.456000X1.456000X0*%
%ADD33RoundRect,0.160000X-0.197500X-0.160000X0.197500X-0.160000X0.197500X0.160000X-0.197500X0.160000X0*%
%ADD34RoundRect,0.062500X-0.387500X-0.062500X0.387500X-0.062500X0.387500X0.062500X-0.387500X0.062500X0*%
%ADD35R,0.200000X1.600000*%
%ADD36C,1.500000*%
%ADD37RoundRect,0.237500X-0.250000X-0.237500X0.250000X-0.237500X0.250000X0.237500X-0.250000X0.237500X0*%
%ADD38FreePoly0,270.000000*%
%ADD39FreePoly1,270.000000*%
%ADD40RoundRect,0.237500X-0.237500X0.300000X-0.237500X-0.300000X0.237500X-0.300000X0.237500X0.300000X0*%
%ADD41RoundRect,0.150000X-0.150000X0.512500X-0.150000X-0.512500X0.150000X-0.512500X0.150000X0.512500X0*%
G04 APERTURE END LIST*
%TO.C,JP1*%
G36*
X134550000Y-72200000D02*
G01*
X136050000Y-72200000D01*
X136050000Y-72500000D01*
X134550000Y-72500000D01*
X134550000Y-72200000D01*
G37*
%TD*%
D10*
%TO.C,C5*%
X163750000Y-79625000D03*
X163750000Y-81175000D03*
%TD*%
D11*
%TO.C,C4*%
X161675000Y-77900000D03*
X160125000Y-77900000D03*
%TD*%
D12*
%TO.C,SW2*%
X128000000Y-74900000D03*
X128000000Y-76700000D03*
%TD*%
D13*
%TO.C,H2*%
X136000000Y-78100000D03*
%TD*%
%TO.C,H3*%
X169800000Y-72800000D03*
%TD*%
D14*
%TO.C,J2*%
X166300000Y-76190000D03*
D15*
X166300000Y-78730000D03*
X166300000Y-81270000D03*
X166300000Y-83810000D03*
%TD*%
D12*
%TO.C,SW5*%
X133500000Y-71450000D03*
X133500000Y-73250000D03*
%TD*%
D16*
%TO.C,SW1*%
X180800000Y-72500000D03*
X175800000Y-72500000D03*
D17*
X178300000Y-72500000D03*
D18*
X183900000Y-80000000D03*
X172700000Y-80000000D03*
D16*
X180800000Y-87000000D03*
X175800000Y-87000000D03*
%TD*%
D12*
%TO.C,SW3*%
X128000000Y-79100000D03*
X128000000Y-80900000D03*
%TD*%
%TO.C,SW4*%
X128000000Y-83300000D03*
X128000000Y-85100000D03*
%TD*%
D13*
%TO.C,H1*%
X169800000Y-87200000D03*
%TD*%
D15*
%TO.C,J4*%
X138350000Y-87620000D03*
D14*
X140890000Y-87620000D03*
D15*
X143430000Y-87620000D03*
X145970000Y-87620000D03*
X148510000Y-87620000D03*
X151050000Y-87620000D03*
X153590000Y-87620000D03*
X156130000Y-87620000D03*
X158670000Y-87620000D03*
X161210000Y-87620000D03*
X163750000Y-87620000D03*
X166290000Y-87620000D03*
%TD*%
D19*
%TO.C,R5*%
X138800000Y-76812500D03*
X138800000Y-74987500D03*
%TD*%
D20*
%TO.C,C15*%
X147667500Y-75400000D03*
X146532500Y-75400000D03*
%TD*%
D21*
%TO.C,J1*%
X129100000Y-85115000D03*
X129100000Y-79335000D03*
D22*
X130545000Y-85475000D03*
X130545000Y-84675000D03*
D23*
X130545000Y-83475000D03*
X130545000Y-82475000D03*
X130545000Y-81975000D03*
X130545000Y-80975000D03*
D22*
X130545000Y-79775000D03*
X130545000Y-78975000D03*
X130545000Y-78975000D03*
X130545000Y-79775000D03*
D23*
X130545000Y-80475000D03*
X130545000Y-81475000D03*
X130545000Y-82975000D03*
X130545000Y-83975000D03*
D22*
X130545000Y-84675000D03*
X130545000Y-85475000D03*
D24*
X125450000Y-86545000D03*
D25*
X129630000Y-86545000D03*
D24*
X125450000Y-77905000D03*
D25*
X129630000Y-77905000D03*
%TD*%
D26*
%TO.C,C13*%
X156632500Y-80450000D03*
X157767500Y-80450000D03*
%TD*%
D20*
%TO.C,C3*%
X142817500Y-77950000D03*
X141682500Y-77950000D03*
%TD*%
%TO.C,C11*%
X147667500Y-84600000D03*
X146532500Y-84600000D03*
%TD*%
D27*
%TO.C,Y1*%
X159800000Y-79550000D03*
X162000000Y-79550000D03*
X162000000Y-81250000D03*
X159800000Y-81250000D03*
%TD*%
D20*
%TO.C,C6*%
X145017500Y-82700000D03*
X143882500Y-82700000D03*
%TD*%
%TO.C,C10*%
X145017500Y-84600000D03*
X143882500Y-84600000D03*
%TD*%
D28*
%TO.C,D1*%
X135800000Y-87800000D03*
X132500000Y-87800000D03*
%TD*%
D29*
%TO.C,C2*%
X138450000Y-84812500D03*
X138450000Y-83087500D03*
%TD*%
D30*
%TO.C,U2*%
X148450000Y-76562500D03*
X148850001Y-76562500D03*
X149250000Y-76562500D03*
X149650000Y-76562500D03*
X150050000Y-76562500D03*
X150449999Y-76562500D03*
X150850000Y-76562500D03*
X151250000Y-76562500D03*
X151650001Y-76562500D03*
X152050000Y-76562500D03*
X152450000Y-76562500D03*
X152850000Y-76562500D03*
X153249999Y-76562500D03*
X153650000Y-76562500D03*
D31*
X154487500Y-77400000D03*
X154487500Y-77800001D03*
X154487500Y-78200000D03*
X154487500Y-78600000D03*
X154487500Y-79000000D03*
X154487500Y-79399999D03*
X154487500Y-79800000D03*
X154487500Y-80200000D03*
X154487500Y-80600001D03*
X154487500Y-81000000D03*
X154487500Y-81400000D03*
X154487500Y-81800000D03*
X154487500Y-82199999D03*
X154487500Y-82600000D03*
D30*
X153650000Y-83437500D03*
X153249999Y-83437500D03*
X152850000Y-83437500D03*
X152450000Y-83437500D03*
X152050000Y-83437500D03*
X151650001Y-83437500D03*
X151250000Y-83437500D03*
X150850000Y-83437500D03*
X150449999Y-83437500D03*
X150050000Y-83437500D03*
X149650000Y-83437500D03*
X149250000Y-83437500D03*
X148850001Y-83437500D03*
X148450000Y-83437500D03*
D31*
X147612500Y-82600000D03*
X147612500Y-82199999D03*
X147612500Y-81800000D03*
X147612500Y-81400000D03*
X147612500Y-81000000D03*
X147612500Y-80600001D03*
X147612500Y-80200000D03*
X147612500Y-79800000D03*
X147612500Y-79399999D03*
X147612500Y-79000000D03*
X147612500Y-78600000D03*
X147612500Y-78200000D03*
X147612500Y-77800001D03*
X147612500Y-77400000D03*
D32*
X151050000Y-80000000D03*
%TD*%
D20*
%TO.C,C17*%
X145017500Y-79850000D03*
X143882500Y-79850000D03*
%TD*%
D33*
%TO.C,R1*%
X132452500Y-82750000D03*
X133647500Y-82750000D03*
%TD*%
D26*
%TO.C,C7*%
X156632500Y-81400000D03*
X157767500Y-81400000D03*
%TD*%
D15*
%TO.C,J3*%
X138350000Y-72380000D03*
X140890000Y-72380000D03*
X143430000Y-72380000D03*
X145970000Y-72380000D03*
X148510000Y-72380000D03*
X151050000Y-72380000D03*
X153590000Y-72380000D03*
X156130000Y-72380000D03*
X158670000Y-72380000D03*
X161210000Y-72380000D03*
X163750000Y-72380000D03*
X166290000Y-72380000D03*
%TD*%
D33*
%TO.C,R2*%
X132302500Y-79800000D03*
X133497500Y-79800000D03*
%TD*%
D34*
%TO.C,U3*%
X141092500Y-76950000D03*
X141092500Y-76450000D03*
X141092500Y-75950000D03*
X141092500Y-75450000D03*
X143942500Y-75450000D03*
X143942500Y-75950000D03*
X143942500Y-76450000D03*
X143942500Y-76950000D03*
D35*
X142517500Y-76200000D03*
%TD*%
D36*
%TO.C,TP1*%
X178300000Y-80000000D03*
%TD*%
D37*
%TO.C,R6*%
X159550000Y-82950000D03*
X161375000Y-82950000D03*
%TD*%
D14*
%TO.C,TP3*%
X169790000Y-83820000D03*
%TD*%
D20*
%TO.C,C9*%
X145017500Y-83650000D03*
X143882500Y-83650000D03*
%TD*%
%TO.C,C16*%
X145017500Y-78900000D03*
X143882500Y-78900000D03*
%TD*%
D33*
%TO.C,R4*%
X144502500Y-81750000D03*
X145697500Y-81750000D03*
%TD*%
%TO.C,R3*%
X144502499Y-80800000D03*
X145697499Y-80800000D03*
%TD*%
D38*
%TO.C,JP1*%
X135300000Y-71700000D03*
D39*
X135300000Y-73000000D03*
%TD*%
D40*
%TO.C,C1*%
X133200000Y-84137500D03*
X133200000Y-85862500D03*
%TD*%
D26*
%TO.C,C14*%
X152332500Y-74610000D03*
X153467500Y-74610000D03*
%TD*%
D14*
%TO.C,TP2*%
X169790000Y-76190000D03*
%TD*%
D26*
%TO.C,C12*%
X152522500Y-85390000D03*
X153657500Y-85390000D03*
%TD*%
D20*
%TO.C,C8*%
X145017500Y-77950000D03*
X143882500Y-77950000D03*
%TD*%
D41*
%TO.C,U1*%
X135000000Y-83212500D03*
X136900000Y-83212500D03*
X135950000Y-85487500D03*
%TD*%
M02*
