M48
; DRILL file {KiCad 9.0.3} date 2026-03-07T22:53:31+0900
; FORMAT={-:-/ absolute / inch / decimal}
; #@! TF.CreationDate,2026-03-07T22:53:31+09:00
; #@! TF.GenerationSoftware,Kicad,Pcbnew,9.0.3
; #@! TF.FileFunction,Plated,1,2,PTH
FMAT,2
INCH
; #@! TA.AperFunction,Plated,PTH,ViaDrill
T1C0.0118
; #@! TA.AperFunction,Plated,PTH,ComponentDrill
T2C0.0138
; #@! TA.AperFunction,Plated,PTH,ViaDrill
T3C0.0157
; #@! TA.AperFunction,Plated,PTH,ComponentDrill
T4C0.0236
; #@! TA.AperFunction,Plated,PTH,ComponentDrill
T5C0.0394
; #@! TA.AperFunction,Plated,PTH,ComponentDrill
T6C0.0787
%
G90
G05
T1
X5.1024Y-2.8031
X5.2815Y-3.2874
X5.3819Y-2.8031
X5.4961Y-3.2756
X5.5413Y-3.0689
X5.5413Y-3.1437
X5.5787Y-3.1319
X5.5787Y-3.3406
X5.6083Y-3.1437
X5.622Y-3.2756
X5.6913Y-3.049
X5.7677Y-2.937
X5.7697Y-3.3602
X5.77Y-3.3856
X5.7972Y-3.4134
X5.8071Y-3.3661
X5.9961Y-2.8031
X6.0768Y-2.9374
X6.0866Y-3.3622
X6.1024Y-3.2776
X6.128Y-3.2776
X6.1319Y-3.0531
X6.1339Y-3.1083
X6.1594Y-3.0531
X6.1594Y-3.2539
X6.1831Y-3.2776
X6.1831Y-3.2539
X6.1929Y-2.9508
X6.1969Y-3.4724
X6.2185Y-3.2539
X6.2835Y-2.9626
X6.3602Y-2.9843
X6.437Y-3.0098
X6.4606Y-3.0768
X6.4764Y-3.2992
X6.4843Y-3.1654
X6.6102Y-2.8031
X6.6102Y-3.4961
X6.6211Y-3.3617
X6.7913Y-3.0276
T2
X5.8967Y-3.0994
X5.8967Y-3.1496
X5.8967Y-3.1998
X5.9469Y-3.0994
X5.9469Y-3.1496
X5.9469Y-3.1998
X5.997Y-3.0994
X5.997Y-3.1496
X5.997Y-3.1998
T3
X5.8642Y-3.1772
X6.0295Y-3.1732
X6.1339Y-3.185
T5
X5.4469Y-2.8496
X5.4469Y-3.4496
X5.5469Y-2.8496
X5.5469Y-3.4496
X5.6469Y-2.8496
X5.6469Y-3.4496
X5.7469Y-2.8496
X5.7469Y-3.4496
X5.8469Y-2.8496
X5.8469Y-3.4496
X5.9469Y-2.8496
X5.9469Y-3.4496
X6.0469Y-2.8496
X6.0469Y-3.4496
X6.1469Y-2.8496
X6.1469Y-3.4496
X6.2469Y-2.8496
X6.2469Y-3.4496
X6.3469Y-2.8496
X6.3469Y-3.4496
X6.4469Y-2.8496
X6.4469Y-3.4496
X6.5469Y-2.8496
X6.5469Y-3.4496
X6.5472Y-2.9996
X6.5472Y-3.0996
X6.5472Y-3.1996
X6.5472Y-3.2996
X6.6846Y-2.9996
X6.6846Y-3.3
X6.9213Y-2.8543
X6.9213Y-3.4252
X7.0197Y-2.8543
X7.1181Y-2.8543
X7.1181Y-3.4252
T4
G00X4.9272Y-3.0671
M15
G01X4.9508Y-3.0671
M16
G05
G00X4.9272Y-3.4073
M15
G01X4.9508Y-3.4073
M16
G05
G00X5.0819Y-3.0671
M15
G01X5.1252Y-3.0671
M16
G05
G00X5.0819Y-3.4073
M15
G01X5.1252Y-3.4073
M16
G05
T6
G00X6.7992Y-3.1398
M15
G01X6.7992Y-3.1594
M16
G05
G00X7.2402Y-3.1398
M15
G01X7.2402Y-3.1594
M16
G05
M30
