%TF.GenerationSoftware,KiCad,Pcbnew,9.0.3*%
%TF.CreationDate,2026-03-07T22:53:31+09:00*%
%TF.ProjectId,mizet,6d697a65-742e-46b6-9963-61645f706362,rev?*%
%TF.SameCoordinates,Original*%
%TF.FileFunction,Copper,L2,Bot*%
%TF.FilePolarity,Positive*%
%FSLAX46Y46*%
G04 Gerber Fmt 4.6, Leading zero omitted, Abs format (unit mm)*
G04 Created by KiCad (PCBNEW 9.0.3) date 2026-03-07 22:53:31*
%MOMM*%
%LPD*%
G01*
G04 APERTURE LIST*
G04 Aperture macros list*
%AMRoundRect*
0 Rectangle with rounded corners*
0 $1 Rounding radius*
0 $2 $3 $4 $5 $6 $7 $8 $9 X,Y pos of 4 corners*
0 Add a 4 corners polygon primitive as box body*
4,1,4,$2,$3,$4,$5,$6,$7,$8,$9,$2,$3,0*
0 Add four circle primitives for the rounded corners*
1,1,$1+$1,$2,$3*
1,1,$1+$1,$4,$5*
1,1,$1+$1,$6,$7*
1,1,$1+$1,$8,$9*
0 Add four rect primitives between the rounded corners*
20,1,$1+$1,$2,$3,$4,$5,0*
20,1,$1+$1,$4,$5,$6,$7,0*
20,1,$1+$1,$6,$7,$8,$9,0*
20,1,$1+$1,$8,$9,$2,$3,0*%
%AMFreePoly0*
4,1,23,0.500000,-0.750000,0.000000,-0.750000,0.000000,-0.745722,-0.065263,-0.745722,-0.191342,-0.711940,-0.304381,-0.646677,-0.396677,-0.554381,-0.461940,-0.441342,-0.495722,-0.315263,-0.495722,-0.250000,-0.500000,-0.250000,-0.500000,0.250000,-0.495722,0.250000,-0.495722,0.315263,-0.461940,0.441342,-0.396677,0.554381,-0.304381,0.646677,-0.191342,0.711940,-0.065263,0.745722,0.000000,0.745722,
0.000000,0.750000,0.500000,0.750000,0.500000,-0.750000,0.500000,-0.750000,$1*%
%AMFreePoly1*
4,1,23,0.000000,0.745722,0.065263,0.745722,0.191342,0.711940,0.304381,0.646677,0.396677,0.554381,0.461940,0.441342,0.495722,0.315263,0.495722,0.250000,0.500000,0.250000,0.500000,-0.250000,0.495722,-0.250000,0.495722,-0.315263,0.461940,-0.441342,0.396677,-0.554381,0.304381,-0.646677,0.191342,-0.711940,0.065263,-0.745722,0.000000,-0.745722,0.000000,-0.750000,-0.500000,-0.750000,
-0.500000,0.750000,0.000000,0.750000,0.000000,0.745722,0.000000,0.745722,$1*%
G04 Aperture macros list end*
%TA.AperFunction,SMDPad,CuDef*%
%ADD10RoundRect,0.225000X-0.250000X0.225000X-0.250000X-0.225000X0.250000X-0.225000X0.250000X0.225000X0*%
%TD*%
%TA.AperFunction,SMDPad,CuDef*%
%ADD11RoundRect,0.225000X0.225000X0.250000X-0.225000X0.250000X-0.225000X-0.250000X0.225000X-0.250000X0*%
%TD*%
%TA.AperFunction,ComponentPad*%
%ADD12R,1.700000X1.700000*%
%TD*%
%TA.AperFunction,ComponentPad*%
%ADD13C,1.700000*%
%TD*%
%TA.AperFunction,ComponentPad*%
%ADD14C,2.000000*%
%TD*%
%TA.AperFunction,ComponentPad*%
%ADD15R,2.000000X2.000000*%
%TD*%
%TA.AperFunction,ComponentPad*%
%ADD16R,2.500000X3.000000*%
%TD*%
%TA.AperFunction,SMDPad,CuDef*%
%ADD17RoundRect,0.237500X0.237500X-0.250000X0.237500X0.250000X-0.237500X0.250000X-0.237500X-0.250000X0*%
%TD*%
%TA.AperFunction,SMDPad,CuDef*%
%ADD18RoundRect,0.155000X0.212500X0.155000X-0.212500X0.155000X-0.212500X-0.155000X0.212500X-0.155000X0*%
%TD*%
%TA.AperFunction,SMDPad,CuDef*%
%ADD19R,1.450000X0.600000*%
%TD*%
%TA.AperFunction,SMDPad,CuDef*%
%ADD20R,1.450000X0.300000*%
%TD*%
%TA.AperFunction,HeatsinkPad*%
%ADD21O,1.600000X1.000000*%
%TD*%
%TA.AperFunction,HeatsinkPad*%
%ADD22O,2.100000X1.000000*%
%TD*%
%TA.AperFunction,SMDPad,CuDef*%
%ADD23RoundRect,0.155000X-0.212500X-0.155000X0.212500X-0.155000X0.212500X0.155000X-0.212500X0.155000X0*%
%TD*%
%TA.AperFunction,SMDPad,CuDef*%
%ADD24RoundRect,0.250000X-0.450000X-0.350000X0.450000X-0.350000X0.450000X0.350000X-0.450000X0.350000X0*%
%TD*%
%TA.AperFunction,SMDPad,CuDef*%
%ADD25RoundRect,0.225000X0.225000X0.375000X-0.225000X0.375000X-0.225000X-0.375000X0.225000X-0.375000X0*%
%TD*%
%TA.AperFunction,SMDPad,CuDef*%
%ADD26RoundRect,0.237500X0.237500X-0.300000X0.237500X0.300000X-0.237500X0.300000X-0.237500X-0.300000X0*%
%TD*%
%TA.AperFunction,SMDPad,CuDef*%
%ADD27RoundRect,0.050000X-0.050000X0.387500X-0.050000X-0.387500X0.050000X-0.387500X0.050000X0.387500X0*%
%TD*%
%TA.AperFunction,SMDPad,CuDef*%
%ADD28RoundRect,0.050000X-0.387500X0.050000X-0.387500X-0.050000X0.387500X-0.050000X0.387500X0.050000X0*%
%TD*%
%TA.AperFunction,ComponentPad*%
%ADD29C,0.600000*%
%TD*%
%TA.AperFunction,SMDPad,CuDef*%
%ADD30RoundRect,0.144000X-1.456000X1.456000X-1.456000X-1.456000X1.456000X-1.456000X1.456000X1.456000X0*%
%TD*%
%TA.AperFunction,SMDPad,CuDef*%
%ADD31RoundRect,0.160000X-0.197500X-0.160000X0.197500X-0.160000X0.197500X0.160000X-0.197500X0.160000X0*%
%TD*%
%TA.AperFunction,SMDPad,CuDef*%
%ADD32RoundRect,0.062500X-0.387500X-0.062500X0.387500X-0.062500X0.387500X0.062500X-0.387500X0.062500X0*%
%TD*%
%TA.AperFunction,HeatsinkPad*%
%ADD33R,0.200000X1.600000*%
%TD*%
%TA.AperFunction,SMDPad,CuDef*%
%ADD34C,1.500000*%
%TD*%
%TA.AperFunction,SMDPad,CuDef*%
%ADD35RoundRect,0.237500X-0.250000X-0.237500X0.250000X-0.237500X0.250000X0.237500X-0.250000X0.237500X0*%
%TD*%
%TA.AperFunction,SMDPad,CuDef*%
%ADD36FreePoly0,270.000000*%
%TD*%
%TA.AperFunction,SMDPad,CuDef*%
%ADD37FreePoly1,270.000000*%
%TD*%
%TA.AperFunction,SMDPad,CuDef*%
%ADD38RoundRect,0.237500X-0.237500X0.300000X-0.237500X-0.300000X0.237500X-0.300000X0.237500X0.300000X0*%
%TD*%
%TA.AperFunction,SMDPad,CuDef*%
%ADD39RoundRect,0.150000X-0.150000X0.512500X-0.150000X-0.512500X0.150000X-0.512500X0.150000X0.512500X0*%
%TD*%
%TA.AperFunction,ViaPad*%
%ADD40C,0.450000*%
%TD*%
%TA.AperFunction,ViaPad*%
%ADD41C,0.600000*%
%TD*%
%TA.AperFunction,Conductor*%
%ADD42C,0.150000*%
%TD*%
%TA.AperFunction,Conductor*%
%ADD43C,0.200000*%
%TD*%
%TA.AperFunction,Conductor*%
%ADD44C,0.400000*%
%TD*%
%TA.AperFunction,Conductor*%
%ADD45C,0.300000*%
%TD*%
%TA.AperFunction,Conductor*%
%ADD46C,0.800000*%
%TD*%
G04 APERTURE END LIST*
D10*
%TO.P,C5,1*%
%TO.N,GND*%
X163750000Y-79625000D03*
%TO.P,C5,2*%
%TO.N,Net-(C5-Pad2)*%
X163750000Y-81175000D03*
%TD*%
D11*
%TO.P,C4,1*%
%TO.N,GND*%
X161675000Y-77900000D03*
%TO.P,C4,2*%
%TO.N,Net-(U2-XIN)*%
X160125000Y-77900000D03*
%TD*%
D12*
%TO.P,J2,1,Pin_1*%
%TO.N,GND*%
X166300000Y-76190000D03*
D13*
%TO.P,J2,2,Pin_2*%
%TO.N,+3V3*%
X166300000Y-78730000D03*
%TO.P,J2,3,Pin_3*%
%TO.N,SCL*%
X166300000Y-81270000D03*
%TO.P,J2,4,Pin_4*%
%TO.N,SDA*%
X166300000Y-83810000D03*
%TD*%
D14*
%TO.P,SW1,A,A*%
%TO.N,RE_A*%
X180800000Y-72500000D03*
%TO.P,SW1,B,B*%
%TO.N,RE_B*%
X175800000Y-72500000D03*
D15*
%TO.P,SW1,C,C*%
%TO.N,GND*%
X178300000Y-72500000D03*
D16*
%TO.P,SW1,MP,MP*%
X183900000Y-80000000D03*
X172700000Y-80000000D03*
D14*
%TO.P,SW1,S1,S1*%
X180800000Y-87000000D03*
%TO.P,SW1,S2,S2*%
%TO.N,RE_SW*%
X175800000Y-87000000D03*
%TD*%
D13*
%TO.P,J4,1,Pin_1*%
%TO.N,VBUS*%
X138350000Y-87620000D03*
D12*
%TO.P,J4,2,Pin_2*%
%TO.N,GND*%
X140890000Y-87620000D03*
D13*
%TO.P,J4,3,Pin_3*%
%TO.N,+3V3*%
X143430000Y-87620000D03*
%TO.P,J4,4,Pin_4*%
%TO.N,GP26*%
X145970000Y-87620000D03*
%TO.P,J4,5,Pin_5*%
%TO.N,GP25*%
X148510000Y-87620000D03*
%TO.P,J4,6,Pin_6*%
%TO.N,GP24*%
X151050000Y-87620000D03*
%TO.P,J4,7,Pin_7*%
%TO.N,GP23*%
X153590000Y-87620000D03*
%TO.P,J4,8,Pin_8*%
%TO.N,GP22*%
X156130000Y-87620000D03*
%TO.P,J4,9,Pin_9*%
%TO.N,GP21*%
X158670000Y-87620000D03*
%TO.P,J4,10,Pin_10*%
%TO.N,GP20*%
X161210000Y-87620000D03*
%TO.P,J4,11,Pin_11*%
%TO.N,GP19*%
X163750000Y-87620000D03*
%TO.P,J4,12,Pin_12*%
%TO.N,GP18*%
X166290000Y-87620000D03*
%TD*%
D17*
%TO.P,R5,1*%
%TO.N,QSPI_SS*%
X138800000Y-76812500D03*
%TO.P,R5,2*%
%TO.N,Net-(JP1-B)*%
X138800000Y-74987500D03*
%TD*%
D18*
%TO.P,C15,1*%
%TO.N,+3V3*%
X147667500Y-75400000D03*
%TO.P,C15,2*%
%TO.N,GND*%
X146532500Y-75400000D03*
%TD*%
D19*
%TO.P,J1,A1,GND*%
%TO.N,GND*%
X130545000Y-85475000D03*
%TO.P,J1,A4,VBUS*%
%TO.N,VBUS*%
X130545000Y-84675000D03*
D20*
%TO.P,J1,A5,CC1*%
%TO.N,Net-(J1-CC1)*%
X130545000Y-83475000D03*
%TO.P,J1,A6,D+*%
%TO.N,USB_D+*%
X130545000Y-82475000D03*
%TO.P,J1,A7,D-*%
%TO.N,USB_D-*%
X130545000Y-81975000D03*
%TO.P,J1,A8,SBU1*%
%TO.N,unconnected-(J1-SBU1-PadA8)*%
X130545000Y-80975000D03*
D19*
%TO.P,J1,A9,VBUS*%
%TO.N,VBUS*%
X130545000Y-79775000D03*
%TO.P,J1,A12,GND*%
%TO.N,GND*%
X130545000Y-78975000D03*
%TO.P,J1,B1,GND*%
X130545000Y-78975000D03*
%TO.P,J1,B4,VBUS*%
%TO.N,VBUS*%
X130545000Y-79775000D03*
D20*
%TO.P,J1,B5,CC2*%
%TO.N,Net-(J1-CC2)*%
X130545000Y-80475000D03*
%TO.P,J1,B6,D+*%
%TO.N,USB_D+*%
X130545000Y-81475000D03*
%TO.P,J1,B7,D-*%
%TO.N,USB_D-*%
X130545000Y-82975000D03*
%TO.P,J1,B8,SBU2*%
%TO.N,unconnected-(J1-SBU2-PadB8)*%
X130545000Y-83975000D03*
D19*
%TO.P,J1,B9,VBUS*%
%TO.N,VBUS*%
X130545000Y-84675000D03*
%TO.P,J1,B12,GND*%
%TO.N,GND*%
X130545000Y-85475000D03*
D21*
%TO.P,J1,S1,SHIELD*%
X125450000Y-86545000D03*
D22*
X129630000Y-86545000D03*
D21*
X125450000Y-77905000D03*
D22*
X129630000Y-77905000D03*
%TD*%
D23*
%TO.P,C13,1*%
%TO.N,+3V3*%
X156632500Y-80450000D03*
%TO.P,C13,2*%
%TO.N,GND*%
X157767500Y-80450000D03*
%TD*%
D18*
%TO.P,C3,1*%
%TO.N,+3V3*%
X142817500Y-77950000D03*
%TO.P,C3,2*%
%TO.N,GND*%
X141682500Y-77950000D03*
%TD*%
%TO.P,C11,1*%
%TO.N,+3V3*%
X147667500Y-84600000D03*
%TO.P,C11,2*%
%TO.N,GND*%
X146532500Y-84600000D03*
%TD*%
D24*
%TO.P,Y1,1,1*%
%TO.N,Net-(U2-XIN)*%
X159800000Y-79550000D03*
%TO.P,Y1,2,2*%
%TO.N,GND*%
X162000000Y-79550000D03*
%TO.P,Y1,3,3*%
%TO.N,Net-(C5-Pad2)*%
X162000000Y-81250000D03*
%TO.P,Y1,4,4*%
%TO.N,GND*%
X159800000Y-81250000D03*
%TD*%
D18*
%TO.P,C6,1*%
%TO.N,+1V1*%
X145017500Y-82700000D03*
%TO.P,C6,2*%
%TO.N,GND*%
X143882500Y-82700000D03*
%TD*%
%TO.P,C10,1*%
%TO.N,+3V3*%
X145017500Y-84600000D03*
%TO.P,C10,2*%
%TO.N,GND*%
X143882500Y-84600000D03*
%TD*%
D25*
%TO.P,D1,1,K*%
%TO.N,VBUS*%
X135800000Y-87800000D03*
%TO.P,D1,2,A*%
%TO.N,+3V3*%
X132500000Y-87800000D03*
%TD*%
D26*
%TO.P,C2,1*%
%TO.N,+3V3*%
X138450000Y-84812500D03*
%TO.P,C2,2*%
%TO.N,GND*%
X138450000Y-83087500D03*
%TD*%
D27*
%TO.P,U2,1,IOVDD*%
%TO.N,+3V3*%
X148450000Y-76562500D03*
%TO.P,U2,2,GPIO0*%
%TO.N,GP0*%
X148850001Y-76562500D03*
%TO.P,U2,3,GPIO1*%
%TO.N,GP1*%
X149250000Y-76562500D03*
%TO.P,U2,4,GPIO2*%
%TO.N,GP2*%
X149650000Y-76562500D03*
%TO.P,U2,5,GPIO3*%
%TO.N,GP3*%
X150050000Y-76562500D03*
%TO.P,U2,6,GPIO4*%
%TO.N,GP4*%
X150449999Y-76562500D03*
%TO.P,U2,7,GPIO5*%
%TO.N,GP5*%
X150850000Y-76562500D03*
%TO.P,U2,8,GPIO6*%
%TO.N,GP6*%
X151250000Y-76562500D03*
%TO.P,U2,9,GPIO7*%
%TO.N,GP7*%
X151650001Y-76562500D03*
%TO.P,U2,10,IOVDD*%
%TO.N,+3V3*%
X152050000Y-76562500D03*
%TO.P,U2,11,GPIO8*%
%TO.N,GP8*%
X152450000Y-76562500D03*
%TO.P,U2,12,GPIO9*%
%TO.N,GP9*%
X152850000Y-76562500D03*
%TO.P,U2,13,GPIO10*%
%TO.N,GP10*%
X153249999Y-76562500D03*
%TO.P,U2,14,GPIO11*%
%TO.N,GP11*%
X153650000Y-76562500D03*
D28*
%TO.P,U2,15,GPIO12*%
%TO.N,SDA*%
X154487500Y-77400000D03*
%TO.P,U2,16,GPIO13*%
%TO.N,SCL*%
X154487500Y-77800001D03*
%TO.P,U2,17,GPIO14*%
%TO.N,RE_B*%
X154487500Y-78200000D03*
%TO.P,U2,18,GPIO15*%
%TO.N,RE_A*%
X154487500Y-78600000D03*
%TO.P,U2,19,TESTEN*%
%TO.N,GND*%
X154487500Y-79000000D03*
%TO.P,U2,20,XIN*%
%TO.N,Net-(U2-XIN)*%
X154487500Y-79399999D03*
%TO.P,U2,21,XOUT*%
%TO.N,Net-(U2-XOUT)*%
X154487500Y-79800000D03*
%TO.P,U2,22,IOVDD*%
%TO.N,+3V3*%
X154487500Y-80200000D03*
%TO.P,U2,23,DVDD*%
%TO.N,+1V1*%
X154487500Y-80600001D03*
%TO.P,U2,24,SWCLK*%
%TO.N,Net-(U2-SWCLK)*%
X154487500Y-81000000D03*
%TO.P,U2,25,SWD*%
%TO.N,Net-(U2-SWD)*%
X154487500Y-81400000D03*
%TO.P,U2,26,RUN*%
%TO.N,Net-(U2-RUN)*%
X154487500Y-81800000D03*
%TO.P,U2,27,GPIO16*%
%TO.N,RE_SW*%
X154487500Y-82199999D03*
%TO.P,U2,28,GPIO17*%
%TO.N,SW_D*%
X154487500Y-82600000D03*
D27*
%TO.P,U2,29,GPIO18*%
%TO.N,GP18*%
X153650000Y-83437500D03*
%TO.P,U2,30,GPIO19*%
%TO.N,GP19*%
X153249999Y-83437500D03*
%TO.P,U2,31,GPIO20*%
%TO.N,GP20*%
X152850000Y-83437500D03*
%TO.P,U2,32,GPIO21*%
%TO.N,GP21*%
X152450000Y-83437500D03*
%TO.P,U2,33,IOVDD*%
%TO.N,+3V3*%
X152050000Y-83437500D03*
%TO.P,U2,34,GPIO22*%
%TO.N,GP22*%
X151650001Y-83437500D03*
%TO.P,U2,35,GPIO23*%
%TO.N,GP23*%
X151250000Y-83437500D03*
%TO.P,U2,36,GPIO24*%
%TO.N,GP24*%
X150850000Y-83437500D03*
%TO.P,U2,37,GPIO25*%
%TO.N,GP25*%
X150449999Y-83437500D03*
%TO.P,U2,38,GPIO26_ADC0*%
%TO.N,GP26*%
X150050000Y-83437500D03*
%TO.P,U2,39,GPIO27_ADC1*%
%TO.N,SW_C*%
X149650000Y-83437500D03*
%TO.P,U2,40,GPIO28_ADC2*%
%TO.N,SW_B*%
X149250000Y-83437500D03*
%TO.P,U2,41,GPIO29_ADC3*%
%TO.N,SW_A*%
X148850001Y-83437500D03*
%TO.P,U2,42,IOVDD*%
%TO.N,+3V3*%
X148450000Y-83437500D03*
D28*
%TO.P,U2,43,ADC_AVDD*%
X147612500Y-82600000D03*
%TO.P,U2,44,VREG_IN*%
X147612500Y-82199999D03*
%TO.P,U2,45,VREG_VOUT*%
%TO.N,+1V1*%
X147612500Y-81800000D03*
%TO.P,U2,46,USB_DM*%
%TO.N,Net-(U2-USB_DM)*%
X147612500Y-81400000D03*
%TO.P,U2,47,USB_DP*%
%TO.N,Net-(U2-USB_DP)*%
X147612500Y-81000000D03*
%TO.P,U2,48,USB_VDD*%
%TO.N,+3V3*%
X147612500Y-80600001D03*
%TO.P,U2,49,IOVDD*%
X147612500Y-80200000D03*
%TO.P,U2,50,DVDD*%
%TO.N,+1V1*%
X147612500Y-79800000D03*
%TO.P,U2,51,QSPI_SD3*%
%TO.N,QSPI_SD3*%
X147612500Y-79399999D03*
%TO.P,U2,52,QSPI_SCLK*%
%TO.N,QSPI_SCLK*%
X147612500Y-79000000D03*
%TO.P,U2,53,QSPI_SD0*%
%TO.N,QSPI_SD0*%
X147612500Y-78600000D03*
%TO.P,U2,54,QSPI_SD2*%
%TO.N,QSPI_SD2*%
X147612500Y-78200000D03*
%TO.P,U2,55,QSPI_SD1*%
%TO.N,QSPI_SD1*%
X147612500Y-77800001D03*
%TO.P,U2,56,QSPI_SS*%
%TO.N,QSPI_SS*%
X147612500Y-77400000D03*
D29*
%TO.P,U2,57,GND*%
%TO.N,GND*%
X152325000Y-78725000D03*
X151050000Y-78725000D03*
X149775000Y-78725000D03*
X152325000Y-80000000D03*
X151050000Y-80000000D03*
D30*
X151050000Y-80000000D03*
D29*
X149775000Y-80000000D03*
X152325000Y-81275000D03*
X151050000Y-81275000D03*
X149775000Y-81275000D03*
%TD*%
D18*
%TO.P,C17,1*%
%TO.N,+3V3*%
X145017500Y-79850000D03*
%TO.P,C17,2*%
%TO.N,GND*%
X143882500Y-79850000D03*
%TD*%
D31*
%TO.P,R1,1*%
%TO.N,Net-(J1-CC1)*%
X132452500Y-82750000D03*
%TO.P,R1,2*%
%TO.N,GND*%
X133647500Y-82750000D03*
%TD*%
D23*
%TO.P,C7,1*%
%TO.N,+1V1*%
X156632500Y-81400000D03*
%TO.P,C7,2*%
%TO.N,GND*%
X157767500Y-81400000D03*
%TD*%
D13*
%TO.P,J3,1,Pin_1*%
%TO.N,GP0*%
X138350000Y-72380000D03*
%TO.P,J3,2,Pin_2*%
%TO.N,GP1*%
X140890000Y-72380000D03*
%TO.P,J3,3,Pin_3*%
%TO.N,GP2*%
X143430000Y-72380000D03*
%TO.P,J3,4,Pin_4*%
%TO.N,GP3*%
X145970000Y-72380000D03*
%TO.P,J3,5,Pin_5*%
%TO.N,GP4*%
X148510000Y-72380000D03*
%TO.P,J3,6,Pin_6*%
%TO.N,GP5*%
X151050000Y-72380000D03*
%TO.P,J3,7,Pin_7*%
%TO.N,GP6*%
X153590000Y-72380000D03*
%TO.P,J3,8,Pin_8*%
%TO.N,GP7*%
X156130000Y-72380000D03*
%TO.P,J3,9,Pin_9*%
%TO.N,GP8*%
X158670000Y-72380000D03*
%TO.P,J3,10,Pin_10*%
%TO.N,GP9*%
X161210000Y-72380000D03*
%TO.P,J3,11,Pin_11*%
%TO.N,GP10*%
X163750000Y-72380000D03*
%TO.P,J3,12,Pin_12*%
%TO.N,GP11*%
X166290000Y-72380000D03*
%TD*%
D31*
%TO.P,R2,1*%
%TO.N,Net-(J1-CC2)*%
X132302500Y-79800000D03*
%TO.P,R2,2*%
%TO.N,GND*%
X133497500Y-79800000D03*
%TD*%
D32*
%TO.P,U3,1,~{CS}*%
%TO.N,QSPI_SS*%
X141092500Y-76950000D03*
%TO.P,U3,2,DO/IO_{1}*%
%TO.N,QSPI_SD1*%
X141092500Y-76450000D03*
%TO.P,U3,3,~{WP}/IO_{2}*%
%TO.N,QSPI_SD2*%
X141092500Y-75950000D03*
%TO.P,U3,4,GND*%
%TO.N,GND*%
X141092500Y-75450000D03*
%TO.P,U3,5,DI/IO_{0}*%
%TO.N,QSPI_SD0*%
X143942500Y-75450000D03*
%TO.P,U3,6,CLK*%
%TO.N,QSPI_SCLK*%
X143942500Y-75950000D03*
%TO.P,U3,7,~{HOLD}/~{RESET}/IO_{3}*%
%TO.N,QSPI_SD3*%
X143942500Y-76450000D03*
%TO.P,U3,8,VCC*%
%TO.N,+3V3*%
X143942500Y-76950000D03*
D33*
%TO.P,U3,9,MP*%
%TO.N,GND*%
X142517500Y-76200000D03*
%TD*%
D34*
%TO.P,TP1,1,1*%
%TO.N,Net-(U2-RUN)*%
X178300000Y-80000000D03*
%TD*%
D35*
%TO.P,R6,1*%
%TO.N,Net-(U2-XOUT)*%
X159550000Y-82950000D03*
%TO.P,R6,2*%
%TO.N,Net-(C5-Pad2)*%
X161375000Y-82950000D03*
%TD*%
D12*
%TO.P,TP3,1,1*%
%TO.N,Net-(U2-SWD)*%
X169790000Y-83820000D03*
%TD*%
D18*
%TO.P,C9,1*%
%TO.N,+3V3*%
X145017500Y-83650000D03*
%TO.P,C9,2*%
%TO.N,GND*%
X143882500Y-83650000D03*
%TD*%
%TO.P,C16,1*%
%TO.N,+3V3*%
X145017500Y-78900000D03*
%TO.P,C16,2*%
%TO.N,GND*%
X143882500Y-78900000D03*
%TD*%
D31*
%TO.P,R4,1*%
%TO.N,USB_D-*%
X144502500Y-81750000D03*
%TO.P,R4,2*%
%TO.N,Net-(U2-USB_DM)*%
X145697500Y-81750000D03*
%TD*%
%TO.P,R3,1*%
%TO.N,USB_D+*%
X144502499Y-80800000D03*
%TO.P,R3,2*%
%TO.N,Net-(U2-USB_DP)*%
X145697499Y-80800000D03*
%TD*%
D36*
%TO.P,JP1,1,A*%
%TO.N,GND*%
X135300000Y-71700000D03*
D37*
%TO.P,JP1,2,B*%
%TO.N,Net-(JP1-B)*%
X135300000Y-73000000D03*
%TD*%
D38*
%TO.P,C1,1*%
%TO.N,VBUS*%
X133200000Y-84137500D03*
%TO.P,C1,2*%
%TO.N,GND*%
X133200000Y-85862500D03*
%TD*%
D23*
%TO.P,C14,1*%
%TO.N,+3V3*%
X152332500Y-74610000D03*
%TO.P,C14,2*%
%TO.N,GND*%
X153467500Y-74610000D03*
%TD*%
D12*
%TO.P,TP2,1,1*%
%TO.N,Net-(U2-SWCLK)*%
X169790000Y-76190000D03*
%TD*%
D23*
%TO.P,C12,1*%
%TO.N,+3V3*%
X152522500Y-85390000D03*
%TO.P,C12,2*%
%TO.N,GND*%
X153657500Y-85390000D03*
%TD*%
D18*
%TO.P,C8,1*%
%TO.N,+1V1*%
X145017500Y-77950000D03*
%TO.P,C8,2*%
%TO.N,GND*%
X143882500Y-77950000D03*
%TD*%
D39*
%TO.P,U1,1,GND*%
%TO.N,GND*%
X135000000Y-83212500D03*
%TO.P,U1,2,VO*%
%TO.N,+3V3*%
X136900000Y-83212500D03*
%TO.P,U1,3,VI*%
%TO.N,VBUS*%
X135950000Y-85487500D03*
%TD*%
D40*
%TO.N,GND*%
X163500000Y-76450000D03*
X164100000Y-78150000D03*
X164700000Y-80400000D03*
X140750000Y-77950000D03*
X157300000Y-74950000D03*
X134150000Y-83500000D03*
X155800000Y-78949999D03*
X139600000Y-83200000D03*
X161550000Y-75800000D03*
X146500000Y-74600000D03*
X154350000Y-74610000D03*
X142450000Y-79850000D03*
X136700000Y-71200000D03*
X140750000Y-79850000D03*
X164500000Y-83800000D03*
X159600000Y-75250000D03*
X167900000Y-88800000D03*
X167900000Y-71200000D03*
X142800000Y-83200000D03*
X154600000Y-85400000D03*
X157950000Y-82650000D03*
X146550000Y-85350000D03*
X172500000Y-76900000D03*
X157400000Y-88200000D03*
X129600000Y-71200000D03*
X152300000Y-71200000D03*
%TO.N,+3V3*%
X141700000Y-84850000D03*
X141700000Y-79550000D03*
D41*
%TO.N,+1V1*%
X148950000Y-80700000D03*
X153150000Y-80600000D03*
D40*
X144558217Y-77444304D03*
D41*
X155800000Y-80900000D03*
D40*
%TO.N,SDA*%
X156450000Y-77550000D03*
%TO.N,SCL*%
X155750000Y-77550000D03*
%TO.N,RE_SW*%
X155650000Y-83250000D03*
%TO.N,SW_A*%
X147500000Y-85500000D03*
%TO.N,SW_B*%
X146557731Y-85994128D03*
%TO.N,SW_C*%
X147250000Y-86700000D03*
%TO.N,SW_D*%
X155000000Y-83250000D03*
%TO.N,Net-(U2-RUN)*%
X157050000Y-83250000D03*
X168176000Y-85387604D03*
%TO.N,Net-(U2-SWCLK)*%
X157050002Y-82649998D03*
%TO.N,Net-(U2-SWD)*%
X156450000Y-82650000D03*
%TD*%
D42*
%TO.N,RE_B*%
X154487500Y-78200000D02*
X154489501Y-78197999D01*
X154489501Y-78197999D02*
X158102001Y-78197999D01*
X158102001Y-78197999D02*
X159436500Y-76863500D01*
X162913500Y-76863500D02*
X163326000Y-77276000D01*
X159436500Y-76863500D02*
X162913500Y-76863500D01*
X163326000Y-77276000D02*
X171024000Y-77276000D01*
X171024000Y-77276000D02*
X175800000Y-72500000D01*
%TO.N,RE_A*%
X156087812Y-78600000D02*
X158305956Y-78600000D01*
X158305956Y-78600000D02*
X159706956Y-77199000D01*
X163101322Y-77577000D02*
X175723000Y-77577000D01*
X159706956Y-77199000D02*
X162723322Y-77199000D01*
X162723322Y-77199000D02*
X163101322Y-77577000D01*
%TO.N,GND*%
X161675000Y-77900000D02*
X161675000Y-79225000D01*
X161675000Y-79225000D02*
X162000000Y-79550000D01*
%TO.N,Net-(U2-XIN)*%
X160125000Y-77900000D02*
X160125000Y-79225000D01*
X160125000Y-79225000D02*
X159800000Y-79550000D01*
%TO.N,Net-(C5-Pad2)*%
X163750000Y-81175000D02*
X162075000Y-81175000D01*
X162075000Y-81175000D02*
X162000000Y-81250000D01*
%TO.N,GND*%
X163750000Y-79625000D02*
X162075000Y-79625000D01*
X162075000Y-79625000D02*
X162000000Y-79550000D01*
X154487500Y-79000000D02*
X155749999Y-79000000D01*
D43*
X134150000Y-83252500D02*
X133647500Y-82750000D01*
D42*
X157767500Y-80450000D02*
X157767500Y-81400000D01*
D43*
X141682500Y-77950000D02*
X142517500Y-77115000D01*
D42*
X146532500Y-84600000D02*
X146532500Y-85332500D01*
D43*
X143882500Y-79850000D02*
X143050000Y-79850000D01*
D42*
X146532500Y-85332500D02*
X146550000Y-85350000D01*
D43*
X143882500Y-77950000D02*
X143882500Y-79850000D01*
X142517500Y-76017500D02*
X142517500Y-76200000D01*
D42*
X161750000Y-79550000D02*
X160050000Y-81250000D01*
D43*
X143050000Y-79850000D02*
X142800000Y-79600000D01*
D42*
X157767500Y-81400000D02*
X157767500Y-82467500D01*
D43*
X141092500Y-75450000D02*
X141950000Y-75450000D01*
D42*
X155749999Y-79000000D02*
X155800000Y-78949999D01*
X153467500Y-74610000D02*
X154350000Y-74610000D01*
D43*
X134150000Y-83500000D02*
X134712500Y-83500000D01*
X134150000Y-83500000D02*
X134150000Y-83252500D01*
D42*
X157767500Y-82467500D02*
X157950000Y-82650000D01*
D43*
X141950000Y-75450000D02*
X142517500Y-76017500D01*
X134712500Y-83500000D02*
X135000000Y-83212500D01*
D42*
X153657500Y-85390000D02*
X154590000Y-85390000D01*
X154590000Y-85390000D02*
X154600000Y-85400000D01*
D43*
X146532500Y-74632500D02*
X146500000Y-74600000D01*
D42*
X162000000Y-79550000D02*
X161750000Y-79550000D01*
D43*
X142517500Y-77115000D02*
X142517500Y-76200000D01*
D42*
X160050000Y-81250000D02*
X159800000Y-81250000D01*
D43*
X141682500Y-77950000D02*
X140750000Y-77950000D01*
X146532500Y-75400000D02*
X146532500Y-74632500D01*
X143882500Y-84600000D02*
X143882500Y-82700000D01*
D44*
%TO.N,VBUS*%
X129049000Y-80627000D02*
X129901000Y-79775000D01*
X129049000Y-83956000D02*
X129049000Y-80627000D01*
X134550000Y-85487500D02*
X133200000Y-84137500D01*
X138350000Y-87640000D02*
X138102500Y-87640000D01*
D45*
X135950000Y-85487500D02*
X135950000Y-87650000D01*
D44*
X130545000Y-84675000D02*
X129768000Y-84675000D01*
D45*
X135950000Y-87650000D02*
X135800000Y-87800000D01*
D44*
X129901000Y-79775000D02*
X130545000Y-79775000D01*
X129768000Y-84675000D02*
X129049000Y-83956000D01*
X133200000Y-84137500D02*
X132662500Y-84675000D01*
X138102500Y-87640000D02*
X135950000Y-85487500D01*
X132662500Y-84675000D02*
X130545000Y-84675000D01*
X135950000Y-85487500D02*
X134550000Y-85487500D01*
%TO.N,+3V3*%
X167551000Y-79981000D02*
X166300000Y-78730000D01*
D43*
X145350000Y-78900000D02*
X145017500Y-78900000D01*
X145017500Y-84600000D02*
X145017500Y-86052500D01*
X147000001Y-82199999D02*
X145550000Y-83650000D01*
X148450000Y-76562500D02*
X148450000Y-76182500D01*
D44*
X136900000Y-83262500D02*
X138450000Y-84812500D01*
D43*
X148450000Y-76182500D02*
X147667500Y-75400000D01*
X148250000Y-80600000D02*
X148300000Y-80600000D01*
X147667500Y-82655000D02*
X147612500Y-82600000D01*
X142817500Y-77950000D02*
X142817500Y-78432500D01*
X153850000Y-80200000D02*
X153650000Y-80000000D01*
X147612500Y-80600001D02*
X146450001Y-80600001D01*
X133491000Y-88791000D02*
X132500000Y-87800000D01*
X147612500Y-82199999D02*
X148149999Y-82199999D01*
X143817500Y-76950000D02*
X143942500Y-76950000D01*
X152050000Y-83437500D02*
X152050000Y-82600000D01*
X147612500Y-82600000D02*
X147300000Y-82600000D01*
D44*
X143430000Y-87640000D02*
X145017500Y-86052500D01*
D43*
X154487500Y-80200000D02*
X153850000Y-80200000D01*
X147612500Y-80200000D02*
X146650000Y-80200000D01*
X145550000Y-83650000D02*
X145017500Y-83650000D01*
X152050000Y-84917500D02*
X152522500Y-85390000D01*
X146650000Y-80200000D02*
X145350000Y-78900000D01*
X147612500Y-82199999D02*
X147000001Y-82199999D01*
X147667500Y-84600000D02*
X147667500Y-82655000D01*
X146450001Y-80600001D02*
X145700000Y-79850000D01*
X145300000Y-84600000D02*
X145017500Y-84600000D01*
X152050000Y-76562500D02*
X152050000Y-77400000D01*
X148149999Y-82199999D02*
X148250000Y-82300000D01*
X142817500Y-77950000D02*
X143817500Y-76950000D01*
D44*
X136900000Y-83212500D02*
X136900000Y-83262500D01*
D43*
X152050000Y-74892500D02*
X152332500Y-74610000D01*
X152050000Y-83437500D02*
X152050000Y-84917500D01*
X148450000Y-83437500D02*
X148450000Y-83817500D01*
X142279000Y-88791000D02*
X133491000Y-88791000D01*
X145700000Y-79850000D02*
X145017500Y-79850000D01*
X147612500Y-80600000D02*
X148250000Y-80600000D01*
X152050000Y-76562500D02*
X152050000Y-74892500D01*
X147612500Y-80200000D02*
X148450000Y-80200000D01*
D44*
X143430000Y-87640000D02*
X144681000Y-88891000D01*
D43*
X143430000Y-87640000D02*
X142279000Y-88791000D01*
X148450000Y-76562500D02*
X148450000Y-77400000D01*
X147300000Y-82600000D02*
X145300000Y-84600000D01*
X156382500Y-80200000D02*
X156632500Y-80450000D01*
X148300000Y-80600000D02*
X148349000Y-80551000D01*
D44*
X144681000Y-88891000D02*
X166301000Y-88891000D01*
D43*
X154487500Y-80200000D02*
X156382500Y-80200000D01*
X148450000Y-83817500D02*
X147667500Y-84600000D01*
X142817500Y-78432500D02*
X141700000Y-79550000D01*
D44*
X167551000Y-87641000D02*
X167551000Y-79981000D01*
X166301000Y-88891000D02*
G75*
G03*
X167551000Y-87641000I0J1250000D01*
G01*
D43*
%TO.N,+1V1*%
X145090543Y-77950000D02*
X145017500Y-77950000D01*
X154487500Y-80600001D02*
X155500001Y-80600001D01*
X147612500Y-79800000D02*
X146940543Y-79800000D01*
X145761386Y-82700000D02*
X145017500Y-82700000D01*
X147612500Y-81800000D02*
X148450000Y-81800000D01*
X156300000Y-81400000D02*
X155800000Y-80900000D01*
X146661386Y-81800000D02*
X145761386Y-82700000D01*
X145017500Y-77903587D02*
X144558217Y-77444304D01*
X145017500Y-77950000D02*
X145017500Y-77903587D01*
X156632500Y-81400000D02*
X156300000Y-81400000D01*
X147612500Y-81800000D02*
X146661386Y-81800000D01*
X146940543Y-79800000D02*
X145090543Y-77950000D01*
X155500001Y-80600001D02*
X155800000Y-80900000D01*
D42*
%TO.N,Net-(U2-XIN)*%
X159800000Y-79550000D02*
X159650000Y-79400000D01*
X159650000Y-79400000D02*
X154487500Y-79399999D01*
%TO.N,Net-(C5-Pad2)*%
X162000000Y-81250000D02*
X162000000Y-82325000D01*
X162000000Y-82325000D02*
X161375000Y-82950000D01*
D43*
%TO.N,USB_D-*%
X131470000Y-82975000D02*
X131575000Y-82870000D01*
D46*
X144502500Y-81750000D02*
X132500000Y-81750000D01*
D43*
X130545000Y-81975000D02*
X131575000Y-81975000D01*
X131800000Y-81750000D02*
X132500000Y-81750000D01*
X131575000Y-81975000D02*
X131800000Y-81750000D01*
X131575000Y-82870000D02*
X131575000Y-81975000D01*
X130545000Y-82975000D02*
X131470000Y-82975000D01*
D42*
%TO.N,Net-(J1-CC1)*%
X130545000Y-83475000D02*
X131727500Y-83475000D01*
X131727500Y-83475000D02*
X132452500Y-82750000D01*
D43*
%TO.N,USB_D+*%
X129675000Y-82475000D02*
X130545000Y-82475000D01*
X130545000Y-81475000D02*
X129675000Y-81475000D01*
X129550000Y-82350000D02*
X129675000Y-82475000D01*
X131325000Y-81475000D02*
X132000000Y-80800000D01*
X130545000Y-81475000D02*
X131325000Y-81475000D01*
X129550000Y-81600000D02*
X129550000Y-82350000D01*
X132000000Y-80800000D02*
X132500000Y-80800000D01*
D46*
X144502499Y-80800000D02*
X132500000Y-80800000D01*
D43*
X129675000Y-81475000D02*
X129550000Y-81600000D01*
D42*
%TO.N,Net-(J1-CC2)*%
X130545000Y-80475000D02*
X131627500Y-80475000D01*
X131627500Y-80475000D02*
X132302500Y-79800000D01*
%TO.N,SDA*%
X155999000Y-77099000D02*
X156450000Y-77550000D01*
X154788500Y-77099000D02*
X155999000Y-77099000D01*
X154487500Y-77400000D02*
X154788500Y-77099000D01*
%TO.N,SCL*%
X155499999Y-77800001D02*
X155750000Y-77550000D01*
X154487500Y-77800001D02*
X155499999Y-77800001D01*
%TO.N,GP24*%
X150850000Y-83437500D02*
X150850000Y-87440000D01*
X150850000Y-87440000D02*
X151050000Y-87640000D01*
%TO.N,GP19*%
X153249999Y-83437500D02*
X153249999Y-83875000D01*
X160210000Y-84100000D02*
X163750000Y-87640000D01*
X153474999Y-84100000D02*
X160210000Y-84100000D01*
X153249999Y-83875000D02*
X153474999Y-84100000D01*
%TO.N,GP21*%
X153323643Y-84800000D02*
X155830000Y-84800000D01*
X155830000Y-84800000D02*
X158670000Y-87640000D01*
X152450000Y-83437500D02*
X152450000Y-83926357D01*
X152450000Y-83926357D02*
X153323643Y-84800000D01*
%TO.N,GP26*%
X146960000Y-87640000D02*
X145970000Y-87640000D01*
X150050000Y-83437500D02*
X150050000Y-84550000D01*
X150050000Y-84550000D02*
X146960000Y-87640000D01*
%TO.N,GP25*%
X150449999Y-83437500D02*
X150449999Y-85700001D01*
X150449999Y-85700001D02*
X148510000Y-87640000D01*
%TO.N,GP23*%
X152890000Y-87640000D02*
X153590000Y-87640000D01*
X151250000Y-83437500D02*
X151250000Y-86000000D01*
X151250000Y-86000000D02*
X152890000Y-87640000D01*
%TO.N,GP22*%
X151650001Y-83437500D02*
X151650001Y-85498823D01*
X152551178Y-86400000D02*
X154890000Y-86400000D01*
X154890000Y-86400000D02*
X156130000Y-87640000D01*
X151650001Y-85498823D02*
X152551178Y-86400000D01*
%TO.N,GP20*%
X153399321Y-84450000D02*
X158020000Y-84450000D01*
X152850000Y-83900679D02*
X153399321Y-84450000D01*
X152850000Y-83437500D02*
X152850000Y-83900679D01*
X158020000Y-84450000D02*
X161210000Y-87640000D01*
%TO.N,GP1*%
X149250000Y-76562500D02*
X149250000Y-75551356D01*
X142267000Y-73777000D02*
X140890000Y-72400000D01*
X149250000Y-75551356D02*
X147475644Y-73777000D01*
X147475644Y-73777000D02*
X142267000Y-73777000D01*
%TO.N,GP5*%
X150850000Y-76562500D02*
X150850000Y-72600000D01*
X150850000Y-72600000D02*
X151050000Y-72400000D01*
%TO.N,GP3*%
X150050000Y-75500000D02*
X146950000Y-72400000D01*
X150050000Y-76562500D02*
X150050000Y-75500000D01*
X146950000Y-72400000D02*
X145970000Y-72400000D01*
%TO.N,GP8*%
X153323643Y-75200000D02*
X155870000Y-75200000D01*
X155870000Y-75200000D02*
X158670000Y-72400000D01*
X152450000Y-76562500D02*
X152450000Y-76073643D01*
X152450000Y-76073643D02*
X153323643Y-75200000D01*
%TO.N,GP0*%
X140028000Y-74078000D02*
X138350000Y-72400000D01*
X147350966Y-74078000D02*
X140028000Y-74078000D01*
X148850001Y-76562500D02*
X148850001Y-75577035D01*
X148850001Y-75577035D02*
X147350966Y-74078000D01*
%TO.N,GP2*%
X149650000Y-76562500D02*
X149650000Y-75525678D01*
X149650000Y-75525678D02*
X147600322Y-73476000D01*
X147600322Y-73476000D02*
X144506000Y-73476000D01*
X144506000Y-73476000D02*
X143430000Y-72400000D01*
%TO.N,GP10*%
X153249999Y-76562500D02*
X153249999Y-76125000D01*
X153474999Y-75900000D02*
X160250000Y-75900000D01*
X160250000Y-75900000D02*
X163750000Y-72400000D01*
X153249999Y-76125000D02*
X153474999Y-75900000D01*
%TO.N,GP6*%
X151250000Y-76562500D02*
X151250000Y-74050000D01*
X151250000Y-74050000D02*
X152900000Y-72400000D01*
X152900000Y-72400000D02*
X153590000Y-72400000D01*
%TO.N,GP18*%
X162400000Y-83750000D02*
X166290000Y-87640000D01*
X153962500Y-83750000D02*
X162400000Y-83750000D01*
X153650000Y-83437500D02*
X153962500Y-83750000D01*
%TO.N,GP9*%
X152850000Y-76099321D02*
X153399321Y-75550000D01*
X153399321Y-75550000D02*
X158060000Y-75550000D01*
X158060000Y-75550000D02*
X161210000Y-72400000D01*
X152850000Y-76562500D02*
X152850000Y-76099321D01*
%TO.N,GP4*%
X150450000Y-75425856D02*
X150449999Y-75425855D01*
X148650000Y-72400000D02*
X148510000Y-72400000D01*
X150449999Y-76562500D02*
X150450000Y-75425856D01*
X150449999Y-74199999D02*
X148650000Y-72400000D01*
X150449999Y-75425855D02*
X150449999Y-74199999D01*
%TO.N,GP7*%
X151650001Y-74249999D02*
X152424000Y-73476000D01*
X151650001Y-76562500D02*
X151650001Y-74249999D01*
X155054000Y-73476000D02*
X156130000Y-72400000D01*
X152424000Y-73476000D02*
X155054000Y-73476000D01*
%TO.N,Net-(JP1-B)*%
X138800000Y-74987500D02*
X137287500Y-74987500D01*
X137287500Y-74987500D02*
X135300000Y-73000000D01*
%TO.N,QSPI_SS*%
X140419644Y-74379000D02*
X139798000Y-75000644D01*
X140732768Y-76950000D02*
X141092500Y-76950000D01*
X139000732Y-76812500D02*
X139798000Y-76015232D01*
X138800000Y-76812500D02*
X139000732Y-76812500D01*
X139798000Y-76015232D02*
X140732768Y-76950000D01*
X144591500Y-74379000D02*
X140419644Y-74379000D01*
X139798000Y-75000644D02*
X139798000Y-76015232D01*
X147612500Y-77400000D02*
X144591500Y-74379000D01*
%TO.N,Net-(U2-USB_DP)*%
X147612500Y-81000000D02*
X145897499Y-81000000D01*
X145897499Y-81000000D02*
X145697499Y-80800000D01*
%TO.N,RE_A*%
X155613189Y-78498999D02*
X155986811Y-78498999D01*
X175723000Y-77577000D02*
X180800000Y-72500000D01*
X155512188Y-78600000D02*
X155613189Y-78498999D01*
X155986811Y-78498999D02*
X156087812Y-78600000D01*
X154487500Y-78600000D02*
X155512188Y-78600000D01*
%TO.N,RE_SW*%
X155650000Y-82930000D02*
X155650000Y-83250000D01*
X154487500Y-82199999D02*
X154919999Y-82199999D01*
X154919999Y-82199999D02*
X155650000Y-82930000D01*
%TO.N,SW_A*%
X147748822Y-85500000D02*
X148850001Y-84398821D01*
X147500000Y-85500000D02*
X147748822Y-85500000D01*
X148850001Y-84398821D02*
X148850001Y-83437500D01*
%TO.N,SW_B*%
X149250000Y-84424500D02*
X149250000Y-83437500D01*
X146663603Y-86100000D02*
X147574500Y-86100000D01*
X147574500Y-86100000D02*
X149250000Y-84424500D01*
X146557731Y-85994128D02*
X146663603Y-86100000D01*
%TO.N,SW_C*%
X149650000Y-84524322D02*
X147474322Y-86700000D01*
X147474322Y-86700000D02*
X147250000Y-86700000D01*
X149650000Y-83437500D02*
X149650000Y-84524322D01*
%TO.N,SW_D*%
X154487500Y-82600000D02*
X154487500Y-82737500D01*
X154487500Y-82737500D02*
X155000000Y-83250000D01*
%TO.N,Net-(U2-USB_DM)*%
X146047500Y-81400000D02*
X145697500Y-81750000D01*
X147612500Y-81400000D02*
X146047500Y-81400000D01*
%TO.N,Net-(U2-XOUT)*%
X159550000Y-82950000D02*
X159000000Y-82950000D01*
X158500000Y-82450000D02*
X158500000Y-80300000D01*
X158000000Y-79800000D02*
X154487500Y-79800000D01*
X158500000Y-82450000D02*
G75*
G03*
X159000000Y-82950000I500000J0D01*
G01*
X158500000Y-80300000D02*
G75*
G03*
X158000000Y-79800000I-500000J0D01*
G01*
%TO.N,Net-(U2-RUN)*%
X154962189Y-81800000D02*
X156412189Y-83250000D01*
X168176000Y-85387604D02*
X172912396Y-85387604D01*
X156412189Y-83250000D02*
X157050000Y-83250000D01*
X172912396Y-85387604D02*
X178300000Y-80000000D01*
X154487500Y-81800000D02*
X154962189Y-81800000D01*
%TO.N,QSPI_SCLK*%
X146047000Y-77949035D02*
X147097965Y-79000000D01*
X143942500Y-75950000D02*
X144459788Y-75950000D01*
X147097965Y-79000000D02*
X147612500Y-79000000D01*
X146047000Y-77537212D02*
X146047000Y-77949035D01*
X144459788Y-75950000D02*
X146047000Y-77537212D01*
%TO.N,QSPI_SD2*%
X140400000Y-75707499D02*
X140642501Y-75950000D01*
X146649000Y-77699679D02*
X146649000Y-77287856D01*
X140400000Y-75250000D02*
X140400000Y-75707499D01*
X144342144Y-74981000D02*
X140669000Y-74981000D01*
X147612500Y-78200000D02*
X147149321Y-78200000D01*
X147149321Y-78200000D02*
X146649000Y-77699679D01*
X140669000Y-74981000D02*
X140400000Y-75250000D01*
X146649000Y-77287856D02*
X144342144Y-74981000D01*
X140642501Y-75950000D02*
X141092500Y-75950000D01*
%TO.N,QSPI_SD0*%
X146348000Y-77412534D02*
X146348000Y-77824357D01*
X146348000Y-77824357D02*
X147123643Y-78600000D01*
X143942500Y-75450000D02*
X144385466Y-75450000D01*
X144385466Y-75450000D02*
X146348000Y-77412534D01*
X147123643Y-78600000D02*
X147612500Y-78600000D01*
%TO.N,QSPI_SD1*%
X147612500Y-77800001D02*
X147175000Y-77800001D01*
X140099000Y-75832177D02*
X140716823Y-76450000D01*
X146950000Y-77575001D02*
X146950000Y-77163178D01*
X140544322Y-74680000D02*
X140099000Y-75125322D01*
X144466822Y-74680000D02*
X140544322Y-74680000D01*
X146950000Y-77163178D02*
X144466822Y-74680000D01*
X140716823Y-76450000D02*
X141092500Y-76450000D01*
X140099000Y-75125322D02*
X140099000Y-75832177D01*
X147175000Y-77800001D02*
X146950000Y-77575001D01*
%TO.N,QSPI_SD3*%
X147072286Y-79399999D02*
X147612500Y-79399999D01*
X145746000Y-78073713D02*
X147072286Y-79399999D01*
X143942500Y-76450000D02*
X144534110Y-76450000D01*
X145746000Y-77661890D02*
X145746000Y-78073713D01*
X144534110Y-76450000D02*
X145746000Y-77661890D01*
%TO.N,Net-(U2-SWCLK)*%
X157050002Y-82600002D02*
X157050002Y-82649998D01*
X156500000Y-82050000D02*
X157050002Y-82600002D01*
X154487500Y-81000000D02*
X155051178Y-81000000D01*
X156101178Y-82050000D02*
X156500000Y-82050000D01*
X155051178Y-81000000D02*
X156101178Y-82050000D01*
%TO.N,Net-(U2-SWD)*%
X155025500Y-81400000D02*
X156275500Y-82650000D01*
X154487500Y-81400000D02*
X155025500Y-81400000D01*
X156275500Y-82650000D02*
X156450000Y-82650000D01*
%TO.N,GP11*%
X153650000Y-76562500D02*
X162127500Y-76562500D01*
X162127500Y-76562500D02*
X166290000Y-72400000D01*
%TD*%
%TA.AperFunction,Conductor*%
%TO.N,GND*%
G36*
X133162684Y-70819407D02*
G01*
X133198648Y-70868907D01*
X133198648Y-70930093D01*
X133162684Y-70979593D01*
X133153994Y-70985236D01*
X133146637Y-70989483D01*
X133039481Y-71096639D01*
X132963720Y-71227860D01*
X132949672Y-71280289D01*
X132924500Y-71374234D01*
X132924500Y-71525766D01*
X132942992Y-71594780D01*
X132963720Y-71672139D01*
X133039481Y-71803360D01*
X133039483Y-71803362D01*
X133039485Y-71803365D01*
X133146635Y-71910515D01*
X133146637Y-71910516D01*
X133146639Y-71910518D01*
X133277861Y-71986279D01*
X133277859Y-71986279D01*
X133277863Y-71986280D01*
X133277865Y-71986281D01*
X133424234Y-72025500D01*
X133424236Y-72025500D01*
X133575764Y-72025500D01*
X133575766Y-72025500D01*
X133722135Y-71986281D01*
X133722137Y-71986279D01*
X133722139Y-71986279D01*
X133853360Y-71910518D01*
X133853360Y-71910517D01*
X133853365Y-71910515D01*
X133960515Y-71803365D01*
X133975344Y-71777680D01*
X134036279Y-71672139D01*
X134036279Y-71672137D01*
X134036281Y-71672135D01*
X134075500Y-71525766D01*
X134075500Y-71374234D01*
X134036281Y-71227865D01*
X134036279Y-71227862D01*
X134036279Y-71227860D01*
X133960518Y-71096639D01*
X133960516Y-71096637D01*
X133960515Y-71096635D01*
X133853365Y-70989485D01*
X133846006Y-70985236D01*
X133805066Y-70939766D01*
X133798671Y-70878916D01*
X133829264Y-70825928D01*
X133885160Y-70801042D01*
X133895507Y-70800500D01*
X178260118Y-70800500D01*
X178298417Y-70800500D01*
X178301590Y-70800551D01*
X178886260Y-70819299D01*
X178892536Y-70819702D01*
X179473278Y-70875726D01*
X179479522Y-70876531D01*
X180055440Y-70969642D01*
X180061640Y-70970849D01*
X180544648Y-71081092D01*
X180597172Y-71112474D01*
X180621219Y-71168736D01*
X180607604Y-71228387D01*
X180561527Y-71268643D01*
X180538106Y-71275391D01*
X180507177Y-71280290D01*
X180319974Y-71341116D01*
X180144597Y-71430474D01*
X179985355Y-71546171D01*
X179846167Y-71685359D01*
X179779091Y-71777681D01*
X179729591Y-71813645D01*
X179668406Y-71813644D01*
X179618906Y-71777680D01*
X179599999Y-71719490D01*
X179599999Y-71455210D01*
X179599998Y-71455208D01*
X179597090Y-71430125D01*
X179551786Y-71327522D01*
X179472477Y-71248213D01*
X179369872Y-71202909D01*
X179344797Y-71200000D01*
X178450001Y-71200000D01*
X178450000Y-71200001D01*
X178450000Y-72022554D01*
X178365826Y-72000000D01*
X178234174Y-72000000D01*
X178150000Y-72022554D01*
X178150000Y-71200001D01*
X178149999Y-71200000D01*
X177255210Y-71200000D01*
X177255208Y-71200001D01*
X177230125Y-71202909D01*
X177127522Y-71248213D01*
X177048213Y-71327522D01*
X177002909Y-71430127D01*
X177000000Y-71455202D01*
X177000000Y-71719489D01*
X176981093Y-71777680D01*
X176931593Y-71813644D01*
X176870407Y-71813644D01*
X176820908Y-71777680D01*
X176753832Y-71685359D01*
X176753830Y-71685357D01*
X176753828Y-71685354D01*
X176614646Y-71546172D01*
X176455405Y-71430476D01*
X176455404Y-71430475D01*
X176455402Y-71430474D01*
X176280025Y-71341116D01*
X176092821Y-71280289D01*
X175898420Y-71249500D01*
X175898417Y-71249500D01*
X175701583Y-71249500D01*
X175701580Y-71249500D01*
X175507178Y-71280289D01*
X175319974Y-71341116D01*
X175144597Y-71430474D01*
X174985355Y-71546171D01*
X174846171Y-71685355D01*
X174730474Y-71844597D01*
X174641116Y-72019974D01*
X174580289Y-72207178D01*
X174549500Y-72401579D01*
X174549500Y-72598420D01*
X174580289Y-72792821D01*
X174641116Y-72980025D01*
X174682224Y-73060704D01*
X174691795Y-73121136D01*
X174664018Y-73175653D01*
X171059504Y-76780168D01*
X171004987Y-76807945D01*
X170944555Y-76798374D01*
X170901290Y-76755109D01*
X170890500Y-76710164D01*
X170890500Y-75315327D01*
X170890498Y-75315315D01*
X170881509Y-75270127D01*
X170875966Y-75242260D01*
X170839285Y-75187362D01*
X170820602Y-75159400D01*
X170820599Y-75159397D01*
X170737742Y-75104035D01*
X170737740Y-75104034D01*
X170737737Y-75104033D01*
X170737736Y-75104033D01*
X170664684Y-75089501D01*
X170664674Y-75089500D01*
X168915326Y-75089500D01*
X168915325Y-75089500D01*
X168915315Y-75089501D01*
X168842263Y-75104033D01*
X168842257Y-75104035D01*
X168759400Y-75159397D01*
X168759397Y-75159400D01*
X168704035Y-75242257D01*
X168704033Y-75242263D01*
X168689501Y-75315315D01*
X168689500Y-75315327D01*
X168689500Y-76851500D01*
X168670593Y-76909691D01*
X168621093Y-76945655D01*
X168590500Y-76950500D01*
X167549000Y-76950500D01*
X167490809Y-76931593D01*
X167454845Y-76882093D01*
X167450000Y-76851500D01*
X167450000Y-76340001D01*
X167449999Y-76340000D01*
X166777445Y-76340000D01*
X166800000Y-76255826D01*
X166800000Y-76124174D01*
X166777445Y-76040000D01*
X167449998Y-76040000D01*
X167449999Y-76039999D01*
X167449999Y-75295210D01*
X167449998Y-75295208D01*
X167447090Y-75270125D01*
X167401786Y-75167522D01*
X167322477Y-75088213D01*
X167219872Y-75042909D01*
X167194797Y-75040000D01*
X166450001Y-75040000D01*
X166450000Y-75040001D01*
X166450000Y-75712554D01*
X166365826Y-75690000D01*
X166234174Y-75690000D01*
X166150000Y-75712554D01*
X166150000Y-75040001D01*
X166149999Y-75040000D01*
X165405210Y-75040000D01*
X165405207Y-75040001D01*
X165380125Y-75042909D01*
X165277522Y-75088213D01*
X165198213Y-75167522D01*
X165152909Y-75270127D01*
X165150000Y-75295202D01*
X165150000Y-76039999D01*
X165150001Y-76040000D01*
X165822555Y-76040000D01*
X165800000Y-76124174D01*
X165800000Y-76255826D01*
X165822555Y-76340000D01*
X165150002Y-76340000D01*
X165150001Y-76340001D01*
X165150001Y-76851500D01*
X165131094Y-76909691D01*
X165081594Y-76945655D01*
X165051001Y-76950500D01*
X163501835Y-76950500D01*
X163443644Y-76931593D01*
X163431832Y-76921504D01*
X163113362Y-76603035D01*
X163113357Y-76603031D01*
X163039142Y-76560183D01*
X163039144Y-76560183D01*
X163007021Y-76551576D01*
X162956353Y-76538000D01*
X162956351Y-76538000D01*
X162851335Y-76538000D01*
X162793144Y-76519093D01*
X162757180Y-76469593D01*
X162757180Y-76408407D01*
X162781331Y-76368996D01*
X163354009Y-75796318D01*
X165739121Y-73411204D01*
X165793636Y-73383429D01*
X165854065Y-73392999D01*
X165867555Y-73399873D01*
X165892663Y-73408031D01*
X166032297Y-73453402D01*
X166203386Y-73480500D01*
X166203389Y-73480500D01*
X166376614Y-73480500D01*
X166547702Y-73453402D01*
X166547706Y-73453401D01*
X166712438Y-73399876D01*
X166712440Y-73399874D01*
X166712445Y-73399873D01*
X166866788Y-73321232D01*
X167006928Y-73219414D01*
X167129414Y-73096928D01*
X167231232Y-72956788D01*
X167309873Y-72802445D01*
X167343925Y-72697644D01*
X168499500Y-72697644D01*
X168499500Y-72902355D01*
X168531521Y-73104529D01*
X168594780Y-73299219D01*
X168687712Y-73481609D01*
X168687714Y-73481613D01*
X168808029Y-73647213D01*
X168808031Y-73647215D01*
X168808034Y-73647219D01*
X168952781Y-73791966D01*
X168952784Y-73791968D01*
X168952786Y-73791970D01*
X169118386Y-73912285D01*
X169118390Y-73912287D01*
X169300781Y-74005220D01*
X169495466Y-74068477D01*
X169495467Y-74068477D01*
X169495470Y-74068478D01*
X169697645Y-74100500D01*
X169697648Y-74100500D01*
X169902355Y-74100500D01*
X170104529Y-74068478D01*
X170104530Y-74068477D01*
X170104534Y-74068477D01*
X170299219Y-74005220D01*
X170481610Y-73912287D01*
X170647219Y-73791966D01*
X170791966Y-73647219D01*
X170912287Y-73481610D01*
X171005220Y-73299219D01*
X171068477Y-73104534D01*
X171069682Y-73096926D01*
X171100500Y-72902355D01*
X171100500Y-72697644D01*
X171068478Y-72495470D01*
X171059101Y-72466611D01*
X171005220Y-72300781D01*
X170912287Y-72118390D01*
X170912285Y-72118386D01*
X170791970Y-71952786D01*
X170791968Y-71952784D01*
X170791966Y-71952781D01*
X170647219Y-71808034D01*
X170647215Y-71808031D01*
X170647213Y-71808029D01*
X170481613Y-71687714D01*
X170481609Y-71687712D01*
X170299219Y-71594780D01*
X170104529Y-71531521D01*
X169902355Y-71499500D01*
X169902352Y-71499500D01*
X169697648Y-71499500D01*
X169697645Y-71499500D01*
X169495470Y-71531521D01*
X169300780Y-71594780D01*
X169118390Y-71687712D01*
X169118386Y-71687714D01*
X168952786Y-71808029D01*
X168808029Y-71952786D01*
X168687714Y-72118386D01*
X168687712Y-72118390D01*
X168594780Y-72300780D01*
X168531521Y-72495470D01*
X168499500Y-72697644D01*
X167343925Y-72697644D01*
X167355129Y-72663163D01*
X167363402Y-72637702D01*
X167390500Y-72466614D01*
X167390500Y-72293385D01*
X167363402Y-72122297D01*
X167363401Y-72122293D01*
X167309876Y-71957561D01*
X167309874Y-71957558D01*
X167309873Y-71957557D01*
X167309873Y-71957555D01*
X167231232Y-71803212D01*
X167129414Y-71663072D01*
X167006928Y-71540586D01*
X166866788Y-71438768D01*
X166866787Y-71438767D01*
X166866785Y-71438766D01*
X166712441Y-71360125D01*
X166712438Y-71360123D01*
X166547706Y-71306598D01*
X166547702Y-71306597D01*
X166376614Y-71279500D01*
X166376611Y-71279500D01*
X166203389Y-71279500D01*
X166203386Y-71279500D01*
X166032297Y-71306597D01*
X166032293Y-71306598D01*
X165867561Y-71360123D01*
X165867558Y-71360125D01*
X165713214Y-71438766D01*
X165573073Y-71540585D01*
X165450585Y-71663073D01*
X165348766Y-71803214D01*
X165270125Y-71957558D01*
X165270123Y-71957561D01*
X165216598Y-72122293D01*
X165216597Y-72122297D01*
X165189500Y-72293385D01*
X165189500Y-72466614D01*
X165216597Y-72637702D01*
X165216598Y-72637706D01*
X165270123Y-72802438D01*
X165270127Y-72802447D01*
X165290499Y-72842430D01*
X165300070Y-72902863D01*
X165272293Y-72957378D01*
X162021669Y-76208004D01*
X161967152Y-76235781D01*
X161951665Y-76237000D01*
X160612334Y-76237000D01*
X160554143Y-76218093D01*
X160518179Y-76168593D01*
X160518179Y-76107407D01*
X160542328Y-76067998D01*
X163199121Y-73411204D01*
X163253636Y-73383429D01*
X163314065Y-73392999D01*
X163327555Y-73399873D01*
X163352663Y-73408031D01*
X163492297Y-73453402D01*
X163663386Y-73480500D01*
X163663389Y-73480500D01*
X163836614Y-73480500D01*
X164007702Y-73453402D01*
X164007706Y-73453401D01*
X164172438Y-73399876D01*
X164172440Y-73399874D01*
X164172445Y-73399873D01*
X164326788Y-73321232D01*
X164466928Y-73219414D01*
X164589414Y-73096928D01*
X164691232Y-72956788D01*
X164769873Y-72802445D01*
X164769874Y-72802440D01*
X164769876Y-72802438D01*
X164823401Y-72637706D01*
X164823402Y-72637702D01*
X164850500Y-72466614D01*
X164850500Y-72293385D01*
X164823402Y-72122297D01*
X164823401Y-72122293D01*
X164769876Y-71957561D01*
X164769874Y-71957558D01*
X164769873Y-71957557D01*
X164769873Y-71957555D01*
X164691232Y-71803212D01*
X164589414Y-71663072D01*
X164466928Y-71540586D01*
X164326788Y-71438768D01*
X164326787Y-71438767D01*
X164326785Y-71438766D01*
X164172441Y-71360125D01*
X164172438Y-71360123D01*
X164007706Y-71306598D01*
X164007702Y-71306597D01*
X163836614Y-71279500D01*
X163836611Y-71279500D01*
X163663389Y-71279500D01*
X163663386Y-71279500D01*
X163492297Y-71306597D01*
X163492293Y-71306598D01*
X163327561Y-71360123D01*
X163327558Y-71360125D01*
X163173214Y-71438766D01*
X163033073Y-71540585D01*
X162910585Y-71663073D01*
X162808766Y-71803214D01*
X162730125Y-71957558D01*
X162730123Y-71957561D01*
X162676598Y-72122293D01*
X162676597Y-72122297D01*
X162649500Y-72293385D01*
X162649500Y-72466614D01*
X162676597Y-72637702D01*
X162676598Y-72637706D01*
X162730123Y-72802438D01*
X162730127Y-72802447D01*
X162750499Y-72842430D01*
X162760070Y-72902863D01*
X162732293Y-72957378D01*
X160144169Y-75545504D01*
X160089652Y-75573281D01*
X160074165Y-75574500D01*
X158734835Y-75574500D01*
X158676644Y-75555593D01*
X158640680Y-75506093D01*
X158640680Y-75444907D01*
X158664831Y-75405496D01*
X158995910Y-75074417D01*
X160659120Y-73411204D01*
X160713635Y-73383429D01*
X160774063Y-73392998D01*
X160787555Y-73399873D01*
X160787558Y-73399874D01*
X160787564Y-73399877D01*
X160952293Y-73453401D01*
X160952297Y-73453402D01*
X161123386Y-73480500D01*
X161123389Y-73480500D01*
X161296614Y-73480500D01*
X161467702Y-73453402D01*
X161467706Y-73453401D01*
X161632438Y-73399876D01*
X161632440Y-73399874D01*
X161632445Y-73399873D01*
X161786788Y-73321232D01*
X161926928Y-73219414D01*
X162049414Y-73096928D01*
X162151232Y-72956788D01*
X162229873Y-72802445D01*
X162229874Y-72802440D01*
X162229876Y-72802438D01*
X162283401Y-72637706D01*
X162283402Y-72637702D01*
X162310500Y-72466614D01*
X162310500Y-72293385D01*
X162283402Y-72122297D01*
X162283401Y-72122293D01*
X162229876Y-71957561D01*
X162229874Y-71957558D01*
X162229873Y-71957557D01*
X162229873Y-71957555D01*
X162151232Y-71803212D01*
X162049414Y-71663072D01*
X161926928Y-71540586D01*
X161786788Y-71438768D01*
X161786787Y-71438767D01*
X161786785Y-71438766D01*
X161632441Y-71360125D01*
X161632438Y-71360123D01*
X161467706Y-71306598D01*
X161467702Y-71306597D01*
X161296614Y-71279500D01*
X161296611Y-71279500D01*
X161123389Y-71279500D01*
X161123386Y-71279500D01*
X160952297Y-71306597D01*
X160952293Y-71306598D01*
X160787561Y-71360123D01*
X160787558Y-71360125D01*
X160633214Y-71438766D01*
X160493073Y-71540585D01*
X160370585Y-71663073D01*
X160268766Y-71803214D01*
X160190125Y-71957558D01*
X160190123Y-71957561D01*
X160136598Y-72122293D01*
X160136597Y-72122297D01*
X160109500Y-72293385D01*
X160109500Y-72466614D01*
X160136597Y-72637702D01*
X160136598Y-72637706D01*
X160190123Y-72802438D01*
X160190127Y-72802447D01*
X160210499Y-72842430D01*
X160220070Y-72902863D01*
X160192293Y-72957378D01*
X157954169Y-75195504D01*
X157899652Y-75223281D01*
X157884165Y-75224500D01*
X156544835Y-75224500D01*
X156486644Y-75205593D01*
X156450680Y-75156093D01*
X156450680Y-75094907D01*
X156474831Y-75055496D01*
X156884816Y-74645511D01*
X158119121Y-73411204D01*
X158173636Y-73383429D01*
X158234065Y-73392999D01*
X158247555Y-73399873D01*
X158272663Y-73408031D01*
X158412297Y-73453402D01*
X158583386Y-73480500D01*
X158583389Y-73480500D01*
X158756614Y-73480500D01*
X158927702Y-73453402D01*
X158927706Y-73453401D01*
X159092438Y-73399876D01*
X159092440Y-73399874D01*
X159092445Y-73399873D01*
X159246788Y-73321232D01*
X159386928Y-73219414D01*
X159509414Y-73096928D01*
X159611232Y-72956788D01*
X159689873Y-72802445D01*
X159689874Y-72802440D01*
X159689876Y-72802438D01*
X159743401Y-72637706D01*
X159743402Y-72637702D01*
X159770500Y-72466614D01*
X159770500Y-72293385D01*
X159743402Y-72122297D01*
X159743401Y-72122293D01*
X159689876Y-71957561D01*
X159689874Y-71957558D01*
X159689873Y-71957557D01*
X159689873Y-71957555D01*
X159611232Y-71803212D01*
X159509414Y-71663072D01*
X159386928Y-71540586D01*
X159246788Y-71438768D01*
X159246787Y-71438767D01*
X159246785Y-71438766D01*
X159092441Y-71360125D01*
X159092438Y-71360123D01*
X158927706Y-71306598D01*
X158927702Y-71306597D01*
X158756614Y-71279500D01*
X158756611Y-71279500D01*
X158583389Y-71279500D01*
X158583386Y-71279500D01*
X158412297Y-71306597D01*
X158412293Y-71306598D01*
X158247561Y-71360123D01*
X158247558Y-71360125D01*
X158093214Y-71438766D01*
X157953073Y-71540585D01*
X157830585Y-71663073D01*
X157728766Y-71803214D01*
X157650125Y-71957558D01*
X157650123Y-71957561D01*
X157596598Y-72122293D01*
X157596597Y-72122297D01*
X157569500Y-72293385D01*
X157569500Y-72466614D01*
X157596597Y-72637702D01*
X157596598Y-72637706D01*
X157650123Y-72802438D01*
X157650127Y-72802447D01*
X157670499Y-72842430D01*
X157680070Y-72902863D01*
X157652293Y-72957378D01*
X155764169Y-74845504D01*
X155709652Y-74873281D01*
X155694165Y-74874500D01*
X154234000Y-74874500D01*
X154175809Y-74855593D01*
X154139845Y-74806093D01*
X154135000Y-74775500D01*
X154135000Y-74760001D01*
X154134999Y-74760000D01*
X153566500Y-74760000D01*
X153508309Y-74741093D01*
X153472345Y-74691593D01*
X153467500Y-74661000D01*
X153467500Y-74610001D01*
X153467499Y-74610000D01*
X153416500Y-74610000D01*
X153358309Y-74591093D01*
X153322345Y-74541593D01*
X153317500Y-74511000D01*
X153317500Y-74000001D01*
X153617500Y-74000001D01*
X153617500Y-74459999D01*
X153617501Y-74460000D01*
X154134998Y-74460000D01*
X154134999Y-74459999D01*
X154134999Y-74400198D01*
X154132117Y-74369459D01*
X154132117Y-74369458D01*
X154086815Y-74239989D01*
X154005367Y-74129634D01*
X154005365Y-74129632D01*
X153895010Y-74048184D01*
X153765540Y-74002882D01*
X153734811Y-74000000D01*
X153617501Y-74000000D01*
X153617500Y-74000001D01*
X153317500Y-74000001D01*
X153317499Y-74000000D01*
X153200198Y-74000000D01*
X153169459Y-74002882D01*
X153169458Y-74002882D01*
X153039989Y-74048184D01*
X152923664Y-74134039D01*
X152922477Y-74132430D01*
X152876838Y-74155676D01*
X152816407Y-74146096D01*
X152791365Y-74127900D01*
X152786321Y-74122856D01*
X152786315Y-74122852D01*
X152671871Y-74064540D01*
X152671870Y-74064539D01*
X152576918Y-74049500D01*
X152576916Y-74049500D01*
X152549835Y-74049500D01*
X152491644Y-74030593D01*
X152455680Y-73981093D01*
X152455680Y-73919907D01*
X152479831Y-73880496D01*
X152529831Y-73830496D01*
X152584348Y-73802719D01*
X152599835Y-73801500D01*
X155096851Y-73801500D01*
X155096853Y-73801500D01*
X155179639Y-73779318D01*
X155179641Y-73779316D01*
X155179643Y-73779316D01*
X155253862Y-73736465D01*
X155303132Y-73687195D01*
X155579120Y-73411204D01*
X155633634Y-73383428D01*
X155694062Y-73392998D01*
X155707555Y-73399873D01*
X155707560Y-73399874D01*
X155707565Y-73399877D01*
X155872293Y-73453401D01*
X155872297Y-73453402D01*
X156043386Y-73480500D01*
X156043389Y-73480500D01*
X156216614Y-73480500D01*
X156387702Y-73453402D01*
X156387706Y-73453401D01*
X156552438Y-73399876D01*
X156552440Y-73399874D01*
X156552445Y-73399873D01*
X156706788Y-73321232D01*
X156846928Y-73219414D01*
X156969414Y-73096928D01*
X157071232Y-72956788D01*
X157149873Y-72802445D01*
X157149874Y-72802440D01*
X157149876Y-72802438D01*
X157203401Y-72637706D01*
X157203402Y-72637702D01*
X157230500Y-72466614D01*
X157230500Y-72293385D01*
X157203402Y-72122297D01*
X157203401Y-72122293D01*
X157149876Y-71957561D01*
X157149874Y-71957558D01*
X157149873Y-71957557D01*
X157149873Y-71957555D01*
X157071232Y-71803212D01*
X156969414Y-71663072D01*
X156846928Y-71540586D01*
X156706788Y-71438768D01*
X156706787Y-71438767D01*
X156706785Y-71438766D01*
X156552441Y-71360125D01*
X156552438Y-71360123D01*
X156387706Y-71306598D01*
X156387702Y-71306597D01*
X156216614Y-71279500D01*
X156216611Y-71279500D01*
X156043389Y-71279500D01*
X156043386Y-71279500D01*
X155872297Y-71306597D01*
X155872293Y-71306598D01*
X155707561Y-71360123D01*
X155707558Y-71360125D01*
X155553214Y-71438766D01*
X155413073Y-71540585D01*
X155290585Y-71663073D01*
X155188766Y-71803214D01*
X155110125Y-71957558D01*
X155110123Y-71957561D01*
X155056598Y-72122293D01*
X155056597Y-72122297D01*
X155029500Y-72293385D01*
X155029500Y-72466614D01*
X155056597Y-72637702D01*
X155056598Y-72637706D01*
X155110123Y-72802438D01*
X155110125Y-72802441D01*
X155110126Y-72802444D01*
X155110127Y-72802445D01*
X155112451Y-72807007D01*
X155130500Y-72842429D01*
X155140071Y-72902861D01*
X155112294Y-72957377D01*
X154948170Y-73121503D01*
X154893654Y-73149281D01*
X154878166Y-73150500D01*
X154584790Y-73150500D01*
X154526599Y-73131593D01*
X154490635Y-73082093D01*
X154490635Y-73020907D01*
X154504698Y-72993309D01*
X154514349Y-72980025D01*
X154531232Y-72956788D01*
X154609873Y-72802445D01*
X154609874Y-72802440D01*
X154609876Y-72802438D01*
X154663401Y-72637706D01*
X154663402Y-72637702D01*
X154690500Y-72466614D01*
X154690500Y-72293385D01*
X154663402Y-72122297D01*
X154663401Y-72122293D01*
X154609876Y-71957561D01*
X154609874Y-71957558D01*
X154609873Y-71957557D01*
X154609873Y-71957555D01*
X154531232Y-71803212D01*
X154429414Y-71663072D01*
X154306928Y-71540586D01*
X154166788Y-71438768D01*
X154166787Y-71438767D01*
X154166785Y-71438766D01*
X154012441Y-71360125D01*
X154012438Y-71360123D01*
X153847706Y-71306598D01*
X153847702Y-71306597D01*
X153676614Y-71279500D01*
X153676611Y-71279500D01*
X153503389Y-71279500D01*
X153503386Y-71279500D01*
X153332297Y-71306597D01*
X153332293Y-71306598D01*
X153167561Y-71360123D01*
X153167558Y-71360125D01*
X153013214Y-71438766D01*
X152873073Y-71540585D01*
X152750585Y-71663073D01*
X152648766Y-71803214D01*
X152570125Y-71957558D01*
X152570123Y-71957561D01*
X152516598Y-72122293D01*
X152516597Y-72122297D01*
X152489500Y-72293385D01*
X152489500Y-72309165D01*
X152487031Y-72316762D01*
X152488281Y-72324652D01*
X152477756Y-72345307D01*
X152470593Y-72367356D01*
X152460504Y-72379169D01*
X152319504Y-72520169D01*
X152264987Y-72547946D01*
X152204555Y-72538375D01*
X152161290Y-72495110D01*
X152150500Y-72450165D01*
X152150500Y-72293385D01*
X152123402Y-72122297D01*
X152123401Y-72122293D01*
X152069876Y-71957561D01*
X152069874Y-71957558D01*
X152069873Y-71957557D01*
X152069873Y-71957555D01*
X151991232Y-71803212D01*
X151889414Y-71663072D01*
X151766928Y-71540586D01*
X151626788Y-71438768D01*
X151626787Y-71438767D01*
X151626785Y-71438766D01*
X151472441Y-71360125D01*
X151472438Y-71360123D01*
X151307706Y-71306598D01*
X151307702Y-71306597D01*
X151136614Y-71279500D01*
X151136611Y-71279500D01*
X150963389Y-71279500D01*
X150963386Y-71279500D01*
X150792297Y-71306597D01*
X150792293Y-71306598D01*
X150627561Y-71360123D01*
X150627558Y-71360125D01*
X150473214Y-71438766D01*
X150333073Y-71540585D01*
X150210585Y-71663073D01*
X150108766Y-71803214D01*
X150030125Y-71957558D01*
X150030123Y-71957561D01*
X149976598Y-72122293D01*
X149976597Y-72122297D01*
X149949500Y-72293385D01*
X149949500Y-72466614D01*
X149976597Y-72637702D01*
X149976598Y-72637706D01*
X150030123Y-72802438D01*
X150030125Y-72802441D01*
X150081291Y-72902862D01*
X150108768Y-72956788D01*
X150210586Y-73096928D01*
X150333072Y-73219414D01*
X150472528Y-73320735D01*
X150473218Y-73321236D01*
X150476526Y-73323263D01*
X150475514Y-73324914D01*
X150513676Y-73363021D01*
X150524500Y-73408031D01*
X150524500Y-73575165D01*
X150505593Y-73633356D01*
X150456093Y-73669320D01*
X150394907Y-73669320D01*
X150355496Y-73645169D01*
X149568577Y-72858250D01*
X149540800Y-72803733D01*
X149544427Y-72757652D01*
X149545586Y-72754087D01*
X149575129Y-72663163D01*
X149583402Y-72637702D01*
X149610500Y-72466614D01*
X149610500Y-72293385D01*
X149583402Y-72122297D01*
X149583401Y-72122293D01*
X149529876Y-71957561D01*
X149529874Y-71957558D01*
X149529873Y-71957557D01*
X149529873Y-71957555D01*
X149451232Y-71803212D01*
X149349414Y-71663072D01*
X149226928Y-71540586D01*
X149086788Y-71438768D01*
X149086787Y-71438767D01*
X149086785Y-71438766D01*
X148932441Y-71360125D01*
X148932438Y-71360123D01*
X148767706Y-71306598D01*
X148767702Y-71306597D01*
X148596614Y-71279500D01*
X148596611Y-71279500D01*
X148423389Y-71279500D01*
X148423386Y-71279500D01*
X148252297Y-71306597D01*
X148252293Y-71306598D01*
X148087561Y-71360123D01*
X148087558Y-71360125D01*
X147933214Y-71438766D01*
X147793073Y-71540585D01*
X147670585Y-71663073D01*
X147568766Y-71803214D01*
X147490125Y-71957558D01*
X147490123Y-71957561D01*
X147436598Y-72122293D01*
X147436597Y-72122296D01*
X147425430Y-72192803D01*
X147397652Y-72247319D01*
X147343135Y-72275096D01*
X147282703Y-72265524D01*
X147257648Y-72247321D01*
X147149862Y-72139535D01*
X147149859Y-72139533D01*
X147149857Y-72139531D01*
X147075644Y-72096684D01*
X147070938Y-72094735D01*
X147024412Y-72054999D01*
X147014667Y-72033863D01*
X147011950Y-72025500D01*
X146989873Y-71957555D01*
X146911232Y-71803212D01*
X146809414Y-71663072D01*
X146686928Y-71540586D01*
X146546788Y-71438768D01*
X146546787Y-71438767D01*
X146546785Y-71438766D01*
X146392441Y-71360125D01*
X146392438Y-71360123D01*
X146227706Y-71306598D01*
X146227702Y-71306597D01*
X146056614Y-71279500D01*
X146056611Y-71279500D01*
X145883389Y-71279500D01*
X145883386Y-71279500D01*
X145712297Y-71306597D01*
X145712293Y-71306598D01*
X145547561Y-71360123D01*
X145547558Y-71360125D01*
X145393214Y-71438766D01*
X145253073Y-71540585D01*
X145130585Y-71663073D01*
X145028766Y-71803214D01*
X144950125Y-71957558D01*
X144950123Y-71957561D01*
X144896598Y-72122293D01*
X144896597Y-72122297D01*
X144869500Y-72293385D01*
X144869500Y-72466614D01*
X144896597Y-72637702D01*
X144896598Y-72637706D01*
X144950123Y-72802438D01*
X144950125Y-72802441D01*
X145028767Y-72956787D01*
X145028771Y-72956792D01*
X145055302Y-72993309D01*
X145074210Y-73051499D01*
X145055303Y-73109690D01*
X145005803Y-73145654D01*
X144975210Y-73150500D01*
X144681833Y-73150500D01*
X144623642Y-73131593D01*
X144611836Y-73121510D01*
X144447702Y-72957375D01*
X144419927Y-72902862D01*
X144429497Y-72842434D01*
X144449873Y-72802445D01*
X144452291Y-72795003D01*
X144503401Y-72637706D01*
X144503402Y-72637702D01*
X144530500Y-72466614D01*
X144530500Y-72293385D01*
X144503402Y-72122297D01*
X144503401Y-72122293D01*
X144449876Y-71957561D01*
X144449874Y-71957558D01*
X144449873Y-71957557D01*
X144449873Y-71957555D01*
X144371232Y-71803212D01*
X144269414Y-71663072D01*
X144146928Y-71540586D01*
X144006788Y-71438768D01*
X144006787Y-71438767D01*
X144006785Y-71438766D01*
X143852441Y-71360125D01*
X143852438Y-71360123D01*
X143687706Y-71306598D01*
X143687702Y-71306597D01*
X143516614Y-71279500D01*
X143516611Y-71279500D01*
X143343389Y-71279500D01*
X143343386Y-71279500D01*
X143172297Y-71306597D01*
X143172293Y-71306598D01*
X143007561Y-71360123D01*
X143007558Y-71360125D01*
X142853214Y-71438766D01*
X142713073Y-71540585D01*
X142590585Y-71663073D01*
X142488766Y-71803214D01*
X142410125Y-71957558D01*
X142410123Y-71957561D01*
X142356598Y-72122293D01*
X142356597Y-72122297D01*
X142329500Y-72293385D01*
X142329500Y-72466614D01*
X142356597Y-72637702D01*
X142356598Y-72637706D01*
X142410123Y-72802438D01*
X142410125Y-72802441D01*
X142461291Y-72902862D01*
X142488768Y-72956788D01*
X142590586Y-73096928D01*
X142713072Y-73219414D01*
X142786011Y-73272407D01*
X142821975Y-73321908D01*
X142821975Y-73383093D01*
X142786011Y-73432593D01*
X142727820Y-73451500D01*
X142442835Y-73451500D01*
X142384644Y-73432593D01*
X142372831Y-73422504D01*
X141907705Y-72957378D01*
X141879928Y-72902861D01*
X141889498Y-72842432D01*
X141909873Y-72802445D01*
X141909877Y-72802434D01*
X141963401Y-72637706D01*
X141963402Y-72637702D01*
X141990500Y-72466614D01*
X141990500Y-72293385D01*
X141963402Y-72122297D01*
X141963401Y-72122293D01*
X141909876Y-71957561D01*
X141909874Y-71957558D01*
X141909873Y-71957557D01*
X141909873Y-71957555D01*
X141831232Y-71803212D01*
X141729414Y-71663072D01*
X141606928Y-71540586D01*
X141466788Y-71438768D01*
X141466787Y-71438767D01*
X141466785Y-71438766D01*
X141312441Y-71360125D01*
X141312438Y-71360123D01*
X141147706Y-71306598D01*
X141147702Y-71306597D01*
X140976614Y-71279500D01*
X140976611Y-71279500D01*
X140803389Y-71279500D01*
X140803386Y-71279500D01*
X140632297Y-71306597D01*
X140632293Y-71306598D01*
X140467561Y-71360123D01*
X140467558Y-71360125D01*
X140313214Y-71438766D01*
X140173073Y-71540585D01*
X140050585Y-71663073D01*
X139948766Y-71803214D01*
X139870125Y-71957558D01*
X139870123Y-71957561D01*
X139816598Y-72122293D01*
X139816597Y-72122297D01*
X139789500Y-72293385D01*
X139789500Y-72466614D01*
X139816597Y-72637702D01*
X139816598Y-72637706D01*
X139870123Y-72802438D01*
X139870125Y-72802441D01*
X139921291Y-72902862D01*
X139948768Y-72956788D01*
X140050586Y-73096928D01*
X140173072Y-73219414D01*
X140313212Y-73321232D01*
X140467555Y-73399873D01*
X140467557Y-73399873D01*
X140467558Y-73399874D01*
X140467561Y-73399876D01*
X140632293Y-73453401D01*
X140632297Y-73453402D01*
X140803386Y-73480500D01*
X140803389Y-73480500D01*
X140976614Y-73480500D01*
X141147702Y-73453402D01*
X141211744Y-73432593D01*
X141312445Y-73399873D01*
X141325926Y-73393003D01*
X141386355Y-73383428D01*
X141440874Y-73411201D01*
X141613169Y-73583496D01*
X141640946Y-73638013D01*
X141631375Y-73698445D01*
X141588110Y-73741710D01*
X141543165Y-73752500D01*
X140203835Y-73752500D01*
X140145644Y-73733593D01*
X140133831Y-73723504D01*
X139367705Y-72957378D01*
X139339928Y-72902861D01*
X139349498Y-72842432D01*
X139369873Y-72802445D01*
X139369877Y-72802434D01*
X139423401Y-72637706D01*
X139423402Y-72637702D01*
X139450500Y-72466614D01*
X139450500Y-72293385D01*
X139423402Y-72122297D01*
X139423401Y-72122293D01*
X139369876Y-71957561D01*
X139369874Y-71957558D01*
X139369873Y-71957557D01*
X139369873Y-71957555D01*
X139291232Y-71803212D01*
X139189414Y-71663072D01*
X139066928Y-71540586D01*
X138926788Y-71438768D01*
X138926787Y-71438767D01*
X138926785Y-71438766D01*
X138772441Y-71360125D01*
X138772438Y-71360123D01*
X138607706Y-71306598D01*
X138607702Y-71306597D01*
X138436614Y-71279500D01*
X138436611Y-71279500D01*
X138263389Y-71279500D01*
X138263386Y-71279500D01*
X138092297Y-71306597D01*
X138092293Y-71306598D01*
X137927561Y-71360123D01*
X137927558Y-71360125D01*
X137773214Y-71438766D01*
X137633073Y-71540585D01*
X137510585Y-71663073D01*
X137408766Y-71803214D01*
X137330125Y-71957558D01*
X137330123Y-71957561D01*
X137276598Y-72122293D01*
X137276597Y-72122297D01*
X137249500Y-72293385D01*
X137249500Y-72466614D01*
X137276597Y-72637702D01*
X137276598Y-72637706D01*
X137330123Y-72802438D01*
X137330125Y-72802441D01*
X137381291Y-72902862D01*
X137408768Y-72956788D01*
X137510586Y-73096928D01*
X137633072Y-73219414D01*
X137773212Y-73321232D01*
X137927555Y-73399873D01*
X137927557Y-73399873D01*
X137927558Y-73399874D01*
X137927561Y-73399876D01*
X138092293Y-73453401D01*
X138092297Y-73453402D01*
X138263386Y-73480500D01*
X138263389Y-73480500D01*
X138436614Y-73480500D01*
X138607702Y-73453402D01*
X138671744Y-73432593D01*
X138772445Y-73399873D01*
X138785926Y-73393003D01*
X138846355Y-73383428D01*
X138900874Y-73411201D01*
X139767535Y-74277862D01*
X139767534Y-74277862D01*
X139828139Y-74338467D01*
X139833284Y-74342414D01*
X139831917Y-74344194D01*
X139866207Y-74382277D01*
X139872603Y-74443127D01*
X139845770Y-74492545D01*
X139740720Y-74597597D01*
X139678806Y-74659511D01*
X139624289Y-74687288D01*
X139563857Y-74677717D01*
X139520592Y-74634452D01*
X139516044Y-74624103D01*
X139470213Y-74501223D01*
X139386119Y-74388888D01*
X139386118Y-74388887D01*
X139386116Y-74388884D01*
X139386111Y-74388880D01*
X139273776Y-74304786D01*
X139142304Y-74255750D01*
X139142299Y-74255749D01*
X139142297Y-74255748D01*
X139142293Y-74255748D01*
X139116011Y-74252922D01*
X139084174Y-74249500D01*
X138515826Y-74249500D01*
X138487823Y-74252510D01*
X138457706Y-74255748D01*
X138457695Y-74255750D01*
X138326223Y-74304786D01*
X138213888Y-74388880D01*
X138213880Y-74388888D01*
X138129787Y-74501222D01*
X138093842Y-74597597D01*
X138055791Y-74645511D01*
X138001084Y-74662000D01*
X137463335Y-74662000D01*
X137405144Y-74643093D01*
X137393331Y-74633004D01*
X136233764Y-73473437D01*
X136205987Y-73418920D01*
X136215558Y-73358488D01*
X136218012Y-73353968D01*
X136237195Y-73320743D01*
X136262719Y-73259123D01*
X136296794Y-73131956D01*
X136305500Y-73065826D01*
X136305500Y-72500000D01*
X136286051Y-72402224D01*
X136230666Y-72319334D01*
X136147776Y-72263949D01*
X136050000Y-72244500D01*
X134550000Y-72244500D01*
X134549999Y-72244500D01*
X134535828Y-72247319D01*
X134452224Y-72263949D01*
X134452222Y-72263949D01*
X134452222Y-72263950D01*
X134452220Y-72263951D01*
X134369336Y-72319332D01*
X134369332Y-72319336D01*
X134313951Y-72402220D01*
X134313950Y-72402222D01*
X134313949Y-72402224D01*
X134307594Y-72434174D01*
X134294500Y-72499999D01*
X134294500Y-73065827D01*
X134303205Y-73131948D01*
X134303205Y-73131953D01*
X134337281Y-73259125D01*
X134362801Y-73320735D01*
X134362803Y-73320739D01*
X134362805Y-73320743D01*
X134408493Y-73399877D01*
X134428633Y-73434760D01*
X134469229Y-73487666D01*
X134469231Y-73487668D01*
X134469235Y-73487673D01*
X134562327Y-73580765D01*
X134562331Y-73580768D01*
X134562333Y-73580770D01*
X134591773Y-73603360D01*
X134615243Y-73621369D01*
X134729257Y-73687195D01*
X134729263Y-73687197D01*
X134729264Y-73687198D01*
X134790874Y-73712718D01*
X134790875Y-73712718D01*
X134790877Y-73712719D01*
X134918044Y-73746794D01*
X134984174Y-73755500D01*
X135554165Y-73755500D01*
X135612356Y-73774407D01*
X135624169Y-73784496D01*
X137027035Y-75187362D01*
X137027034Y-75187362D01*
X137062017Y-75222344D01*
X137087638Y-75247965D01*
X137161862Y-75290818D01*
X137244647Y-75313000D01*
X137330352Y-75313000D01*
X138001084Y-75313000D01*
X138059275Y-75331907D01*
X138093842Y-75377403D01*
X138129787Y-75473777D01*
X138209680Y-75580501D01*
X138213884Y-75586116D01*
X138213887Y-75586118D01*
X138213888Y-75586119D01*
X138326223Y-75670213D01*
X138457695Y-75719249D01*
X138457696Y-75719249D01*
X138457701Y-75719251D01*
X138515826Y-75725500D01*
X138515830Y-75725500D01*
X139084170Y-75725500D01*
X139084174Y-75725500D01*
X139142299Y-75719251D01*
X139242527Y-75681868D01*
X139273776Y-75670213D01*
X139273776Y-75670212D01*
X139273778Y-75670212D01*
X139314171Y-75639974D01*
X139329662Y-75634694D01*
X139342907Y-75625072D01*
X139357898Y-75625072D01*
X139372086Y-75620237D01*
X139387723Y-75625072D01*
X139404093Y-75625072D01*
X139416220Y-75633883D01*
X139430541Y-75638311D01*
X139440350Y-75651414D01*
X139453593Y-75661036D01*
X139458225Y-75675292D01*
X139467208Y-75687292D01*
X139472500Y-75719227D01*
X139472500Y-75839397D01*
X139453593Y-75897588D01*
X139443503Y-75909401D01*
X139281866Y-76071037D01*
X139227350Y-76098814D01*
X139177267Y-76093791D01*
X139142304Y-76080750D01*
X139142299Y-76080749D01*
X139142297Y-76080748D01*
X139142293Y-76080748D01*
X139116011Y-76077922D01*
X139084174Y-76074500D01*
X138515826Y-76074500D01*
X138487823Y-76077510D01*
X138457706Y-76080748D01*
X138457695Y-76080750D01*
X138326223Y-76129786D01*
X138213888Y-76213880D01*
X138213880Y-76213888D01*
X138129786Y-76326223D01*
X138080750Y-76457695D01*
X138080748Y-76457706D01*
X138074500Y-76515829D01*
X138074500Y-77109170D01*
X138074499Y-77109170D01*
X138080748Y-77167293D01*
X138080750Y-77167304D01*
X138129786Y-77298776D01*
X138201839Y-77395026D01*
X138213884Y-77411116D01*
X138213887Y-77411118D01*
X138213888Y-77411119D01*
X138326223Y-77495213D01*
X138457695Y-77544249D01*
X138457696Y-77544249D01*
X138457701Y-77544251D01*
X138515826Y-77550500D01*
X138515830Y-77550500D01*
X139084170Y-77550500D01*
X139084174Y-77550500D01*
X139142299Y-77544251D01*
X139272537Y-77495675D01*
X139273776Y-77495213D01*
X139273776Y-77495212D01*
X139273778Y-77495212D01*
X139386116Y-77411116D01*
X139470212Y-77298778D01*
X139475873Y-77283602D01*
X139519249Y-77167304D01*
X139519248Y-77167304D01*
X139519251Y-77167299D01*
X139525500Y-77109174D01*
X139525500Y-76789065D01*
X139544407Y-76730874D01*
X139554490Y-76719068D01*
X139727997Y-76545560D01*
X139782512Y-76517784D01*
X139842944Y-76527355D01*
X139868003Y-76545561D01*
X140372162Y-77049720D01*
X140394770Y-77087910D01*
X140394801Y-77087896D01*
X140394946Y-77088209D01*
X140397203Y-77092020D01*
X140398000Y-77094758D01*
X140398001Y-77094760D01*
X140444650Y-77194799D01*
X140522701Y-77272850D01*
X140622740Y-77319499D01*
X140668321Y-77325500D01*
X141054901Y-77325499D01*
X141113091Y-77344406D01*
X141149055Y-77393906D01*
X141149055Y-77455091D01*
X141134555Y-77483288D01*
X141063184Y-77579989D01*
X141017882Y-77709459D01*
X141015000Y-77740188D01*
X141015000Y-77799999D01*
X141015001Y-77800000D01*
X141583500Y-77800000D01*
X141641691Y-77818907D01*
X141677655Y-77868407D01*
X141682500Y-77899000D01*
X141682500Y-77949999D01*
X141682501Y-77950000D01*
X141733500Y-77950000D01*
X141791691Y-77968907D01*
X141827655Y-78018407D01*
X141832500Y-78049000D01*
X141832500Y-78559998D01*
X141832501Y-78559999D01*
X141949791Y-78559999D01*
X141950837Y-78559950D01*
X141951016Y-78559999D01*
X141952114Y-78559999D01*
X141952114Y-78560299D01*
X142009848Y-78576115D01*
X142048088Y-78623879D01*
X142050949Y-78684997D01*
X142025471Y-78728845D01*
X141708814Y-79045503D01*
X141654297Y-79073281D01*
X141638810Y-79074500D01*
X141637399Y-79074500D01*
X141556911Y-79096067D01*
X141516463Y-79106905D01*
X141408036Y-79169505D01*
X141319505Y-79258036D01*
X141256905Y-79366463D01*
X141249069Y-79395706D01*
X141224500Y-79487399D01*
X141224500Y-79612601D01*
X141256905Y-79733536D01*
X141319505Y-79841964D01*
X141408036Y-79930495D01*
X141467393Y-79964764D01*
X141508333Y-80010233D01*
X141514729Y-80071083D01*
X141484136Y-80124071D01*
X141428241Y-80148958D01*
X141417892Y-80149500D01*
X134251144Y-80149500D01*
X134192953Y-80130593D01*
X134156989Y-80081093D01*
X134152576Y-80041256D01*
X134155000Y-80015408D01*
X134155000Y-79950001D01*
X134154999Y-79950000D01*
X133596500Y-79950000D01*
X133538309Y-79931093D01*
X133502345Y-79881593D01*
X133497500Y-79851000D01*
X133497500Y-79800001D01*
X133497499Y-79800000D01*
X133446500Y-79800000D01*
X133388309Y-79781093D01*
X133352345Y-79731593D01*
X133347500Y-79701000D01*
X133347500Y-79180001D01*
X133647500Y-79180001D01*
X133647500Y-79649999D01*
X133647501Y-79650000D01*
X134154999Y-79650000D01*
X134155000Y-79649999D01*
X134155000Y-79584583D01*
X134154999Y-79584579D01*
X134152086Y-79553519D01*
X134152084Y-79553510D01*
X134106286Y-79422627D01*
X134023946Y-79311060D01*
X134023939Y-79311053D01*
X133912372Y-79228713D01*
X133781489Y-79182915D01*
X133781480Y-79182913D01*
X133750420Y-79180000D01*
X133647501Y-79180000D01*
X133647500Y-79180001D01*
X133347500Y-79180001D01*
X133347499Y-79180000D01*
X133244579Y-79180000D01*
X133213519Y-79182913D01*
X133213510Y-79182915D01*
X133082627Y-79228713D01*
X132971060Y-79311053D01*
X132971051Y-79311062D01*
X132946175Y-79344768D01*
X132896407Y-79380360D01*
X132835224Y-79379902D01*
X132796519Y-79355984D01*
X132744294Y-79303759D01*
X132744291Y-79303757D01*
X132628436Y-79244726D01*
X132628434Y-79244725D01*
X132532308Y-79229500D01*
X132072691Y-79229500D01*
X131976567Y-79244725D01*
X131976560Y-79244727D01*
X131860708Y-79303757D01*
X131768758Y-79395707D01*
X131711269Y-79508533D01*
X131711256Y-79508561D01*
X131709725Y-79511567D01*
X131709611Y-79512285D01*
X131709610Y-79512288D01*
X131694500Y-79607691D01*
X131694500Y-79906665D01*
X131692031Y-79914262D01*
X131693281Y-79922152D01*
X131682757Y-79942805D01*
X131675593Y-79964856D01*
X131665503Y-79976669D01*
X131539502Y-80102669D01*
X131484986Y-80130446D01*
X131424554Y-80120874D01*
X131381289Y-80077610D01*
X131370499Y-80032668D01*
X131370499Y-79623076D01*
X131389406Y-79564886D01*
X131429514Y-79532511D01*
X131442478Y-79526786D01*
X131521785Y-79447479D01*
X131525985Y-79437967D01*
X131525986Y-79437964D01*
X131525987Y-79437963D01*
X131531246Y-79426052D01*
X131531247Y-79426050D01*
X131567089Y-79344874D01*
X131567090Y-79344872D01*
X131569999Y-79319797D01*
X131570000Y-79319795D01*
X131570000Y-79125001D01*
X131569999Y-79125000D01*
X130695001Y-79125000D01*
X130695000Y-79125001D01*
X130695000Y-79225500D01*
X130690155Y-79240411D01*
X130690155Y-79256093D01*
X130680938Y-79268778D01*
X130676093Y-79283691D01*
X130663407Y-79292907D01*
X130654191Y-79305593D01*
X130639278Y-79310438D01*
X130626593Y-79319655D01*
X130596000Y-79324500D01*
X130494000Y-79324500D01*
X130435809Y-79305593D01*
X130399845Y-79256093D01*
X130395000Y-79225500D01*
X130395000Y-79125001D01*
X130394999Y-79125000D01*
X129642710Y-79125000D01*
X129626729Y-79119807D01*
X129609930Y-79119416D01*
X129599884Y-79111085D01*
X129584519Y-79106093D01*
X129561282Y-79082307D01*
X129558987Y-79078988D01*
X129520505Y-79012335D01*
X129495841Y-78987671D01*
X129490749Y-78980307D01*
X129484418Y-78959157D01*
X129474396Y-78939487D01*
X129475826Y-78930453D01*
X129473204Y-78921692D01*
X129480513Y-78900861D01*
X129483967Y-78879055D01*
X129490434Y-78872587D01*
X129493463Y-78863957D01*
X129511620Y-78851401D01*
X129527232Y-78835790D01*
X129537901Y-78833228D01*
X129543788Y-78829158D01*
X129553877Y-78829393D01*
X129572177Y-78825000D01*
X131569998Y-78825000D01*
X131569999Y-78824999D01*
X131569999Y-78630210D01*
X131569998Y-78630208D01*
X131567090Y-78605125D01*
X131521786Y-78502522D01*
X131442477Y-78423213D01*
X131339872Y-78377909D01*
X131314797Y-78375000D01*
X130999398Y-78375000D01*
X130941207Y-78356093D01*
X130905243Y-78306593D01*
X130905243Y-78245407D01*
X130907934Y-78238115D01*
X130949256Y-78138352D01*
X130949257Y-78138349D01*
X130965835Y-78055000D01*
X130439808Y-78055000D01*
X130459556Y-78020796D01*
X130465759Y-77997644D01*
X134699500Y-77997644D01*
X134699500Y-78202355D01*
X134731521Y-78404529D01*
X134794780Y-78599219D01*
X134887712Y-78781609D01*
X134887714Y-78781613D01*
X135008029Y-78947213D01*
X135008031Y-78947215D01*
X135008034Y-78947219D01*
X135152781Y-79091966D01*
X135152784Y-79091968D01*
X135152786Y-79091970D01*
X135318386Y-79212285D01*
X135318390Y-79212287D01*
X135500781Y-79305220D01*
X135695466Y-79368477D01*
X135695467Y-79368477D01*
X135695470Y-79368478D01*
X135897645Y-79400500D01*
X135897648Y-79400500D01*
X136102355Y-79400500D01*
X136304529Y-79368478D01*
X136304530Y-79368477D01*
X136304534Y-79368477D01*
X136499219Y-79305220D01*
X136681610Y-79212287D01*
X136847219Y-79091966D01*
X136991966Y-78947219D01*
X137086855Y-78816614D01*
X137112285Y-78781613D01*
X137112287Y-78781610D01*
X137205220Y-78599219D01*
X137268477Y-78404534D01*
X137273155Y-78375000D01*
X137300500Y-78202355D01*
X137300500Y-78100001D01*
X141015001Y-78100001D01*
X141015001Y-78159801D01*
X141017882Y-78190540D01*
X141017882Y-78190541D01*
X141063184Y-78320010D01*
X141144632Y-78430365D01*
X141144634Y-78430367D01*
X141254989Y-78511815D01*
X141384458Y-78557117D01*
X141415191Y-78559999D01*
X141532500Y-78559999D01*
X141532500Y-78100001D01*
X141532499Y-78100000D01*
X141015002Y-78100000D01*
X141015001Y-78100001D01*
X137300500Y-78100001D01*
X137300500Y-77997644D01*
X137268478Y-77795470D01*
X137257955Y-77763084D01*
X137205220Y-77600781D01*
X137112287Y-77418390D01*
X137112285Y-77418386D01*
X136991970Y-77252786D01*
X136991968Y-77252784D01*
X136991966Y-77252781D01*
X136847219Y-77108034D01*
X136847215Y-77108031D01*
X136847213Y-77108029D01*
X136681613Y-76987714D01*
X136681609Y-76987712D01*
X136499219Y-76894780D01*
X136304529Y-76831521D01*
X136102355Y-76799500D01*
X136102352Y-76799500D01*
X135897648Y-76799500D01*
X135897645Y-76799500D01*
X135695470Y-76831521D01*
X135500780Y-76894780D01*
X135318390Y-76987712D01*
X135318386Y-76987714D01*
X135152786Y-77108029D01*
X135008029Y-77252786D01*
X134887714Y-77418386D01*
X134887712Y-77418390D01*
X134794780Y-77600780D01*
X134731521Y-77795470D01*
X134699500Y-77997644D01*
X130465759Y-77997644D01*
X130480000Y-77944496D01*
X130480000Y-77865504D01*
X130459556Y-77789204D01*
X130439808Y-77755000D01*
X130965835Y-77755000D01*
X130965835Y-77754999D01*
X130949257Y-77671651D01*
X130888951Y-77526059D01*
X130888947Y-77526050D01*
X130801400Y-77395030D01*
X130801397Y-77395026D01*
X130689973Y-77283602D01*
X130689969Y-77283599D01*
X130558949Y-77196052D01*
X130558940Y-77196048D01*
X130413349Y-77135742D01*
X130258795Y-77105000D01*
X129780001Y-77105000D01*
X129780000Y-77105001D01*
X129780000Y-77605000D01*
X129480000Y-77605000D01*
X129480000Y-77105001D01*
X129479999Y-77105000D01*
X129001204Y-77105000D01*
X128846650Y-77135742D01*
X128701059Y-77196048D01*
X128701050Y-77196052D01*
X128570030Y-77283599D01*
X128570026Y-77283602D01*
X128458602Y-77395026D01*
X128458599Y-77395030D01*
X128371052Y-77526050D01*
X128371048Y-77526059D01*
X128310742Y-77671651D01*
X128294164Y-77754999D01*
X128294165Y-77755000D01*
X128820192Y-77755000D01*
X128800444Y-77789204D01*
X128780000Y-77865504D01*
X128780000Y-77944496D01*
X128800444Y-78020796D01*
X128820192Y-78055000D01*
X128294164Y-78055000D01*
X128310742Y-78138348D01*
X128371048Y-78283940D01*
X128371052Y-78283949D01*
X128458599Y-78414969D01*
X128458602Y-78414973D01*
X128570026Y-78526397D01*
X128570030Y-78526400D01*
X128701050Y-78613947D01*
X128701059Y-78613951D01*
X128846651Y-78674257D01*
X128851307Y-78675670D01*
X128850991Y-78676708D01*
X128899980Y-78704145D01*
X128925594Y-78759710D01*
X128913656Y-78819720D01*
X128876780Y-78857080D01*
X128777335Y-78914494D01*
X128716211Y-78975618D01*
X128661694Y-79003395D01*
X128601262Y-78993823D01*
X128557998Y-78950558D01*
X128550582Y-78931240D01*
X128536281Y-78877865D01*
X128536278Y-78877860D01*
X128460518Y-78746639D01*
X128460516Y-78746637D01*
X128460515Y-78746635D01*
X128353365Y-78639485D01*
X128353362Y-78639483D01*
X128353360Y-78639481D01*
X128222138Y-78563720D01*
X128222140Y-78563720D01*
X128161921Y-78547585D01*
X128075766Y-78524500D01*
X127924234Y-78524500D01*
X127838079Y-78547585D01*
X127777860Y-78563720D01*
X127646639Y-78639481D01*
X127539481Y-78746639D01*
X127463720Y-78877860D01*
X127463719Y-78877865D01*
X127424500Y-79024234D01*
X127424500Y-79175766D01*
X127456801Y-79296318D01*
X127463720Y-79322139D01*
X127539481Y-79453360D01*
X127539483Y-79453362D01*
X127539485Y-79453365D01*
X127646635Y-79560515D01*
X127646637Y-79560516D01*
X127646639Y-79560518D01*
X127777861Y-79636279D01*
X127777859Y-79636279D01*
X127777863Y-79636280D01*
X127777865Y-79636281D01*
X127924234Y-79675500D01*
X127924236Y-79675500D01*
X128075764Y-79675500D01*
X128075766Y-79675500D01*
X128222135Y-79636281D01*
X128222137Y-79636279D01*
X128222139Y-79636279D01*
X128353360Y-79560518D01*
X128353360Y-79560517D01*
X128353365Y-79560515D01*
X128439557Y-79474322D01*
X128494071Y-79446546D01*
X128554504Y-79456117D01*
X128597768Y-79499381D01*
X128605184Y-79518700D01*
X128610312Y-79537836D01*
X128679495Y-79657665D01*
X128777335Y-79755505D01*
X128897164Y-79824688D01*
X128981579Y-79847306D01*
X129032892Y-79880630D01*
X129054819Y-79937752D01*
X129038983Y-79996852D01*
X129025959Y-80012936D01*
X128688511Y-80350385D01*
X128688507Y-80350390D01*
X128629202Y-80453109D01*
X128629201Y-80453112D01*
X128624163Y-80471913D01*
X128618169Y-80494281D01*
X128584844Y-80545595D01*
X128527722Y-80567520D01*
X128468622Y-80551683D01*
X128452544Y-80538664D01*
X128353365Y-80439485D01*
X128353362Y-80439483D01*
X128353360Y-80439481D01*
X128222138Y-80363720D01*
X128222140Y-80363720D01*
X128165303Y-80348491D01*
X128075766Y-80324500D01*
X127924234Y-80324500D01*
X127834697Y-80348491D01*
X127777860Y-80363720D01*
X127646639Y-80439481D01*
X127539481Y-80546639D01*
X127463720Y-80677860D01*
X127451089Y-80725000D01*
X127424500Y-80824234D01*
X127424500Y-80975766D01*
X127446695Y-81058599D01*
X127463720Y-81122139D01*
X127539481Y-81253360D01*
X127539483Y-81253362D01*
X127539485Y-81253365D01*
X127646635Y-81360515D01*
X127646637Y-81360516D01*
X127646639Y-81360518D01*
X127777861Y-81436279D01*
X127777859Y-81436279D01*
X127777863Y-81436280D01*
X127777865Y-81436281D01*
X127924234Y-81475500D01*
X127924236Y-81475500D01*
X128075764Y-81475500D01*
X128075766Y-81475500D01*
X128222135Y-81436281D01*
X128222137Y-81436279D01*
X128222139Y-81436279D01*
X128353360Y-81360518D01*
X128353360Y-81360517D01*
X128353365Y-81360515D01*
X128429498Y-81284381D01*
X128484013Y-81256606D01*
X128544445Y-81266177D01*
X128587710Y-81309442D01*
X128598500Y-81354387D01*
X128598500Y-82845613D01*
X128579593Y-82903804D01*
X128530093Y-82939768D01*
X128468907Y-82939768D01*
X128429498Y-82915618D01*
X128353365Y-82839485D01*
X128353362Y-82839483D01*
X128353360Y-82839481D01*
X128222138Y-82763720D01*
X128222140Y-82763720D01*
X128165347Y-82748503D01*
X128075766Y-82724500D01*
X127924234Y-82724500D01*
X127834652Y-82748503D01*
X127777860Y-82763720D01*
X127646639Y-82839481D01*
X127539481Y-82946639D01*
X127463720Y-83077860D01*
X127448440Y-83134888D01*
X127424500Y-83224234D01*
X127424500Y-83375766D01*
X127447897Y-83463084D01*
X127463720Y-83522139D01*
X127539481Y-83653360D01*
X127539483Y-83653362D01*
X127539485Y-83653365D01*
X127646635Y-83760515D01*
X127646637Y-83760516D01*
X127646639Y-83760518D01*
X127777861Y-83836279D01*
X127777859Y-83836279D01*
X127777863Y-83836280D01*
X127777865Y-83836281D01*
X127924234Y-83875500D01*
X127924236Y-83875500D01*
X128075764Y-83875500D01*
X128075766Y-83875500D01*
X128222135Y-83836281D01*
X128222137Y-83836279D01*
X128222139Y-83836279D01*
X128353360Y-83760518D01*
X128353360Y-83760517D01*
X128353365Y-83760515D01*
X128429498Y-83684381D01*
X128484013Y-83656606D01*
X128544445Y-83666177D01*
X128587710Y-83709442D01*
X128598500Y-83754387D01*
X128598500Y-84015308D01*
X128615776Y-84079787D01*
X128629200Y-84129886D01*
X128629202Y-84129890D01*
X128688507Y-84232609D01*
X128688511Y-84232614D01*
X128922613Y-84466717D01*
X128950390Y-84521233D01*
X128940819Y-84581665D01*
X128902109Y-84622456D01*
X128777337Y-84694493D01*
X128679494Y-84792336D01*
X128668932Y-84810630D01*
X128623461Y-84851569D01*
X128562611Y-84857963D01*
X128509624Y-84827369D01*
X128497464Y-84810633D01*
X128460515Y-84746635D01*
X128353365Y-84639485D01*
X128353362Y-84639483D01*
X128353360Y-84639481D01*
X128222138Y-84563720D01*
X128222140Y-84563720D01*
X128149579Y-84544278D01*
X128075766Y-84524500D01*
X127924234Y-84524500D01*
X127850421Y-84544278D01*
X127777860Y-84563720D01*
X127646639Y-84639481D01*
X127539481Y-84746639D01*
X127463720Y-84877860D01*
X127446137Y-84943481D01*
X127424500Y-85024234D01*
X127424500Y-85175766D01*
X127446941Y-85259519D01*
X127463720Y-85322139D01*
X127539481Y-85453360D01*
X127539483Y-85453362D01*
X127539485Y-85453365D01*
X127646635Y-85560515D01*
X127646637Y-85560516D01*
X127646639Y-85560518D01*
X127777861Y-85636279D01*
X127777859Y-85636279D01*
X127777863Y-85636280D01*
X127777865Y-85636281D01*
X127924234Y-85675500D01*
X127924236Y-85675500D01*
X128075764Y-85675500D01*
X128075766Y-85675500D01*
X128222135Y-85636281D01*
X128222137Y-85636279D01*
X128222139Y-85636279D01*
X128353360Y-85560518D01*
X128353360Y-85560517D01*
X128353365Y-85560515D01*
X128460515Y-85453365D01*
X128488801Y-85404371D01*
X128534269Y-85363431D01*
X128595119Y-85357035D01*
X128648108Y-85387627D01*
X128660273Y-85404372D01*
X128679493Y-85437662D01*
X128679495Y-85437665D01*
X128777335Y-85535505D01*
X128876782Y-85592920D01*
X128917721Y-85638388D01*
X128924117Y-85699238D01*
X128893524Y-85752226D01*
X128851060Y-85773519D01*
X128851307Y-85774330D01*
X128846651Y-85775742D01*
X128701059Y-85836048D01*
X128701050Y-85836052D01*
X128570030Y-85923599D01*
X128570026Y-85923602D01*
X128458602Y-86035026D01*
X128458599Y-86035030D01*
X128371052Y-86166050D01*
X128371048Y-86166059D01*
X128310742Y-86311651D01*
X128294164Y-86394999D01*
X128294165Y-86395000D01*
X128820192Y-86395000D01*
X128800444Y-86429204D01*
X128780000Y-86505504D01*
X128780000Y-86584496D01*
X128800444Y-86660796D01*
X128820192Y-86695000D01*
X128294164Y-86695000D01*
X128310742Y-86778348D01*
X128371048Y-86923940D01*
X128371052Y-86923949D01*
X128458599Y-87054969D01*
X128458602Y-87054973D01*
X128570026Y-87166397D01*
X128570030Y-87166400D01*
X128701050Y-87253947D01*
X128701059Y-87253951D01*
X128846650Y-87314257D01*
X129001204Y-87344999D01*
X129001208Y-87345000D01*
X129479999Y-87345000D01*
X129480000Y-87344999D01*
X129480000Y-86845000D01*
X129780000Y-86845000D01*
X129780000Y-87344999D01*
X129780001Y-87345000D01*
X130258792Y-87345000D01*
X130258795Y-87344999D01*
X130413349Y-87314257D01*
X130558940Y-87253951D01*
X130558949Y-87253947D01*
X130689969Y-87166400D01*
X130689973Y-87166397D01*
X130801397Y-87054973D01*
X130801400Y-87054969D01*
X130888947Y-86923949D01*
X130888951Y-86923940D01*
X130949257Y-86778348D01*
X130965836Y-86695000D01*
X130439808Y-86695000D01*
X130459556Y-86660796D01*
X130480000Y-86584496D01*
X130480000Y-86505504D01*
X130459556Y-86429204D01*
X130439808Y-86395000D01*
X130965835Y-86395000D01*
X130965835Y-86394999D01*
X130949257Y-86311651D01*
X130907933Y-86211885D01*
X130903132Y-86150888D01*
X130935102Y-86098719D01*
X130991630Y-86075304D01*
X130999397Y-86074999D01*
X131314790Y-86074999D01*
X131314791Y-86074998D01*
X131339874Y-86072090D01*
X131442477Y-86026786D01*
X131456762Y-86012501D01*
X132425000Y-86012501D01*
X132425000Y-86204582D01*
X132435373Y-86290958D01*
X132489576Y-86428408D01*
X132489579Y-86428412D01*
X132578854Y-86546139D01*
X132578860Y-86546145D01*
X132696587Y-86635420D01*
X132696591Y-86635423D01*
X132834041Y-86689626D01*
X132920417Y-86699999D01*
X132920424Y-86700000D01*
X133049999Y-86700000D01*
X133050000Y-86699999D01*
X133050000Y-86012501D01*
X133350000Y-86012501D01*
X133350000Y-86699999D01*
X133350001Y-86700000D01*
X133479576Y-86700000D01*
X133479582Y-86699999D01*
X133565958Y-86689626D01*
X133703408Y-86635423D01*
X133703412Y-86635420D01*
X133821139Y-86546145D01*
X133821145Y-86546139D01*
X133910420Y-86428412D01*
X133910423Y-86428408D01*
X133964626Y-86290958D01*
X133974999Y-86204582D01*
X133975000Y-86204576D01*
X133975000Y-86012501D01*
X133974999Y-86012500D01*
X133350001Y-86012500D01*
X133350000Y-86012501D01*
X133050000Y-86012501D01*
X133049999Y-86012500D01*
X132425001Y-86012500D01*
X132425000Y-86012501D01*
X131456762Y-86012501D01*
X131521786Y-85947477D01*
X131528839Y-85931505D01*
X131567090Y-85844872D01*
X131569999Y-85819797D01*
X131570000Y-85819795D01*
X131570000Y-85625001D01*
X131569999Y-85625000D01*
X130695001Y-85625000D01*
X130695000Y-85625001D01*
X130695000Y-86081000D01*
X130690155Y-86095911D01*
X130690155Y-86111593D01*
X130680938Y-86124278D01*
X130676093Y-86139191D01*
X130663407Y-86148407D01*
X130654191Y-86161093D01*
X130639278Y-86165938D01*
X130626593Y-86175155D01*
X130596000Y-86180000D01*
X130494000Y-86180000D01*
X130435809Y-86161093D01*
X130399845Y-86111593D01*
X130395000Y-86081000D01*
X130395000Y-85625001D01*
X130394999Y-85625000D01*
X129572177Y-85625000D01*
X129513986Y-85606093D01*
X129478022Y-85556593D01*
X129478022Y-85495407D01*
X129490749Y-85469693D01*
X129495841Y-85462328D01*
X129520505Y-85437665D01*
X129558987Y-85371011D01*
X129561282Y-85367693D01*
X129582560Y-85351461D01*
X129602444Y-85333559D01*
X129607415Y-85332502D01*
X129609930Y-85330584D01*
X129617241Y-85330413D01*
X129642710Y-85325000D01*
X131569998Y-85325000D01*
X131569999Y-85324999D01*
X131569999Y-85224500D01*
X131588906Y-85166309D01*
X131638406Y-85130345D01*
X131668999Y-85125500D01*
X132419999Y-85125500D01*
X132478190Y-85144407D01*
X132514154Y-85193907D01*
X132514154Y-85255093D01*
X132498882Y-85284320D01*
X132489579Y-85296586D01*
X132489576Y-85296591D01*
X132435373Y-85434041D01*
X132425000Y-85520417D01*
X132425000Y-85712499D01*
X132425001Y-85712500D01*
X133974999Y-85712500D01*
X133986444Y-85701055D01*
X134040960Y-85673277D01*
X134101392Y-85682848D01*
X134126448Y-85701051D01*
X134273386Y-85847989D01*
X134332696Y-85882231D01*
X134376114Y-85907299D01*
X134490691Y-85938000D01*
X135300626Y-85938000D01*
X135358817Y-85956907D01*
X135394781Y-86006407D01*
X135399321Y-86029232D01*
X135399501Y-86031525D01*
X135414352Y-86125299D01*
X135414354Y-86125304D01*
X135471950Y-86238342D01*
X135520505Y-86286897D01*
X135548281Y-86341412D01*
X135549500Y-86356899D01*
X135549500Y-86859151D01*
X135530593Y-86917342D01*
X135481093Y-86953306D01*
X135473278Y-86955495D01*
X135472891Y-86955586D01*
X135472886Y-86955588D01*
X135344774Y-87003372D01*
X135344773Y-87003372D01*
X135344772Y-87003373D01*
X135235315Y-87085311D01*
X135235311Y-87085315D01*
X135153373Y-87194771D01*
X135105587Y-87322887D01*
X135099500Y-87379518D01*
X135099500Y-88220478D01*
X135099501Y-88220484D01*
X135105587Y-88277111D01*
X135105587Y-88277112D01*
X135105588Y-88277114D01*
X135111859Y-88293926D01*
X135116699Y-88306903D01*
X135119319Y-88368033D01*
X135085508Y-88419027D01*
X135028181Y-88440409D01*
X135023941Y-88440500D01*
X133677190Y-88440500D01*
X133618999Y-88421593D01*
X133607186Y-88411504D01*
X133229495Y-88033813D01*
X133201718Y-87979296D01*
X133200499Y-87963809D01*
X133200499Y-87379521D01*
X133200499Y-87379518D01*
X133200499Y-87379516D01*
X133194412Y-87322886D01*
X133146628Y-87194774D01*
X133064687Y-87085313D01*
X133008449Y-87043214D01*
X132955228Y-87003373D01*
X132955226Y-87003372D01*
X132827114Y-86955588D01*
X132827113Y-86955587D01*
X132788895Y-86951479D01*
X132770485Y-86949500D01*
X132770481Y-86949500D01*
X132229521Y-86949500D01*
X132229515Y-86949501D01*
X132172888Y-86955587D01*
X132172886Y-86955588D01*
X132044774Y-87003372D01*
X132044773Y-87003372D01*
X132044772Y-87003373D01*
X131935315Y-87085311D01*
X131935311Y-87085315D01*
X131853373Y-87194771D01*
X131805587Y-87322887D01*
X131799500Y-87379518D01*
X131799500Y-88220478D01*
X131799501Y-88220484D01*
X131805587Y-88277111D01*
X131805587Y-88277112D01*
X131805588Y-88277114D01*
X131853372Y-88405226D01*
X131935313Y-88514687D01*
X132044774Y-88596628D01*
X132172886Y-88644412D01*
X132229515Y-88650500D01*
X132770484Y-88650499D01*
X132799539Y-88647375D01*
X132859414Y-88659954D01*
X132880121Y-88675804D01*
X133234814Y-89030496D01*
X133262592Y-89085013D01*
X133253021Y-89145445D01*
X133209756Y-89188710D01*
X133164811Y-89199500D01*
X125503241Y-89199500D01*
X125496766Y-89199288D01*
X125271594Y-89184529D01*
X125258755Y-89182839D01*
X125040617Y-89139449D01*
X125028108Y-89136097D01*
X124817499Y-89064604D01*
X124805536Y-89059648D01*
X124606073Y-88961284D01*
X124594857Y-88954809D01*
X124409927Y-88831242D01*
X124399654Y-88823359D01*
X124232439Y-88676717D01*
X124223282Y-88667560D01*
X124219024Y-88662705D01*
X124101130Y-88528271D01*
X124076640Y-88500345D01*
X124068757Y-88490072D01*
X123945190Y-88305142D01*
X123938715Y-88293926D01*
X123840351Y-88094463D01*
X123835395Y-88082500D01*
X123816757Y-88027595D01*
X123763900Y-87871886D01*
X123760550Y-87859382D01*
X123717159Y-87641237D01*
X123715470Y-87628405D01*
X123713597Y-87599835D01*
X123700712Y-87403234D01*
X123700500Y-87396759D01*
X123700500Y-86394999D01*
X124364164Y-86394999D01*
X124364165Y-86395000D01*
X124890192Y-86395000D01*
X124870444Y-86429204D01*
X124850000Y-86505504D01*
X124850000Y-86584496D01*
X124870444Y-86660796D01*
X124890192Y-86695000D01*
X124364164Y-86695000D01*
X124380742Y-86778348D01*
X124441048Y-86923940D01*
X124441052Y-86923949D01*
X124528599Y-87054969D01*
X124528602Y-87054973D01*
X124640026Y-87166397D01*
X124640030Y-87166400D01*
X124771050Y-87253947D01*
X124771059Y-87253951D01*
X124916650Y-87314257D01*
X125071204Y-87344999D01*
X125071208Y-87345000D01*
X125299999Y-87345000D01*
X125300000Y-87344999D01*
X125300000Y-86845000D01*
X125600000Y-86845000D01*
X125600000Y-87344999D01*
X125600001Y-87345000D01*
X125828792Y-87345000D01*
X125828795Y-87344999D01*
X125983349Y-87314257D01*
X126128940Y-87253951D01*
X126128949Y-87253947D01*
X126259969Y-87166400D01*
X126259973Y-87166397D01*
X126371397Y-87054973D01*
X126371400Y-87054969D01*
X126458947Y-86923949D01*
X126458951Y-86923940D01*
X126519257Y-86778348D01*
X126535836Y-86695000D01*
X126009808Y-86695000D01*
X126029556Y-86660796D01*
X126050000Y-86584496D01*
X126050000Y-86505504D01*
X126029556Y-86429204D01*
X126009808Y-86395000D01*
X126535835Y-86395000D01*
X126535835Y-86394999D01*
X126519257Y-86311651D01*
X126458951Y-86166059D01*
X126458947Y-86166050D01*
X126371400Y-86035030D01*
X126371397Y-86035026D01*
X126259973Y-85923602D01*
X126259969Y-85923599D01*
X126128949Y-85836052D01*
X126128940Y-85836048D01*
X125983349Y-85775742D01*
X125828795Y-85745000D01*
X125600001Y-85745000D01*
X125600000Y-85745001D01*
X125600000Y-86245000D01*
X125300000Y-86245000D01*
X125300000Y-85745001D01*
X125299999Y-85745000D01*
X125071204Y-85745000D01*
X124916650Y-85775742D01*
X124771059Y-85836048D01*
X124771050Y-85836052D01*
X124640030Y-85923599D01*
X124640026Y-85923602D01*
X124528602Y-86035026D01*
X124528599Y-86035030D01*
X124441052Y-86166050D01*
X124441048Y-86166059D01*
X124380742Y-86311651D01*
X124364164Y-86394999D01*
X123700500Y-86394999D01*
X123700500Y-77754999D01*
X124364164Y-77754999D01*
X124364165Y-77755000D01*
X124890192Y-77755000D01*
X124870444Y-77789204D01*
X124850000Y-77865504D01*
X124850000Y-77944496D01*
X124870444Y-78020796D01*
X124890192Y-78055000D01*
X124364164Y-78055000D01*
X124380742Y-78138348D01*
X124441048Y-78283940D01*
X124441052Y-78283949D01*
X124528599Y-78414969D01*
X124528602Y-78414973D01*
X124640026Y-78526397D01*
X124640030Y-78526400D01*
X124771050Y-78613947D01*
X124771059Y-78613951D01*
X124916650Y-78674257D01*
X125071204Y-78704999D01*
X125071208Y-78705000D01*
X125299999Y-78705000D01*
X125300000Y-78704999D01*
X125300000Y-78205000D01*
X125600000Y-78205000D01*
X125600000Y-78704999D01*
X125600001Y-78705000D01*
X125828792Y-78705000D01*
X125828795Y-78704999D01*
X125983349Y-78674257D01*
X126128940Y-78613951D01*
X126128949Y-78613947D01*
X126259969Y-78526400D01*
X126259973Y-78526397D01*
X126371397Y-78414973D01*
X126371400Y-78414969D01*
X126458947Y-78283949D01*
X126458951Y-78283940D01*
X126519257Y-78138348D01*
X126535836Y-78055000D01*
X126009808Y-78055000D01*
X126029556Y-78020796D01*
X126050000Y-77944496D01*
X126050000Y-77865504D01*
X126029556Y-77789204D01*
X126009808Y-77755000D01*
X126535835Y-77755000D01*
X126535835Y-77754999D01*
X126519257Y-77671651D01*
X126458951Y-77526059D01*
X126458947Y-77526050D01*
X126371400Y-77395030D01*
X126371397Y-77395026D01*
X126259973Y-77283602D01*
X126259969Y-77283599D01*
X126128949Y-77196052D01*
X126128940Y-77196048D01*
X125983349Y-77135742D01*
X125828795Y-77105000D01*
X125600001Y-77105000D01*
X125600000Y-77105001D01*
X125600000Y-77605000D01*
X125300000Y-77605000D01*
X125300000Y-77105001D01*
X125299999Y-77105000D01*
X125071204Y-77105000D01*
X124916650Y-77135742D01*
X124771059Y-77196048D01*
X124771050Y-77196052D01*
X124640030Y-77283599D01*
X124640026Y-77283602D01*
X124528602Y-77395026D01*
X124528599Y-77395030D01*
X124441052Y-77526050D01*
X124441048Y-77526059D01*
X124380742Y-77671651D01*
X124364164Y-77754999D01*
X123700500Y-77754999D01*
X123700500Y-77268308D01*
X123700501Y-77268306D01*
X123700500Y-77231657D01*
X123700712Y-77225188D01*
X123701681Y-77210407D01*
X123715468Y-77000007D01*
X123717155Y-76987188D01*
X123760546Y-76769033D01*
X123763898Y-76756528D01*
X123767356Y-76746341D01*
X123808804Y-76624234D01*
X127424500Y-76624234D01*
X127424500Y-76775766D01*
X127439440Y-76831523D01*
X127463720Y-76922139D01*
X127539481Y-77053360D01*
X127539483Y-77053362D01*
X127539485Y-77053365D01*
X127646635Y-77160515D01*
X127646637Y-77160516D01*
X127646639Y-77160518D01*
X127777861Y-77236279D01*
X127777859Y-77236279D01*
X127777863Y-77236280D01*
X127777865Y-77236281D01*
X127924234Y-77275500D01*
X127924236Y-77275500D01*
X128075764Y-77275500D01*
X128075766Y-77275500D01*
X128222135Y-77236281D01*
X128222137Y-77236279D01*
X128222139Y-77236279D01*
X128353360Y-77160518D01*
X128353360Y-77160517D01*
X128353365Y-77160515D01*
X128460515Y-77053365D01*
X128460518Y-77053360D01*
X128536279Y-76922139D01*
X128536279Y-76922137D01*
X128536281Y-76922135D01*
X128575500Y-76775766D01*
X128575500Y-76624234D01*
X128536281Y-76477865D01*
X128536279Y-76477862D01*
X128536279Y-76477860D01*
X128460518Y-76346639D01*
X128460516Y-76346637D01*
X128460515Y-76346635D01*
X128353365Y-76239485D01*
X128353362Y-76239483D01*
X128353360Y-76239481D01*
X128222138Y-76163720D01*
X128222140Y-76163720D01*
X128165347Y-76148503D01*
X128075766Y-76124500D01*
X127924234Y-76124500D01*
X127834652Y-76148503D01*
X127777860Y-76163720D01*
X127646639Y-76239481D01*
X127539481Y-76346639D01*
X127463720Y-76477860D01*
X127463719Y-76477865D01*
X127424500Y-76624234D01*
X123808804Y-76624234D01*
X123835391Y-76545908D01*
X123840336Y-76533970D01*
X123938711Y-76334476D01*
X123945173Y-76323284D01*
X124068754Y-76138328D01*
X124076618Y-76128080D01*
X124225225Y-75958622D01*
X124229624Y-75953924D01*
X125359314Y-74824234D01*
X127424500Y-74824234D01*
X127424500Y-74975766D01*
X127450933Y-75074417D01*
X127463720Y-75122139D01*
X127539481Y-75253360D01*
X127539483Y-75253362D01*
X127539485Y-75253365D01*
X127646635Y-75360515D01*
X127646637Y-75360516D01*
X127646639Y-75360518D01*
X127777861Y-75436279D01*
X127777859Y-75436279D01*
X127777863Y-75436280D01*
X127777865Y-75436281D01*
X127924234Y-75475500D01*
X127924236Y-75475500D01*
X128075764Y-75475500D01*
X128075766Y-75475500D01*
X128222135Y-75436281D01*
X128222137Y-75436279D01*
X128222139Y-75436279D01*
X128353360Y-75360518D01*
X128353360Y-75360517D01*
X128353365Y-75360515D01*
X128460515Y-75253365D01*
X128463633Y-75247965D01*
X128536279Y-75122139D01*
X128536279Y-75122137D01*
X128536281Y-75122135D01*
X128575500Y-74975766D01*
X128575500Y-74824234D01*
X128536281Y-74677865D01*
X128536279Y-74677862D01*
X128536279Y-74677860D01*
X128460518Y-74546639D01*
X128460516Y-74546637D01*
X128460515Y-74546635D01*
X128353365Y-74439485D01*
X128353362Y-74439483D01*
X128353360Y-74439481D01*
X128222138Y-74363720D01*
X128222140Y-74363720D01*
X128149266Y-74344194D01*
X128075766Y-74324500D01*
X127924234Y-74324500D01*
X127850734Y-74344194D01*
X127777860Y-74363720D01*
X127646639Y-74439481D01*
X127539481Y-74546639D01*
X127463720Y-74677860D01*
X127447924Y-74736813D01*
X127424500Y-74824234D01*
X125359314Y-74824234D01*
X127009314Y-73174234D01*
X132924500Y-73174234D01*
X132924500Y-73325766D01*
X132944358Y-73399877D01*
X132963720Y-73472139D01*
X133039481Y-73603360D01*
X133039483Y-73603362D01*
X133039485Y-73603365D01*
X133146635Y-73710515D01*
X133146637Y-73710516D01*
X133146639Y-73710518D01*
X133277861Y-73786279D01*
X133277859Y-73786279D01*
X133277863Y-73786280D01*
X133277865Y-73786281D01*
X133424234Y-73825500D01*
X133424236Y-73825500D01*
X133575764Y-73825500D01*
X133575766Y-73825500D01*
X133722135Y-73786281D01*
X133722137Y-73786279D01*
X133722139Y-73786279D01*
X133853360Y-73710518D01*
X133853360Y-73710517D01*
X133853365Y-73710515D01*
X133960515Y-73603365D01*
X133971049Y-73585120D01*
X134036279Y-73472139D01*
X134036279Y-73472137D01*
X134036281Y-73472135D01*
X134075500Y-73325766D01*
X134075500Y-73174234D01*
X134036281Y-73027865D01*
X134036279Y-73027862D01*
X134036279Y-73027860D01*
X133960518Y-72896639D01*
X133960516Y-72896637D01*
X133960515Y-72896635D01*
X133853365Y-72789485D01*
X133853362Y-72789483D01*
X133853360Y-72789481D01*
X133722138Y-72713720D01*
X133722140Y-72713720D01*
X133665347Y-72698503D01*
X133575766Y-72674500D01*
X133424234Y-72674500D01*
X133334652Y-72698503D01*
X133277860Y-72713720D01*
X133146639Y-72789481D01*
X133039481Y-72896639D01*
X132963720Y-73027860D01*
X132957386Y-73051499D01*
X132924500Y-73174234D01*
X127009314Y-73174234D01*
X128853711Y-71329838D01*
X128858408Y-71325439D01*
X129028088Y-71176635D01*
X129038360Y-71168755D01*
X129223291Y-71045187D01*
X129234486Y-71038723D01*
X129433979Y-70940341D01*
X129445926Y-70935392D01*
X129656561Y-70863888D01*
X129669042Y-70860544D01*
X129887195Y-70817145D01*
X129900010Y-70815457D01*
X130124866Y-70800711D01*
X130131344Y-70800500D01*
X133104493Y-70800500D01*
X133162684Y-70819407D01*
G37*
%TD.AperFunction*%
%TA.AperFunction,Conductor*%
G36*
X181859282Y-71520200D02*
G01*
X182288628Y-71710260D01*
X182294330Y-71713006D01*
X182811541Y-71982835D01*
X182817060Y-71985943D01*
X182896109Y-72033863D01*
X183315929Y-72288360D01*
X183321247Y-72291822D01*
X183799715Y-72625580D01*
X183804801Y-72629376D01*
X184260889Y-72993094D01*
X184265710Y-72997197D01*
X184697588Y-73389416D01*
X184702144Y-73393829D01*
X184905063Y-73603360D01*
X185107976Y-73812885D01*
X185112242Y-73817582D01*
X185490401Y-74261789D01*
X185494358Y-74266751D01*
X185843274Y-74734266D01*
X185846905Y-74739471D01*
X185911160Y-74838184D01*
X186161830Y-75223281D01*
X186165153Y-75228385D01*
X186168438Y-75233803D01*
X186223512Y-75331593D01*
X186454712Y-75742114D01*
X186457647Y-75747740D01*
X186710762Y-76273338D01*
X186713331Y-76279142D01*
X186932251Y-76819878D01*
X186934442Y-76825833D01*
X187118263Y-77379470D01*
X187120069Y-77385554D01*
X187268044Y-77949850D01*
X187269456Y-77956037D01*
X187380971Y-78528642D01*
X187381984Y-78534907D01*
X187456582Y-79113477D01*
X187457192Y-79119794D01*
X187494570Y-79701980D01*
X187494773Y-79708323D01*
X187494773Y-80291676D01*
X187494570Y-80298019D01*
X187457192Y-80880205D01*
X187456582Y-80886522D01*
X187381984Y-81465092D01*
X187380971Y-81471357D01*
X187269456Y-82043962D01*
X187268044Y-82050149D01*
X187120069Y-82614445D01*
X187118263Y-82620529D01*
X186934442Y-83174166D01*
X186932251Y-83180121D01*
X186713331Y-83720857D01*
X186710762Y-83726661D01*
X186457647Y-84252259D01*
X186454712Y-84257885D01*
X186168443Y-84766187D01*
X186165153Y-84771614D01*
X185846905Y-85260528D01*
X185843274Y-85265733D01*
X185494358Y-85733248D01*
X185490401Y-85738210D01*
X185112242Y-86182417D01*
X185107976Y-86187114D01*
X184702147Y-86606167D01*
X184697588Y-86610583D01*
X184265722Y-87002792D01*
X184260889Y-87006905D01*
X183804801Y-87370623D01*
X183799715Y-87374419D01*
X183321247Y-87708177D01*
X183315929Y-87711639D01*
X182817065Y-88014053D01*
X182811535Y-88017167D01*
X182294337Y-88286989D01*
X182288620Y-88289743D01*
X181755162Y-88525890D01*
X181749279Y-88528271D01*
X181201820Y-88729740D01*
X181195797Y-88731740D01*
X180636544Y-88897723D01*
X180630406Y-88899333D01*
X180061655Y-89029147D01*
X180055425Y-89030360D01*
X179479547Y-89123464D01*
X179473253Y-89124276D01*
X178892564Y-89180295D01*
X178886231Y-89180701D01*
X178301590Y-89199449D01*
X178298417Y-89199500D01*
X167358431Y-89199500D01*
X167300240Y-89180593D01*
X167264276Y-89131093D01*
X167264276Y-89069907D01*
X167300240Y-89020407D01*
X167304908Y-89017216D01*
X167322675Y-89005798D01*
X167506507Y-88846507D01*
X167665798Y-88662675D01*
X167797306Y-88458045D01*
X167898353Y-88236782D01*
X167966883Y-88003391D01*
X167984392Y-87881610D01*
X168001500Y-87762627D01*
X168001500Y-85961260D01*
X168020407Y-85903069D01*
X168069907Y-85867105D01*
X168106910Y-85863705D01*
X168106910Y-85863104D01*
X168238599Y-85863104D01*
X168238601Y-85863104D01*
X168359536Y-85830699D01*
X168467964Y-85768099D01*
X168486563Y-85749500D01*
X168493965Y-85742099D01*
X168548482Y-85714323D01*
X168563967Y-85713104D01*
X169616591Y-85713104D01*
X169674782Y-85732011D01*
X169710746Y-85781511D01*
X169710746Y-85842697D01*
X169674782Y-85892197D01*
X169632078Y-85909885D01*
X169495470Y-85931521D01*
X169300780Y-85994780D01*
X169118390Y-86087712D01*
X169118386Y-86087714D01*
X168952786Y-86208029D01*
X168808029Y-86352786D01*
X168687714Y-86518386D01*
X168687712Y-86518390D01*
X168594780Y-86700780D01*
X168531521Y-86895470D01*
X168499500Y-87097644D01*
X168499500Y-87302355D01*
X168531521Y-87504529D01*
X168594780Y-87699219D01*
X168687712Y-87881609D01*
X168687714Y-87881613D01*
X168808029Y-88047213D01*
X168808031Y-88047215D01*
X168808034Y-88047219D01*
X168952781Y-88191966D01*
X168952784Y-88191968D01*
X168952786Y-88191970D01*
X169118386Y-88312285D01*
X169118390Y-88312287D01*
X169300781Y-88405220D01*
X169495466Y-88468477D01*
X169495467Y-88468477D01*
X169495470Y-88468478D01*
X169697645Y-88500500D01*
X169697648Y-88500500D01*
X169902355Y-88500500D01*
X170104529Y-88468478D01*
X170104530Y-88468477D01*
X170104534Y-88468477D01*
X170299219Y-88405220D01*
X170481610Y-88312287D01*
X170483510Y-88310907D01*
X170566653Y-88250500D01*
X170647219Y-88191966D01*
X170791966Y-88047219D01*
X170912287Y-87881610D01*
X171005220Y-87699219D01*
X171068477Y-87504534D01*
X171075864Y-87457894D01*
X171100500Y-87302355D01*
X171100500Y-87097645D01*
X171071283Y-86913180D01*
X171071283Y-86913179D01*
X171069445Y-86901578D01*
X174549500Y-86901578D01*
X174549500Y-87098420D01*
X174580289Y-87292821D01*
X174641116Y-87480025D01*
X174723260Y-87641244D01*
X174730476Y-87655405D01*
X174846172Y-87814646D01*
X174985354Y-87953828D01*
X175144595Y-88069524D01*
X175319975Y-88158884D01*
X175507174Y-88219709D01*
X175507175Y-88219709D01*
X175507178Y-88219710D01*
X175701580Y-88250500D01*
X175701583Y-88250500D01*
X175898420Y-88250500D01*
X176092821Y-88219710D01*
X176092822Y-88219709D01*
X176092826Y-88219709D01*
X176280025Y-88158884D01*
X176455405Y-88069524D01*
X176614646Y-87953828D01*
X176753828Y-87814646D01*
X176869524Y-87655405D01*
X176958884Y-87480025D01*
X177019709Y-87292826D01*
X177033620Y-87204997D01*
X177050500Y-87098420D01*
X177050500Y-86901577D01*
X177050499Y-86901571D01*
X177049883Y-86897684D01*
X179500000Y-86897684D01*
X179500000Y-87102315D01*
X179532008Y-87304412D01*
X179595243Y-87499027D01*
X179688139Y-87681348D01*
X179688141Y-87681352D01*
X179780034Y-87807831D01*
X180356328Y-87231536D01*
X180399901Y-87307007D01*
X180492993Y-87400099D01*
X180568460Y-87443670D01*
X179992167Y-88019963D01*
X180118653Y-88111861D01*
X180300972Y-88204756D01*
X180495587Y-88267991D01*
X180697685Y-88300000D01*
X180902315Y-88300000D01*
X181104412Y-88267991D01*
X181299027Y-88204756D01*
X181481348Y-88111860D01*
X181481354Y-88111856D01*
X181607831Y-88019964D01*
X181607831Y-88019963D01*
X181031538Y-87443670D01*
X181107007Y-87400099D01*
X181200099Y-87307007D01*
X181243670Y-87231538D01*
X181819963Y-87807831D01*
X181819964Y-87807831D01*
X181911856Y-87681354D01*
X181911860Y-87681348D01*
X182004756Y-87499027D01*
X182067991Y-87304412D01*
X182100000Y-87102315D01*
X182100000Y-86897684D01*
X182067991Y-86695587D01*
X182004756Y-86500972D01*
X181911861Y-86318653D01*
X181819963Y-86192167D01*
X181243670Y-86768460D01*
X181200099Y-86692993D01*
X181107007Y-86599901D01*
X181031536Y-86556328D01*
X181607831Y-85980034D01*
X181481352Y-85888141D01*
X181481348Y-85888139D01*
X181299027Y-85795243D01*
X181104412Y-85732008D01*
X180902315Y-85700000D01*
X180697685Y-85700000D01*
X180495587Y-85732008D01*
X180300972Y-85795243D01*
X180118651Y-85888139D01*
X180118647Y-85888141D01*
X179992167Y-85980034D01*
X180568461Y-86556328D01*
X180492993Y-86599901D01*
X180399901Y-86692993D01*
X180356328Y-86768461D01*
X179780034Y-86192167D01*
X179688141Y-86318647D01*
X179688139Y-86318651D01*
X179595243Y-86500972D01*
X179532008Y-86695587D01*
X179500000Y-86897684D01*
X177049883Y-86897684D01*
X177019710Y-86707178D01*
X177019709Y-86707174D01*
X176958884Y-86519975D01*
X176869524Y-86344595D01*
X176753828Y-86185354D01*
X176614646Y-86046172D01*
X176455405Y-85930476D01*
X176455404Y-85930475D01*
X176455402Y-85930474D01*
X176280025Y-85841116D01*
X176092821Y-85780289D01*
X175898420Y-85749500D01*
X175898417Y-85749500D01*
X175701583Y-85749500D01*
X175701580Y-85749500D01*
X175507178Y-85780289D01*
X175319974Y-85841116D01*
X175144597Y-85930474D01*
X174985355Y-86046171D01*
X174846171Y-86185355D01*
X174730474Y-86344597D01*
X174641116Y-86519974D01*
X174580289Y-86707178D01*
X174549501Y-86901571D01*
X174549500Y-86901578D01*
X171069445Y-86901578D01*
X171068478Y-86895471D01*
X171068477Y-86895469D01*
X171068477Y-86895466D01*
X171005220Y-86700781D01*
X170912287Y-86518390D01*
X170912285Y-86518386D01*
X170791970Y-86352786D01*
X170791968Y-86352784D01*
X170791966Y-86352781D01*
X170647219Y-86208034D01*
X170647215Y-86208031D01*
X170647213Y-86208029D01*
X170481613Y-86087714D01*
X170481609Y-86087712D01*
X170299219Y-85994780D01*
X170104529Y-85931521D01*
X169967922Y-85909885D01*
X169913405Y-85882107D01*
X169885628Y-85827591D01*
X169895199Y-85767159D01*
X169938464Y-85723894D01*
X169983409Y-85713104D01*
X172955247Y-85713104D01*
X172955249Y-85713104D01*
X173038035Y-85690922D01*
X173038037Y-85690920D01*
X173038039Y-85690920D01*
X173112253Y-85648072D01*
X173112253Y-85648071D01*
X173112258Y-85648069D01*
X177812977Y-80947348D01*
X177867492Y-80919573D01*
X177920863Y-80925889D01*
X178008165Y-80962051D01*
X178201459Y-81000500D01*
X178201460Y-81000500D01*
X178398540Y-81000500D01*
X178398541Y-81000500D01*
X178591835Y-80962051D01*
X178773914Y-80886632D01*
X178937782Y-80777139D01*
X179077139Y-80637782D01*
X179186632Y-80473914D01*
X179262051Y-80291835D01*
X179300500Y-80098541D01*
X179300500Y-79901459D01*
X179262051Y-79708165D01*
X179186632Y-79526086D01*
X179077139Y-79362218D01*
X178937782Y-79222861D01*
X178783551Y-79119807D01*
X178773913Y-79113367D01*
X178591835Y-79037949D01*
X178398543Y-78999500D01*
X178398541Y-78999500D01*
X178201459Y-78999500D01*
X178201456Y-78999500D01*
X178008165Y-79037949D01*
X178008163Y-79037949D01*
X177826086Y-79113367D01*
X177662218Y-79222861D01*
X177662214Y-79222864D01*
X177522864Y-79362214D01*
X177522861Y-79362218D01*
X177413367Y-79526086D01*
X177337949Y-79708163D01*
X177337949Y-79708165D01*
X177299500Y-79901456D01*
X177299500Y-80098543D01*
X177337948Y-80291833D01*
X177374109Y-80379135D01*
X177378908Y-80440131D01*
X177352648Y-80487023D01*
X172806565Y-85033108D01*
X172752048Y-85060885D01*
X172736561Y-85062104D01*
X170830424Y-85062104D01*
X170772233Y-85043197D01*
X170736269Y-84993697D01*
X170736269Y-84932511D01*
X170772233Y-84883011D01*
X170775423Y-84880788D01*
X170819152Y-84851569D01*
X170820601Y-84850601D01*
X170875966Y-84767740D01*
X170890500Y-84694674D01*
X170890500Y-82945326D01*
X170889899Y-82942307D01*
X170884590Y-82915617D01*
X170875966Y-82872260D01*
X170827016Y-82799000D01*
X170820602Y-82789400D01*
X170820599Y-82789397D01*
X170737742Y-82734035D01*
X170737740Y-82734034D01*
X170737737Y-82734033D01*
X170737736Y-82734033D01*
X170664684Y-82719501D01*
X170664674Y-82719500D01*
X168915326Y-82719500D01*
X168915325Y-82719500D01*
X168915315Y-82719501D01*
X168842263Y-82734033D01*
X168842257Y-82734035D01*
X168759400Y-82789397D01*
X168759397Y-82789400D01*
X168704035Y-82872257D01*
X168704033Y-82872263D01*
X168689501Y-82945315D01*
X168689500Y-82945327D01*
X168689500Y-84694672D01*
X168689501Y-84694684D01*
X168704033Y-84767736D01*
X168704035Y-84767742D01*
X168759397Y-84850599D01*
X168759400Y-84850602D01*
X168804577Y-84880788D01*
X168805834Y-84882383D01*
X168807767Y-84883011D01*
X168824666Y-84906271D01*
X168842457Y-84928838D01*
X168842536Y-84930867D01*
X168843731Y-84932511D01*
X168843731Y-84961265D01*
X168844859Y-84989976D01*
X168843731Y-84991664D01*
X168843731Y-84993697D01*
X168826829Y-85016960D01*
X168810867Y-85040850D01*
X168808961Y-85041553D01*
X168807767Y-85043197D01*
X168780428Y-85052079D01*
X168753463Y-85062028D01*
X168749576Y-85062104D01*
X168563967Y-85062104D01*
X168505776Y-85043197D01*
X168493965Y-85033109D01*
X168467966Y-85007111D01*
X168467964Y-85007109D01*
X168359536Y-84944509D01*
X168238601Y-84912104D01*
X168113399Y-84912104D01*
X168106910Y-84912104D01*
X168106910Y-84910896D01*
X168053249Y-84900943D01*
X168011138Y-84856555D01*
X168001500Y-84813947D01*
X168001500Y-79921692D01*
X167990497Y-79880630D01*
X167970799Y-79807114D01*
X167970799Y-79807113D01*
X167970799Y-79807112D01*
X167911492Y-79704390D01*
X167911491Y-79704389D01*
X167911490Y-79704388D01*
X167911489Y-79704386D01*
X167372500Y-79165397D01*
X167344723Y-79110880D01*
X167348350Y-79064799D01*
X167373402Y-78987701D01*
X167379815Y-78947213D01*
X167400500Y-78816614D01*
X167400500Y-78643385D01*
X167381633Y-78524268D01*
X167373402Y-78472299D01*
X167373400Y-78472293D01*
X167367847Y-78455202D01*
X171150000Y-78455202D01*
X171150000Y-79849999D01*
X171150001Y-79850000D01*
X171700000Y-79850000D01*
X171700000Y-80150000D01*
X171150002Y-80150000D01*
X171150001Y-80150001D01*
X171150001Y-81544791D01*
X171152909Y-81569874D01*
X171198213Y-81672477D01*
X171277522Y-81751786D01*
X171380127Y-81797090D01*
X171405203Y-81799999D01*
X172549998Y-81799999D01*
X172550000Y-81799998D01*
X172550000Y-81239754D01*
X172601509Y-81250000D01*
X172798491Y-81250000D01*
X172850000Y-81239754D01*
X172850000Y-81799998D01*
X172850001Y-81799999D01*
X173994790Y-81799999D01*
X173994791Y-81799998D01*
X174019874Y-81797090D01*
X174122477Y-81751786D01*
X174201786Y-81672477D01*
X174247090Y-81569872D01*
X174249999Y-81544797D01*
X174250000Y-81544795D01*
X174250000Y-80150001D01*
X174249999Y-80150000D01*
X173700000Y-80150000D01*
X173700000Y-79850000D01*
X174249998Y-79850000D01*
X174249999Y-79849999D01*
X174249999Y-78455211D01*
X174249998Y-78455207D01*
X174249997Y-78455202D01*
X182350000Y-78455202D01*
X182350000Y-79849999D01*
X182350001Y-79850000D01*
X182900000Y-79850000D01*
X182900000Y-80150000D01*
X182350002Y-80150000D01*
X182350001Y-80150001D01*
X182350001Y-81544791D01*
X182352909Y-81569874D01*
X182398213Y-81672477D01*
X182477522Y-81751786D01*
X182580127Y-81797090D01*
X182605203Y-81799999D01*
X183749998Y-81799999D01*
X183750000Y-81799998D01*
X183750000Y-81239754D01*
X183801509Y-81250000D01*
X183998491Y-81250000D01*
X184050000Y-81239754D01*
X184050000Y-81799998D01*
X184050001Y-81799999D01*
X185194790Y-81799999D01*
X185194791Y-81799998D01*
X185219874Y-81797090D01*
X185322477Y-81751786D01*
X185401786Y-81672477D01*
X185447090Y-81569872D01*
X185449999Y-81544797D01*
X185450000Y-81544795D01*
X185450000Y-80150001D01*
X185449999Y-80150000D01*
X184900000Y-80150000D01*
X184900000Y-79850000D01*
X185449998Y-79850000D01*
X185449999Y-79849999D01*
X185449999Y-78455210D01*
X185449998Y-78455208D01*
X185447090Y-78430125D01*
X185401786Y-78327522D01*
X185322477Y-78248213D01*
X185219872Y-78202909D01*
X185194797Y-78200000D01*
X184050001Y-78200000D01*
X184050000Y-78200001D01*
X184050000Y-78760245D01*
X183998491Y-78750000D01*
X183801509Y-78750000D01*
X183750000Y-78760245D01*
X183750000Y-78200001D01*
X183749999Y-78200000D01*
X182605210Y-78200000D01*
X182605208Y-78200001D01*
X182580125Y-78202909D01*
X182477522Y-78248213D01*
X182398213Y-78327522D01*
X182352909Y-78430127D01*
X182350000Y-78455202D01*
X174249997Y-78455202D01*
X174247090Y-78430125D01*
X174201786Y-78327522D01*
X174122477Y-78248213D01*
X174019872Y-78202909D01*
X173994797Y-78200000D01*
X172850001Y-78200000D01*
X172850000Y-78200001D01*
X172850000Y-78760245D01*
X172798491Y-78750000D01*
X172601509Y-78750000D01*
X172550000Y-78760245D01*
X172550000Y-78200001D01*
X172549999Y-78200000D01*
X171405210Y-78200000D01*
X171405208Y-78200001D01*
X171380125Y-78202909D01*
X171277522Y-78248213D01*
X171198213Y-78327522D01*
X171152909Y-78430127D01*
X171150000Y-78455202D01*
X167367847Y-78455202D01*
X167319876Y-78307561D01*
X167319874Y-78307558D01*
X167319873Y-78307557D01*
X167319873Y-78307555D01*
X167241232Y-78153212D01*
X167235309Y-78145060D01*
X167173285Y-78059691D01*
X167154377Y-78001500D01*
X167173284Y-77943310D01*
X167222784Y-77907346D01*
X167253377Y-77902500D01*
X175765851Y-77902500D01*
X175765853Y-77902500D01*
X175848639Y-77880318D01*
X175848641Y-77880316D01*
X175848643Y-77880316D01*
X175922857Y-77837468D01*
X175922857Y-77837467D01*
X175922862Y-77837465D01*
X180124347Y-73635978D01*
X180178862Y-73608203D01*
X180239292Y-73617773D01*
X180239294Y-73617774D01*
X180239294Y-73617775D01*
X180319971Y-73658882D01*
X180319972Y-73658883D01*
X180319974Y-73658883D01*
X180319975Y-73658884D01*
X180507174Y-73719709D01*
X180507175Y-73719709D01*
X180507178Y-73719710D01*
X180701580Y-73750500D01*
X180701583Y-73750500D01*
X180898420Y-73750500D01*
X181092821Y-73719710D01*
X181092822Y-73719709D01*
X181092826Y-73719709D01*
X181280025Y-73658884D01*
X181455405Y-73569524D01*
X181614646Y-73453828D01*
X181753828Y-73314646D01*
X181869524Y-73155405D01*
X181958884Y-72980025D01*
X182019709Y-72792826D01*
X182034784Y-72697648D01*
X182050500Y-72598420D01*
X182050500Y-72401579D01*
X182019710Y-72207178D01*
X182015101Y-72192993D01*
X181958884Y-72019975D01*
X181869524Y-71844595D01*
X181753828Y-71685354D01*
X181749203Y-71680729D01*
X181721428Y-71626215D01*
X181730999Y-71565783D01*
X181774264Y-71522518D01*
X181834696Y-71512947D01*
X181859282Y-71520200D01*
G37*
%TD.AperFunction*%
%TA.AperFunction,Conductor*%
G36*
X139699191Y-86774407D02*
G01*
X139735155Y-86823907D01*
X139740000Y-86854500D01*
X139740000Y-87469999D01*
X139740001Y-87470000D01*
X140412555Y-87470000D01*
X140390000Y-87554174D01*
X140390000Y-87685826D01*
X140412555Y-87770000D01*
X139740002Y-87770000D01*
X139740001Y-87770001D01*
X139740001Y-88341500D01*
X139721094Y-88399691D01*
X139671594Y-88435655D01*
X139641001Y-88440500D01*
X139308463Y-88440500D01*
X139250272Y-88421593D01*
X139214308Y-88372093D01*
X139214308Y-88310907D01*
X139228368Y-88283311D01*
X139291232Y-88196788D01*
X139369873Y-88042445D01*
X139369874Y-88042440D01*
X139369876Y-88042438D01*
X139423401Y-87877706D01*
X139423402Y-87877702D01*
X139450500Y-87706614D01*
X139450500Y-87533385D01*
X139423402Y-87362297D01*
X139423401Y-87362293D01*
X139369876Y-87197561D01*
X139369874Y-87197558D01*
X139369873Y-87197556D01*
X139369873Y-87197555D01*
X139291232Y-87043212D01*
X139196401Y-86912689D01*
X139177495Y-86854500D01*
X139196402Y-86796309D01*
X139245902Y-86760345D01*
X139276495Y-86755500D01*
X139641000Y-86755500D01*
X139699191Y-86774407D01*
G37*
%TD.AperFunction*%
%TA.AperFunction,Conductor*%
G36*
X155712356Y-85144407D02*
G01*
X155724169Y-85154496D01*
X157638792Y-87069118D01*
X157666569Y-87123635D01*
X157657001Y-87184061D01*
X157650126Y-87197554D01*
X157650123Y-87197561D01*
X157596598Y-87362293D01*
X157596597Y-87362297D01*
X157569500Y-87533385D01*
X157569500Y-87706614D01*
X157596597Y-87877702D01*
X157596598Y-87877706D01*
X157650123Y-88042438D01*
X157650125Y-88042441D01*
X157717134Y-88173956D01*
X157728768Y-88196788D01*
X157791630Y-88283310D01*
X157810537Y-88341500D01*
X157791630Y-88399691D01*
X157742130Y-88435655D01*
X157711537Y-88440500D01*
X157088463Y-88440500D01*
X157030272Y-88421593D01*
X156994308Y-88372093D01*
X156994308Y-88310907D01*
X157008368Y-88283311D01*
X157071232Y-88196788D01*
X157149873Y-88042445D01*
X157149874Y-88042440D01*
X157149876Y-88042438D01*
X157203401Y-87877706D01*
X157203402Y-87877702D01*
X157230500Y-87706614D01*
X157230500Y-87533385D01*
X157203402Y-87362297D01*
X157203401Y-87362293D01*
X157149876Y-87197561D01*
X157149874Y-87197558D01*
X157149873Y-87197556D01*
X157149873Y-87197555D01*
X157071232Y-87043212D01*
X156969414Y-86903072D01*
X156846928Y-86780586D01*
X156706788Y-86678768D01*
X156706787Y-86678767D01*
X156706785Y-86678766D01*
X156552441Y-86600125D01*
X156552438Y-86600123D01*
X156387706Y-86546598D01*
X156387702Y-86546597D01*
X156216614Y-86519500D01*
X156216611Y-86519500D01*
X156043389Y-86519500D01*
X156043386Y-86519500D01*
X155872297Y-86546597D01*
X155872293Y-86546598D01*
X155707561Y-86600123D01*
X155707552Y-86600127D01*
X155667568Y-86620500D01*
X155607135Y-86630071D01*
X155552622Y-86602295D01*
X155089862Y-86139535D01*
X155089859Y-86139533D01*
X155089857Y-86139531D01*
X155015642Y-86096683D01*
X155015644Y-86096683D01*
X154982162Y-86087712D01*
X154932853Y-86074500D01*
X154932851Y-86074500D01*
X154219634Y-86074500D01*
X154161443Y-86055593D01*
X154125479Y-86006093D01*
X154125479Y-85944907D01*
X154160845Y-85895845D01*
X154195365Y-85870367D01*
X154195367Y-85870365D01*
X154276815Y-85760010D01*
X154322117Y-85630540D01*
X154324999Y-85599811D01*
X154325000Y-85599808D01*
X154325000Y-85540001D01*
X154324999Y-85540000D01*
X153756500Y-85540000D01*
X153741588Y-85535155D01*
X153725907Y-85535155D01*
X153713221Y-85525938D01*
X153698309Y-85521093D01*
X153689092Y-85508407D01*
X153676407Y-85499191D01*
X153671561Y-85484278D01*
X153662345Y-85471593D01*
X153657500Y-85441000D01*
X153657500Y-85339000D01*
X153676407Y-85280809D01*
X153725907Y-85244845D01*
X153756500Y-85240000D01*
X154324998Y-85240000D01*
X154324999Y-85239999D01*
X154324999Y-85224500D01*
X154343906Y-85166309D01*
X154393406Y-85130345D01*
X154423999Y-85125500D01*
X155654165Y-85125500D01*
X155712356Y-85144407D01*
G37*
%TD.AperFunction*%
%TA.AperFunction,Conductor*%
G36*
X142561696Y-86774407D02*
G01*
X142597660Y-86823907D01*
X142597660Y-86885093D01*
X142583599Y-86912688D01*
X142552431Y-86955588D01*
X142488766Y-87043214D01*
X142410125Y-87197558D01*
X142410123Y-87197561D01*
X142356598Y-87362293D01*
X142356597Y-87362297D01*
X142329500Y-87533385D01*
X142329500Y-87706614D01*
X142356597Y-87877702D01*
X142356598Y-87877706D01*
X142410123Y-88042438D01*
X142410127Y-88042447D01*
X142418566Y-88059009D01*
X142428137Y-88119441D01*
X142400360Y-88173956D01*
X142209004Y-88365313D01*
X142154487Y-88393091D01*
X142094055Y-88383520D01*
X142050790Y-88340255D01*
X142040000Y-88295310D01*
X142040000Y-87770001D01*
X142039999Y-87770000D01*
X141367445Y-87770000D01*
X141390000Y-87685826D01*
X141390000Y-87554174D01*
X141367445Y-87470000D01*
X142039998Y-87470000D01*
X142039999Y-87469999D01*
X142039999Y-86854500D01*
X142058906Y-86796309D01*
X142108406Y-86760345D01*
X142138999Y-86755500D01*
X142503505Y-86755500D01*
X142561696Y-86774407D01*
G37*
%TD.AperFunction*%
%TA.AperFunction,Conductor*%
G36*
X162605679Y-77543407D02*
G01*
X162617491Y-77553496D01*
X162840855Y-77776859D01*
X162840857Y-77776862D01*
X162901460Y-77837465D01*
X162936063Y-77857443D01*
X162943518Y-77861747D01*
X162975679Y-77880316D01*
X162975683Y-77880318D01*
X163058466Y-77902500D01*
X163058468Y-77902501D01*
X163058469Y-77902501D01*
X163150238Y-77902501D01*
X163150254Y-77902500D01*
X165346623Y-77902500D01*
X165404814Y-77921407D01*
X165440778Y-77970907D01*
X165440778Y-78032093D01*
X165426715Y-78059691D01*
X165358771Y-78153206D01*
X165358767Y-78153212D01*
X165280125Y-78307558D01*
X165280123Y-78307561D01*
X165226598Y-78472293D01*
X165226597Y-78472297D01*
X165199500Y-78643385D01*
X165199500Y-78816614D01*
X165226597Y-78987702D01*
X165226598Y-78987706D01*
X165280123Y-79152438D01*
X165280125Y-79152441D01*
X165357968Y-79305219D01*
X165358768Y-79306788D01*
X165460586Y-79446928D01*
X165583072Y-79569414D01*
X165723212Y-79671232D01*
X165877555Y-79749873D01*
X165877557Y-79749873D01*
X165877558Y-79749874D01*
X165877561Y-79749876D01*
X166042293Y-79803401D01*
X166042297Y-79803402D01*
X166213386Y-79830500D01*
X166213389Y-79830500D01*
X166386614Y-79830500D01*
X166557696Y-79803403D01*
X166557697Y-79803402D01*
X166557701Y-79803402D01*
X166634800Y-79778349D01*
X166695984Y-79778349D01*
X166735397Y-79802500D01*
X167071504Y-80138607D01*
X167075130Y-80145724D01*
X167081593Y-80150420D01*
X167088756Y-80172468D01*
X167099281Y-80193124D01*
X167100500Y-80208611D01*
X167100500Y-80297005D01*
X167081593Y-80355196D01*
X167032093Y-80391160D01*
X166970907Y-80391160D01*
X166943310Y-80377098D01*
X166876791Y-80328769D01*
X166876787Y-80328767D01*
X166722441Y-80250125D01*
X166722438Y-80250123D01*
X166557706Y-80196598D01*
X166557702Y-80196597D01*
X166386614Y-80169500D01*
X166386611Y-80169500D01*
X166213389Y-80169500D01*
X166213386Y-80169500D01*
X166042297Y-80196597D01*
X166042293Y-80196598D01*
X165877561Y-80250123D01*
X165877558Y-80250125D01*
X165723214Y-80328766D01*
X165583073Y-80430585D01*
X165460585Y-80553073D01*
X165358766Y-80693214D01*
X165280125Y-80847558D01*
X165280123Y-80847561D01*
X165226598Y-81012293D01*
X165226597Y-81012297D01*
X165199500Y-81183385D01*
X165199500Y-81356614D01*
X165226597Y-81527702D01*
X165226598Y-81527706D01*
X165280123Y-81692438D01*
X165280125Y-81692441D01*
X165343821Y-81817454D01*
X165358768Y-81846788D01*
X165460586Y-81986928D01*
X165583072Y-82109414D01*
X165723212Y-82211232D01*
X165877555Y-82289873D01*
X165877557Y-82289873D01*
X165877558Y-82289874D01*
X165877561Y-82289876D01*
X166042293Y-82343401D01*
X166042297Y-82343402D01*
X166213386Y-82370500D01*
X166213389Y-82370500D01*
X166386614Y-82370500D01*
X166557702Y-82343402D01*
X166557706Y-82343401D01*
X166722438Y-82289876D01*
X166722440Y-82289874D01*
X166722445Y-82289873D01*
X166876788Y-82211232D01*
X166943310Y-82162900D01*
X167001500Y-82143994D01*
X167059691Y-82162901D01*
X167095655Y-82212401D01*
X167100500Y-82242994D01*
X167100500Y-82837005D01*
X167081593Y-82895196D01*
X167032093Y-82931160D01*
X166970907Y-82931160D01*
X166943310Y-82917098D01*
X166876791Y-82868769D01*
X166876787Y-82868767D01*
X166722441Y-82790125D01*
X166722438Y-82790123D01*
X166557706Y-82736598D01*
X166557702Y-82736597D01*
X166386614Y-82709500D01*
X166386611Y-82709500D01*
X166213389Y-82709500D01*
X166213386Y-82709500D01*
X166042297Y-82736597D01*
X166042293Y-82736598D01*
X165877561Y-82790123D01*
X165877558Y-82790125D01*
X165723214Y-82868766D01*
X165583073Y-82970585D01*
X165460585Y-83093073D01*
X165358766Y-83233214D01*
X165280125Y-83387558D01*
X165280123Y-83387561D01*
X165226598Y-83552293D01*
X165226597Y-83552297D01*
X165199500Y-83723385D01*
X165199500Y-83896614D01*
X165226597Y-84067702D01*
X165226598Y-84067706D01*
X165280123Y-84232438D01*
X165280125Y-84232441D01*
X165358685Y-84386627D01*
X165358768Y-84386788D01*
X165460586Y-84526928D01*
X165583072Y-84649414D01*
X165723212Y-84751232D01*
X165877555Y-84829873D01*
X165877557Y-84829873D01*
X165877558Y-84829874D01*
X165877561Y-84829876D01*
X166042293Y-84883401D01*
X166042297Y-84883402D01*
X166213386Y-84910500D01*
X166213389Y-84910500D01*
X166386614Y-84910500D01*
X166557702Y-84883402D01*
X166557706Y-84883401D01*
X166722438Y-84829876D01*
X166722440Y-84829874D01*
X166722445Y-84829873D01*
X166876788Y-84751232D01*
X166943310Y-84702900D01*
X167001500Y-84683994D01*
X167059691Y-84702901D01*
X167095655Y-84752401D01*
X167100500Y-84782994D01*
X167100500Y-86654271D01*
X167081593Y-86712462D01*
X167032093Y-86748426D01*
X166970907Y-86748426D01*
X166943309Y-86734364D01*
X166931109Y-86725500D01*
X166866788Y-86678768D01*
X166712445Y-86600127D01*
X166712444Y-86600126D01*
X166712441Y-86600125D01*
X166712438Y-86600123D01*
X166547706Y-86546598D01*
X166547702Y-86546597D01*
X166376614Y-86519500D01*
X166376611Y-86519500D01*
X166203389Y-86519500D01*
X166203386Y-86519500D01*
X166032297Y-86546597D01*
X166032293Y-86546598D01*
X165867561Y-86600123D01*
X165867552Y-86600127D01*
X165827569Y-86620500D01*
X165767137Y-86630071D01*
X165712621Y-86602294D01*
X164162406Y-85052079D01*
X162599862Y-83489535D01*
X162599859Y-83489533D01*
X162599858Y-83489532D01*
X162599857Y-83489531D01*
X162525642Y-83446683D01*
X162525644Y-83446683D01*
X162493521Y-83438076D01*
X162442853Y-83424500D01*
X162442851Y-83424500D01*
X162200029Y-83424500D01*
X162141838Y-83405593D01*
X162105874Y-83356093D01*
X162105874Y-83298450D01*
X162105327Y-83298321D01*
X162105874Y-83296006D01*
X162105874Y-83294907D01*
X162106679Y-83292598D01*
X162106747Y-83292309D01*
X162106751Y-83292299D01*
X162113000Y-83234174D01*
X162113000Y-82713334D01*
X162131907Y-82655143D01*
X162141990Y-82643336D01*
X162260465Y-82524862D01*
X162283313Y-82485288D01*
X162284050Y-82484013D01*
X162303317Y-82450639D01*
X162303318Y-82450638D01*
X162325500Y-82367853D01*
X162325500Y-82249000D01*
X162344407Y-82190809D01*
X162393907Y-82154845D01*
X162424500Y-82150000D01*
X162999999Y-82150000D01*
X163000000Y-82150000D01*
X163000000Y-81817454D01*
X163018907Y-81759263D01*
X163068407Y-81723299D01*
X163129593Y-81723299D01*
X163158329Y-81738201D01*
X163160311Y-81739685D01*
X163160313Y-81739687D01*
X163269774Y-81821628D01*
X163397886Y-81869412D01*
X163454515Y-81875500D01*
X164045484Y-81875499D01*
X164102114Y-81869412D01*
X164230226Y-81821628D01*
X164339687Y-81739687D01*
X164421628Y-81630226D01*
X164469412Y-81502114D01*
X164475500Y-81445485D01*
X164475499Y-80904516D01*
X164469412Y-80847886D01*
X164421628Y-80719774D01*
X164339687Y-80610313D01*
X164230226Y-80528372D01*
X164205097Y-80518999D01*
X164157184Y-80480948D01*
X164140787Y-80422000D01*
X164162170Y-80364673D01*
X164203378Y-80334144D01*
X164259728Y-80311922D01*
X164374717Y-80224723D01*
X164374723Y-80224717D01*
X164461922Y-80109729D01*
X164514867Y-79975468D01*
X164524999Y-79891104D01*
X164525000Y-79891100D01*
X164525000Y-79775001D01*
X164524999Y-79775000D01*
X163099000Y-79775000D01*
X163084088Y-79770155D01*
X163068407Y-79770155D01*
X163055721Y-79760938D01*
X163040809Y-79756093D01*
X163031592Y-79743407D01*
X163018907Y-79734191D01*
X163014061Y-79719278D01*
X163004845Y-79706593D01*
X163000000Y-79676000D01*
X163000000Y-79574000D01*
X163018907Y-79515809D01*
X163068407Y-79479845D01*
X163099000Y-79475000D01*
X163599999Y-79475000D01*
X163600000Y-79474999D01*
X163600000Y-78875001D01*
X163900000Y-78875001D01*
X163900000Y-79474999D01*
X163900001Y-79475000D01*
X164524999Y-79475000D01*
X164525000Y-79474999D01*
X164525000Y-79358899D01*
X164524999Y-79358895D01*
X164514867Y-79274531D01*
X164461922Y-79140270D01*
X164374723Y-79025282D01*
X164374717Y-79025276D01*
X164259729Y-78938077D01*
X164125468Y-78885132D01*
X164041104Y-78875000D01*
X163900001Y-78875000D01*
X163900000Y-78875001D01*
X163600000Y-78875001D01*
X163599999Y-78875000D01*
X163458895Y-78875000D01*
X163374531Y-78885132D01*
X163240270Y-78938077D01*
X163158819Y-78999844D01*
X163101028Y-79019939D01*
X163042462Y-79002228D01*
X163005492Y-78953475D01*
X163000000Y-78920960D01*
X163000000Y-78650001D01*
X163000000Y-78650000D01*
X162999999Y-78650000D01*
X162379039Y-78650000D01*
X162320848Y-78631093D01*
X162284884Y-78581593D01*
X162284884Y-78520407D01*
X162300155Y-78491180D01*
X162361922Y-78409727D01*
X162414867Y-78275468D01*
X162424999Y-78191104D01*
X162425000Y-78191100D01*
X162425000Y-78050001D01*
X162424999Y-78050000D01*
X161774000Y-78050000D01*
X161759088Y-78045155D01*
X161743407Y-78045155D01*
X161730721Y-78035938D01*
X161715809Y-78031093D01*
X161706592Y-78018407D01*
X161693907Y-78009191D01*
X161689061Y-77994278D01*
X161679845Y-77981593D01*
X161675000Y-77951000D01*
X161675000Y-77849000D01*
X161693907Y-77790809D01*
X161743407Y-77754845D01*
X161774000Y-77750000D01*
X162424999Y-77750000D01*
X162425000Y-77749999D01*
X162425000Y-77623500D01*
X162429845Y-77608588D01*
X162429845Y-77592907D01*
X162439061Y-77580221D01*
X162443907Y-77565309D01*
X162456592Y-77556092D01*
X162465809Y-77543407D01*
X162480721Y-77538561D01*
X162493407Y-77529345D01*
X162524000Y-77524500D01*
X162547488Y-77524500D01*
X162605679Y-77543407D01*
G37*
%TD.AperFunction*%
%TA.AperFunction,Conductor*%
G36*
X146641691Y-84618907D02*
G01*
X146677655Y-84668407D01*
X146682500Y-84699000D01*
X146682500Y-85209998D01*
X146682501Y-85209999D01*
X146799801Y-85209999D01*
X146830540Y-85207117D01*
X146830546Y-85207116D01*
X146941485Y-85168297D01*
X147002655Y-85166924D01*
X147052950Y-85201768D01*
X147073158Y-85259519D01*
X147059924Y-85311234D01*
X147056906Y-85316461D01*
X147056905Y-85316463D01*
X147056905Y-85316464D01*
X147024500Y-85437399D01*
X147024500Y-85437401D01*
X147024500Y-85549431D01*
X147005593Y-85607622D01*
X146956093Y-85643586D01*
X146894907Y-85643586D01*
X146855498Y-85619436D01*
X146849695Y-85613633D01*
X146741267Y-85551033D01*
X146620332Y-85518628D01*
X146495130Y-85518628D01*
X146495125Y-85518628D01*
X146480336Y-85522591D01*
X146477638Y-85522449D01*
X146475298Y-85523801D01*
X146447310Y-85520859D01*
X146419235Y-85519387D01*
X146417136Y-85517687D01*
X146414448Y-85517405D01*
X146393541Y-85498579D01*
X146371686Y-85480881D01*
X146368979Y-85476463D01*
X146366167Y-85471593D01*
X146351510Y-85446205D01*
X146341620Y-85422328D01*
X146333373Y-85391548D01*
X146330000Y-85365926D01*
X146330000Y-85334071D01*
X146333373Y-85308449D01*
X146336550Y-85296591D01*
X146344561Y-85266693D01*
X146370184Y-85222314D01*
X146382500Y-85209998D01*
X146382500Y-84699000D01*
X146387345Y-84684088D01*
X146387345Y-84668407D01*
X146396561Y-84655721D01*
X146401407Y-84640809D01*
X146414092Y-84631592D01*
X146423309Y-84618907D01*
X146438221Y-84614061D01*
X146450907Y-84604845D01*
X146481500Y-84600000D01*
X146583500Y-84600000D01*
X146641691Y-84618907D01*
G37*
%TD.AperFunction*%
%TA.AperFunction,Conductor*%
G36*
X136349749Y-82419407D02*
G01*
X136385713Y-82468907D01*
X136385713Y-82530093D01*
X136379767Y-82544445D01*
X136364355Y-82574692D01*
X136364354Y-82574694D01*
X136349500Y-82668477D01*
X136349500Y-83756521D01*
X136349501Y-83756523D01*
X136364352Y-83850299D01*
X136364353Y-83850302D01*
X136379741Y-83880503D01*
X136389312Y-83940936D01*
X136361534Y-83995452D01*
X136358734Y-83998144D01*
X136324622Y-84029677D01*
X136324621Y-84029679D01*
X136296560Y-84079788D01*
X136275912Y-84116659D01*
X136272440Y-84127345D01*
X136257003Y-84174854D01*
X136244500Y-84253798D01*
X136244500Y-84476480D01*
X136225593Y-84534671D01*
X136176093Y-84570635D01*
X136135478Y-84573830D01*
X136135402Y-84574805D01*
X136131524Y-84574500D01*
X135768479Y-84574500D01*
X135768476Y-84574501D01*
X135674700Y-84589352D01*
X135674695Y-84589354D01*
X135561659Y-84646949D01*
X135471949Y-84736659D01*
X135414354Y-84849695D01*
X135399500Y-84943477D01*
X135399320Y-84945766D01*
X135399024Y-84946478D01*
X135398891Y-84947323D01*
X135398688Y-84947290D01*
X135375906Y-85002294D01*
X135323738Y-85034264D01*
X135300625Y-85037000D01*
X134777611Y-85037000D01*
X134719420Y-85018093D01*
X134707607Y-85008004D01*
X133954496Y-84254893D01*
X133926719Y-84200376D01*
X133925500Y-84184889D01*
X133925500Y-83790829D01*
X133923185Y-83769294D01*
X133919251Y-83732701D01*
X133915778Y-83723389D01*
X133870213Y-83601223D01*
X133815645Y-83528329D01*
X133795908Y-83470414D01*
X133813982Y-83411959D01*
X133862964Y-83375292D01*
X133894898Y-83370000D01*
X133900417Y-83370000D01*
X133900420Y-83369999D01*
X133931480Y-83367086D01*
X133931489Y-83367084D01*
X133944586Y-83362501D01*
X134400001Y-83362501D01*
X134400001Y-83779203D01*
X134402850Y-83809600D01*
X134402850Y-83809602D01*
X134447654Y-83937647D01*
X134528207Y-84046790D01*
X134528209Y-84046792D01*
X134637352Y-84127345D01*
X134765399Y-84172149D01*
X134795788Y-84174999D01*
X134849999Y-84174998D01*
X134850000Y-84174998D01*
X134850000Y-83362501D01*
X135150000Y-83362501D01*
X135150000Y-84174998D01*
X135150001Y-84174999D01*
X135204203Y-84174999D01*
X135234600Y-84172149D01*
X135234602Y-84172149D01*
X135362647Y-84127345D01*
X135471790Y-84046792D01*
X135471792Y-84046790D01*
X135552345Y-83937647D01*
X135597149Y-83809601D01*
X135599999Y-83779211D01*
X135600000Y-83779210D01*
X135600000Y-83362501D01*
X135599999Y-83362500D01*
X135150001Y-83362500D01*
X135150000Y-83362501D01*
X134850000Y-83362501D01*
X134849999Y-83362500D01*
X134400002Y-83362500D01*
X134400001Y-83362501D01*
X133944586Y-83362501D01*
X134062372Y-83321286D01*
X134170019Y-83241839D01*
X134170021Y-83241838D01*
X134173941Y-83238944D01*
X134173946Y-83238939D01*
X134256285Y-83127373D01*
X134258313Y-83121578D01*
X134295374Y-83072894D01*
X134353972Y-83055292D01*
X134374577Y-83062500D01*
X135599998Y-83062500D01*
X135599999Y-83062499D01*
X135599999Y-82645796D01*
X135597149Y-82615399D01*
X135597148Y-82615393D01*
X135568037Y-82532198D01*
X135566664Y-82471028D01*
X135601508Y-82420733D01*
X135659259Y-82400525D01*
X135661481Y-82400500D01*
X136291558Y-82400500D01*
X136349749Y-82419407D01*
G37*
%TD.AperFunction*%
%TA.AperFunction,Conductor*%
G36*
X137644882Y-82401479D02*
G01*
X137647950Y-82400687D01*
X137673713Y-82410846D01*
X137700060Y-82419407D01*
X137701922Y-82421970D01*
X137704870Y-82423133D01*
X137719739Y-82446493D01*
X137736024Y-82468907D01*
X137736024Y-82472076D01*
X137737725Y-82474749D01*
X137736024Y-82502391D01*
X137736024Y-82530093D01*
X137733967Y-82535819D01*
X137685372Y-82659044D01*
X137675000Y-82745417D01*
X137675000Y-82937499D01*
X137675001Y-82937500D01*
X139224999Y-82937500D01*
X139225000Y-82937499D01*
X139225000Y-82745423D01*
X139224999Y-82745417D01*
X139214627Y-82659044D01*
X139166033Y-82535819D01*
X139162275Y-82474749D01*
X139195130Y-82423133D01*
X139252050Y-82400687D01*
X139258131Y-82400500D01*
X143116000Y-82400500D01*
X143174191Y-82419407D01*
X143210155Y-82468907D01*
X143215000Y-82499500D01*
X143215000Y-82549999D01*
X143215001Y-82550000D01*
X143783500Y-82550000D01*
X143841691Y-82568907D01*
X143877655Y-82618407D01*
X143882500Y-82649000D01*
X143882500Y-82699999D01*
X143882501Y-82700000D01*
X143933500Y-82700000D01*
X143991691Y-82718907D01*
X144027655Y-82768407D01*
X144032500Y-82799000D01*
X144032500Y-84501000D01*
X144027655Y-84515911D01*
X144027655Y-84531593D01*
X144018438Y-84544278D01*
X144013593Y-84559191D01*
X144000907Y-84568407D01*
X143991691Y-84581093D01*
X143976778Y-84585938D01*
X143964093Y-84595155D01*
X143933500Y-84600000D01*
X143831500Y-84600000D01*
X143773309Y-84581093D01*
X143737345Y-84531593D01*
X143732500Y-84501000D01*
X143732500Y-83800001D01*
X143732499Y-83800000D01*
X143215002Y-83800000D01*
X143215001Y-83800001D01*
X143215001Y-83859801D01*
X143217882Y-83890540D01*
X143217882Y-83890541D01*
X143263184Y-84020010D01*
X143297283Y-84066211D01*
X143316625Y-84124259D01*
X143306795Y-84168015D01*
X143224543Y-84338515D01*
X143207065Y-84356770D01*
X143191755Y-84376878D01*
X143186130Y-84378636D01*
X143182229Y-84382711D01*
X143160562Y-84386627D01*
X143135376Y-84394500D01*
X141850276Y-84394500D01*
X141824653Y-84391127D01*
X141808460Y-84386788D01*
X141762601Y-84374500D01*
X141637399Y-84374500D01*
X141591540Y-84386788D01*
X141575347Y-84391127D01*
X141549724Y-84394500D01*
X139278507Y-84394500D01*
X139258458Y-84395288D01*
X139258451Y-84395288D01*
X139258439Y-84395289D01*
X139241725Y-84396604D01*
X139182231Y-84382318D01*
X139142497Y-84335790D01*
X139141205Y-84332507D01*
X139137335Y-84322131D01*
X139120212Y-84276222D01*
X139120209Y-84276218D01*
X139120209Y-84276217D01*
X139120208Y-84276216D01*
X139036119Y-84163888D01*
X139036118Y-84163887D01*
X139036116Y-84163884D01*
X138990700Y-84129886D01*
X138923777Y-84079787D01*
X138894917Y-84069023D01*
X138847003Y-84030972D01*
X138830605Y-83972025D01*
X138851987Y-83914697D01*
X138893196Y-83884167D01*
X138953412Y-83860420D01*
X139071139Y-83771145D01*
X139071145Y-83771139D01*
X139160420Y-83653412D01*
X139160423Y-83653408D01*
X139214626Y-83515958D01*
X139223726Y-83440188D01*
X143215000Y-83440188D01*
X143215000Y-83499999D01*
X143215001Y-83500000D01*
X143732499Y-83500000D01*
X143732500Y-83499999D01*
X143732500Y-82850001D01*
X143732499Y-82850000D01*
X143215002Y-82850000D01*
X143215001Y-82850001D01*
X143215001Y-82909801D01*
X143217882Y-82940540D01*
X143217882Y-82940541D01*
X143263184Y-83070010D01*
X143297283Y-83116211D01*
X143316625Y-83174259D01*
X143298154Y-83232590D01*
X143297283Y-83233789D01*
X143263184Y-83279989D01*
X143217882Y-83409459D01*
X143215000Y-83440188D01*
X139223726Y-83440188D01*
X139225000Y-83429579D01*
X139225000Y-83237501D01*
X139224999Y-83237500D01*
X137675001Y-83237500D01*
X137663556Y-83248945D01*
X137609039Y-83276722D01*
X137548607Y-83267151D01*
X137523548Y-83248945D01*
X137479495Y-83204892D01*
X137451718Y-83150375D01*
X137450499Y-83134888D01*
X137450499Y-82668477D01*
X137450498Y-82668476D01*
X137435647Y-82574700D01*
X137435645Y-82574692D01*
X137420233Y-82544445D01*
X137410661Y-82484013D01*
X137438438Y-82429497D01*
X137492955Y-82401719D01*
X137508442Y-82400500D01*
X137641869Y-82400500D01*
X137644882Y-82401479D01*
G37*
%TD.AperFunction*%
%TA.AperFunction,Conductor*%
G36*
X157876691Y-80468907D02*
G01*
X157912655Y-80518407D01*
X157917500Y-80549000D01*
X157917500Y-82009998D01*
X157917501Y-82009999D01*
X158034800Y-82009999D01*
X158066260Y-82007050D01*
X158125962Y-82020444D01*
X158166388Y-82066371D01*
X158174500Y-82105618D01*
X158174500Y-82531305D01*
X158206224Y-82690790D01*
X158268450Y-82841018D01*
X158346638Y-82958036D01*
X158358792Y-82976225D01*
X158473775Y-83091208D01*
X158608979Y-83181548D01*
X158608980Y-83181548D01*
X158608981Y-83181549D01*
X158735696Y-83234036D01*
X158782222Y-83273772D01*
X158796506Y-83333267D01*
X158773091Y-83389795D01*
X158720922Y-83421765D01*
X158697811Y-83424500D01*
X157623656Y-83424500D01*
X157565465Y-83405593D01*
X157529501Y-83356093D01*
X157526101Y-83319090D01*
X157525500Y-83319090D01*
X157525500Y-83187401D01*
X157525500Y-83187399D01*
X157493095Y-83066464D01*
X157454432Y-82999497D01*
X157441712Y-82939651D01*
X157454433Y-82900502D01*
X157493097Y-82833534D01*
X157525502Y-82712599D01*
X157525502Y-82587397D01*
X157493097Y-82466462D01*
X157430497Y-82358034D01*
X157341966Y-82269503D01*
X157233538Y-82206903D01*
X157112603Y-82174498D01*
X157112602Y-82174498D01*
X157111680Y-82174251D01*
X157111368Y-82174301D01*
X157110815Y-82174019D01*
X157106335Y-82172819D01*
X157106590Y-82171866D01*
X157085196Y-82160966D01*
X157058707Y-82148331D01*
X157056851Y-82146524D01*
X156991321Y-82080994D01*
X156963544Y-82026477D01*
X156973115Y-81966045D01*
X157016377Y-81922782D01*
X157086318Y-81887146D01*
X157091358Y-81882105D01*
X157145868Y-81854325D01*
X157206301Y-81863891D01*
X157223402Y-81876314D01*
X157223664Y-81875961D01*
X157339989Y-81961815D01*
X157469458Y-82007117D01*
X157500191Y-82009999D01*
X157617500Y-82009999D01*
X157617500Y-80549000D01*
X157622345Y-80534088D01*
X157622345Y-80518407D01*
X157631561Y-80505721D01*
X157636407Y-80490809D01*
X157649092Y-80481592D01*
X157658309Y-80468907D01*
X157673221Y-80464061D01*
X157685907Y-80454845D01*
X157716500Y-80450000D01*
X157818500Y-80450000D01*
X157876691Y-80468907D01*
G37*
%TD.AperFunction*%
%TA.AperFunction,Conductor*%
G36*
X143991691Y-77968907D02*
G01*
X144027655Y-78018407D01*
X144032500Y-78049000D01*
X144032500Y-79751000D01*
X144013593Y-79809191D01*
X143964093Y-79845155D01*
X143933500Y-79850000D01*
X143882501Y-79850000D01*
X143882500Y-79850001D01*
X143882500Y-79901000D01*
X143863593Y-79959191D01*
X143814093Y-79995155D01*
X143783500Y-80000000D01*
X143215002Y-80000000D01*
X143215001Y-80000001D01*
X143215001Y-80050500D01*
X143196094Y-80108691D01*
X143146594Y-80144655D01*
X143116001Y-80149500D01*
X141982108Y-80149500D01*
X141923917Y-80130593D01*
X141887953Y-80081093D01*
X141887953Y-80019907D01*
X141923917Y-79970407D01*
X141932598Y-79964769D01*
X141991964Y-79930495D01*
X142080495Y-79841964D01*
X142143095Y-79733536D01*
X142168108Y-79640188D01*
X143215000Y-79640188D01*
X143215000Y-79699999D01*
X143215001Y-79700000D01*
X143732499Y-79700000D01*
X143732500Y-79699999D01*
X143732500Y-79050001D01*
X143732499Y-79050000D01*
X143215002Y-79050000D01*
X143215001Y-79050001D01*
X143215001Y-79109801D01*
X143217882Y-79140540D01*
X143217882Y-79140541D01*
X143263184Y-79270010D01*
X143297283Y-79316211D01*
X143316625Y-79374259D01*
X143298154Y-79432590D01*
X143297283Y-79433789D01*
X143263184Y-79479989D01*
X143217882Y-79609459D01*
X143215000Y-79640188D01*
X142168108Y-79640188D01*
X142175500Y-79612601D01*
X142175500Y-79605125D01*
X142176240Y-79599108D01*
X142186734Y-79576612D01*
X142194407Y-79552998D01*
X142201775Y-79544370D01*
X142202107Y-79543660D01*
X142202629Y-79543370D01*
X142204490Y-79541191D01*
X143045998Y-78699683D01*
X143100513Y-78671908D01*
X143160945Y-78681479D01*
X143204210Y-78724744D01*
X143208779Y-78743778D01*
X143215001Y-78750000D01*
X143732499Y-78750000D01*
X143732500Y-78749999D01*
X143732500Y-78049000D01*
X143737345Y-78034088D01*
X143737345Y-78018407D01*
X143746561Y-78005721D01*
X143751407Y-77990809D01*
X143764092Y-77981592D01*
X143773309Y-77968907D01*
X143788221Y-77964061D01*
X143800907Y-77954845D01*
X143831500Y-77950000D01*
X143933500Y-77950000D01*
X143991691Y-77968907D01*
G37*
%TD.AperFunction*%
%TA.AperFunction,Conductor*%
G36*
X143201191Y-75325407D02*
G01*
X143237155Y-75374907D01*
X143242000Y-75405499D01*
X143242000Y-75549173D01*
X143242001Y-75549185D01*
X143248000Y-75594757D01*
X143277565Y-75658161D01*
X143285021Y-75718891D01*
X143277565Y-75741838D01*
X143248002Y-75805237D01*
X143248001Y-75805241D01*
X143242000Y-75850822D01*
X143242000Y-76049173D01*
X143242001Y-76049185D01*
X143248000Y-76094757D01*
X143248000Y-76094758D01*
X143248001Y-76094760D01*
X143257917Y-76116025D01*
X143277565Y-76158161D01*
X143285021Y-76218891D01*
X143277565Y-76241838D01*
X143251057Y-76298686D01*
X143248001Y-76305240D01*
X143245047Y-76327682D01*
X143242000Y-76350822D01*
X143242000Y-76549173D01*
X143242001Y-76549185D01*
X143248000Y-76594757D01*
X143277565Y-76658161D01*
X143285021Y-76718891D01*
X143277565Y-76741838D01*
X143248002Y-76805237D01*
X143248001Y-76805241D01*
X143242000Y-76850822D01*
X143242000Y-76988810D01*
X143223093Y-77047001D01*
X143213004Y-77058813D01*
X142911315Y-77360503D01*
X142856798Y-77388281D01*
X142841311Y-77389500D01*
X142573082Y-77389500D01*
X142478131Y-77404539D01*
X142363681Y-77462854D01*
X142363680Y-77462854D01*
X142358635Y-77467900D01*
X142304117Y-77495675D01*
X142243686Y-77486101D01*
X142226596Y-77473686D01*
X142226336Y-77474039D01*
X142110010Y-77388184D01*
X141980540Y-77342882D01*
X141949811Y-77340000D01*
X141828040Y-77340000D01*
X141769849Y-77321093D01*
X141733885Y-77271593D01*
X141733885Y-77210407D01*
X141738316Y-77199161D01*
X141753176Y-77167293D01*
X141786999Y-77094760D01*
X141793000Y-77049179D01*
X141792999Y-76850822D01*
X141786999Y-76805240D01*
X141783797Y-76798374D01*
X141757435Y-76741838D01*
X141749978Y-76681109D01*
X141757433Y-76658162D01*
X141786999Y-76594760D01*
X141793000Y-76549179D01*
X141792999Y-76350822D01*
X141791574Y-76340000D01*
X141786999Y-76305240D01*
X141786998Y-76305238D01*
X141757435Y-76241838D01*
X141749978Y-76181109D01*
X141757433Y-76158162D01*
X141786999Y-76094760D01*
X141793000Y-76049179D01*
X141792999Y-75850822D01*
X141786999Y-75805240D01*
X141784223Y-75799288D01*
X141776765Y-75738559D01*
X141785007Y-75713965D01*
X141832232Y-75617366D01*
X141832233Y-75617365D01*
X141838406Y-75575000D01*
X141526965Y-75575000D01*
X141519923Y-75574538D01*
X141519912Y-75574712D01*
X141516679Y-75574500D01*
X141516678Y-75574500D01*
X141191500Y-75574500D01*
X141176588Y-75569655D01*
X141160907Y-75569655D01*
X141148221Y-75560438D01*
X141133309Y-75555593D01*
X141124092Y-75542907D01*
X141111407Y-75533691D01*
X141106561Y-75518778D01*
X141097345Y-75506093D01*
X141092500Y-75475500D01*
X141092500Y-75424000D01*
X141111407Y-75365809D01*
X141160907Y-75329845D01*
X141191500Y-75325000D01*
X141850837Y-75325000D01*
X141877158Y-75309094D01*
X141899672Y-75306500D01*
X143143000Y-75306500D01*
X143201191Y-75325407D01*
G37*
%TD.AperFunction*%
%TA.AperFunction,Conductor*%
G36*
X178450000Y-73799998D02*
G01*
X178450001Y-73799999D01*
X178800665Y-73799999D01*
X178858856Y-73818906D01*
X178894820Y-73868406D01*
X178894820Y-73929592D01*
X178870669Y-73969003D01*
X175617169Y-77222504D01*
X175562652Y-77250281D01*
X175547165Y-77251500D01*
X171747835Y-77251500D01*
X171689644Y-77232593D01*
X171653680Y-77183093D01*
X171653680Y-77121907D01*
X171677831Y-77082496D01*
X172534827Y-76225500D01*
X175124347Y-73635978D01*
X175178862Y-73608203D01*
X175239292Y-73617773D01*
X175239294Y-73617774D01*
X175239294Y-73617775D01*
X175319971Y-73658882D01*
X175319972Y-73658883D01*
X175319974Y-73658883D01*
X175319975Y-73658884D01*
X175507174Y-73719709D01*
X175507175Y-73719709D01*
X175507178Y-73719710D01*
X175701580Y-73750500D01*
X175701583Y-73750500D01*
X175898420Y-73750500D01*
X176092821Y-73719710D01*
X176092822Y-73719709D01*
X176092826Y-73719709D01*
X176280025Y-73658884D01*
X176455405Y-73569524D01*
X176614646Y-73453828D01*
X176753828Y-73314646D01*
X176820908Y-73222317D01*
X176870407Y-73186355D01*
X176931592Y-73186354D01*
X176981092Y-73222318D01*
X177000000Y-73280509D01*
X177000000Y-73544789D01*
X177000001Y-73544792D01*
X177002909Y-73569874D01*
X177048213Y-73672477D01*
X177127522Y-73751786D01*
X177230127Y-73797090D01*
X177255203Y-73799999D01*
X178149998Y-73799999D01*
X178150000Y-73799998D01*
X178150000Y-72977445D01*
X178234174Y-73000000D01*
X178365826Y-73000000D01*
X178450000Y-72977445D01*
X178450000Y-73799998D01*
G37*
%TD.AperFunction*%
%TA.AperFunction,Conductor*%
G36*
X147233322Y-74422407D02*
G01*
X147245135Y-74432496D01*
X147483577Y-74670938D01*
X147511354Y-74725455D01*
X147501783Y-74785887D01*
X147458518Y-74829152D01*
X147426801Y-74838097D01*
X147426927Y-74838891D01*
X147328131Y-74854539D01*
X147213681Y-74912854D01*
X147213680Y-74912854D01*
X147208635Y-74917900D01*
X147154117Y-74945675D01*
X147093686Y-74936101D01*
X147076596Y-74923686D01*
X147076336Y-74924039D01*
X146960010Y-74838184D01*
X146830540Y-74792882D01*
X146799811Y-74790000D01*
X146682501Y-74790000D01*
X146682500Y-74790001D01*
X146682500Y-75301000D01*
X146677655Y-75315911D01*
X146677655Y-75331593D01*
X146668438Y-75344278D01*
X146663593Y-75359191D01*
X146650907Y-75368407D01*
X146641691Y-75381093D01*
X146626778Y-75385938D01*
X146614093Y-75395155D01*
X146583500Y-75400000D01*
X146481500Y-75400000D01*
X146423309Y-75381093D01*
X146387345Y-75331593D01*
X146382500Y-75301000D01*
X146382500Y-74790001D01*
X146382499Y-74790000D01*
X146265198Y-74790000D01*
X146234459Y-74792882D01*
X146234458Y-74792882D01*
X146104989Y-74838184D01*
X145994634Y-74919632D01*
X145994632Y-74919634D01*
X145913183Y-75029992D01*
X145910691Y-75037114D01*
X145873624Y-75085793D01*
X145815024Y-75103388D01*
X145757272Y-75083178D01*
X145747244Y-75074417D01*
X145245331Y-74572504D01*
X145217554Y-74517987D01*
X145227125Y-74457555D01*
X145270390Y-74414290D01*
X145315335Y-74403500D01*
X147175131Y-74403500D01*
X147233322Y-74422407D01*
G37*
%TD.AperFunction*%
%TD*%
%TA.AperFunction,Conductor*%
%TO.N,+3V3*%
G36*
X153795781Y-81112698D02*
G01*
X153808600Y-81134000D01*
X153820085Y-81160010D01*
X153826294Y-81220880D01*
X153820086Y-81239987D01*
X153802415Y-81280008D01*
X153802414Y-81280011D01*
X153799500Y-81305130D01*
X153799500Y-81494861D01*
X153799501Y-81494864D01*
X153802415Y-81519990D01*
X153820086Y-81560012D01*
X153826294Y-81620882D01*
X153820086Y-81639987D01*
X153802415Y-81680008D01*
X153802414Y-81680011D01*
X153799500Y-81705130D01*
X153799500Y-81894861D01*
X153799501Y-81894864D01*
X153802414Y-81919990D01*
X153802415Y-81919992D01*
X153820085Y-81960012D01*
X153826292Y-82020882D01*
X153820086Y-82039984D01*
X153802415Y-82080007D01*
X153802414Y-82080010D01*
X153799500Y-82105129D01*
X153799500Y-82294860D01*
X153799501Y-82294863D01*
X153802415Y-82319992D01*
X153820085Y-82360013D01*
X153826292Y-82420883D01*
X153820085Y-82439985D01*
X153802417Y-82480000D01*
X153802414Y-82480010D01*
X153799500Y-82505130D01*
X153799500Y-82650500D01*
X153780593Y-82708691D01*
X153731093Y-82744655D01*
X153700501Y-82749500D01*
X153555138Y-82749500D01*
X153555135Y-82749501D01*
X153530007Y-82752415D01*
X153489986Y-82770086D01*
X153429116Y-82776294D01*
X153410012Y-82770086D01*
X153369990Y-82752415D01*
X153369987Y-82752414D01*
X153344867Y-82749500D01*
X153155137Y-82749500D01*
X153155134Y-82749501D01*
X153130006Y-82752415D01*
X153089983Y-82770086D01*
X153029114Y-82776292D01*
X153010011Y-82770085D01*
X152969991Y-82752415D01*
X152969988Y-82752414D01*
X152944868Y-82749500D01*
X152755138Y-82749500D01*
X152755135Y-82749501D01*
X152730007Y-82752415D01*
X152689986Y-82770086D01*
X152629116Y-82776294D01*
X152610016Y-82770087D01*
X152569991Y-82752415D01*
X152569990Y-82752414D01*
X152569988Y-82752414D01*
X152544868Y-82749500D01*
X152355138Y-82749500D01*
X152355130Y-82749501D01*
X152325025Y-82752992D01*
X152270143Y-82743592D01*
X152201246Y-82709911D01*
X152150000Y-82702443D01*
X152150000Y-82851355D01*
X152145139Y-82866313D01*
X152145124Y-82882042D01*
X152141559Y-82891355D01*
X152140559Y-82893619D01*
X152133822Y-82901145D01*
X152131093Y-82909546D01*
X152117396Y-82919497D01*
X152099753Y-82939209D01*
X152086260Y-82942118D01*
X152081593Y-82945510D01*
X152050901Y-82950355D01*
X152048901Y-82950353D01*
X152048572Y-82950245D01*
X152039942Y-82952107D01*
X151999524Y-82934254D01*
X151990729Y-82931387D01*
X151989643Y-82929890D01*
X151983974Y-82927386D01*
X151959429Y-82893592D01*
X151958426Y-82891321D01*
X151957092Y-82884993D01*
X151954815Y-82881852D01*
X151954822Y-82874227D01*
X151950000Y-82851353D01*
X151950000Y-82702445D01*
X151898751Y-82709912D01*
X151829856Y-82743593D01*
X151774966Y-82752992D01*
X151744869Y-82749500D01*
X151555139Y-82749500D01*
X151555136Y-82749501D01*
X151530008Y-82752415D01*
X151489987Y-82770086D01*
X151429117Y-82776294D01*
X151410013Y-82770086D01*
X151369991Y-82752415D01*
X151369988Y-82752414D01*
X151344868Y-82749500D01*
X151155138Y-82749500D01*
X151155135Y-82749501D01*
X151130007Y-82752415D01*
X151089986Y-82770086D01*
X151029116Y-82776294D01*
X151010016Y-82770087D01*
X150969991Y-82752415D01*
X150969990Y-82752414D01*
X150969988Y-82752414D01*
X150944868Y-82749500D01*
X150755138Y-82749500D01*
X150755135Y-82749501D01*
X150730007Y-82752415D01*
X150689986Y-82770086D01*
X150629116Y-82776294D01*
X150610012Y-82770086D01*
X150569990Y-82752415D01*
X150569987Y-82752414D01*
X150544867Y-82749500D01*
X150355137Y-82749500D01*
X150355134Y-82749501D01*
X150330006Y-82752415D01*
X150289983Y-82770086D01*
X150229114Y-82776292D01*
X150210011Y-82770085D01*
X150169991Y-82752415D01*
X150169988Y-82752414D01*
X150144868Y-82749500D01*
X149955138Y-82749500D01*
X149955135Y-82749501D01*
X149930007Y-82752415D01*
X149889986Y-82770086D01*
X149829116Y-82776294D01*
X149810016Y-82770087D01*
X149769991Y-82752415D01*
X149769990Y-82752414D01*
X149769988Y-82752414D01*
X149744868Y-82749500D01*
X149555138Y-82749500D01*
X149555135Y-82749501D01*
X149530007Y-82752415D01*
X149489986Y-82770086D01*
X149429116Y-82776294D01*
X149410016Y-82770087D01*
X149369991Y-82752415D01*
X149369990Y-82752414D01*
X149369988Y-82752414D01*
X149344868Y-82749500D01*
X149155138Y-82749500D01*
X149155135Y-82749501D01*
X149130007Y-82752415D01*
X149089984Y-82770086D01*
X149029115Y-82776292D01*
X149010012Y-82770085D01*
X148969992Y-82752415D01*
X148969989Y-82752414D01*
X148944869Y-82749500D01*
X148755139Y-82749500D01*
X148755136Y-82749501D01*
X148730010Y-82752414D01*
X148627236Y-82797794D01*
X148547795Y-82877235D01*
X148502415Y-82980011D01*
X148499501Y-83005130D01*
X148499501Y-83859489D01*
X148480594Y-83917680D01*
X148470505Y-83929493D01*
X148308762Y-84091236D01*
X148254245Y-84119013D01*
X148193813Y-84109442D01*
X148179970Y-84100887D01*
X148095012Y-84038185D01*
X147965540Y-83992882D01*
X147934811Y-83990000D01*
X147817501Y-83990000D01*
X147817500Y-83990001D01*
X147817500Y-84501000D01*
X147812655Y-84515911D01*
X147812655Y-84531593D01*
X147803438Y-84544278D01*
X147798593Y-84559191D01*
X147785907Y-84568407D01*
X147776691Y-84581093D01*
X147761778Y-84585938D01*
X147749093Y-84595155D01*
X147718500Y-84600000D01*
X147616500Y-84600000D01*
X147558309Y-84581093D01*
X147522345Y-84531593D01*
X147517500Y-84501000D01*
X147517500Y-83990001D01*
X147517499Y-83990000D01*
X147400198Y-83990000D01*
X147369459Y-83992882D01*
X147369458Y-83992882D01*
X147239989Y-84038184D01*
X147123664Y-84124039D01*
X147122477Y-84122430D01*
X147076838Y-84145676D01*
X147016407Y-84136096D01*
X146991365Y-84117900D01*
X146986321Y-84112856D01*
X146986315Y-84112852D01*
X146871871Y-84054540D01*
X146871870Y-84054539D01*
X146776918Y-84039500D01*
X146776916Y-84039500D01*
X146288084Y-84039500D01*
X146288082Y-84039500D01*
X146193129Y-84054539D01*
X146193128Y-84054540D01*
X146078684Y-84112852D01*
X145987852Y-84203684D01*
X145929540Y-84318128D01*
X145929539Y-84318129D01*
X145914500Y-84413082D01*
X145914500Y-84786917D01*
X145929539Y-84881870D01*
X145929540Y-84881871D01*
X145970623Y-84962501D01*
X145987854Y-84996318D01*
X146077287Y-85085751D01*
X146105063Y-85140266D01*
X146102909Y-85181376D01*
X146093507Y-85216464D01*
X146074500Y-85287399D01*
X146074500Y-85412601D01*
X146106905Y-85533536D01*
X146106906Y-85533538D01*
X146162170Y-85629259D01*
X146174891Y-85689107D01*
X146162170Y-85728256D01*
X146114638Y-85810587D01*
X146114637Y-85810588D01*
X146114636Y-85810592D01*
X146082231Y-85931527D01*
X146082231Y-86056729D01*
X146114636Y-86177664D01*
X146114637Y-86177665D01*
X146116075Y-86180156D01*
X146116503Y-86182171D01*
X146117119Y-86183658D01*
X146116843Y-86183772D01*
X146128794Y-86240005D01*
X146103906Y-86295900D01*
X146100341Y-86299657D01*
X145928997Y-86471003D01*
X145874481Y-86498781D01*
X145858993Y-86500000D01*
X137640612Y-86500000D01*
X137582421Y-86481093D01*
X137570608Y-86471004D01*
X136529495Y-85429891D01*
X136501718Y-85375374D01*
X136500499Y-85359887D01*
X136500499Y-84962501D01*
X137675000Y-84962501D01*
X137675000Y-85154582D01*
X137685373Y-85240958D01*
X137739576Y-85378408D01*
X137739579Y-85378412D01*
X137828854Y-85496139D01*
X137828860Y-85496145D01*
X137946587Y-85585420D01*
X137946591Y-85585423D01*
X138084041Y-85639626D01*
X138170417Y-85649999D01*
X138170424Y-85650000D01*
X138299999Y-85650000D01*
X138300000Y-85649999D01*
X138300000Y-84962501D01*
X138600000Y-84962501D01*
X138600000Y-85649999D01*
X138600001Y-85650000D01*
X138729576Y-85650000D01*
X138729582Y-85649999D01*
X138815958Y-85639626D01*
X138953408Y-85585423D01*
X138953412Y-85585420D01*
X139071139Y-85496145D01*
X139071145Y-85496139D01*
X139160420Y-85378412D01*
X139160423Y-85378408D01*
X139214626Y-85240958D01*
X139224999Y-85154582D01*
X139225000Y-85154576D01*
X139225000Y-84962501D01*
X139224999Y-84962500D01*
X138600001Y-84962500D01*
X138600000Y-84962501D01*
X138300000Y-84962501D01*
X138299999Y-84962500D01*
X137675001Y-84962500D01*
X137675000Y-84962501D01*
X136500499Y-84962501D01*
X136500499Y-84943478D01*
X136500305Y-84941012D01*
X136500000Y-84933249D01*
X136500000Y-84253802D01*
X136518907Y-84195611D01*
X136568407Y-84159647D01*
X136629593Y-84159647D01*
X136631698Y-84160358D01*
X136665396Y-84172149D01*
X136695788Y-84174999D01*
X136749999Y-84174998D01*
X136750000Y-84174998D01*
X136750000Y-83311500D01*
X136754845Y-83296588D01*
X136754845Y-83280907D01*
X136764061Y-83268221D01*
X136768907Y-83253309D01*
X136781592Y-83244092D01*
X136790809Y-83231407D01*
X136805721Y-83226561D01*
X136818407Y-83217345D01*
X136849000Y-83212500D01*
X136951000Y-83212500D01*
X137009191Y-83231407D01*
X137045155Y-83280907D01*
X137050000Y-83311500D01*
X137050000Y-84174998D01*
X137050001Y-84174999D01*
X137101000Y-84174999D01*
X137159191Y-84193906D01*
X137195155Y-84243406D01*
X137200000Y-84273999D01*
X137200000Y-84650000D01*
X137200001Y-84650000D01*
X137621493Y-84650000D01*
X137648070Y-84658635D01*
X137662724Y-84662500D01*
X139240879Y-84662500D01*
X139263020Y-84651219D01*
X139278507Y-84650000D01*
X143165500Y-84650000D01*
X143223691Y-84668907D01*
X143259655Y-84718407D01*
X143264500Y-84749000D01*
X143264500Y-84786917D01*
X143279539Y-84881870D01*
X143279540Y-84881871D01*
X143320623Y-84962501D01*
X143337854Y-84996318D01*
X143428682Y-85087146D01*
X143428684Y-85087147D01*
X143543128Y-85145459D01*
X143543129Y-85145460D01*
X143543130Y-85145460D01*
X143543132Y-85145461D01*
X143602343Y-85154839D01*
X143638082Y-85160500D01*
X143638084Y-85160500D01*
X144126918Y-85160500D01*
X144156996Y-85155735D01*
X144221868Y-85145461D01*
X144336318Y-85087146D01*
X144341358Y-85082105D01*
X144395868Y-85054325D01*
X144456301Y-85063891D01*
X144473402Y-85076314D01*
X144473664Y-85075961D01*
X144589989Y-85161815D01*
X144719458Y-85207117D01*
X144750191Y-85209999D01*
X144867500Y-85209999D01*
X144867500Y-84750001D01*
X145167500Y-84750001D01*
X145167500Y-85209998D01*
X145167501Y-85209999D01*
X145284801Y-85209999D01*
X145315540Y-85207117D01*
X145315541Y-85207117D01*
X145445010Y-85161815D01*
X145555365Y-85080367D01*
X145555367Y-85080365D01*
X145636815Y-84970010D01*
X145682117Y-84840540D01*
X145684999Y-84809811D01*
X145685000Y-84809808D01*
X145685000Y-84750001D01*
X145684999Y-84750000D01*
X145167501Y-84750000D01*
X145167500Y-84750001D01*
X144867500Y-84750001D01*
X144867500Y-84699000D01*
X144883421Y-84650000D01*
X144950000Y-84650000D01*
X145000000Y-84600000D01*
X145017499Y-84600000D01*
X145017500Y-84599999D01*
X145017500Y-84582500D01*
X145150000Y-84450000D01*
X145684998Y-84450000D01*
X145684999Y-84449999D01*
X145684999Y-84390198D01*
X145682117Y-84359459D01*
X145682117Y-84359458D01*
X145636814Y-84229987D01*
X145574111Y-84145030D01*
X145554768Y-84086983D01*
X145573239Y-84028652D01*
X145583749Y-84016250D01*
X147420504Y-82179496D01*
X147475021Y-82151719D01*
X147490508Y-82150500D01*
X147566356Y-82150500D01*
X148125550Y-82150500D01*
X148183741Y-82169407D01*
X148189434Y-82173870D01*
X148199075Y-82182016D01*
X148209731Y-82191019D01*
X148209734Y-82191021D01*
X148214809Y-82194626D01*
X148250073Y-82212239D01*
X148285116Y-82229743D01*
X148285118Y-82229743D01*
X148285121Y-82229745D01*
X148327973Y-82243415D01*
X148405623Y-82255500D01*
X148405626Y-82255500D01*
X149175999Y-82255500D01*
X149176000Y-82255500D01*
X149273775Y-82236051D01*
X149321617Y-82216233D01*
X149325288Y-82214920D01*
X149326101Y-82214377D01*
X149326102Y-82214377D01*
X149408992Y-82158991D01*
X149464377Y-82076101D01*
X149486051Y-82023775D01*
X149504667Y-81930183D01*
X149534564Y-81876801D01*
X149590129Y-81851185D01*
X149601748Y-81850499D01*
X152537044Y-81850499D01*
X152537046Y-81850499D01*
X152556882Y-81847357D01*
X152629427Y-81835868D01*
X152740771Y-81779135D01*
X152829135Y-81690771D01*
X152885868Y-81579427D01*
X152900500Y-81487045D01*
X152900499Y-81354499D01*
X152919406Y-81296310D01*
X152968906Y-81260346D01*
X152999499Y-81255500D01*
X153375999Y-81255500D01*
X153376000Y-81255500D01*
X153473775Y-81236051D01*
X153521617Y-81216233D01*
X153525288Y-81214920D01*
X153526101Y-81214377D01*
X153526102Y-81214377D01*
X153608992Y-81158991D01*
X153608993Y-81158989D01*
X153608994Y-81158989D01*
X153635720Y-81118990D01*
X153683769Y-81081110D01*
X153744907Y-81078707D01*
X153795781Y-81112698D01*
G37*
%TD.AperFunction*%
%TA.AperFunction,Conductor*%
G36*
X148641341Y-77208434D02*
G01*
X148730010Y-77247585D01*
X148755136Y-77250500D01*
X148944865Y-77250499D01*
X148969992Y-77247585D01*
X149010009Y-77229914D01*
X149070879Y-77223705D01*
X149089989Y-77229914D01*
X149130009Y-77247585D01*
X149130008Y-77247585D01*
X149134478Y-77248103D01*
X149155135Y-77250500D01*
X149344864Y-77250499D01*
X149369991Y-77247585D01*
X149410011Y-77229913D01*
X149470879Y-77223705D01*
X149489989Y-77229914D01*
X149530009Y-77247585D01*
X149530008Y-77247585D01*
X149534478Y-77248103D01*
X149555135Y-77250500D01*
X149744864Y-77250499D01*
X149769991Y-77247585D01*
X149810011Y-77229913D01*
X149870879Y-77223705D01*
X149889989Y-77229914D01*
X149930009Y-77247585D01*
X149930008Y-77247585D01*
X149934478Y-77248103D01*
X149955135Y-77250500D01*
X150144864Y-77250499D01*
X150169991Y-77247585D01*
X150210008Y-77229914D01*
X150270878Y-77223705D01*
X150289988Y-77229914D01*
X150330008Y-77247585D01*
X150330007Y-77247585D01*
X150334477Y-77248103D01*
X150355134Y-77250500D01*
X150544863Y-77250499D01*
X150569990Y-77247585D01*
X150610010Y-77229913D01*
X150670878Y-77223705D01*
X150689982Y-77229911D01*
X150730009Y-77247585D01*
X150755135Y-77250500D01*
X150944864Y-77250499D01*
X150969991Y-77247585D01*
X151010011Y-77229913D01*
X151070879Y-77223705D01*
X151089989Y-77229914D01*
X151130009Y-77247585D01*
X151130008Y-77247585D01*
X151134478Y-77248103D01*
X151155135Y-77250500D01*
X151344864Y-77250499D01*
X151369991Y-77247585D01*
X151410011Y-77229913D01*
X151470879Y-77223705D01*
X151489983Y-77229911D01*
X151530010Y-77247585D01*
X151555136Y-77250500D01*
X151744865Y-77250499D01*
X151769992Y-77247585D01*
X151850003Y-77212257D01*
X151858657Y-77208436D01*
X151898645Y-77200000D01*
X152201356Y-77200000D01*
X152241340Y-77208434D01*
X152330009Y-77247585D01*
X152355135Y-77250500D01*
X152544864Y-77250499D01*
X152569991Y-77247585D01*
X152610011Y-77229913D01*
X152670879Y-77223705D01*
X152689989Y-77229914D01*
X152730009Y-77247585D01*
X152730008Y-77247585D01*
X152734478Y-77248103D01*
X152755135Y-77250500D01*
X152944864Y-77250499D01*
X152969991Y-77247585D01*
X153010008Y-77229914D01*
X153070878Y-77223705D01*
X153089988Y-77229914D01*
X153130008Y-77247585D01*
X153130007Y-77247585D01*
X153134477Y-77248103D01*
X153155134Y-77250500D01*
X153344863Y-77250499D01*
X153369990Y-77247585D01*
X153410010Y-77229913D01*
X153470878Y-77223705D01*
X153489982Y-77229911D01*
X153530009Y-77247585D01*
X153555135Y-77250500D01*
X153700499Y-77250499D01*
X153758690Y-77269406D01*
X153794654Y-77318906D01*
X153799500Y-77349498D01*
X153799500Y-77494861D01*
X153799501Y-77494864D01*
X153802415Y-77519993D01*
X153820085Y-77560014D01*
X153821335Y-77572276D01*
X153827081Y-77583184D01*
X153824546Y-77603764D01*
X153826292Y-77620884D01*
X153821401Y-77629293D01*
X153820085Y-77639986D01*
X153802417Y-77680001D01*
X153802414Y-77680011D01*
X153799500Y-77705131D01*
X153799500Y-77894862D01*
X153799501Y-77894865D01*
X153802414Y-77919991D01*
X153802415Y-77919993D01*
X153820085Y-77960013D01*
X153826292Y-78020883D01*
X153820086Y-78039985D01*
X153802415Y-78080008D01*
X153802414Y-78080011D01*
X153799500Y-78105130D01*
X153799500Y-78294861D01*
X153799501Y-78294864D01*
X153802415Y-78319991D01*
X153820086Y-78360012D01*
X153826294Y-78420882D01*
X153820086Y-78439987D01*
X153802415Y-78480008D01*
X153802414Y-78480011D01*
X153799500Y-78505130D01*
X153799500Y-78694861D01*
X153799501Y-78694864D01*
X153802415Y-78719991D01*
X153820086Y-78760012D01*
X153826294Y-78820882D01*
X153820086Y-78839987D01*
X153802415Y-78880008D01*
X153802414Y-78880011D01*
X153799500Y-78905130D01*
X153799500Y-79094861D01*
X153799501Y-79094864D01*
X153802414Y-79119990D01*
X153802415Y-79119992D01*
X153820085Y-79160012D01*
X153826292Y-79220882D01*
X153820086Y-79239984D01*
X153802415Y-79280007D01*
X153802414Y-79280010D01*
X153799500Y-79305129D01*
X153799500Y-79494860D01*
X153799501Y-79494863D01*
X153802415Y-79519992D01*
X153820085Y-79560013D01*
X153826292Y-79620883D01*
X153820085Y-79639985D01*
X153802417Y-79680000D01*
X153802414Y-79680010D01*
X153799500Y-79705130D01*
X153799500Y-79894861D01*
X153799501Y-79894869D01*
X153802992Y-79924974D01*
X153793592Y-79979855D01*
X153773798Y-80020346D01*
X153731256Y-80064321D01*
X153670990Y-80074891D01*
X153616022Y-80048020D01*
X153614851Y-80046868D01*
X153608990Y-80041007D01*
X153549499Y-80001257D01*
X153511619Y-79953207D01*
X153505500Y-79918941D01*
X153505500Y-77874001D01*
X153505500Y-77874000D01*
X153486051Y-77776225D01*
X153466231Y-77728377D01*
X153464920Y-77724711D01*
X153435052Y-77680011D01*
X153408991Y-77641008D01*
X153407463Y-77639987D01*
X153326099Y-77585621D01*
X153273776Y-77563949D01*
X153176000Y-77544500D01*
X148924000Y-77544500D01*
X148923999Y-77544500D01*
X148826223Y-77563949D01*
X148778396Y-77583760D01*
X148774715Y-77585077D01*
X148691007Y-77641009D01*
X148635621Y-77723900D01*
X148613949Y-77776223D01*
X148594500Y-77873999D01*
X148594500Y-80235968D01*
X148575593Y-80294159D01*
X148565504Y-80305971D01*
X148509491Y-80361984D01*
X148509487Y-80361989D01*
X148434736Y-80491462D01*
X148389267Y-80532403D01*
X148328416Y-80538799D01*
X148275428Y-80508206D01*
X148250542Y-80452310D01*
X148250000Y-80441962D01*
X148250000Y-80048644D01*
X148258434Y-80008659D01*
X148297585Y-79919991D01*
X148300500Y-79894865D01*
X148300499Y-79705136D01*
X148297585Y-79680009D01*
X148279912Y-79639985D01*
X148273705Y-79579116D01*
X148279911Y-79560016D01*
X148297585Y-79519990D01*
X148300500Y-79494864D01*
X148300499Y-79305135D01*
X148297585Y-79280008D01*
X148279914Y-79239987D01*
X148273705Y-79179118D01*
X148279913Y-79160012D01*
X148297585Y-79119991D01*
X148300500Y-79094865D01*
X148300499Y-78905136D01*
X148297585Y-78880009D01*
X148279914Y-78839988D01*
X148273705Y-78779119D01*
X148279911Y-78760017D01*
X148297585Y-78719991D01*
X148300500Y-78694865D01*
X148300499Y-78505136D01*
X148297585Y-78480009D01*
X148279914Y-78439988D01*
X148273705Y-78379119D01*
X148279911Y-78360017D01*
X148297585Y-78319991D01*
X148300500Y-78294865D01*
X148300499Y-78105136D01*
X148297585Y-78080009D01*
X148279914Y-78039988D01*
X148273705Y-77979119D01*
X148279913Y-77960013D01*
X148297585Y-77919992D01*
X148300500Y-77894866D01*
X148300499Y-77705137D01*
X148297585Y-77680010D01*
X148279912Y-77639986D01*
X148273705Y-77579117D01*
X148279911Y-77560017D01*
X148297585Y-77519991D01*
X148300500Y-77494865D01*
X148300499Y-77305136D01*
X148300499Y-77305133D01*
X148300474Y-77304700D01*
X148300499Y-77304604D01*
X148300499Y-77302278D01*
X148301109Y-77302277D01*
X148316000Y-77245517D01*
X148363347Y-77206763D01*
X148399310Y-77200000D01*
X148601357Y-77200000D01*
X148641341Y-77208434D01*
G37*
%TD.AperFunction*%
%TD*%
%TA.AperFunction,Conductor*%
%TO.N,+1V1*%
G36*
X153228326Y-77821674D02*
G01*
X153250000Y-77874000D01*
X153250000Y-80200000D01*
X153376000Y-80200000D01*
X153428326Y-80221674D01*
X153450000Y-80274000D01*
X153450000Y-80926000D01*
X153428326Y-80978326D01*
X153376000Y-81000000D01*
X152924500Y-81000000D01*
X152872174Y-80978326D01*
X152850500Y-80926000D01*
X152850499Y-78503639D01*
X152849360Y-78494989D01*
X152843894Y-78453461D01*
X152792551Y-78343355D01*
X152706645Y-78257449D01*
X152706643Y-78257447D01*
X152596539Y-78206106D01*
X152596537Y-78206105D01*
X152559573Y-78201239D01*
X152546363Y-78199500D01*
X152546361Y-78199500D01*
X149553639Y-78199500D01*
X149503461Y-78206106D01*
X149503459Y-78206106D01*
X149393354Y-78257449D01*
X149307449Y-78343354D01*
X149307448Y-78343356D01*
X149300959Y-78357273D01*
X149259203Y-78395537D01*
X149253448Y-78396551D01*
X149250000Y-78400000D01*
X149250000Y-78494989D01*
X149249592Y-78501216D01*
X149249658Y-78501221D01*
X149249500Y-78503630D01*
X149249500Y-81496369D01*
X149249659Y-81498779D01*
X149249592Y-81498783D01*
X149250000Y-81505002D01*
X149250000Y-81926000D01*
X149228326Y-81978326D01*
X149176000Y-82000000D01*
X148405623Y-82000000D01*
X148362771Y-81986330D01*
X148357696Y-81982725D01*
X148334510Y-81959539D01*
X148283987Y-81930370D01*
X148281148Y-81928353D01*
X148267803Y-81907091D01*
X148252521Y-81887175D01*
X148251782Y-81881565D01*
X148251039Y-81880381D01*
X148251412Y-81878750D01*
X148250000Y-81868023D01*
X148250000Y-81483385D01*
X148250357Y-81476129D01*
X148250500Y-81474677D01*
X148250500Y-81325320D01*
X148250356Y-81323857D01*
X148250000Y-81316610D01*
X148250000Y-81083385D01*
X148250105Y-81079448D01*
X148250307Y-81075639D01*
X148250500Y-81074674D01*
X148250500Y-81072033D01*
X148250605Y-81070063D01*
X148262033Y-81046156D01*
X148272174Y-81021674D01*
X148274122Y-81020866D01*
X148275032Y-81018964D01*
X148300018Y-81010140D01*
X148324500Y-81000000D01*
X148650000Y-81000000D01*
X148650000Y-80674000D01*
X148671674Y-80621674D01*
X148724000Y-80600000D01*
X148850000Y-80600000D01*
X148850000Y-77874000D01*
X148871674Y-77821674D01*
X148924000Y-77800000D01*
X153176000Y-77800000D01*
X153228326Y-77821674D01*
G37*
%TD.AperFunction*%
%TD*%
%TA.AperFunction,Conductor*%
%TO.N,+3V3*%
G36*
X148773858Y-77200356D02*
G01*
X148775321Y-77200500D01*
X148775327Y-77200500D01*
X148924681Y-77200500D01*
X148926144Y-77200356D01*
X148933391Y-77200000D01*
X149166610Y-77200000D01*
X149173857Y-77200356D01*
X149175320Y-77200500D01*
X149175326Y-77200500D01*
X149324680Y-77200500D01*
X149326143Y-77200356D01*
X149333390Y-77200000D01*
X149566610Y-77200000D01*
X149573857Y-77200356D01*
X149575320Y-77200500D01*
X149575326Y-77200500D01*
X149724680Y-77200500D01*
X149726143Y-77200356D01*
X149733390Y-77200000D01*
X149966610Y-77200000D01*
X149973857Y-77200356D01*
X149975320Y-77200500D01*
X149975326Y-77200500D01*
X150124680Y-77200500D01*
X150126143Y-77200356D01*
X150133390Y-77200000D01*
X150366609Y-77200000D01*
X150373856Y-77200356D01*
X150375319Y-77200500D01*
X150375325Y-77200500D01*
X150524679Y-77200500D01*
X150526142Y-77200356D01*
X150533389Y-77200000D01*
X150766610Y-77200000D01*
X150773857Y-77200356D01*
X150775320Y-77200500D01*
X150775326Y-77200500D01*
X150924680Y-77200500D01*
X150926143Y-77200356D01*
X150933390Y-77200000D01*
X151166610Y-77200000D01*
X151173857Y-77200356D01*
X151175320Y-77200500D01*
X151175326Y-77200500D01*
X151324680Y-77200500D01*
X151326143Y-77200356D01*
X151333390Y-77200000D01*
X151566611Y-77200000D01*
X151573858Y-77200356D01*
X151575321Y-77200500D01*
X151575327Y-77200500D01*
X151724681Y-77200500D01*
X151726144Y-77200356D01*
X151733391Y-77200000D01*
X152366610Y-77200000D01*
X152373857Y-77200356D01*
X152375320Y-77200500D01*
X152375326Y-77200500D01*
X152524680Y-77200500D01*
X152526143Y-77200356D01*
X152533390Y-77200000D01*
X152766610Y-77200000D01*
X152773857Y-77200356D01*
X152775320Y-77200500D01*
X152775326Y-77200500D01*
X152924680Y-77200500D01*
X152926143Y-77200356D01*
X152933390Y-77200000D01*
X153166609Y-77200000D01*
X153173856Y-77200356D01*
X153175319Y-77200500D01*
X153175325Y-77200500D01*
X153324679Y-77200500D01*
X153326142Y-77200356D01*
X153333389Y-77200000D01*
X153566610Y-77200000D01*
X153573857Y-77200356D01*
X153575320Y-77200500D01*
X153575326Y-77200500D01*
X153724680Y-77200500D01*
X153726143Y-77200356D01*
X153733390Y-77200000D01*
X153784260Y-77200000D01*
X153836586Y-77221674D01*
X153850000Y-77254058D01*
X153850000Y-77322812D01*
X153849500Y-77325326D01*
X153849500Y-77474674D01*
X153850000Y-77477187D01*
X153850000Y-77722813D01*
X153849500Y-77725327D01*
X153849500Y-77874675D01*
X153850000Y-77877188D01*
X153850000Y-78122812D01*
X153849500Y-78125326D01*
X153849500Y-78274674D01*
X153850000Y-78277187D01*
X153850000Y-78522812D01*
X153849500Y-78525326D01*
X153849500Y-78674674D01*
X153850000Y-78677187D01*
X153850000Y-78922812D01*
X153849500Y-78925326D01*
X153849500Y-79074674D01*
X153850000Y-79077187D01*
X153850000Y-79322811D01*
X153849500Y-79325325D01*
X153849500Y-79474673D01*
X153850000Y-79477186D01*
X153850000Y-79722812D01*
X153849500Y-79725326D01*
X153849500Y-79874674D01*
X153850000Y-79877187D01*
X153850000Y-80522813D01*
X153849500Y-80525327D01*
X153849500Y-80674675D01*
X153850000Y-80677188D01*
X153850000Y-80922812D01*
X153849500Y-80925326D01*
X153849500Y-81074674D01*
X153850000Y-81077187D01*
X153850000Y-81322812D01*
X153849500Y-81325326D01*
X153849500Y-81474674D01*
X153850000Y-81477187D01*
X153850000Y-81722812D01*
X153849500Y-81725326D01*
X153849500Y-81874674D01*
X153850000Y-81877187D01*
X153850000Y-82122811D01*
X153849500Y-82125325D01*
X153849500Y-82274673D01*
X153850000Y-82277186D01*
X153850000Y-82522812D01*
X153849500Y-82525326D01*
X153849500Y-82674674D01*
X153850000Y-82677187D01*
X153850000Y-82766563D01*
X153847840Y-82777423D01*
X153814051Y-82800000D01*
X153727188Y-82800000D01*
X153724674Y-82799500D01*
X153575326Y-82799500D01*
X153572812Y-82800000D01*
X153327187Y-82800000D01*
X153324673Y-82799500D01*
X153175325Y-82799500D01*
X153172811Y-82800000D01*
X152927188Y-82800000D01*
X152924674Y-82799500D01*
X152775326Y-82799500D01*
X152772812Y-82800000D01*
X152527188Y-82800000D01*
X152524674Y-82799500D01*
X152375326Y-82799500D01*
X152372812Y-82800000D01*
X151727189Y-82800000D01*
X151724675Y-82799500D01*
X151575327Y-82799500D01*
X151572813Y-82800000D01*
X151327188Y-82800000D01*
X151324674Y-82799500D01*
X151175326Y-82799500D01*
X151172812Y-82800000D01*
X150927188Y-82800000D01*
X150924674Y-82799500D01*
X150775326Y-82799500D01*
X150772812Y-82800000D01*
X150527187Y-82800000D01*
X150524673Y-82799500D01*
X150375325Y-82799500D01*
X150372811Y-82800000D01*
X150127188Y-82800000D01*
X150124674Y-82799500D01*
X149975326Y-82799500D01*
X149972812Y-82800000D01*
X149727188Y-82800000D01*
X149724674Y-82799500D01*
X149575326Y-82799500D01*
X149572812Y-82800000D01*
X149327188Y-82800000D01*
X149324674Y-82799500D01*
X149175326Y-82799500D01*
X149172812Y-82800000D01*
X148927189Y-82800000D01*
X148924675Y-82799500D01*
X148775327Y-82799500D01*
X148772813Y-82800000D01*
X148250000Y-82800000D01*
X148250000Y-82156979D01*
X148300313Y-82182109D01*
X148300315Y-82182109D01*
X148300316Y-82182110D01*
X148343168Y-82195780D01*
X148405623Y-82205500D01*
X148405626Y-82205500D01*
X149175998Y-82205500D01*
X149176000Y-82205500D01*
X149254641Y-82189857D01*
X149306967Y-82168183D01*
X149365261Y-82131555D01*
X149418183Y-82056967D01*
X149439857Y-82004641D01*
X149455500Y-81926000D01*
X149455500Y-81871960D01*
X149477174Y-81819634D01*
X149529500Y-81797960D01*
X149539142Y-81798591D01*
X149553637Y-81800500D01*
X152546362Y-81800499D01*
X152596539Y-81793894D01*
X152706645Y-81742551D01*
X152792551Y-81656645D01*
X152843894Y-81546539D01*
X152850500Y-81496363D01*
X152850499Y-81279499D01*
X152872173Y-81227174D01*
X152924499Y-81205500D01*
X153375998Y-81205500D01*
X153376000Y-81205500D01*
X153454641Y-81189857D01*
X153506967Y-81168183D01*
X153565261Y-81131555D01*
X153618183Y-81056967D01*
X153639857Y-81004641D01*
X153655500Y-80926000D01*
X153655500Y-80274000D01*
X153639857Y-80195359D01*
X153618183Y-80143033D01*
X153581555Y-80084739D01*
X153581553Y-80084737D01*
X153506968Y-80031818D01*
X153506969Y-80031818D01*
X153506967Y-80031817D01*
X153501179Y-80029419D01*
X153461132Y-79989370D01*
X153455500Y-79961053D01*
X153455500Y-77874001D01*
X153439858Y-77795364D01*
X153439857Y-77795363D01*
X153439857Y-77795359D01*
X153418183Y-77743033D01*
X153381555Y-77684739D01*
X153306967Y-77631817D01*
X153306966Y-77631816D01*
X153254645Y-77610144D01*
X153254635Y-77610141D01*
X153201974Y-77599666D01*
X153176000Y-77594500D01*
X148924000Y-77594500D01*
X148901707Y-77598934D01*
X148845364Y-77610141D01*
X148845354Y-77610144D01*
X148793037Y-77631814D01*
X148734739Y-77668445D01*
X148734737Y-77668447D01*
X148681816Y-77743033D01*
X148660144Y-77795354D01*
X148660141Y-77795364D01*
X148644500Y-77874001D01*
X148644500Y-80267034D01*
X148622826Y-80319360D01*
X148549500Y-80392685D01*
X148483610Y-80506809D01*
X148483606Y-80506818D01*
X148449500Y-80634105D01*
X148449500Y-80641575D01*
X148449352Y-80646254D01*
X148449040Y-80651174D01*
X148444500Y-80674000D01*
X148444500Y-80722842D01*
X148444352Y-80725179D01*
X148432835Y-80748661D01*
X148422826Y-80772826D01*
X148420514Y-80773783D01*
X148419413Y-80776029D01*
X148394669Y-80784488D01*
X148370500Y-80794500D01*
X148324000Y-80794500D01*
X148271674Y-80772826D01*
X148250000Y-80720500D01*
X148250000Y-79883385D01*
X148250357Y-79876129D01*
X148250500Y-79874677D01*
X148250500Y-79725320D01*
X148250356Y-79723857D01*
X148250000Y-79716610D01*
X148250000Y-79483384D01*
X148250357Y-79476128D01*
X148250500Y-79474676D01*
X148250500Y-79325319D01*
X148250356Y-79323856D01*
X148250000Y-79316609D01*
X148250000Y-79083385D01*
X148250357Y-79076129D01*
X148250500Y-79074677D01*
X148250500Y-78925320D01*
X148250356Y-78923857D01*
X148250000Y-78916610D01*
X148250000Y-78683385D01*
X148250357Y-78676129D01*
X148250500Y-78674677D01*
X148250500Y-78525320D01*
X148250356Y-78523857D01*
X148250000Y-78516610D01*
X148250000Y-78283385D01*
X148250357Y-78276129D01*
X148250500Y-78274677D01*
X148250500Y-78125320D01*
X148250356Y-78123857D01*
X148250000Y-78116610D01*
X148250000Y-77883386D01*
X148250357Y-77876130D01*
X148250500Y-77874678D01*
X148250500Y-77725321D01*
X148250356Y-77723858D01*
X148250000Y-77716611D01*
X148250000Y-77483385D01*
X148250357Y-77476129D01*
X148250500Y-77474677D01*
X148250500Y-77325320D01*
X148250356Y-77323857D01*
X148250000Y-77316610D01*
X148250000Y-77274000D01*
X148271674Y-77221674D01*
X148324000Y-77200000D01*
X148766611Y-77200000D01*
X148773858Y-77200356D01*
G37*
%TD.AperFunction*%
%TD*%
M02*
