%TF.GenerationSoftware,KiCad,Pcbnew,9.0.3*%
%TF.CreationDate,2026-03-07T22:57:06+09:00*%
%TF.ProjectId,mizet,6d697a65-742e-46b6-9963-61645f706362,rev?*%
%TF.SameCoordinates,Original*%
%TF.FileFunction,Legend,Top*%
%TF.FilePolarity,Positive*%
%FSLAX46Y46*%
G04 Gerber Fmt 4.6, Leading zero omitted, Abs format (unit mm)*
G04 Created by KiCad (PCBNEW 9.0.3) date 2026-03-07 22:57:06*
%MOMM*%
%LPD*%
G01*
G04 APERTURE LIST*
G04 Aperture macros list*
%AMRoundRect*
0 Rectangle with rounded corners*
0 $1 Rounding radius*
0 $2 $3 $4 $5 $6 $7 $8 $9 X,Y pos of 4 corners*
0 Add a 4 corners polygon primitive as box body*
4,1,4,$2,$3,$4,$5,$6,$7,$8,$9,$2,$3,0*
0 Add four circle primitives for the rounded corners*
1,1,$1+$1,$2,$3*
1,1,$1+$1,$4,$5*
1,1,$1+$1,$6,$7*
1,1,$1+$1,$8,$9*
0 Add four rect primitives between the rounded corners*
20,1,$1+$1,$2,$3,$4,$5,0*
20,1,$1+$1,$4,$5,$6,$7,0*
20,1,$1+$1,$6,$7,$8,$9,0*
20,1,$1+$1,$8,$9,$2,$3,0*%
G04 Aperture macros list end*
%ADD10C,0.000000*%
%ADD11C,0.153000*%
%ADD12C,0.100000*%
%ADD13C,0.120000*%
%ADD14C,0.750000*%
%ADD15RoundRect,0.250000X-0.275000X-0.750000X0.275000X-0.750000X0.275000X0.750000X-0.275000X0.750000X0*%
%ADD16RoundRect,0.157500X-0.367500X-0.842500X0.367500X-0.842500X0.367500X0.842500X-0.367500X0.842500X0*%
%ADD17C,2.200000*%
%ADD18R,1.700000X1.700000*%
%ADD19C,1.700000*%
%ADD20C,2.000000*%
%ADD21R,2.000000X2.000000*%
%ADD22R,2.500000X3.000000*%
%ADD23C,0.650000*%
%ADD24O,1.600000X1.000000*%
%ADD25O,2.100000X1.000000*%
G04 APERTURE END LIST*
D10*
G36*
X130650000Y-88300000D02*
G01*
X131450000Y-88300000D01*
X131450000Y-88700000D01*
X130250000Y-88700000D01*
X130250000Y-87900000D01*
X129450000Y-87900000D01*
X129450000Y-87500000D01*
X130650000Y-87500000D01*
X130650000Y-88300000D01*
G37*
G36*
X134250000Y-87900000D02*
G01*
X134650000Y-87900000D01*
X134650000Y-88300000D01*
X134250000Y-88300000D01*
X134250000Y-88700000D01*
X133850000Y-88700000D01*
X133850000Y-88300000D01*
X133450000Y-88300000D01*
X133450000Y-87900000D01*
X133850000Y-87900000D01*
X133850000Y-87500000D01*
X134250000Y-87500000D01*
X134250000Y-87900000D01*
G37*
G36*
X129050000Y-87900000D02*
G01*
X128650000Y-87900000D01*
X128650000Y-87500000D01*
X129050000Y-87500000D01*
X129050000Y-87900000D01*
G37*
G36*
X129050000Y-88700000D02*
G01*
X128650000Y-88700000D01*
X128650000Y-88300000D01*
X129050000Y-88300000D01*
X129050000Y-88700000D01*
G37*
G36*
X128250000Y-88700000D02*
G01*
X127850000Y-88700000D01*
X127850000Y-87900000D01*
X127450000Y-87900000D01*
X127450000Y-88700000D01*
X127050000Y-88700000D01*
X127050000Y-87900000D01*
X126650000Y-87900000D01*
X126650000Y-88700000D01*
X126250000Y-88700000D01*
X126250000Y-87500000D01*
X128250000Y-87500000D01*
X128250000Y-88700000D01*
G37*
G36*
X133050000Y-87900000D02*
G01*
X132650000Y-87900000D01*
X132650000Y-88300000D01*
X133050000Y-88300000D01*
X133050000Y-88700000D01*
X131850000Y-88700000D01*
X131850000Y-87500000D01*
X133050000Y-87500000D01*
X133050000Y-87900000D01*
G37*
D11*
X148525221Y-75204596D02*
X148053817Y-74733192D01*
X148962954Y-75305611D02*
X148626237Y-74632176D01*
X148626237Y-74632176D02*
X148188504Y-75069909D01*
X163563191Y-74463817D02*
X163967252Y-74059756D01*
X163765222Y-74261787D02*
X164472329Y-74968893D01*
X164472329Y-74968893D02*
X164438657Y-74800535D01*
X164438657Y-74800535D02*
X164438657Y-74665848D01*
X164438657Y-74665848D02*
X164472329Y-74564832D01*
X163832565Y-75608657D02*
X163765222Y-75676000D01*
X163765222Y-75676000D02*
X163664206Y-75709672D01*
X163664206Y-75709672D02*
X163596863Y-75709672D01*
X163596863Y-75709672D02*
X163495848Y-75676000D01*
X163495848Y-75676000D02*
X163327489Y-75574985D01*
X163327489Y-75574985D02*
X163159130Y-75406626D01*
X163159130Y-75406626D02*
X163058115Y-75238267D01*
X163058115Y-75238267D02*
X163024443Y-75137252D01*
X163024443Y-75137252D02*
X163024443Y-75069909D01*
X163024443Y-75069909D02*
X163058115Y-74968893D01*
X163058115Y-74968893D02*
X163125458Y-74901550D01*
X163125458Y-74901550D02*
X163226474Y-74867878D01*
X163226474Y-74867878D02*
X163293817Y-74867878D01*
X163293817Y-74867878D02*
X163394832Y-74901550D01*
X163394832Y-74901550D02*
X163563191Y-75002565D01*
X163563191Y-75002565D02*
X163731550Y-75170924D01*
X163731550Y-75170924D02*
X163832565Y-75339283D01*
X163832565Y-75339283D02*
X163866237Y-75440298D01*
X163866237Y-75440298D02*
X163866237Y-75507641D01*
X163866237Y-75507641D02*
X163832565Y-75608657D01*
X136880158Y-85778618D02*
X137822967Y-86250023D01*
X137822967Y-86250023D02*
X137351562Y-85307214D01*
X138231069Y-85405535D02*
X138338818Y-85351660D01*
X138338818Y-85351660D02*
X138392693Y-85351660D01*
X138392693Y-85351660D02*
X138473505Y-85378598D01*
X138473505Y-85378598D02*
X138554318Y-85459410D01*
X138554318Y-85459410D02*
X138581255Y-85540222D01*
X138581255Y-85540222D02*
X138581255Y-85594097D01*
X138581255Y-85594097D02*
X138554318Y-85674909D01*
X138554318Y-85674909D02*
X138338818Y-85890408D01*
X138338818Y-85890408D02*
X137773133Y-85324723D01*
X137773133Y-85324723D02*
X137961695Y-85136161D01*
X137961695Y-85136161D02*
X138042507Y-85109224D01*
X138042507Y-85109224D02*
X138096382Y-85109224D01*
X138096382Y-85109224D02*
X138177194Y-85136161D01*
X138177194Y-85136161D02*
X138231069Y-85190036D01*
X138231069Y-85190036D02*
X138258006Y-85270848D01*
X138258006Y-85270848D02*
X138258006Y-85324723D01*
X138258006Y-85324723D02*
X138231069Y-85405535D01*
X138231069Y-85405535D02*
X138042507Y-85594097D01*
X138338818Y-84759037D02*
X138796754Y-85216973D01*
X138796754Y-85216973D02*
X138877566Y-85243911D01*
X138877566Y-85243911D02*
X138931441Y-85243911D01*
X138931441Y-85243911D02*
X139012253Y-85216973D01*
X139012253Y-85216973D02*
X139120003Y-85109224D01*
X139120003Y-85109224D02*
X139146940Y-85028411D01*
X139146940Y-85028411D02*
X139146940Y-84974537D01*
X139146940Y-84974537D02*
X139120003Y-84893724D01*
X139120003Y-84893724D02*
X138662067Y-84435789D01*
X139443252Y-84732100D02*
X139551001Y-84678225D01*
X139551001Y-84678225D02*
X139685688Y-84543538D01*
X139685688Y-84543538D02*
X139712626Y-84462726D01*
X139712626Y-84462726D02*
X139712626Y-84408851D01*
X139712626Y-84408851D02*
X139685688Y-84328039D01*
X139685688Y-84328039D02*
X139631813Y-84274164D01*
X139631813Y-84274164D02*
X139551001Y-84247227D01*
X139551001Y-84247227D02*
X139497126Y-84247227D01*
X139497126Y-84247227D02*
X139416314Y-84274164D01*
X139416314Y-84274164D02*
X139281627Y-84354977D01*
X139281627Y-84354977D02*
X139200815Y-84381914D01*
X139200815Y-84381914D02*
X139146940Y-84381914D01*
X139146940Y-84381914D02*
X139066128Y-84354977D01*
X139066128Y-84354977D02*
X139012253Y-84301102D01*
X139012253Y-84301102D02*
X138985316Y-84220290D01*
X138985316Y-84220290D02*
X138985316Y-84166415D01*
X138985316Y-84166415D02*
X139012253Y-84085603D01*
X139012253Y-84085603D02*
X139146940Y-83950916D01*
X139146940Y-83950916D02*
X139254690Y-83897041D01*
X156751313Y-75069909D02*
X156279908Y-75541314D01*
X156279908Y-75541314D02*
X155875847Y-74531161D01*
X166490476Y-73645336D02*
X167061904Y-73645336D01*
X166776190Y-73645336D02*
X166776190Y-74645336D01*
X166776190Y-74645336D02*
X166871428Y-74502479D01*
X166871428Y-74502479D02*
X166966666Y-74407241D01*
X166966666Y-74407241D02*
X167061904Y-74359622D01*
X165538095Y-73645336D02*
X166109523Y-73645336D01*
X165823809Y-73645336D02*
X165823809Y-74645336D01*
X165823809Y-74645336D02*
X165919047Y-74502479D01*
X165919047Y-74502479D02*
X166014285Y-74407241D01*
X166014285Y-74407241D02*
X166109523Y-74359622D01*
X163936808Y-85536182D02*
X163532747Y-85940243D01*
X163734777Y-85738212D02*
X163027670Y-85031106D01*
X163027670Y-85031106D02*
X163061342Y-85199464D01*
X163061342Y-85199464D02*
X163061342Y-85334151D01*
X163061342Y-85334151D02*
X163027670Y-85435167D01*
X164273525Y-85199464D02*
X164408212Y-85064777D01*
X164408212Y-85064777D02*
X164441884Y-84963762D01*
X164441884Y-84963762D02*
X164441884Y-84896419D01*
X164441884Y-84896419D02*
X164408212Y-84728060D01*
X164408212Y-84728060D02*
X164307197Y-84559701D01*
X164307197Y-84559701D02*
X164037823Y-84290327D01*
X164037823Y-84290327D02*
X163936808Y-84256655D01*
X163936808Y-84256655D02*
X163869464Y-84256655D01*
X163869464Y-84256655D02*
X163768449Y-84290327D01*
X163768449Y-84290327D02*
X163633762Y-84425014D01*
X163633762Y-84425014D02*
X163600090Y-84526029D01*
X163600090Y-84526029D02*
X163600090Y-84593373D01*
X163600090Y-84593373D02*
X163633762Y-84694388D01*
X163633762Y-84694388D02*
X163802121Y-84862747D01*
X163802121Y-84862747D02*
X163903136Y-84896419D01*
X163903136Y-84896419D02*
X163970480Y-84896419D01*
X163970480Y-84896419D02*
X164071495Y-84862747D01*
X164071495Y-84862747D02*
X164206182Y-84728060D01*
X164206182Y-84728060D02*
X164239854Y-84627045D01*
X164239854Y-84627045D02*
X164239854Y-84559701D01*
X164239854Y-84559701D02*
X164206182Y-84458686D01*
X150192983Y-85300480D02*
X150192983Y-85233136D01*
X150192983Y-85233136D02*
X150226655Y-85132121D01*
X150226655Y-85132121D02*
X150395014Y-84963762D01*
X150395014Y-84963762D02*
X150496029Y-84930090D01*
X150496029Y-84930090D02*
X150563373Y-84930090D01*
X150563373Y-84930090D02*
X150664388Y-84963762D01*
X150664388Y-84963762D02*
X150731732Y-85031106D01*
X150731732Y-85031106D02*
X150799075Y-85165793D01*
X150799075Y-85165793D02*
X150799075Y-85973915D01*
X150799075Y-85973915D02*
X151236808Y-85536182D01*
X151371495Y-84458686D02*
X151842899Y-84930090D01*
X150933762Y-84357671D02*
X151270480Y-85031106D01*
X151270480Y-85031106D02*
X151708212Y-84593373D01*
X146591313Y-75069909D02*
X146153580Y-75507642D01*
X146153580Y-75507642D02*
X146119908Y-75002566D01*
X146119908Y-75002566D02*
X146018893Y-75103581D01*
X146018893Y-75103581D02*
X145917878Y-75137253D01*
X145917878Y-75137253D02*
X145850534Y-75137253D01*
X145850534Y-75137253D02*
X145749519Y-75103581D01*
X145749519Y-75103581D02*
X145581160Y-74935222D01*
X145581160Y-74935222D02*
X145547489Y-74834207D01*
X145547489Y-74834207D02*
X145547489Y-74766863D01*
X145547489Y-74766863D02*
X145581160Y-74665848D01*
X145581160Y-74665848D02*
X145783191Y-74463818D01*
X145783191Y-74463818D02*
X145884206Y-74430146D01*
X145884206Y-74430146D02*
X145951550Y-74430146D01*
X158819908Y-74935222D02*
X158920924Y-74901550D01*
X158920924Y-74901550D02*
X158988267Y-74901550D01*
X158988267Y-74901550D02*
X159089282Y-74935222D01*
X159089282Y-74935222D02*
X159122954Y-74968894D01*
X159122954Y-74968894D02*
X159156626Y-75069909D01*
X159156626Y-75069909D02*
X159156626Y-75137253D01*
X159156626Y-75137253D02*
X159122954Y-75238268D01*
X159122954Y-75238268D02*
X158988267Y-75372955D01*
X158988267Y-75372955D02*
X158887252Y-75406627D01*
X158887252Y-75406627D02*
X158819908Y-75406627D01*
X158819908Y-75406627D02*
X158718893Y-75372955D01*
X158718893Y-75372955D02*
X158685221Y-75339283D01*
X158685221Y-75339283D02*
X158651550Y-75238268D01*
X158651550Y-75238268D02*
X158651550Y-75170924D01*
X158651550Y-75170924D02*
X158685221Y-75069909D01*
X158685221Y-75069909D02*
X158819908Y-74935222D01*
X158819908Y-74935222D02*
X158853580Y-74834207D01*
X158853580Y-74834207D02*
X158853580Y-74766863D01*
X158853580Y-74766863D02*
X158819908Y-74665848D01*
X158819908Y-74665848D02*
X158685221Y-74531161D01*
X158685221Y-74531161D02*
X158584206Y-74497489D01*
X158584206Y-74497489D02*
X158516863Y-74497489D01*
X158516863Y-74497489D02*
X158415847Y-74531161D01*
X158415847Y-74531161D02*
X158281160Y-74665848D01*
X158281160Y-74665848D02*
X158247489Y-74766863D01*
X158247489Y-74766863D02*
X158247489Y-74834207D01*
X158247489Y-74834207D02*
X158281160Y-74935222D01*
X158281160Y-74935222D02*
X158415847Y-75069909D01*
X158415847Y-75069909D02*
X158516863Y-75103581D01*
X158516863Y-75103581D02*
X158584206Y-75103581D01*
X158584206Y-75103581D02*
X158685221Y-75069909D01*
X140366473Y-74800535D02*
X140770534Y-74396474D01*
X140568504Y-74598505D02*
X141275611Y-75305611D01*
X141275611Y-75305611D02*
X141241939Y-75137253D01*
X141241939Y-75137253D02*
X141241939Y-75002566D01*
X141241939Y-75002566D02*
X141275611Y-74901550D01*
X139999312Y-85266807D02*
X139898297Y-85300479D01*
X139898297Y-85300479D02*
X139797282Y-85401494D01*
X139797282Y-85401494D02*
X139729938Y-85536181D01*
X139729938Y-85536181D02*
X139729938Y-85670868D01*
X139729938Y-85670868D02*
X139763610Y-85771884D01*
X139763610Y-85771884D02*
X139864625Y-85940242D01*
X139864625Y-85940242D02*
X139965640Y-86041258D01*
X139965640Y-86041258D02*
X140133999Y-86142273D01*
X140133999Y-86142273D02*
X140235014Y-86175945D01*
X140235014Y-86175945D02*
X140369701Y-86175945D01*
X140369701Y-86175945D02*
X140504388Y-86108601D01*
X140504388Y-86108601D02*
X140571732Y-86041258D01*
X140571732Y-86041258D02*
X140639075Y-85906571D01*
X140639075Y-85906571D02*
X140639075Y-85839227D01*
X140639075Y-85839227D02*
X140403373Y-85603525D01*
X140403373Y-85603525D02*
X140268686Y-85738212D01*
X141009465Y-85603525D02*
X140302358Y-84896418D01*
X140302358Y-84896418D02*
X141413526Y-85199464D01*
X141413526Y-85199464D02*
X140706419Y-84492357D01*
X141750243Y-84862746D02*
X141043136Y-84155640D01*
X141043136Y-84155640D02*
X141211495Y-83987281D01*
X141211495Y-83987281D02*
X141346182Y-83919937D01*
X141346182Y-83919937D02*
X141480869Y-83919937D01*
X141480869Y-83919937D02*
X141581884Y-83953609D01*
X141581884Y-83953609D02*
X141750243Y-84054624D01*
X141750243Y-84054624D02*
X141851258Y-84155640D01*
X141851258Y-84155640D02*
X141952274Y-84323998D01*
X141952274Y-84323998D02*
X141985945Y-84425014D01*
X141985945Y-84425014D02*
X141985945Y-84559701D01*
X141985945Y-84559701D02*
X141918602Y-84694388D01*
X141918602Y-84694388D02*
X141750243Y-84862746D01*
X143950298Y-75036237D02*
X143950298Y-75103581D01*
X143950298Y-75103581D02*
X143916626Y-75204596D01*
X143916626Y-75204596D02*
X143748267Y-75372955D01*
X143748267Y-75372955D02*
X143647252Y-75406627D01*
X143647252Y-75406627D02*
X143579908Y-75406627D01*
X143579908Y-75406627D02*
X143478893Y-75372955D01*
X143478893Y-75372955D02*
X143411550Y-75305611D01*
X143411550Y-75305611D02*
X143344206Y-75170924D01*
X143344206Y-75170924D02*
X143344206Y-74362802D01*
X143344206Y-74362802D02*
X142906473Y-74800535D01*
X153840924Y-75440298D02*
X153975611Y-75305611D01*
X153975611Y-75305611D02*
X154009282Y-75204596D01*
X154009282Y-75204596D02*
X154009282Y-75137253D01*
X154009282Y-75137253D02*
X153975611Y-74968894D01*
X153975611Y-74968894D02*
X153874595Y-74800535D01*
X153874595Y-74800535D02*
X153605221Y-74531161D01*
X153605221Y-74531161D02*
X153504206Y-74497489D01*
X153504206Y-74497489D02*
X153436863Y-74497489D01*
X153436863Y-74497489D02*
X153335847Y-74531161D01*
X153335847Y-74531161D02*
X153201160Y-74665848D01*
X153201160Y-74665848D02*
X153167489Y-74766863D01*
X153167489Y-74766863D02*
X153167489Y-74834207D01*
X153167489Y-74834207D02*
X153201160Y-74935222D01*
X153201160Y-74935222D02*
X153369519Y-75103581D01*
X153369519Y-75103581D02*
X153470534Y-75137253D01*
X153470534Y-75137253D02*
X153537878Y-75137253D01*
X153537878Y-75137253D02*
X153638893Y-75103581D01*
X153638893Y-75103581D02*
X153773580Y-74968894D01*
X153773580Y-74968894D02*
X153807252Y-74867879D01*
X153807252Y-74867879D02*
X153807252Y-74800535D01*
X153807252Y-74800535D02*
X153773580Y-74699520D01*
X161023191Y-74463818D02*
X160888504Y-74598505D01*
X160888504Y-74598505D02*
X160854832Y-74699520D01*
X160854832Y-74699520D02*
X160854832Y-74766863D01*
X160854832Y-74766863D02*
X160888504Y-74935222D01*
X160888504Y-74935222D02*
X160989519Y-75103581D01*
X160989519Y-75103581D02*
X161258893Y-75372955D01*
X161258893Y-75372955D02*
X161359908Y-75406627D01*
X161359908Y-75406627D02*
X161427252Y-75406627D01*
X161427252Y-75406627D02*
X161528267Y-75372955D01*
X161528267Y-75372955D02*
X161662954Y-75238268D01*
X161662954Y-75238268D02*
X161696626Y-75137253D01*
X161696626Y-75137253D02*
X161696626Y-75069909D01*
X161696626Y-75069909D02*
X161662954Y-74968894D01*
X161662954Y-74968894D02*
X161494595Y-74800535D01*
X161494595Y-74800535D02*
X161393580Y-74766863D01*
X161393580Y-74766863D02*
X161326237Y-74766863D01*
X161326237Y-74766863D02*
X161225221Y-74800535D01*
X161225221Y-74800535D02*
X161090534Y-74935222D01*
X161090534Y-74935222D02*
X161056863Y-75036237D01*
X161056863Y-75036237D02*
X161056863Y-75103581D01*
X161056863Y-75103581D02*
X161090534Y-75204596D01*
X152732983Y-85300480D02*
X152732983Y-85233136D01*
X152732983Y-85233136D02*
X152766655Y-85132121D01*
X152766655Y-85132121D02*
X152935014Y-84963762D01*
X152935014Y-84963762D02*
X153036029Y-84930090D01*
X153036029Y-84930090D02*
X153103373Y-84930090D01*
X153103373Y-84930090D02*
X153204388Y-84963762D01*
X153204388Y-84963762D02*
X153271732Y-85031106D01*
X153271732Y-85031106D02*
X153339075Y-85165793D01*
X153339075Y-85165793D02*
X153339075Y-85973915D01*
X153339075Y-85973915D02*
X153776808Y-85536182D01*
X153305403Y-84593373D02*
X153743136Y-84155640D01*
X153743136Y-84155640D02*
X153776808Y-84660716D01*
X153776808Y-84660716D02*
X153877823Y-84559701D01*
X153877823Y-84559701D02*
X153978838Y-84526029D01*
X153978838Y-84526029D02*
X154046182Y-84526029D01*
X154046182Y-84526029D02*
X154147197Y-84559701D01*
X154147197Y-84559701D02*
X154315556Y-84728060D01*
X154315556Y-84728060D02*
X154349228Y-84829075D01*
X154349228Y-84829075D02*
X154349228Y-84896419D01*
X154349228Y-84896419D02*
X154315556Y-84997434D01*
X154315556Y-84997434D02*
X154113525Y-85199464D01*
X154113525Y-85199464D02*
X154012510Y-85233136D01*
X154012510Y-85233136D02*
X153945167Y-85233136D01*
X166099523Y-86354663D02*
X165528095Y-86354663D01*
X165813809Y-86354663D02*
X165813809Y-85354663D01*
X165813809Y-85354663D02*
X165718571Y-85497520D01*
X165718571Y-85497520D02*
X165623333Y-85592758D01*
X165623333Y-85592758D02*
X165528095Y-85640377D01*
X166670952Y-85783234D02*
X166575714Y-85735615D01*
X166575714Y-85735615D02*
X166528095Y-85687996D01*
X166528095Y-85687996D02*
X166480476Y-85592758D01*
X166480476Y-85592758D02*
X166480476Y-85545139D01*
X166480476Y-85545139D02*
X166528095Y-85449901D01*
X166528095Y-85449901D02*
X166575714Y-85402282D01*
X166575714Y-85402282D02*
X166670952Y-85354663D01*
X166670952Y-85354663D02*
X166861428Y-85354663D01*
X166861428Y-85354663D02*
X166956666Y-85402282D01*
X166956666Y-85402282D02*
X167004285Y-85449901D01*
X167004285Y-85449901D02*
X167051904Y-85545139D01*
X167051904Y-85545139D02*
X167051904Y-85592758D01*
X167051904Y-85592758D02*
X167004285Y-85687996D01*
X167004285Y-85687996D02*
X166956666Y-85735615D01*
X166956666Y-85735615D02*
X166861428Y-85783234D01*
X166861428Y-85783234D02*
X166670952Y-85783234D01*
X166670952Y-85783234D02*
X166575714Y-85830853D01*
X166575714Y-85830853D02*
X166528095Y-85878472D01*
X166528095Y-85878472D02*
X166480476Y-85973710D01*
X166480476Y-85973710D02*
X166480476Y-86164186D01*
X166480476Y-86164186D02*
X166528095Y-86259424D01*
X166528095Y-86259424D02*
X166575714Y-86307044D01*
X166575714Y-86307044D02*
X166670952Y-86354663D01*
X166670952Y-86354663D02*
X166861428Y-86354663D01*
X166861428Y-86354663D02*
X166956666Y-86307044D01*
X166956666Y-86307044D02*
X167004285Y-86259424D01*
X167004285Y-86259424D02*
X167051904Y-86164186D01*
X167051904Y-86164186D02*
X167051904Y-85973710D01*
X167051904Y-85973710D02*
X167004285Y-85878472D01*
X167004285Y-85878472D02*
X166956666Y-85830853D01*
X166956666Y-85830853D02*
X166861428Y-85783234D01*
D12*
G36*
X139384901Y-82315000D02*
G01*
X139384901Y-81545512D01*
X139494016Y-81545512D01*
X139494016Y-81647667D01*
X139496825Y-81647667D01*
X139504738Y-81614657D01*
X139518465Y-81586990D01*
X139538041Y-81563709D01*
X139562591Y-81546057D01*
X139591361Y-81535295D01*
X139625541Y-81531530D01*
X139658005Y-81534937D01*
X139686127Y-81544763D01*
X139710843Y-81560961D01*
X139740483Y-81594862D01*
X139761218Y-81640645D01*
X139762623Y-81640645D01*
X139772165Y-81608689D01*
X139786834Y-81582448D01*
X139806647Y-81560961D01*
X139831000Y-81544913D01*
X139859777Y-81535015D01*
X139894147Y-81531530D01*
X139940908Y-81537869D01*
X139979634Y-81556109D01*
X140012300Y-81586789D01*
X140036131Y-81625813D01*
X140051067Y-81672939D01*
X140056386Y-81730221D01*
X140056386Y-82315000D01*
X139938905Y-82315000D01*
X139938905Y-81728817D01*
X139932907Y-81686103D01*
X139916496Y-81655361D01*
X139890362Y-81635082D01*
X139854946Y-81628066D01*
X139820722Y-81634865D01*
X139794802Y-81654689D01*
X139778416Y-81684815D01*
X139772392Y-81727412D01*
X139772392Y-82315000D01*
X139668894Y-82315000D01*
X139668894Y-81728817D01*
X139662897Y-81686103D01*
X139646485Y-81655361D01*
X139620548Y-81635015D01*
X139586340Y-81628066D01*
X139550907Y-81634930D01*
X139524791Y-81654689D01*
X139508405Y-81684815D01*
X139502382Y-81727412D01*
X139502382Y-82315000D01*
X139384901Y-82315000D01*
G37*
G36*
X140259107Y-82315000D02*
G01*
X140259107Y-82200266D01*
X140531865Y-82200266D01*
X140531865Y-81660245D01*
X140287073Y-81660245D01*
X140287073Y-81545512D01*
X140657773Y-81545512D01*
X140657773Y-82200266D01*
X140916609Y-82200266D01*
X140916609Y-82315000D01*
X140259107Y-82315000D01*
G37*
G36*
X140580836Y-81407027D02*
G01*
X140538356Y-81400682D01*
X140508113Y-81383274D01*
X140488416Y-81355816D01*
X140481551Y-81318916D01*
X140488457Y-81280633D01*
X140508113Y-81252421D01*
X140538419Y-81234454D01*
X140580836Y-81227936D01*
X140623253Y-81234454D01*
X140653559Y-81252421D01*
X140673263Y-81280638D01*
X140680182Y-81318916D01*
X140673303Y-81355811D01*
X140653559Y-81383274D01*
X140623317Y-81400682D01*
X140580836Y-81407027D01*
G37*
G36*
X141105287Y-82315000D02*
G01*
X141105287Y-82189092D01*
X141536192Y-81660245D01*
X141116461Y-81660245D01*
X141116461Y-81545512D01*
X141677486Y-81545512D01*
X141677486Y-81671420D01*
X141238216Y-82200266D01*
X141692874Y-82200266D01*
X141692874Y-82315000D01*
X141105287Y-82315000D01*
G37*
G36*
X142298039Y-81535819D02*
G01*
X142350577Y-81548118D01*
X142397087Y-81567922D01*
X142439177Y-81595608D01*
X142474175Y-81629485D01*
X142502722Y-81670076D01*
X142523292Y-81715287D01*
X142536059Y-81766636D01*
X142540519Y-81825354D01*
X142540519Y-81962435D01*
X142059238Y-81962435D01*
X142059238Y-82035219D01*
X142065129Y-82090108D01*
X142081639Y-82134322D01*
X142108209Y-82170225D01*
X142143625Y-82197354D01*
X142186301Y-82213991D01*
X142238329Y-82219867D01*
X142284278Y-82216522D01*
X142322251Y-82207190D01*
X142353673Y-82192573D01*
X142380630Y-82171683D01*
X142398679Y-82147424D01*
X142408994Y-82119117D01*
X142534901Y-82119117D01*
X142524211Y-82165227D01*
X142505281Y-82205521D01*
X142477913Y-82241023D01*
X142441173Y-82272318D01*
X142384551Y-82302999D01*
X142317723Y-82322192D01*
X142238329Y-82328982D01*
X142171374Y-82323465D01*
X142113582Y-82307719D01*
X142063317Y-82282354D01*
X142019365Y-82247161D01*
X141983923Y-82203832D01*
X141958106Y-82152819D01*
X141941886Y-82092608D01*
X141936140Y-82021175D01*
X141936140Y-81839337D01*
X141937265Y-81825354D01*
X142059238Y-81825354D01*
X142059238Y-81864494D01*
X142417359Y-81864494D01*
X142417359Y-81825354D01*
X142411556Y-81766494D01*
X142395583Y-81720608D01*
X142370464Y-81684792D01*
X142336255Y-81657902D01*
X142293095Y-81641121D01*
X142238329Y-81635088D01*
X142183520Y-81641121D01*
X142140319Y-81657903D01*
X142106072Y-81684792D01*
X142080988Y-81720603D01*
X142065035Y-81766489D01*
X142059238Y-81825354D01*
X141937265Y-81825354D01*
X141941887Y-81767903D01*
X141958108Y-81707703D01*
X141983925Y-81656712D01*
X142019365Y-81613412D01*
X142063321Y-81578190D01*
X142113587Y-81552807D01*
X142171378Y-81537050D01*
X142238329Y-81531530D01*
X142298039Y-81535819D01*
G37*
G36*
X143154484Y-82315000D02*
G01*
X143093274Y-82308408D01*
X143043247Y-82289821D01*
X143001954Y-82259740D01*
X142970601Y-82219659D01*
X142951399Y-82171272D01*
X142944618Y-82112156D01*
X142944618Y-81660245D01*
X142723579Y-81660245D01*
X142723579Y-81545512D01*
X142944618Y-81545512D01*
X142944618Y-81328686D01*
X143070526Y-81328686D01*
X143070526Y-81545512D01*
X143385294Y-81545512D01*
X143385294Y-81660245D01*
X143070526Y-81660245D01*
X143070526Y-82112156D01*
X143076523Y-82148251D01*
X143093606Y-82175781D01*
X143119906Y-82193958D01*
X143154484Y-82200266D01*
X143378333Y-82200266D01*
X143378333Y-82315000D01*
X143154484Y-82315000D01*
G37*
G36*
X145046939Y-82315000D02*
G01*
X144921031Y-82315000D01*
X144921031Y-82168087D01*
X144919627Y-82168087D01*
X144907651Y-82215624D01*
X144885850Y-82254471D01*
X144853865Y-82286301D01*
X144814545Y-82309407D01*
X144767603Y-82323856D01*
X144711166Y-82328982D01*
X144655067Y-82323871D01*
X144606610Y-82309232D01*
X144564325Y-82285453D01*
X144527190Y-82252046D01*
X144497882Y-82211871D01*
X144476351Y-82164690D01*
X144462763Y-82109164D01*
X144457947Y-82043585D01*
X144457947Y-81818332D01*
X144583854Y-81818332D01*
X144583854Y-82042180D01*
X144589676Y-82103059D01*
X144605140Y-82146857D01*
X144628612Y-82177918D01*
X144660873Y-82200470D01*
X144701596Y-82214720D01*
X144753176Y-82219867D01*
X144803255Y-82214033D01*
X144843539Y-82197611D01*
X144876274Y-82170896D01*
X144900312Y-82135738D01*
X144915531Y-82091372D01*
X144921031Y-82035219D01*
X144921031Y-81825354D01*
X144915530Y-81769159D01*
X144900309Y-81724775D01*
X144876274Y-81689616D01*
X144843539Y-81662901D01*
X144803255Y-81646479D01*
X144753176Y-81640645D01*
X144701543Y-81645721D01*
X144660821Y-81659757D01*
X144628612Y-81681922D01*
X144605226Y-81712571D01*
X144589724Y-81756490D01*
X144583854Y-81818332D01*
X144457947Y-81818332D01*
X144462742Y-81751973D01*
X144476240Y-81695999D01*
X144497572Y-81648647D01*
X144526518Y-81608527D01*
X144563298Y-81575182D01*
X144605535Y-81551381D01*
X144654307Y-81536679D01*
X144711166Y-81531530D01*
X144767562Y-81536719D01*
X144814769Y-81551391D01*
X144854597Y-81574944D01*
X144887237Y-81607159D01*
X144909686Y-81645832D01*
X144922436Y-81692424D01*
X144923840Y-81692424D01*
X144921031Y-81517547D01*
X144921031Y-81293698D01*
X145046939Y-81293698D01*
X145046939Y-82315000D01*
G37*
G36*
X145654913Y-81535819D02*
G01*
X145707451Y-81548118D01*
X145753961Y-81567922D01*
X145796050Y-81595608D01*
X145831048Y-81629485D01*
X145859596Y-81670076D01*
X145880165Y-81715287D01*
X145892933Y-81766636D01*
X145897392Y-81825354D01*
X145897392Y-81962435D01*
X145416112Y-81962435D01*
X145416112Y-82035219D01*
X145422003Y-82090108D01*
X145438513Y-82134322D01*
X145465082Y-82170225D01*
X145500499Y-82197354D01*
X145543175Y-82213991D01*
X145595203Y-82219867D01*
X145641151Y-82216522D01*
X145679125Y-82207190D01*
X145710546Y-82192573D01*
X145737504Y-82171683D01*
X145755552Y-82147424D01*
X145765867Y-82119117D01*
X145891775Y-82119117D01*
X145881085Y-82165227D01*
X145862154Y-82205521D01*
X145834787Y-82241023D01*
X145798046Y-82272318D01*
X145741425Y-82302999D01*
X145674597Y-82322192D01*
X145595203Y-82328982D01*
X145528248Y-82323465D01*
X145470455Y-82307719D01*
X145420191Y-82282354D01*
X145376239Y-82247161D01*
X145340797Y-82203832D01*
X145314980Y-82152819D01*
X145298759Y-82092608D01*
X145293013Y-82021175D01*
X145293013Y-81839337D01*
X145294138Y-81825354D01*
X145416112Y-81825354D01*
X145416112Y-81864494D01*
X145774233Y-81864494D01*
X145774233Y-81825354D01*
X145768430Y-81766494D01*
X145752456Y-81720608D01*
X145727338Y-81684792D01*
X145693129Y-81657902D01*
X145649969Y-81641121D01*
X145595203Y-81635088D01*
X145540394Y-81641121D01*
X145497193Y-81657903D01*
X145462945Y-81684792D01*
X145437862Y-81720603D01*
X145421908Y-81766489D01*
X145416112Y-81825354D01*
X145294138Y-81825354D01*
X145298760Y-81767903D01*
X145314982Y-81707703D01*
X145340799Y-81656712D01*
X145376239Y-81613412D01*
X145420195Y-81578190D01*
X145470460Y-81552807D01*
X145528251Y-81537050D01*
X145595203Y-81531530D01*
X145654913Y-81535819D01*
G37*
G36*
X146403647Y-82326174D02*
G01*
X146338679Y-82321987D01*
X146285010Y-82310343D01*
X146240733Y-82292247D01*
X146204283Y-82268166D01*
X146173834Y-82236717D01*
X146152012Y-82199663D01*
X146138433Y-82155881D01*
X146133636Y-82103729D01*
X146259543Y-82103729D01*
X146263946Y-82137369D01*
X146276473Y-82164620D01*
X146297279Y-82187016D01*
X146324091Y-82202939D01*
X146358821Y-82213269D01*
X146403647Y-82217058D01*
X146465196Y-82217058D01*
X146510888Y-82213177D01*
X146546273Y-82202596D01*
X146573579Y-82186284D01*
X146594697Y-82163356D01*
X146607512Y-82135019D01*
X146612047Y-82099577D01*
X146605725Y-82053217D01*
X146588753Y-82021236D01*
X146561542Y-81999688D01*
X146521127Y-81987653D01*
X146308514Y-81956878D01*
X146258874Y-81944165D01*
X146218896Y-81922478D01*
X146186759Y-81891788D01*
X146163398Y-81853692D01*
X146148676Y-81807097D01*
X146143406Y-81749822D01*
X146148039Y-81700603D01*
X146161242Y-81658738D01*
X146182616Y-81622775D01*
X146212649Y-81591735D01*
X146248458Y-81567732D01*
X146291273Y-81549842D01*
X146342447Y-81538420D01*
X146403647Y-81534338D01*
X146465196Y-81534338D01*
X146537964Y-81541004D01*
X146597970Y-81559731D01*
X146647767Y-81589598D01*
X146679326Y-81619730D01*
X146702139Y-81653431D01*
X146717000Y-81691329D01*
X146723971Y-81734434D01*
X146596660Y-81734434D01*
X146591243Y-81709130D01*
X146578714Y-81687009D01*
X146558191Y-81667267D01*
X146533134Y-81652948D01*
X146502586Y-81643889D01*
X146465196Y-81640645D01*
X146403647Y-81640645D01*
X146361669Y-81644317D01*
X146328726Y-81654398D01*
X146302896Y-81670076D01*
X146282768Y-81691857D01*
X146270716Y-81717977D01*
X146266504Y-81749822D01*
X146271649Y-81787697D01*
X146285490Y-81814006D01*
X146307697Y-81831899D01*
X146340632Y-81842145D01*
X146539324Y-81870111D01*
X146601826Y-81885193D01*
X146649716Y-81909078D01*
X146685958Y-81941136D01*
X146712315Y-81982091D01*
X146729116Y-82033914D01*
X146735206Y-82099577D01*
X146730409Y-82152439D01*
X146716819Y-82196923D01*
X146694986Y-82234656D01*
X146664559Y-82266762D01*
X146628017Y-82291475D01*
X146583705Y-82310000D01*
X146530067Y-82321899D01*
X146465196Y-82326174D01*
X146403647Y-82326174D01*
G37*
G36*
X146972855Y-82315000D02*
G01*
X146972855Y-82200266D01*
X147245613Y-82200266D01*
X147245613Y-81660245D01*
X147000820Y-81660245D01*
X147000820Y-81545512D01*
X147371520Y-81545512D01*
X147371520Y-82200266D01*
X147630356Y-82200266D01*
X147630356Y-82315000D01*
X146972855Y-82315000D01*
G37*
G36*
X147294583Y-81407027D02*
G01*
X147252103Y-81400682D01*
X147221860Y-81383274D01*
X147202164Y-81355816D01*
X147195299Y-81318916D01*
X147202204Y-81280633D01*
X147221860Y-81252421D01*
X147252167Y-81234454D01*
X147294583Y-81227936D01*
X147337000Y-81234454D01*
X147367307Y-81252421D01*
X147387010Y-81280638D01*
X147393929Y-81318916D01*
X147387051Y-81355811D01*
X147367307Y-81383274D01*
X147337064Y-81400682D01*
X147294583Y-81407027D01*
G37*
G36*
X148126057Y-81536229D02*
G01*
X148171200Y-81549503D01*
X148209334Y-81570730D01*
X148240902Y-81600093D01*
X148262625Y-81635545D01*
X148275096Y-81678442D01*
X148277905Y-81678442D01*
X148277905Y-81545512D01*
X148402408Y-81545512D01*
X148402408Y-82315000D01*
X148397521Y-82372214D01*
X148383634Y-82420980D01*
X148361322Y-82462857D01*
X148330356Y-82498975D01*
X148292555Y-82527750D01*
X148248115Y-82548826D01*
X148195753Y-82562107D01*
X148133802Y-82566814D01*
X147918380Y-82566814D01*
X147918380Y-82452081D01*
X148135206Y-82452081D01*
X148177563Y-82447597D01*
X148211435Y-82435076D01*
X148238704Y-82415017D01*
X148259296Y-82388161D01*
X148271994Y-82355391D01*
X148276501Y-82315000D01*
X148276501Y-82245024D01*
X148279310Y-82119117D01*
X148275096Y-82119117D01*
X148262564Y-82161913D01*
X148240830Y-82196628D01*
X148209334Y-82224752D01*
X148171345Y-82244765D01*
X148126196Y-82257348D01*
X148072253Y-82261816D01*
X148013785Y-82256701D01*
X147964071Y-82242168D01*
X147921466Y-82218795D01*
X147884796Y-82186284D01*
X147855846Y-82146827D01*
X147834520Y-82100160D01*
X147821022Y-82044886D01*
X147816225Y-81979227D01*
X147816225Y-81816927D01*
X147816630Y-81811371D01*
X147942132Y-81811371D01*
X147942132Y-81986249D01*
X147947439Y-82036737D01*
X147962316Y-82077531D01*
X147986218Y-82110751D01*
X148018360Y-82135723D01*
X148058819Y-82151312D01*
X148110049Y-82156913D01*
X148160129Y-82151079D01*
X148200412Y-82134658D01*
X148233148Y-82107943D01*
X148257186Y-82072785D01*
X148272405Y-82028418D01*
X148277905Y-81972266D01*
X148277905Y-81825354D01*
X148272404Y-81769159D01*
X148257183Y-81724775D01*
X148233148Y-81689616D01*
X148200412Y-81662901D01*
X148160129Y-81646479D01*
X148110049Y-81640645D01*
X148058824Y-81646253D01*
X148018364Y-81661860D01*
X147986218Y-81686868D01*
X147962316Y-81720089D01*
X147947439Y-81760883D01*
X147942132Y-81811371D01*
X147816630Y-81811371D01*
X147821001Y-81751339D01*
X147834468Y-81695817D01*
X147855795Y-81648661D01*
X147884796Y-81608527D01*
X147921559Y-81575318D01*
X147964199Y-81551505D01*
X148013879Y-81536726D01*
X148072253Y-81531530D01*
X148126057Y-81536229D01*
G37*
G36*
X148661061Y-82315000D02*
G01*
X148661061Y-81545512D01*
X148786968Y-81545512D01*
X148786968Y-81692424D01*
X148788373Y-81692424D01*
X148800181Y-81643765D01*
X148821151Y-81604764D01*
X148851326Y-81573539D01*
X148888906Y-81550970D01*
X148935255Y-81536669D01*
X148992621Y-81531530D01*
X149049868Y-81536368D01*
X149098776Y-81550128D01*
X149140872Y-81572239D01*
X149177268Y-81602909D01*
X149206413Y-81640418D01*
X149227706Y-81684427D01*
X149241098Y-81736200D01*
X149245840Y-81797388D01*
X149245840Y-82315000D01*
X149119932Y-82315000D01*
X149119932Y-81819736D01*
X149114423Y-81762600D01*
X149099357Y-81718613D01*
X149075847Y-81684792D01*
X149043778Y-81659195D01*
X149004602Y-81643472D01*
X148956229Y-81637897D01*
X148906129Y-81643715D01*
X148865578Y-81660126D01*
X148832397Y-81686868D01*
X148808095Y-81722094D01*
X148792603Y-81767301D01*
X148786968Y-81825354D01*
X148786968Y-82315000D01*
X148661061Y-82315000D01*
G37*
G36*
X149851005Y-81535819D02*
G01*
X149903543Y-81548118D01*
X149950053Y-81567922D01*
X149992143Y-81595608D01*
X150027141Y-81629485D01*
X150055688Y-81670076D01*
X150076257Y-81715287D01*
X150089025Y-81766636D01*
X150093484Y-81825354D01*
X150093484Y-81962435D01*
X149612204Y-81962435D01*
X149612204Y-82035219D01*
X149618095Y-82090108D01*
X149634605Y-82134322D01*
X149661175Y-82170225D01*
X149696591Y-82197354D01*
X149739267Y-82213991D01*
X149791295Y-82219867D01*
X149837244Y-82216522D01*
X149875217Y-82207190D01*
X149906639Y-82192573D01*
X149933596Y-82171683D01*
X149951644Y-82147424D01*
X149961960Y-82119117D01*
X150087867Y-82119117D01*
X150077177Y-82165227D01*
X150058246Y-82205521D01*
X150030879Y-82241023D01*
X149994139Y-82272318D01*
X149937517Y-82302999D01*
X149870689Y-82322192D01*
X149791295Y-82328982D01*
X149724340Y-82323465D01*
X149666548Y-82307719D01*
X149616283Y-82282354D01*
X149572331Y-82247161D01*
X149536889Y-82203832D01*
X149511072Y-82152819D01*
X149494851Y-82092608D01*
X149489105Y-82021175D01*
X149489105Y-81839337D01*
X149490230Y-81825354D01*
X149612204Y-81825354D01*
X149612204Y-81864494D01*
X149970325Y-81864494D01*
X149970325Y-81825354D01*
X149964522Y-81766494D01*
X149948549Y-81720608D01*
X149923430Y-81684792D01*
X149889221Y-81657902D01*
X149846061Y-81641121D01*
X149791295Y-81635088D01*
X149736486Y-81641121D01*
X149693285Y-81657903D01*
X149659037Y-81684792D01*
X149633954Y-81720603D01*
X149618001Y-81766489D01*
X149612204Y-81825354D01*
X149490230Y-81825354D01*
X149494852Y-81767903D01*
X149511074Y-81707703D01*
X149536891Y-81656712D01*
X149572331Y-81613412D01*
X149616287Y-81578190D01*
X149666553Y-81552807D01*
X149724344Y-81537050D01*
X149791295Y-81531530D01*
X149851005Y-81535819D01*
G37*
G36*
X150921468Y-82315000D02*
G01*
X150795560Y-82315000D01*
X150795560Y-82168087D01*
X150794156Y-82168087D01*
X150782180Y-82215624D01*
X150760378Y-82254471D01*
X150728394Y-82286301D01*
X150689074Y-82309407D01*
X150642131Y-82323856D01*
X150585695Y-82328982D01*
X150529596Y-82323871D01*
X150481139Y-82309232D01*
X150438854Y-82285453D01*
X150401719Y-82252046D01*
X150372411Y-82211871D01*
X150350880Y-82164690D01*
X150337292Y-82109164D01*
X150332476Y-82043585D01*
X150332476Y-81818332D01*
X150458383Y-81818332D01*
X150458383Y-82042180D01*
X150464205Y-82103059D01*
X150479669Y-82146857D01*
X150503141Y-82177918D01*
X150535402Y-82200470D01*
X150576125Y-82214720D01*
X150627705Y-82219867D01*
X150677784Y-82214033D01*
X150718068Y-82197611D01*
X150750803Y-82170896D01*
X150774841Y-82135738D01*
X150790060Y-82091372D01*
X150795560Y-82035219D01*
X150795560Y-81825354D01*
X150790059Y-81769159D01*
X150774838Y-81724775D01*
X150750803Y-81689616D01*
X150718068Y-81662901D01*
X150677784Y-81646479D01*
X150627705Y-81640645D01*
X150576072Y-81645721D01*
X150535349Y-81659757D01*
X150503141Y-81681922D01*
X150479755Y-81712571D01*
X150464253Y-81756490D01*
X150458383Y-81818332D01*
X150332476Y-81818332D01*
X150337271Y-81751973D01*
X150350769Y-81695999D01*
X150372101Y-81648647D01*
X150401047Y-81608527D01*
X150437827Y-81575182D01*
X150480064Y-81551381D01*
X150528836Y-81536679D01*
X150585695Y-81531530D01*
X150642091Y-81536719D01*
X150689298Y-81551391D01*
X150729126Y-81574944D01*
X150761766Y-81607159D01*
X150784215Y-81645832D01*
X150796965Y-81692424D01*
X150798369Y-81692424D01*
X150795560Y-81517547D01*
X150795560Y-81293698D01*
X150921468Y-81293698D01*
X150921468Y-82315000D01*
G37*
G36*
X152143842Y-81517547D02*
G01*
X152141033Y-81692424D01*
X152142438Y-81692424D01*
X152155187Y-81645832D01*
X152177637Y-81607159D01*
X152210276Y-81574944D01*
X152250105Y-81551391D01*
X152297311Y-81536719D01*
X152353708Y-81531530D01*
X152410566Y-81536679D01*
X152459339Y-81551381D01*
X152501575Y-81575182D01*
X152538355Y-81608527D01*
X152567302Y-81648647D01*
X152588633Y-81695999D01*
X152602132Y-81751973D01*
X152606926Y-81818332D01*
X152606926Y-82043585D01*
X152602150Y-82109207D01*
X152588681Y-82164748D01*
X152567354Y-82211913D01*
X152538355Y-82252046D01*
X152501579Y-82285362D01*
X152459344Y-82309144D01*
X152410570Y-82323837D01*
X152353708Y-82328982D01*
X152297270Y-82323857D01*
X152250305Y-82309410D01*
X152210948Y-82286301D01*
X152179000Y-82254475D01*
X152157217Y-82215629D01*
X152145246Y-82168087D01*
X152143842Y-82168087D01*
X152143842Y-82315000D01*
X152017935Y-82315000D01*
X152017935Y-81825354D01*
X152143842Y-81825354D01*
X152143842Y-82035219D01*
X152149413Y-82091319D01*
X152164846Y-82135686D01*
X152189271Y-82170896D01*
X152222420Y-82197708D01*
X152262540Y-82214085D01*
X152311698Y-82219867D01*
X152363276Y-82214719D01*
X152403977Y-82200468D01*
X152436201Y-82177918D01*
X152459708Y-82146852D01*
X152475191Y-82103053D01*
X152481019Y-82042180D01*
X152481019Y-81818332D01*
X152475142Y-81756496D01*
X152459621Y-81712577D01*
X152436201Y-81681922D01*
X152404029Y-81659760D01*
X152363330Y-81645722D01*
X152311698Y-81640645D01*
X152262540Y-81646427D01*
X152222420Y-81662804D01*
X152189271Y-81689616D01*
X152164849Y-81724827D01*
X152149415Y-81769212D01*
X152143842Y-81825354D01*
X152017935Y-81825354D01*
X152017935Y-81293698D01*
X152143842Y-81293698D01*
X152143842Y-81517547D01*
G37*
G36*
X152977443Y-82566814D02*
G01*
X153090772Y-82267433D01*
X152803969Y-81545512D01*
X152939707Y-81545512D01*
X153121546Y-82021175D01*
X153142551Y-82079977D01*
X153156534Y-82133100D01*
X153170517Y-82079977D01*
X153190117Y-82021175D01*
X153359378Y-81545512D01*
X153492307Y-81545512D01*
X153108968Y-82566814D01*
X152977443Y-82566814D01*
G37*
G36*
X154895936Y-81539873D02*
G01*
X154954710Y-81555531D01*
X155004809Y-81580501D01*
X155047645Y-81614816D01*
X155081952Y-81657292D01*
X155107147Y-81708127D01*
X155123105Y-81769006D01*
X155128795Y-81842145D01*
X155128795Y-82018428D01*
X155123095Y-82090731D01*
X155107058Y-82151284D01*
X155081644Y-82202202D01*
X155046912Y-82245085D01*
X155003704Y-82279768D01*
X154953555Y-82304919D01*
X154895120Y-82320635D01*
X154826605Y-82326174D01*
X154758058Y-82320634D01*
X154699603Y-82304917D01*
X154649445Y-82279766D01*
X154606237Y-82245085D01*
X154571535Y-82202206D01*
X154546139Y-82151290D01*
X154530113Y-82090735D01*
X154524416Y-82018428D01*
X154524416Y-81842145D01*
X154525503Y-81828162D01*
X154650323Y-81828162D01*
X154650323Y-82032411D01*
X154656249Y-82090201D01*
X154672459Y-82134366D01*
X154697889Y-82168087D01*
X154732185Y-82193126D01*
X154774350Y-82208695D01*
X154826605Y-82214249D01*
X154879754Y-82208649D01*
X154922081Y-82193041D01*
X154955993Y-82168087D01*
X154981035Y-82134421D01*
X154997033Y-82090258D01*
X155002888Y-82032411D01*
X155002888Y-81828162D01*
X154997031Y-81770273D01*
X154981032Y-81726092D01*
X154955993Y-81692424D01*
X154922081Y-81667471D01*
X154879754Y-81651863D01*
X154826605Y-81646263D01*
X154774350Y-81651817D01*
X154732185Y-81667386D01*
X154697889Y-81692424D01*
X154672462Y-81726147D01*
X154656251Y-81770330D01*
X154650323Y-81828162D01*
X154525503Y-81828162D01*
X154530102Y-81769002D01*
X154546049Y-81708121D01*
X154571226Y-81657288D01*
X154605505Y-81614816D01*
X154648341Y-81580504D01*
X154698448Y-81555534D01*
X154757242Y-81539874D01*
X154826605Y-81534338D01*
X154895936Y-81539873D01*
G37*
G36*
X155500716Y-81517547D02*
G01*
X155497907Y-81692424D01*
X155499311Y-81692424D01*
X155512061Y-81645832D01*
X155534510Y-81607159D01*
X155567150Y-81574944D01*
X155606978Y-81551391D01*
X155654185Y-81536719D01*
X155710581Y-81531530D01*
X155767440Y-81536679D01*
X155816212Y-81551381D01*
X155858449Y-81575182D01*
X155895229Y-81608527D01*
X155924175Y-81648647D01*
X155945507Y-81695999D01*
X155959005Y-81751973D01*
X155963800Y-81818332D01*
X155963800Y-82043585D01*
X155959024Y-82109207D01*
X155945555Y-82164748D01*
X155924228Y-82211913D01*
X155895229Y-82252046D01*
X155858453Y-82285362D01*
X155816218Y-82309144D01*
X155767444Y-82323837D01*
X155710581Y-82328982D01*
X155654144Y-82323857D01*
X155607179Y-82309410D01*
X155567821Y-82286301D01*
X155535874Y-82254475D01*
X155514091Y-82215629D01*
X155502120Y-82168087D01*
X155500716Y-82168087D01*
X155500716Y-82315000D01*
X155374809Y-82315000D01*
X155374809Y-81825354D01*
X155500716Y-81825354D01*
X155500716Y-82035219D01*
X155506287Y-82091319D01*
X155521720Y-82135686D01*
X155546145Y-82170896D01*
X155579294Y-82197708D01*
X155619413Y-82214085D01*
X155668572Y-82219867D01*
X155720150Y-82214719D01*
X155760851Y-82200468D01*
X155793074Y-82177918D01*
X155816581Y-82146852D01*
X155832065Y-82103053D01*
X155837893Y-82042180D01*
X155837893Y-81818332D01*
X155832016Y-81756496D01*
X155816495Y-81712577D01*
X155793074Y-81681922D01*
X155760903Y-81659760D01*
X155720203Y-81645722D01*
X155668572Y-81640645D01*
X155619413Y-81646427D01*
X155579294Y-81662804D01*
X155546145Y-81689616D01*
X155521722Y-81724827D01*
X155506288Y-81769212D01*
X155500716Y-81825354D01*
X155374809Y-81825354D01*
X155374809Y-81293698D01*
X155500716Y-81293698D01*
X155500716Y-81517547D01*
G37*
G36*
X156211218Y-82566814D02*
G01*
X156211218Y-82452081D01*
X156384692Y-82452081D01*
X156440651Y-82446267D01*
X156484768Y-82430145D01*
X156519697Y-82404515D01*
X156545794Y-82369969D01*
X156562125Y-82326541D01*
X156567996Y-82271646D01*
X156567996Y-81660245D01*
X156204257Y-81660245D01*
X156204257Y-81545512D01*
X156693903Y-81545512D01*
X156693903Y-82271646D01*
X156688214Y-82338493D01*
X156672036Y-82395562D01*
X156646034Y-82444652D01*
X156609945Y-82487069D01*
X156565818Y-82521077D01*
X156514551Y-82545835D01*
X156454773Y-82561343D01*
X156384692Y-82566814D01*
X156211218Y-82566814D01*
G37*
G36*
X156616906Y-81407027D02*
G01*
X156574425Y-81400682D01*
X156544182Y-81383274D01*
X156524486Y-81355816D01*
X156517621Y-81318916D01*
X156524526Y-81280633D01*
X156544182Y-81252421D01*
X156574489Y-81234454D01*
X156616906Y-81227936D01*
X156659322Y-81234454D01*
X156689629Y-81252421D01*
X156709332Y-81280638D01*
X156716251Y-81318916D01*
X156709373Y-81355811D01*
X156689629Y-81383274D01*
X156659386Y-81400682D01*
X156616906Y-81407027D01*
G37*
G36*
X157403971Y-81535819D02*
G01*
X157456509Y-81548118D01*
X157503019Y-81567922D01*
X157545108Y-81595608D01*
X157580106Y-81629485D01*
X157608654Y-81670076D01*
X157629223Y-81715287D01*
X157641991Y-81766636D01*
X157646450Y-81825354D01*
X157646450Y-81962435D01*
X157165170Y-81962435D01*
X157165170Y-82035219D01*
X157171060Y-82090108D01*
X157187571Y-82134322D01*
X157214140Y-82170225D01*
X157249557Y-82197354D01*
X157292233Y-82213991D01*
X157344261Y-82219867D01*
X157390209Y-82216522D01*
X157428183Y-82207190D01*
X157459604Y-82192573D01*
X157486562Y-82171683D01*
X157504610Y-82147424D01*
X157514925Y-82119117D01*
X157640833Y-82119117D01*
X157630143Y-82165227D01*
X157611212Y-82205521D01*
X157583845Y-82241023D01*
X157547104Y-82272318D01*
X157490483Y-82302999D01*
X157423655Y-82322192D01*
X157344261Y-82328982D01*
X157277306Y-82323465D01*
X157219513Y-82307719D01*
X157169249Y-82282354D01*
X157125297Y-82247161D01*
X157089855Y-82203832D01*
X157064038Y-82152819D01*
X157047817Y-82092608D01*
X157042071Y-82021175D01*
X157042071Y-81839337D01*
X157043196Y-81825354D01*
X157165170Y-81825354D01*
X157165170Y-81864494D01*
X157523291Y-81864494D01*
X157523291Y-81825354D01*
X157517488Y-81766494D01*
X157501514Y-81720608D01*
X157476396Y-81684792D01*
X157442187Y-81657902D01*
X157399027Y-81641121D01*
X157344261Y-81635088D01*
X157289452Y-81641121D01*
X157246251Y-81657903D01*
X157212003Y-81684792D01*
X157186920Y-81720603D01*
X157170966Y-81766489D01*
X157165170Y-81825354D01*
X157043196Y-81825354D01*
X157047818Y-81767903D01*
X157064040Y-81707703D01*
X157089857Y-81656712D01*
X157125297Y-81613412D01*
X157169253Y-81578190D01*
X157219518Y-81552807D01*
X157277309Y-81537050D01*
X157344261Y-81531530D01*
X157403971Y-81535819D01*
G37*
G36*
X158194653Y-82328982D02*
G01*
X158125248Y-82323614D01*
X158065894Y-82308383D01*
X158014856Y-82284055D01*
X157970805Y-82250642D01*
X157934825Y-82208904D01*
X157908821Y-82160105D01*
X157892579Y-82102850D01*
X157886846Y-82035219D01*
X157886846Y-81825354D01*
X157892580Y-81757690D01*
X157908823Y-81700415D01*
X157934828Y-81651607D01*
X157970805Y-81609870D01*
X158014856Y-81576456D01*
X158065894Y-81552129D01*
X158125248Y-81536898D01*
X158194653Y-81531530D01*
X158260745Y-81536421D01*
X158317597Y-81550317D01*
X158366749Y-81572507D01*
X158409404Y-81602909D01*
X158445026Y-81641220D01*
X158471105Y-81685582D01*
X158488058Y-81737107D01*
X158495438Y-81797388D01*
X158369531Y-81797388D01*
X158361564Y-81750059D01*
X158344661Y-81712760D01*
X158319156Y-81683326D01*
X158286253Y-81661860D01*
X158245459Y-81648319D01*
X158194653Y-81643454D01*
X158141461Y-81649067D01*
X158098086Y-81664866D01*
X158062396Y-81690348D01*
X158035610Y-81724585D01*
X158018815Y-81768187D01*
X158012753Y-81823949D01*
X158012753Y-82035219D01*
X158018796Y-82090957D01*
X158035579Y-82134811D01*
X158062396Y-82169492D01*
X158098136Y-82195366D01*
X158141510Y-82211376D01*
X158194653Y-82217058D01*
X158245408Y-82212121D01*
X158286202Y-82198366D01*
X158319156Y-82176514D01*
X158344765Y-82146674D01*
X158361628Y-82109552D01*
X158369531Y-82063185D01*
X158495438Y-82063185D01*
X158488060Y-82123433D01*
X158471110Y-82174950D01*
X158445031Y-82219324D01*
X158409404Y-82257663D01*
X158366752Y-82288038D01*
X158317602Y-82310209D01*
X158260748Y-82324095D01*
X158194653Y-82328982D01*
G37*
G36*
X159099634Y-82315000D02*
G01*
X159038424Y-82308408D01*
X158988397Y-82289821D01*
X158947104Y-82259740D01*
X158915751Y-82219659D01*
X158896549Y-82171272D01*
X158889768Y-82112156D01*
X158889768Y-81660245D01*
X158668729Y-81660245D01*
X158668729Y-81545512D01*
X158889768Y-81545512D01*
X158889768Y-81328686D01*
X159015676Y-81328686D01*
X159015676Y-81545512D01*
X159330444Y-81545512D01*
X159330444Y-81660245D01*
X159015676Y-81660245D01*
X159015676Y-82112156D01*
X159021673Y-82148251D01*
X159038757Y-82175781D01*
X159065056Y-82193958D01*
X159099634Y-82200266D01*
X159323483Y-82200266D01*
X159323483Y-82315000D01*
X159099634Y-82315000D01*
G37*
G36*
X159568092Y-82315000D02*
G01*
X159568092Y-82200266D01*
X159845124Y-82200266D01*
X159845124Y-81402814D01*
X159568092Y-81609870D01*
X159568092Y-81465767D01*
X159798962Y-81293698D01*
X159971031Y-81293698D01*
X159971031Y-82200266D01*
X160197628Y-82200266D01*
X160197628Y-82315000D01*
X159568092Y-82315000D01*
G37*
G36*
X160736006Y-81727150D02*
G01*
X160761951Y-81742128D01*
X160778944Y-81765981D01*
X160785032Y-81800136D01*
X160778909Y-81835688D01*
X160761951Y-81860341D01*
X160735955Y-81875787D01*
X160701134Y-81881285D01*
X160666261Y-81875785D01*
X160640257Y-81860341D01*
X160623298Y-81835688D01*
X160617176Y-81800136D01*
X160623264Y-81765981D01*
X160640257Y-81742128D01*
X160666210Y-81727152D01*
X160701134Y-81721795D01*
X160736006Y-81727150D01*
G37*
G36*
X160771097Y-81285321D02*
G01*
X160830688Y-81301214D01*
X160881746Y-81326617D01*
X160925655Y-81361598D01*
X160961403Y-81404951D01*
X160987194Y-81454949D01*
X161003242Y-81512881D01*
X161008880Y-81580500D01*
X161008880Y-82028197D01*
X161004438Y-82087834D01*
X160991681Y-82140387D01*
X160971084Y-82187016D01*
X160942393Y-82228862D01*
X160906958Y-82263636D01*
X160864105Y-82291919D01*
X160816628Y-82312057D01*
X160762711Y-82324598D01*
X160701134Y-82328982D01*
X160631135Y-82323380D01*
X160571523Y-82307495D01*
X160520458Y-82282110D01*
X160476553Y-82247161D01*
X160440803Y-82203778D01*
X160415012Y-82153759D01*
X160398965Y-82095815D01*
X160393327Y-82028197D01*
X160393327Y-81580500D01*
X160515021Y-81580500D01*
X160515021Y-82028197D01*
X160521032Y-82083070D01*
X160538134Y-82128810D01*
X160566068Y-82167416D01*
X160603167Y-82196973D01*
X160647478Y-82214954D01*
X160701134Y-82221271D01*
X160754748Y-82214954D01*
X160799018Y-82196974D01*
X160836079Y-82167416D01*
X160864049Y-82128805D01*
X160881170Y-82083066D01*
X160887186Y-82028197D01*
X160887186Y-81580500D01*
X160881171Y-81525672D01*
X160864052Y-81479952D01*
X160836079Y-81441343D01*
X160799014Y-81411748D01*
X160754744Y-81393749D01*
X160701134Y-81387426D01*
X160647482Y-81393749D01*
X160603172Y-81411749D01*
X160566068Y-81441343D01*
X160538131Y-81479948D01*
X160521030Y-81525668D01*
X160515021Y-81580500D01*
X160393327Y-81580500D01*
X160398966Y-81512881D01*
X160415014Y-81454949D01*
X160440805Y-81404951D01*
X160476553Y-81361598D01*
X160520461Y-81326620D01*
X160571528Y-81301216D01*
X160631139Y-81285322D01*
X160701134Y-81279715D01*
X160771097Y-81285321D01*
G37*
G36*
X161524966Y-82328982D02*
G01*
X161454773Y-82323533D01*
X161395226Y-82308122D01*
X161344461Y-82283588D01*
X161301056Y-82249970D01*
X161265680Y-82207966D01*
X161240121Y-82159145D01*
X161224179Y-82102170D01*
X161218563Y-82035219D01*
X161344470Y-82035219D01*
X161350344Y-82089145D01*
X161366834Y-82132662D01*
X161393441Y-82168087D01*
X161428866Y-82194694D01*
X161472383Y-82211184D01*
X161526309Y-82217058D01*
X161580275Y-82211182D01*
X161623812Y-82194691D01*
X161659238Y-82168087D01*
X161685844Y-82132662D01*
X161702334Y-82089145D01*
X161708209Y-82035219D01*
X161708209Y-81965244D01*
X161702333Y-81911277D01*
X161685841Y-81867741D01*
X161659238Y-81832315D01*
X161623812Y-81805711D01*
X161580275Y-81789220D01*
X161526309Y-81783344D01*
X161415789Y-81783344D01*
X161415789Y-81674228D01*
X161666260Y-81408431D01*
X161246529Y-81408431D01*
X161246529Y-81293698D01*
X161808959Y-81293698D01*
X161808959Y-81411240D01*
X161562701Y-81672824D01*
X161624668Y-81682544D01*
X161677501Y-81700590D01*
X161722688Y-81726468D01*
X161761332Y-81760324D01*
X161792473Y-81801085D01*
X161815065Y-81847986D01*
X161829162Y-81902196D01*
X161834116Y-81965244D01*
X161834116Y-82035219D01*
X161828458Y-82102124D01*
X161812392Y-82159082D01*
X161786612Y-82207920D01*
X161750890Y-82249970D01*
X161707175Y-82283555D01*
X161655984Y-82308094D01*
X161595875Y-82323523D01*
X161524966Y-82328982D01*
G37*
G36*
X162225637Y-82315000D02*
G01*
X162589376Y-81408431D01*
X162200480Y-81408431D01*
X162200480Y-81573539D01*
X162074573Y-81573539D01*
X162074573Y-81293698D01*
X162723709Y-81293698D01*
X162723709Y-81411240D01*
X162362780Y-82315000D01*
X162225637Y-82315000D01*
G37*
D11*
X155272983Y-85300480D02*
X155272983Y-85233136D01*
X155272983Y-85233136D02*
X155306655Y-85132121D01*
X155306655Y-85132121D02*
X155475014Y-84963762D01*
X155475014Y-84963762D02*
X155576029Y-84930090D01*
X155576029Y-84930090D02*
X155643373Y-84930090D01*
X155643373Y-84930090D02*
X155744388Y-84963762D01*
X155744388Y-84963762D02*
X155811732Y-85031106D01*
X155811732Y-85031106D02*
X155879075Y-85165793D01*
X155879075Y-85165793D02*
X155879075Y-85973915D01*
X155879075Y-85973915D02*
X156316808Y-85536182D01*
X155946419Y-84627045D02*
X155946419Y-84559701D01*
X155946419Y-84559701D02*
X155980090Y-84458686D01*
X155980090Y-84458686D02*
X156148449Y-84290327D01*
X156148449Y-84290327D02*
X156249464Y-84256655D01*
X156249464Y-84256655D02*
X156316808Y-84256655D01*
X156316808Y-84256655D02*
X156417823Y-84290327D01*
X156417823Y-84290327D02*
X156485167Y-84357671D01*
X156485167Y-84357671D02*
X156552510Y-84492358D01*
X156552510Y-84492358D02*
X156552510Y-85300480D01*
X156552510Y-85300480D02*
X156990243Y-84862747D01*
X142168923Y-85569853D02*
X142606656Y-85132121D01*
X142606656Y-85132121D02*
X142640327Y-85637197D01*
X142640327Y-85637197D02*
X142741343Y-85536182D01*
X142741343Y-85536182D02*
X142842358Y-85502510D01*
X142842358Y-85502510D02*
X142909701Y-85502510D01*
X142909701Y-85502510D02*
X143010717Y-85536182D01*
X143010717Y-85536182D02*
X143179075Y-85704540D01*
X143179075Y-85704540D02*
X143212747Y-85805556D01*
X143212747Y-85805556D02*
X143212747Y-85872899D01*
X143212747Y-85872899D02*
X143179075Y-85973914D01*
X143179075Y-85973914D02*
X142977045Y-86175945D01*
X142977045Y-86175945D02*
X142876030Y-86209617D01*
X142876030Y-86209617D02*
X142808686Y-86209617D01*
X142808686Y-84930090D02*
X143751495Y-85401495D01*
X143751495Y-85401495D02*
X143280091Y-84458685D01*
X143448449Y-84290327D02*
X143886182Y-83852594D01*
X143886182Y-83852594D02*
X143919854Y-84357670D01*
X143919854Y-84357670D02*
X144020869Y-84256655D01*
X144020869Y-84256655D02*
X144121884Y-84222983D01*
X144121884Y-84222983D02*
X144189228Y-84222983D01*
X144189228Y-84222983D02*
X144290243Y-84256655D01*
X144290243Y-84256655D02*
X144458602Y-84425014D01*
X144458602Y-84425014D02*
X144492274Y-84526029D01*
X144492274Y-84526029D02*
X144492274Y-84593372D01*
X144492274Y-84593372D02*
X144458602Y-84694388D01*
X144458602Y-84694388D02*
X144256572Y-84896418D01*
X144256572Y-84896418D02*
X144155556Y-84930090D01*
X144155556Y-84930090D02*
X144088213Y-84930090D01*
X160352983Y-85300480D02*
X160352983Y-85233136D01*
X160352983Y-85233136D02*
X160386655Y-85132121D01*
X160386655Y-85132121D02*
X160555014Y-84963762D01*
X160555014Y-84963762D02*
X160656029Y-84930090D01*
X160656029Y-84930090D02*
X160723373Y-84930090D01*
X160723373Y-84930090D02*
X160824388Y-84963762D01*
X160824388Y-84963762D02*
X160891732Y-85031106D01*
X160891732Y-85031106D02*
X160959075Y-85165793D01*
X160959075Y-85165793D02*
X160959075Y-85973915D01*
X160959075Y-85973915D02*
X161396808Y-85536182D01*
X161127434Y-84391342D02*
X161194777Y-84323999D01*
X161194777Y-84323999D02*
X161295793Y-84290327D01*
X161295793Y-84290327D02*
X161363136Y-84290327D01*
X161363136Y-84290327D02*
X161464151Y-84323999D01*
X161464151Y-84323999D02*
X161632510Y-84425014D01*
X161632510Y-84425014D02*
X161800869Y-84593373D01*
X161800869Y-84593373D02*
X161901884Y-84761732D01*
X161901884Y-84761732D02*
X161935556Y-84862747D01*
X161935556Y-84862747D02*
X161935556Y-84930090D01*
X161935556Y-84930090D02*
X161901884Y-85031106D01*
X161901884Y-85031106D02*
X161834541Y-85098449D01*
X161834541Y-85098449D02*
X161733525Y-85132121D01*
X161733525Y-85132121D02*
X161666182Y-85132121D01*
X161666182Y-85132121D02*
X161565167Y-85098449D01*
X161565167Y-85098449D02*
X161396808Y-84997434D01*
X161396808Y-84997434D02*
X161228449Y-84829075D01*
X161228449Y-84829075D02*
X161127434Y-84660716D01*
X161127434Y-84660716D02*
X161093762Y-84559701D01*
X161093762Y-84559701D02*
X161093762Y-84492358D01*
X161093762Y-84492358D02*
X161127434Y-84391342D01*
X138769282Y-75271940D02*
X138701939Y-75339283D01*
X138701939Y-75339283D02*
X138600924Y-75372955D01*
X138600924Y-75372955D02*
X138533580Y-75372955D01*
X138533580Y-75372955D02*
X138432565Y-75339283D01*
X138432565Y-75339283D02*
X138264206Y-75238268D01*
X138264206Y-75238268D02*
X138095847Y-75069909D01*
X138095847Y-75069909D02*
X137994832Y-74901550D01*
X137994832Y-74901550D02*
X137961160Y-74800535D01*
X137961160Y-74800535D02*
X137961160Y-74733192D01*
X137961160Y-74733192D02*
X137994832Y-74632176D01*
X137994832Y-74632176D02*
X138062176Y-74564833D01*
X138062176Y-74564833D02*
X138163191Y-74531161D01*
X138163191Y-74531161D02*
X138230534Y-74531161D01*
X138230534Y-74531161D02*
X138331550Y-74564833D01*
X138331550Y-74564833D02*
X138499908Y-74665848D01*
X138499908Y-74665848D02*
X138668267Y-74834207D01*
X138668267Y-74834207D02*
X138769282Y-75002566D01*
X138769282Y-75002566D02*
X138802954Y-75103581D01*
X138802954Y-75103581D02*
X138802954Y-75170924D01*
X138802954Y-75170924D02*
X138769282Y-75271940D01*
X157812983Y-85300480D02*
X157812983Y-85233136D01*
X157812983Y-85233136D02*
X157846655Y-85132121D01*
X157846655Y-85132121D02*
X158015014Y-84963762D01*
X158015014Y-84963762D02*
X158116029Y-84930090D01*
X158116029Y-84930090D02*
X158183373Y-84930090D01*
X158183373Y-84930090D02*
X158284388Y-84963762D01*
X158284388Y-84963762D02*
X158351732Y-85031106D01*
X158351732Y-85031106D02*
X158419075Y-85165793D01*
X158419075Y-85165793D02*
X158419075Y-85973915D01*
X158419075Y-85973915D02*
X158856808Y-85536182D01*
X159530243Y-84862747D02*
X159126182Y-85266808D01*
X159328212Y-85064777D02*
X158621106Y-84357671D01*
X158621106Y-84357671D02*
X158654777Y-84526029D01*
X158654777Y-84526029D02*
X158654777Y-84660716D01*
X158654777Y-84660716D02*
X158621106Y-84761732D01*
X151267252Y-75473970D02*
X151603969Y-75137253D01*
X151603969Y-75137253D02*
X151300924Y-74766863D01*
X151300924Y-74766863D02*
X151300924Y-74834207D01*
X151300924Y-74834207D02*
X151267252Y-74935222D01*
X151267252Y-74935222D02*
X151098893Y-75103581D01*
X151098893Y-75103581D02*
X150997878Y-75137253D01*
X150997878Y-75137253D02*
X150930534Y-75137253D01*
X150930534Y-75137253D02*
X150829519Y-75103581D01*
X150829519Y-75103581D02*
X150661160Y-74935222D01*
X150661160Y-74935222D02*
X150627489Y-74834207D01*
X150627489Y-74834207D02*
X150627489Y-74766863D01*
X150627489Y-74766863D02*
X150661160Y-74665848D01*
X150661160Y-74665848D02*
X150829519Y-74497489D01*
X150829519Y-74497489D02*
X150930534Y-74463818D01*
X150930534Y-74463818D02*
X150997878Y-74463818D01*
X147652983Y-85300480D02*
X147652983Y-85233136D01*
X147652983Y-85233136D02*
X147686655Y-85132121D01*
X147686655Y-85132121D02*
X147855014Y-84963762D01*
X147855014Y-84963762D02*
X147956029Y-84930090D01*
X147956029Y-84930090D02*
X148023373Y-84930090D01*
X148023373Y-84930090D02*
X148124388Y-84963762D01*
X148124388Y-84963762D02*
X148191732Y-85031106D01*
X148191732Y-85031106D02*
X148259075Y-85165793D01*
X148259075Y-85165793D02*
X148259075Y-85973915D01*
X148259075Y-85973915D02*
X148696808Y-85536182D01*
X148629464Y-84189312D02*
X148292747Y-84526029D01*
X148292747Y-84526029D02*
X148595793Y-84896419D01*
X148595793Y-84896419D02*
X148595793Y-84829075D01*
X148595793Y-84829075D02*
X148629464Y-84728060D01*
X148629464Y-84728060D02*
X148797823Y-84559701D01*
X148797823Y-84559701D02*
X148898838Y-84526029D01*
X148898838Y-84526029D02*
X148966182Y-84526029D01*
X148966182Y-84526029D02*
X149067197Y-84559701D01*
X149067197Y-84559701D02*
X149235556Y-84728060D01*
X149235556Y-84728060D02*
X149269228Y-84829075D01*
X149269228Y-84829075D02*
X149269228Y-84896419D01*
X149269228Y-84896419D02*
X149235556Y-84997434D01*
X149235556Y-84997434D02*
X149067197Y-85165793D01*
X149067197Y-85165793D02*
X148966182Y-85199464D01*
X148966182Y-85199464D02*
X148898838Y-85199464D01*
X145112983Y-85300480D02*
X145112983Y-85233136D01*
X145112983Y-85233136D02*
X145146655Y-85132121D01*
X145146655Y-85132121D02*
X145315014Y-84963762D01*
X145315014Y-84963762D02*
X145416029Y-84930090D01*
X145416029Y-84930090D02*
X145483373Y-84930090D01*
X145483373Y-84930090D02*
X145584388Y-84963762D01*
X145584388Y-84963762D02*
X145651732Y-85031106D01*
X145651732Y-85031106D02*
X145719075Y-85165793D01*
X145719075Y-85165793D02*
X145719075Y-85973915D01*
X145719075Y-85973915D02*
X146156808Y-85536182D01*
X146055793Y-84222984D02*
X145921106Y-84357671D01*
X145921106Y-84357671D02*
X145887434Y-84458686D01*
X145887434Y-84458686D02*
X145887434Y-84526029D01*
X145887434Y-84526029D02*
X145921106Y-84694388D01*
X145921106Y-84694388D02*
X146022121Y-84862747D01*
X146022121Y-84862747D02*
X146291495Y-85132121D01*
X146291495Y-85132121D02*
X146392510Y-85165793D01*
X146392510Y-85165793D02*
X146459854Y-85165793D01*
X146459854Y-85165793D02*
X146560869Y-85132121D01*
X146560869Y-85132121D02*
X146695556Y-84997434D01*
X146695556Y-84997434D02*
X146729228Y-84896419D01*
X146729228Y-84896419D02*
X146729228Y-84829075D01*
X146729228Y-84829075D02*
X146695556Y-84728060D01*
X146695556Y-84728060D02*
X146527197Y-84559701D01*
X146527197Y-84559701D02*
X146426182Y-84526029D01*
X146426182Y-84526029D02*
X146358838Y-84526029D01*
X146358838Y-84526029D02*
X146257823Y-84559701D01*
X146257823Y-84559701D02*
X146123136Y-84694388D01*
X146123136Y-84694388D02*
X146089464Y-84795403D01*
X146089464Y-84795403D02*
X146089464Y-84862747D01*
X146089464Y-84862747D02*
X146123136Y-84963762D01*
D13*
%TO.C,J2*%
X164970000Y-77460000D02*
X164970000Y-85140000D01*
X164970000Y-77460000D02*
X167630000Y-77460000D01*
X164970000Y-85140000D02*
X167630000Y-85140000D01*
X166300000Y-74860000D02*
X167630000Y-74860000D01*
X167630000Y-74860000D02*
X167630000Y-76190000D01*
X167630000Y-77460000D02*
X167630000Y-85140000D01*
%TO.C,SW1*%
X172000000Y-73300000D02*
X174800000Y-73300000D01*
X172000000Y-78200000D02*
X172000000Y-73300000D01*
X172000000Y-86700000D02*
X172000000Y-81800000D01*
X174600000Y-86700000D02*
X172000000Y-86700000D01*
X178300000Y-79500000D02*
X178300000Y-80500000D01*
X178800000Y-80000000D02*
X177800000Y-80000000D01*
X179600000Y-86700000D02*
X177000000Y-86700000D01*
X182100000Y-72500000D02*
X182400000Y-72200000D01*
X182400000Y-72200000D02*
X182400000Y-72800000D01*
X182400000Y-72800000D02*
X182100000Y-72500000D01*
X184600000Y-73300000D02*
X182100000Y-73300000D01*
X184600000Y-78100000D02*
X184600000Y-73300000D01*
X184600000Y-81800000D02*
X184600000Y-86700000D01*
X184600000Y-86700000D02*
X182000000Y-86700000D01*
X181300000Y-80000000D02*
G75*
G02*
X175300000Y-80000000I-3000000J0D01*
G01*
X175300000Y-80000000D02*
G75*
G02*
X181300000Y-80000000I3000000J0D01*
G01*
%TD*%
%LPC*%
D14*
%TO.C,SW2*%
X128000000Y-74900000D03*
X128000000Y-76700000D03*
D15*
X125775000Y-75800000D03*
D16*
X130225000Y-75800000D03*
%TD*%
D17*
%TO.C,H2*%
X136000000Y-78100000D03*
%TD*%
%TO.C,H3*%
X169800000Y-72800000D03*
%TD*%
D18*
%TO.C,J2*%
X166300000Y-76190000D03*
D19*
X166300000Y-78730000D03*
X166300000Y-81270000D03*
X166300000Y-83810000D03*
%TD*%
D14*
%TO.C,SW5*%
X133500000Y-71450000D03*
X133500000Y-73250000D03*
D15*
X131275000Y-72350000D03*
D16*
X135725000Y-72350000D03*
%TD*%
D20*
%TO.C,SW1*%
X180800000Y-72500000D03*
X175800000Y-72500000D03*
D21*
X178300000Y-72500000D03*
D22*
X183900000Y-80000000D03*
X172700000Y-80000000D03*
D20*
X180800000Y-87000000D03*
X175800000Y-87000000D03*
%TD*%
D14*
%TO.C,SW3*%
X128000000Y-79100000D03*
X128000000Y-80900000D03*
D15*
X125775000Y-80000000D03*
D16*
X130225000Y-80000000D03*
%TD*%
D14*
%TO.C,SW4*%
X128000000Y-83300000D03*
X128000000Y-85100000D03*
D15*
X125775000Y-84200000D03*
D16*
X130225000Y-84200000D03*
%TD*%
D17*
%TO.C,H1*%
X169800000Y-87200000D03*
%TD*%
D19*
%TO.C,J4*%
X138350000Y-87620000D03*
D18*
X140890000Y-87620000D03*
D19*
X143430000Y-87620000D03*
X145970000Y-87620000D03*
X148510000Y-87620000D03*
X151050000Y-87620000D03*
X153590000Y-87620000D03*
X156130000Y-87620000D03*
X158670000Y-87620000D03*
X161210000Y-87620000D03*
X163750000Y-87620000D03*
X166290000Y-87620000D03*
%TD*%
D23*
%TO.C,J1*%
X129100000Y-85115000D03*
X129100000Y-79335000D03*
D24*
X125450000Y-86545000D03*
D25*
X129630000Y-86545000D03*
D24*
X125450000Y-77905000D03*
D25*
X129630000Y-77905000D03*
%TD*%
D19*
%TO.C,J3*%
X138350000Y-72380000D03*
X140890000Y-72380000D03*
X143430000Y-72380000D03*
X145970000Y-72380000D03*
X148510000Y-72380000D03*
X151050000Y-72380000D03*
X153590000Y-72380000D03*
X156130000Y-72380000D03*
X158670000Y-72380000D03*
X161210000Y-72380000D03*
X163750000Y-72380000D03*
X166290000Y-72380000D03*
%TD*%
D18*
%TO.C,TP3*%
X169790000Y-83820000D03*
%TD*%
%TO.C,TP2*%
X169790000Y-76190000D03*
%TD*%
%LPD*%
M02*
