%TF.GenerationSoftware,KiCad,Pcbnew,9.0.3*%
%TF.CreationDate,2026-03-07T22:57:06+09:00*%
%TF.ProjectId,mizet,6d697a65-742e-46b6-9963-61645f706362,rev?*%
%TF.SameCoordinates,Original*%
%TF.FileFunction,Legend,Bot*%
%TF.FilePolarity,Positive*%
%FSLAX46Y46*%
G04 Gerber Fmt 4.6, Leading zero omitted, Abs format (unit mm)*
G04 Created by KiCad (PCBNEW 9.0.3) date 2026-03-07 22:57:06*
%MOMM*%
%LPD*%
G01*
G04 APERTURE LIST*
G04 Aperture macros list*
%AMRoundRect*
0 Rectangle with rounded corners*
0 $1 Rounding radius*
0 $2 $3 $4 $5 $6 $7 $8 $9 X,Y pos of 4 corners*
0 Add a 4 corners polygon primitive as box body*
4,1,4,$2,$3,$4,$5,$6,$7,$8,$9,$2,$3,0*
0 Add four circle primitives for the rounded corners*
1,1,$1+$1,$2,$3*
1,1,$1+$1,$4,$5*
1,1,$1+$1,$6,$7*
1,1,$1+$1,$8,$9*
0 Add four rect primitives between the rounded corners*
20,1,$1+$1,$2,$3,$4,$5,0*
20,1,$1+$1,$4,$5,$6,$7,0*
20,1,$1+$1,$6,$7,$8,$9,0*
20,1,$1+$1,$8,$9,$2,$3,0*%
%AMFreePoly0*
4,1,23,0.500000,-0.750000,0.000000,-0.750000,0.000000,-0.745722,-0.065263,-0.745722,-0.191342,-0.711940,-0.304381,-0.646677,-0.396677,-0.554381,-0.461940,-0.441342,-0.495722,-0.315263,-0.495722,-0.250000,-0.500000,-0.250000,-0.500000,0.250000,-0.495722,0.250000,-0.495722,0.315263,-0.461940,0.441342,-0.396677,0.554381,-0.304381,0.646677,-0.191342,0.711940,-0.065263,0.745722,0.000000,0.745722,
0.000000,0.750000,0.500000,0.750000,0.500000,-0.750000,0.500000,-0.750000,$1*%
%AMFreePoly1*
4,1,23,0.000000,0.745722,0.065263,0.745722,0.191342,0.711940,0.304381,0.646677,0.396677,0.554381,0.461940,0.441342,0.495722,0.315263,0.495722,0.250000,0.500000,0.250000,0.500000,-0.250000,0.495722,-0.250000,0.495722,-0.315263,0.461940,-0.441342,0.396677,-0.554381,0.304381,-0.646677,0.191342,-0.711940,0.065263,-0.745722,0.000000,-0.745722,0.000000,-0.750000,-0.500000,-0.750000,
-0.500000,0.750000,0.000000,0.750000,0.000000,0.745722,0.000000,0.745722,$1*%
G04 Aperture macros list end*
%ADD10C,0.153000*%
%ADD11C,0.120000*%
%ADD12C,0.000000*%
%ADD13RoundRect,0.225000X-0.250000X0.225000X-0.250000X-0.225000X0.250000X-0.225000X0.250000X0.225000X0*%
%ADD14RoundRect,0.225000X0.225000X0.250000X-0.225000X0.250000X-0.225000X-0.250000X0.225000X-0.250000X0*%
%ADD15C,0.750000*%
%ADD16C,2.200000*%
%ADD17R,1.700000X1.700000*%
%ADD18C,1.700000*%
%ADD19C,2.000000*%
%ADD20R,2.000000X2.000000*%
%ADD21R,2.500000X3.000000*%
%ADD22RoundRect,0.237500X0.237500X-0.250000X0.237500X0.250000X-0.237500X0.250000X-0.237500X-0.250000X0*%
%ADD23RoundRect,0.155000X0.212500X0.155000X-0.212500X0.155000X-0.212500X-0.155000X0.212500X-0.155000X0*%
%ADD24C,0.650000*%
%ADD25R,1.450000X0.600000*%
%ADD26R,1.450000X0.300000*%
%ADD27O,1.600000X1.000000*%
%ADD28O,2.100000X1.000000*%
%ADD29RoundRect,0.155000X-0.212500X-0.155000X0.212500X-0.155000X0.212500X0.155000X-0.212500X0.155000X0*%
%ADD30RoundRect,0.250000X-0.450000X-0.350000X0.450000X-0.350000X0.450000X0.350000X-0.450000X0.350000X0*%
%ADD31RoundRect,0.225000X0.225000X0.375000X-0.225000X0.375000X-0.225000X-0.375000X0.225000X-0.375000X0*%
%ADD32RoundRect,0.237500X0.237500X-0.300000X0.237500X0.300000X-0.237500X0.300000X-0.237500X-0.300000X0*%
%ADD33RoundRect,0.050000X-0.050000X0.387500X-0.050000X-0.387500X0.050000X-0.387500X0.050000X0.387500X0*%
%ADD34RoundRect,0.050000X-0.387500X0.050000X-0.387500X-0.050000X0.387500X-0.050000X0.387500X0.050000X0*%
%ADD35RoundRect,0.144000X-1.456000X1.456000X-1.456000X-1.456000X1.456000X-1.456000X1.456000X1.456000X0*%
%ADD36RoundRect,0.160000X-0.197500X-0.160000X0.197500X-0.160000X0.197500X0.160000X-0.197500X0.160000X0*%
%ADD37RoundRect,0.062500X-0.387500X-0.062500X0.387500X-0.062500X0.387500X0.062500X-0.387500X0.062500X0*%
%ADD38R,0.200000X1.600000*%
%ADD39C,1.500000*%
%ADD40RoundRect,0.237500X-0.250000X-0.237500X0.250000X-0.237500X0.250000X0.237500X-0.250000X0.237500X0*%
%ADD41FreePoly0,270.000000*%
%ADD42FreePoly1,270.000000*%
%ADD43RoundRect,0.237500X-0.237500X0.300000X-0.237500X-0.300000X0.237500X-0.300000X0.237500X0.300000X0*%
%ADD44RoundRect,0.150000X-0.150000X0.512500X-0.150000X-0.512500X0.150000X-0.512500X0.150000X0.512500X0*%
G04 APERTURE END LIST*
D10*
X185561904Y-76607044D02*
X185419047Y-76654663D01*
X185419047Y-76654663D02*
X185180952Y-76654663D01*
X185180952Y-76654663D02*
X185085714Y-76607044D01*
X185085714Y-76607044D02*
X185038095Y-76559424D01*
X185038095Y-76559424D02*
X184990476Y-76464186D01*
X184990476Y-76464186D02*
X184990476Y-76368948D01*
X184990476Y-76368948D02*
X185038095Y-76273710D01*
X185038095Y-76273710D02*
X185085714Y-76226091D01*
X185085714Y-76226091D02*
X185180952Y-76178472D01*
X185180952Y-76178472D02*
X185371428Y-76130853D01*
X185371428Y-76130853D02*
X185466666Y-76083234D01*
X185466666Y-76083234D02*
X185514285Y-76035615D01*
X185514285Y-76035615D02*
X185561904Y-75940377D01*
X185561904Y-75940377D02*
X185561904Y-75845139D01*
X185561904Y-75845139D02*
X185514285Y-75749901D01*
X185514285Y-75749901D02*
X185466666Y-75702282D01*
X185466666Y-75702282D02*
X185371428Y-75654663D01*
X185371428Y-75654663D02*
X185133333Y-75654663D01*
X185133333Y-75654663D02*
X184990476Y-75702282D01*
X184657142Y-75654663D02*
X184419047Y-76654663D01*
X184419047Y-76654663D02*
X184228571Y-75940377D01*
X184228571Y-75940377D02*
X184038095Y-76654663D01*
X184038095Y-76654663D02*
X183800000Y-75654663D01*
X182847619Y-76559424D02*
X182895238Y-76607044D01*
X182895238Y-76607044D02*
X183038095Y-76654663D01*
X183038095Y-76654663D02*
X183133333Y-76654663D01*
X183133333Y-76654663D02*
X183276190Y-76607044D01*
X183276190Y-76607044D02*
X183371428Y-76511805D01*
X183371428Y-76511805D02*
X183419047Y-76416567D01*
X183419047Y-76416567D02*
X183466666Y-76226091D01*
X183466666Y-76226091D02*
X183466666Y-76083234D01*
X183466666Y-76083234D02*
X183419047Y-75892758D01*
X183419047Y-75892758D02*
X183371428Y-75797520D01*
X183371428Y-75797520D02*
X183276190Y-75702282D01*
X183276190Y-75702282D02*
X183133333Y-75654663D01*
X183133333Y-75654663D02*
X183038095Y-75654663D01*
X183038095Y-75654663D02*
X182895238Y-75702282D01*
X182895238Y-75702282D02*
X182847619Y-75749901D01*
X181942857Y-76654663D02*
X182419047Y-76654663D01*
X182419047Y-76654663D02*
X182419047Y-75654663D01*
X181609523Y-76654663D02*
X181609523Y-75654663D01*
X181038095Y-76654663D02*
X181466666Y-76083234D01*
X181038095Y-75654663D02*
X181609523Y-76226091D01*
X185569046Y-84207044D02*
X185426189Y-84254663D01*
X185426189Y-84254663D02*
X185188094Y-84254663D01*
X185188094Y-84254663D02*
X185092856Y-84207044D01*
X185092856Y-84207044D02*
X185045237Y-84159424D01*
X185045237Y-84159424D02*
X184997618Y-84064186D01*
X184997618Y-84064186D02*
X184997618Y-83968948D01*
X184997618Y-83968948D02*
X185045237Y-83873710D01*
X185045237Y-83873710D02*
X185092856Y-83826091D01*
X185092856Y-83826091D02*
X185188094Y-83778472D01*
X185188094Y-83778472D02*
X185378570Y-83730853D01*
X185378570Y-83730853D02*
X185473808Y-83683234D01*
X185473808Y-83683234D02*
X185521427Y-83635615D01*
X185521427Y-83635615D02*
X185569046Y-83540377D01*
X185569046Y-83540377D02*
X185569046Y-83445139D01*
X185569046Y-83445139D02*
X185521427Y-83349901D01*
X185521427Y-83349901D02*
X185473808Y-83302282D01*
X185473808Y-83302282D02*
X185378570Y-83254663D01*
X185378570Y-83254663D02*
X185140475Y-83254663D01*
X185140475Y-83254663D02*
X184997618Y-83302282D01*
X184664284Y-83254663D02*
X184426189Y-84254663D01*
X184426189Y-84254663D02*
X184235713Y-83540377D01*
X184235713Y-83540377D02*
X184045237Y-84254663D01*
X184045237Y-84254663D02*
X183807142Y-83254663D01*
X183426189Y-84254663D02*
X183426189Y-83254663D01*
X183426189Y-83254663D02*
X183188094Y-83254663D01*
X183188094Y-83254663D02*
X183045237Y-83302282D01*
X183045237Y-83302282D02*
X182949999Y-83397520D01*
X182949999Y-83397520D02*
X182902380Y-83492758D01*
X182902380Y-83492758D02*
X182854761Y-83683234D01*
X182854761Y-83683234D02*
X182854761Y-83826091D01*
X182854761Y-83826091D02*
X182902380Y-84016567D01*
X182902380Y-84016567D02*
X182949999Y-84111805D01*
X182949999Y-84111805D02*
X183045237Y-84207044D01*
X183045237Y-84207044D02*
X183188094Y-84254663D01*
X183188094Y-84254663D02*
X183426189Y-84254663D01*
X182426189Y-84254663D02*
X182426189Y-83254663D01*
X181759523Y-83254663D02*
X181569047Y-83254663D01*
X181569047Y-83254663D02*
X181473809Y-83302282D01*
X181473809Y-83302282D02*
X181378571Y-83397520D01*
X181378571Y-83397520D02*
X181330952Y-83587996D01*
X181330952Y-83587996D02*
X181330952Y-83921329D01*
X181330952Y-83921329D02*
X181378571Y-84111805D01*
X181378571Y-84111805D02*
X181473809Y-84207044D01*
X181473809Y-84207044D02*
X181569047Y-84254663D01*
X181569047Y-84254663D02*
X181759523Y-84254663D01*
X181759523Y-84254663D02*
X181854761Y-84207044D01*
X181854761Y-84207044D02*
X181949999Y-84111805D01*
X181949999Y-84111805D02*
X181997618Y-83921329D01*
X181997618Y-83921329D02*
X181997618Y-83587996D01*
X181997618Y-83587996D02*
X181949999Y-83397520D01*
X181949999Y-83397520D02*
X181854761Y-83302282D01*
X181854761Y-83302282D02*
X181759523Y-83254663D01*
X137357142Y-74730853D02*
X137214285Y-74778472D01*
X137214285Y-74778472D02*
X137166666Y-74826091D01*
X137166666Y-74826091D02*
X137119047Y-74921329D01*
X137119047Y-74921329D02*
X137119047Y-75064186D01*
X137119047Y-75064186D02*
X137166666Y-75159424D01*
X137166666Y-75159424D02*
X137214285Y-75207044D01*
X137214285Y-75207044D02*
X137309523Y-75254663D01*
X137309523Y-75254663D02*
X137690475Y-75254663D01*
X137690475Y-75254663D02*
X137690475Y-74254663D01*
X137690475Y-74254663D02*
X137357142Y-74254663D01*
X137357142Y-74254663D02*
X137261904Y-74302282D01*
X137261904Y-74302282D02*
X137214285Y-74349901D01*
X137214285Y-74349901D02*
X137166666Y-74445139D01*
X137166666Y-74445139D02*
X137166666Y-74540377D01*
X137166666Y-74540377D02*
X137214285Y-74635615D01*
X137214285Y-74635615D02*
X137261904Y-74683234D01*
X137261904Y-74683234D02*
X137357142Y-74730853D01*
X137357142Y-74730853D02*
X137690475Y-74730853D01*
X136499999Y-74254663D02*
X136309523Y-74254663D01*
X136309523Y-74254663D02*
X136214285Y-74302282D01*
X136214285Y-74302282D02*
X136119047Y-74397520D01*
X136119047Y-74397520D02*
X136071428Y-74587996D01*
X136071428Y-74587996D02*
X136071428Y-74921329D01*
X136071428Y-74921329D02*
X136119047Y-75111805D01*
X136119047Y-75111805D02*
X136214285Y-75207044D01*
X136214285Y-75207044D02*
X136309523Y-75254663D01*
X136309523Y-75254663D02*
X136499999Y-75254663D01*
X136499999Y-75254663D02*
X136595237Y-75207044D01*
X136595237Y-75207044D02*
X136690475Y-75111805D01*
X136690475Y-75111805D02*
X136738094Y-74921329D01*
X136738094Y-74921329D02*
X136738094Y-74587996D01*
X136738094Y-74587996D02*
X136690475Y-74397520D01*
X136690475Y-74397520D02*
X136595237Y-74302282D01*
X136595237Y-74302282D02*
X136499999Y-74254663D01*
X135452380Y-74254663D02*
X135261904Y-74254663D01*
X135261904Y-74254663D02*
X135166666Y-74302282D01*
X135166666Y-74302282D02*
X135071428Y-74397520D01*
X135071428Y-74397520D02*
X135023809Y-74587996D01*
X135023809Y-74587996D02*
X135023809Y-74921329D01*
X135023809Y-74921329D02*
X135071428Y-75111805D01*
X135071428Y-75111805D02*
X135166666Y-75207044D01*
X135166666Y-75207044D02*
X135261904Y-75254663D01*
X135261904Y-75254663D02*
X135452380Y-75254663D01*
X135452380Y-75254663D02*
X135547618Y-75207044D01*
X135547618Y-75207044D02*
X135642856Y-75111805D01*
X135642856Y-75111805D02*
X135690475Y-74921329D01*
X135690475Y-74921329D02*
X135690475Y-74587996D01*
X135690475Y-74587996D02*
X135642856Y-74397520D01*
X135642856Y-74397520D02*
X135547618Y-74302282D01*
X135547618Y-74302282D02*
X135452380Y-74254663D01*
X134738094Y-74254663D02*
X134166666Y-74254663D01*
X134452380Y-75254663D02*
X134452380Y-74254663D01*
X180904663Y-78547618D02*
X180428472Y-78214285D01*
X180904663Y-77976190D02*
X179904663Y-77976190D01*
X179904663Y-77976190D02*
X179904663Y-78357142D01*
X179904663Y-78357142D02*
X179952282Y-78452380D01*
X179952282Y-78452380D02*
X179999901Y-78499999D01*
X179999901Y-78499999D02*
X180095139Y-78547618D01*
X180095139Y-78547618D02*
X180237996Y-78547618D01*
X180237996Y-78547618D02*
X180333234Y-78499999D01*
X180333234Y-78499999D02*
X180380853Y-78452380D01*
X180380853Y-78452380D02*
X180428472Y-78357142D01*
X180428472Y-78357142D02*
X180428472Y-77976190D01*
X180380853Y-78976190D02*
X180380853Y-79309523D01*
X180904663Y-79452380D02*
X180904663Y-78976190D01*
X180904663Y-78976190D02*
X179904663Y-78976190D01*
X179904663Y-78976190D02*
X179904663Y-79452380D01*
X180857044Y-79833333D02*
X180904663Y-79976190D01*
X180904663Y-79976190D02*
X180904663Y-80214285D01*
X180904663Y-80214285D02*
X180857044Y-80309523D01*
X180857044Y-80309523D02*
X180809424Y-80357142D01*
X180809424Y-80357142D02*
X180714186Y-80404761D01*
X180714186Y-80404761D02*
X180618948Y-80404761D01*
X180618948Y-80404761D02*
X180523710Y-80357142D01*
X180523710Y-80357142D02*
X180476091Y-80309523D01*
X180476091Y-80309523D02*
X180428472Y-80214285D01*
X180428472Y-80214285D02*
X180380853Y-80023809D01*
X180380853Y-80023809D02*
X180333234Y-79928571D01*
X180333234Y-79928571D02*
X180285615Y-79880952D01*
X180285615Y-79880952D02*
X180190377Y-79833333D01*
X180190377Y-79833333D02*
X180095139Y-79833333D01*
X180095139Y-79833333D02*
X179999901Y-79880952D01*
X179999901Y-79880952D02*
X179952282Y-79928571D01*
X179952282Y-79928571D02*
X179904663Y-80023809D01*
X179904663Y-80023809D02*
X179904663Y-80261904D01*
X179904663Y-80261904D02*
X179952282Y-80404761D01*
X180380853Y-80833333D02*
X180380853Y-81166666D01*
X180904663Y-81309523D02*
X180904663Y-80833333D01*
X180904663Y-80833333D02*
X179904663Y-80833333D01*
X179904663Y-80833333D02*
X179904663Y-81309523D01*
X179904663Y-81595238D02*
X179904663Y-82166666D01*
X180904663Y-81880952D02*
X179904663Y-81880952D01*
X179627044Y-77838095D02*
X179627044Y-82161905D01*
D11*
%TO.C,C5*%
X163240000Y-80259420D02*
X163240000Y-80540580D01*
X164260000Y-80259420D02*
X164260000Y-80540580D01*
%TO.C,C4*%
X161040580Y-77390000D02*
X160759420Y-77390000D01*
X161040580Y-78410000D02*
X160759420Y-78410000D01*
%TO.C,J4*%
X136970000Y-86240000D02*
X136970000Y-87620000D01*
X138350000Y-86240000D02*
X136970000Y-86240000D01*
X139620000Y-86240000D02*
X139620000Y-89000000D01*
X139620000Y-86240000D02*
X167670000Y-86240000D01*
X139620000Y-89000000D02*
X167670000Y-89000000D01*
X167670000Y-86240000D02*
X167670000Y-89000000D01*
%TO.C,R5*%
X138277500Y-76154724D02*
X138277500Y-75645276D01*
X139322500Y-76154724D02*
X139322500Y-75645276D01*
%TO.C,C15*%
X147215835Y-75040000D02*
X146984165Y-75040000D01*
X147215835Y-75760000D02*
X146984165Y-75760000D01*
%TO.C,J1*%
X122600000Y-86925000D02*
X122600000Y-77525000D01*
X124500000Y-77525000D02*
X122600000Y-77525000D01*
X124500000Y-86925000D02*
X122600000Y-86925000D01*
X128400000Y-77525000D02*
X126400000Y-77525000D01*
X128400000Y-86925000D02*
X126400000Y-86925000D01*
%TO.C,C13*%
X157084165Y-80090000D02*
X157315835Y-80090000D01*
X157084165Y-80810000D02*
X157315835Y-80810000D01*
%TO.C,C3*%
X142365835Y-77590000D02*
X142134165Y-77590000D01*
X142365835Y-78310000D02*
X142134165Y-78310000D01*
%TO.C,C11*%
X147215835Y-84240000D02*
X146984165Y-84240000D01*
X147215835Y-84960000D02*
X146984165Y-84960000D01*
%TO.C,Y1*%
X158840000Y-78689999D02*
X162960000Y-78689999D01*
X158840000Y-82110001D02*
X158840000Y-78689999D01*
%TO.C,C6*%
X144565835Y-82340000D02*
X144334165Y-82340000D01*
X144565835Y-83060000D02*
X144334165Y-83060000D01*
%TO.C,C10*%
X144565835Y-84240000D02*
X144334165Y-84240000D01*
X144565835Y-84960000D02*
X144334165Y-84960000D01*
%TO.C,D1*%
X136510000Y-86800000D02*
X132500000Y-86800000D01*
X136510000Y-86800000D02*
X136510000Y-88800000D01*
X136510000Y-88800000D02*
X132500000Y-88800000D01*
%TO.C,C2*%
X137940000Y-84096267D02*
X137940000Y-83803733D01*
X138960000Y-84096267D02*
X138960000Y-83803733D01*
%TO.C,U2*%
X147440000Y-77039999D02*
X147440000Y-76390000D01*
X147440000Y-82960001D02*
X147440000Y-83610000D01*
X147440000Y-83610000D02*
X148089999Y-83610000D01*
X154660000Y-76390000D02*
X154010001Y-76390000D01*
X154660000Y-77039999D02*
X154660000Y-76390000D01*
X154660000Y-82960001D02*
X154660000Y-83610000D01*
X154660000Y-83610000D02*
X154010001Y-83610000D01*
%TO.C,C17*%
X144565835Y-79490000D02*
X144334165Y-79490000D01*
X144565835Y-80210000D02*
X144334165Y-80210000D01*
%TO.C,R1*%
X132882379Y-82370000D02*
X133217621Y-82370000D01*
X132882379Y-83130000D02*
X133217621Y-83130000D01*
%TO.C,C7*%
X157084165Y-81040000D02*
X157315835Y-81040000D01*
X157084165Y-81760000D02*
X157315835Y-81760000D01*
%TO.C,J3*%
X136970000Y-71000000D02*
X136970000Y-72380000D01*
X138350000Y-71000000D02*
X136970000Y-71000000D01*
X139620000Y-71000000D02*
X139620000Y-73760000D01*
X139620000Y-71000000D02*
X167670000Y-71000000D01*
X139620000Y-73760000D02*
X167670000Y-73760000D01*
X167670000Y-71000000D02*
X167670000Y-73760000D01*
%TO.C,R2*%
X132732379Y-79420000D02*
X133067621Y-79420000D01*
X132732379Y-80180000D02*
X133067621Y-80180000D01*
%TO.C,U3*%
X141017500Y-75065000D02*
X144017500Y-75065000D01*
X141017500Y-77335000D02*
X144017500Y-77335000D01*
X140467500Y-77530000D02*
X140187500Y-77250000D01*
X140467500Y-77250000D01*
X140467500Y-77530000D01*
G36*
X140467500Y-77530000D02*
G01*
X140187500Y-77250000D01*
X140467500Y-77250000D01*
X140467500Y-77530000D01*
G37*
D12*
%TO.C,G\u002A\u002A\u002A*%
G36*
X133508128Y-74442595D02*
G01*
X133510567Y-74458718D01*
X133516872Y-74503618D01*
X133520543Y-74538223D01*
X133521434Y-74564428D01*
X133519401Y-74584128D01*
X133514297Y-74599217D01*
X133505979Y-74611589D01*
X133494300Y-74623140D01*
X133481200Y-74632554D01*
X133452484Y-74642504D01*
X133422302Y-74641338D01*
X133393494Y-74629418D01*
X133368900Y-74607108D01*
X133355695Y-74590320D01*
X133352373Y-74611854D01*
X133338065Y-74703342D01*
X133322142Y-74801368D01*
X133307061Y-74889313D01*
X133292482Y-74968717D01*
X133278068Y-75041120D01*
X133263482Y-75108064D01*
X133248383Y-75171088D01*
X133232435Y-75231735D01*
X133215300Y-75291543D01*
X133196638Y-75352055D01*
X133176112Y-75414811D01*
X133168093Y-75438642D01*
X133151404Y-75487214D01*
X133137623Y-75525346D01*
X133126129Y-75554445D01*
X133116300Y-75575918D01*
X133107517Y-75591172D01*
X133099159Y-75601614D01*
X133090605Y-75608652D01*
X133080037Y-75614489D01*
X133050840Y-75622130D01*
X133021021Y-75620055D01*
X132994233Y-75608874D01*
X132974129Y-75589197D01*
X132972835Y-75587002D01*
X132965954Y-75570314D01*
X132958640Y-75546183D01*
X132952274Y-75519038D01*
X132941687Y-75466079D01*
X132893925Y-75537320D01*
X132873162Y-75567741D01*
X132774273Y-75699101D01*
X132667042Y-75820588D01*
X132551601Y-75932072D01*
X132428084Y-76033423D01*
X132296622Y-76124510D01*
X132257278Y-76148695D01*
X132218661Y-76169813D01*
X132183156Y-76185338D01*
X132147030Y-76196640D01*
X132106547Y-76205088D01*
X132057973Y-76212052D01*
X132029306Y-76214452D01*
X132001444Y-76212502D01*
X131979157Y-76204247D01*
X131958821Y-76188838D01*
X131949366Y-76178718D01*
X131941907Y-76166163D01*
X131937813Y-76150569D01*
X131937027Y-76130019D01*
X131939495Y-76102592D01*
X131945163Y-76066373D01*
X131953974Y-76019441D01*
X131960586Y-75985014D01*
X131969121Y-75938721D01*
X131977280Y-75892561D01*
X131984774Y-75848342D01*
X131991313Y-75807868D01*
X131996606Y-75772947D01*
X132000364Y-75745386D01*
X132002296Y-75726989D01*
X132002113Y-75719564D01*
X132001247Y-75719251D01*
X131990974Y-75719080D01*
X131971957Y-75720253D01*
X131947452Y-75722587D01*
X131945180Y-75722835D01*
X131843213Y-75733156D01*
X131731435Y-75743075D01*
X131612966Y-75752363D01*
X131490922Y-75760790D01*
X131368421Y-75768124D01*
X131248580Y-75774138D01*
X131196154Y-75776054D01*
X131132266Y-75777648D01*
X131059626Y-75778893D01*
X130980370Y-75779790D01*
X130896633Y-75780337D01*
X130810551Y-75780535D01*
X130724260Y-75780383D01*
X130639896Y-75779879D01*
X130559595Y-75779024D01*
X130485492Y-75777818D01*
X130419723Y-75776259D01*
X130364423Y-75774347D01*
X130355389Y-75773959D01*
X130292379Y-75770950D01*
X130224229Y-75767240D01*
X130152587Y-75762952D01*
X130079100Y-75758210D01*
X130005417Y-75753137D01*
X129933185Y-75747856D01*
X129864052Y-75742491D01*
X129799665Y-75737166D01*
X129741674Y-75732005D01*
X129691724Y-75727130D01*
X129651464Y-75722665D01*
X129622543Y-75718734D01*
X129599039Y-75714983D01*
X129611242Y-75795002D01*
X129613016Y-75806431D01*
X129619420Y-75845713D01*
X129627188Y-75891306D01*
X129635498Y-75938437D01*
X129643527Y-75982334D01*
X129650927Y-76022322D01*
X129658880Y-76067901D01*
X129664095Y-76103526D01*
X129666499Y-76130811D01*
X129666019Y-76151374D01*
X129662583Y-76166829D01*
X129656118Y-76178793D01*
X129646551Y-76188881D01*
X129633811Y-76198709D01*
X129622857Y-76205481D01*
X129609288Y-76210095D01*
X129590930Y-76211930D01*
X129563707Y-76211744D01*
X129523855Y-76209555D01*
X129480049Y-76203607D01*
X129439049Y-76193089D01*
X129397749Y-76176955D01*
X129353044Y-76154161D01*
X129301826Y-76123663D01*
X129239452Y-76082767D01*
X129120172Y-75993498D01*
X129006161Y-75893302D01*
X128898453Y-75783196D01*
X128798080Y-75664196D01*
X128706076Y-75537320D01*
X128658314Y-75466079D01*
X128647728Y-75519038D01*
X128644467Y-75534396D01*
X128635326Y-75566984D01*
X128624309Y-75589885D01*
X128610014Y-75605503D01*
X128591038Y-75616242D01*
X128585175Y-75618488D01*
X128553346Y-75623510D01*
X128524017Y-75616336D01*
X128498742Y-75597635D01*
X128479077Y-75568076D01*
X128477857Y-75565417D01*
X128468460Y-75542378D01*
X128456358Y-75509533D01*
X128442304Y-75469198D01*
X128427053Y-75423693D01*
X128411359Y-75375332D01*
X128395976Y-75326434D01*
X128381656Y-75279315D01*
X128369155Y-75236293D01*
X128359226Y-75199685D01*
X128355260Y-75184043D01*
X128338861Y-75115159D01*
X128322083Y-75038659D01*
X128305571Y-74957899D01*
X128289974Y-74876237D01*
X128275936Y-74797027D01*
X128264106Y-74723627D01*
X128255130Y-74659393D01*
X128253816Y-74649339D01*
X128250464Y-74626281D01*
X128247498Y-74608837D01*
X128243939Y-74590787D01*
X128230917Y-74607341D01*
X128219268Y-74619798D01*
X128192229Y-74636812D01*
X128162371Y-74643282D01*
X128132569Y-74638846D01*
X128105701Y-74623140D01*
X128101754Y-74619571D01*
X128091121Y-74607970D01*
X128083804Y-74594966D01*
X128079657Y-74578665D01*
X128078536Y-74557172D01*
X128080295Y-74528592D01*
X128084789Y-74491031D01*
X128091873Y-74442595D01*
X128114281Y-74309192D01*
X128285325Y-74309192D01*
X128287108Y-74313886D01*
X128290839Y-74314816D01*
X128296412Y-74313634D01*
X128300773Y-74312922D01*
X128320719Y-74315937D01*
X128342983Y-74326046D01*
X128363062Y-74340772D01*
X128376453Y-74357640D01*
X128379645Y-74366423D01*
X128385138Y-74389201D01*
X128391318Y-74422290D01*
X128397900Y-74464119D01*
X128404599Y-74513117D01*
X128412133Y-74570235D01*
X128431665Y-74704623D01*
X128452916Y-74833251D01*
X128475557Y-74954310D01*
X128499257Y-75065990D01*
X128523687Y-75166483D01*
X128535600Y-75211991D01*
X128545564Y-75188703D01*
X128549192Y-75180997D01*
X128569052Y-75154428D01*
X128594691Y-75138638D01*
X128624348Y-75134364D01*
X128656260Y-75142346D01*
X128658445Y-75143323D01*
X128669406Y-75148957D01*
X128678604Y-75156048D01*
X128687535Y-75166640D01*
X128697696Y-75182776D01*
X128710584Y-75206500D01*
X128727698Y-75239855D01*
X128755219Y-75292254D01*
X128835371Y-75427372D01*
X128924078Y-75553505D01*
X129020952Y-75670212D01*
X129125612Y-75777055D01*
X129237671Y-75873592D01*
X129356745Y-75959385D01*
X129361655Y-75962599D01*
X129402537Y-75988931D01*
X129435521Y-76009355D01*
X129459925Y-76023473D01*
X129475068Y-76030890D01*
X129480267Y-76031209D01*
X129480171Y-76030231D01*
X129478562Y-76019313D01*
X129475206Y-75998117D01*
X129470422Y-75968602D01*
X129464526Y-75932724D01*
X129457834Y-75892442D01*
X129433303Y-75734588D01*
X129406392Y-75527287D01*
X129385223Y-75319532D01*
X129369960Y-75113658D01*
X129360769Y-74911999D01*
X129357817Y-74716891D01*
X129361267Y-74530669D01*
X129365446Y-74417916D01*
X129529025Y-74417916D01*
X129529119Y-74714185D01*
X129529152Y-74748477D01*
X129529509Y-74834003D01*
X129530339Y-74909892D01*
X129531752Y-74978601D01*
X129533856Y-75042590D01*
X129536761Y-75104317D01*
X129540576Y-75166240D01*
X129545410Y-75230817D01*
X129551371Y-75300508D01*
X129558570Y-75377770D01*
X129560716Y-75400246D01*
X129565101Y-75446094D01*
X129568705Y-75481128D01*
X129571968Y-75506845D01*
X129575329Y-75524739D01*
X129579229Y-75536305D01*
X129584106Y-75543039D01*
X129590402Y-75546434D01*
X129598556Y-75547987D01*
X129609007Y-75549193D01*
X129617013Y-75550216D01*
X129667931Y-75556083D01*
X129729343Y-75562287D01*
X129799136Y-75568670D01*
X129875197Y-75575070D01*
X129955415Y-75581328D01*
X130037677Y-75587284D01*
X130119870Y-75592778D01*
X130199884Y-75597650D01*
X130275604Y-75601741D01*
X130344920Y-75604891D01*
X130535634Y-75611121D01*
X130811895Y-75614718D01*
X131082616Y-75611460D01*
X131351148Y-75601249D01*
X131620845Y-75583987D01*
X131895057Y-75559576D01*
X131903032Y-75558769D01*
X131941740Y-75554775D01*
X131975356Y-75551185D01*
X132001917Y-75548217D01*
X132019463Y-75546090D01*
X132026031Y-75545021D01*
X132026098Y-75544898D01*
X132027347Y-75536898D01*
X132029409Y-75518065D01*
X132032114Y-75490355D01*
X132035293Y-75455721D01*
X132038777Y-75416119D01*
X132042397Y-75373503D01*
X132045984Y-75329827D01*
X132049368Y-75287047D01*
X132052380Y-75247117D01*
X132054851Y-75211991D01*
X132055592Y-75200393D01*
X132058163Y-75152189D01*
X132060619Y-75094509D01*
X132062913Y-75029598D01*
X132064996Y-74959704D01*
X132066820Y-74887074D01*
X132068338Y-74813952D01*
X132069502Y-74742587D01*
X132070262Y-74675225D01*
X132070573Y-74614111D01*
X132070384Y-74561494D01*
X132069649Y-74519618D01*
X132066389Y-74405848D01*
X132020661Y-74335960D01*
X132018171Y-74332176D01*
X132000415Y-74306366D01*
X131984650Y-74285363D01*
X131972508Y-74271241D01*
X131965621Y-74266073D01*
X131963718Y-74267114D01*
X131961841Y-74271633D01*
X131960346Y-74280716D01*
X131959206Y-74295418D01*
X131958395Y-74316793D01*
X131957889Y-74345896D01*
X131957660Y-74383781D01*
X131957684Y-74431503D01*
X131957933Y-74490118D01*
X131958266Y-74542372D01*
X131958383Y-74560678D01*
X131960456Y-74855284D01*
X131940686Y-74887361D01*
X131921357Y-74912450D01*
X131891928Y-74935692D01*
X131862939Y-74951945D01*
X131654902Y-74951945D01*
X131622054Y-74951939D01*
X131570924Y-74951860D01*
X131530470Y-74951614D01*
X131499183Y-74951108D01*
X131475558Y-74950248D01*
X131458088Y-74948941D01*
X131445265Y-74947094D01*
X131435583Y-74944613D01*
X131427534Y-74941405D01*
X131419612Y-74937377D01*
X131400188Y-74924605D01*
X131372132Y-74894891D01*
X131353496Y-74858333D01*
X131351408Y-74846792D01*
X131349483Y-74822383D01*
X131347994Y-74785681D01*
X131346937Y-74736510D01*
X131346306Y-74674696D01*
X131346097Y-74600062D01*
X131346097Y-74565126D01*
X131515127Y-74565126D01*
X131515127Y-74786165D01*
X131654902Y-74786165D01*
X131794677Y-74786165D01*
X131794677Y-74542372D01*
X131794652Y-74485838D01*
X131794532Y-74433568D01*
X131794258Y-74392002D01*
X131793775Y-74359925D01*
X131793026Y-74336122D01*
X131791954Y-74319377D01*
X131790502Y-74308474D01*
X131788613Y-74302198D01*
X131786232Y-74299334D01*
X131783300Y-74298665D01*
X131783111Y-74298669D01*
X131772822Y-74299940D01*
X131752055Y-74303221D01*
X131723004Y-74308143D01*
X131687867Y-74314333D01*
X131648841Y-74321419D01*
X131645878Y-74321965D01*
X131607608Y-74328957D01*
X131573865Y-74335030D01*
X131546714Y-74339819D01*
X131528219Y-74342959D01*
X131520443Y-74344087D01*
X131519463Y-74347876D01*
X131518288Y-74363178D01*
X131517246Y-74388833D01*
X131516373Y-74423348D01*
X131515705Y-74465230D01*
X131515278Y-74512987D01*
X131515127Y-74565126D01*
X131346097Y-74565126D01*
X131346097Y-74363890D01*
X131330405Y-74353608D01*
X131328254Y-74352142D01*
X131308816Y-74331401D01*
X131298385Y-74305348D01*
X131296710Y-74277130D01*
X131303543Y-74249898D01*
X131318632Y-74226802D01*
X131341727Y-74210992D01*
X131342270Y-74210784D01*
X131354405Y-74207551D01*
X131377647Y-74202438D01*
X131410443Y-74195749D01*
X131451242Y-74187787D01*
X131498493Y-74178854D01*
X131550644Y-74169256D01*
X131606143Y-74159294D01*
X131613706Y-74157953D01*
X131668259Y-74148193D01*
X131718827Y-74139011D01*
X131763937Y-74130682D01*
X131802121Y-74123484D01*
X131831906Y-74117693D01*
X131851825Y-74113586D01*
X131860405Y-74111439D01*
X131863052Y-74108562D01*
X131862542Y-74101804D01*
X131857684Y-74089928D01*
X131847770Y-74071502D01*
X131832094Y-74045096D01*
X131809949Y-74009278D01*
X131678242Y-73791610D01*
X131548155Y-73562507D01*
X131426335Y-73333158D01*
X131425183Y-73330909D01*
X131404256Y-73290301D01*
X131385426Y-73254170D01*
X131369451Y-73223939D01*
X131357090Y-73201031D01*
X131349102Y-73186869D01*
X131346244Y-73182876D01*
X131345792Y-73189660D01*
X131344454Y-73207852D01*
X131342363Y-73235596D01*
X131339656Y-73271118D01*
X131336465Y-73312646D01*
X131332926Y-73358407D01*
X131319953Y-73511599D01*
X131300945Y-73697638D01*
X131279296Y-73871869D01*
X131255038Y-74034053D01*
X131228204Y-74183953D01*
X131198828Y-74321333D01*
X131189312Y-74361164D01*
X131180045Y-74396573D01*
X131171585Y-74423308D01*
X131162990Y-74443540D01*
X131153318Y-74459441D01*
X131141627Y-74473180D01*
X131126974Y-74486929D01*
X131107605Y-74502073D01*
X131084620Y-74514337D01*
X131058741Y-74521296D01*
X131027594Y-74523291D01*
X130988804Y-74520662D01*
X130939998Y-74513750D01*
X130910391Y-74509196D01*
X130852494Y-74502630D01*
X130800368Y-74500661D01*
X130749651Y-74503226D01*
X130695982Y-74510265D01*
X130695927Y-74510274D01*
X130632306Y-74518412D01*
X130579063Y-74520078D01*
X130535178Y-74515054D01*
X130499633Y-74503122D01*
X130471407Y-74484064D01*
X130449480Y-74457664D01*
X130448778Y-74456534D01*
X130437138Y-74431961D01*
X130424664Y-74395626D01*
X130411536Y-74348659D01*
X130397932Y-74292190D01*
X130384033Y-74227347D01*
X130370018Y-74155260D01*
X130356067Y-74077057D01*
X130342359Y-73993870D01*
X130329073Y-73906826D01*
X130316389Y-73817054D01*
X130304487Y-73725685D01*
X130293546Y-73633848D01*
X130283745Y-73542671D01*
X130275265Y-73453285D01*
X130268284Y-73366818D01*
X130262982Y-73284399D01*
X130262902Y-73282947D01*
X130260843Y-73250921D01*
X130258544Y-73223029D01*
X130256280Y-73202222D01*
X130254326Y-73191453D01*
X130254142Y-73191056D01*
X130250337Y-73192320D01*
X130242460Y-73202706D01*
X130230208Y-73222738D01*
X130213275Y-73252938D01*
X130191355Y-73293828D01*
X130164144Y-73345932D01*
X130155703Y-73362218D01*
X130056949Y-73549176D01*
X129961260Y-73723611D01*
X129868586Y-73885616D01*
X129778874Y-74035282D01*
X129775960Y-74040045D01*
X129760330Y-74066526D01*
X129748233Y-74088598D01*
X129740818Y-74104074D01*
X129739234Y-74110767D01*
X129739695Y-74110997D01*
X129749275Y-74113401D01*
X129769966Y-74117719D01*
X129800352Y-74123683D01*
X129839023Y-74131022D01*
X129884564Y-74139470D01*
X129935563Y-74148755D01*
X129990607Y-74158611D01*
X129999041Y-74160111D01*
X130054503Y-74170119D01*
X130106387Y-74179715D01*
X130153154Y-74188599D01*
X130193266Y-74196468D01*
X130225182Y-74203022D01*
X130247364Y-74207960D01*
X130258274Y-74210981D01*
X130260585Y-74211984D01*
X130283002Y-74228565D01*
X130297386Y-74252156D01*
X130303488Y-74279606D01*
X130301057Y-74307765D01*
X130289843Y-74333482D01*
X130269597Y-74353608D01*
X130253904Y-74363890D01*
X130253904Y-74565126D01*
X130253904Y-74600062D01*
X130253738Y-74667229D01*
X130253153Y-74730424D01*
X130252143Y-74780956D01*
X130250701Y-74819001D01*
X130248824Y-74844735D01*
X130246505Y-74858333D01*
X130237056Y-74880080D01*
X130212654Y-74913081D01*
X130180389Y-74937377D01*
X130176003Y-74939676D01*
X130168199Y-74943246D01*
X130159448Y-74946047D01*
X130148244Y-74948171D01*
X130133078Y-74949713D01*
X130112446Y-74950765D01*
X130084838Y-74951421D01*
X130048749Y-74951774D01*
X130002672Y-74951918D01*
X129945099Y-74951945D01*
X129737062Y-74951945D01*
X129708073Y-74935692D01*
X129684355Y-74918111D01*
X129659315Y-74887366D01*
X129639545Y-74855294D01*
X129641720Y-74560684D01*
X129641835Y-74542372D01*
X129805324Y-74542372D01*
X129805324Y-74786165D01*
X129945099Y-74786165D01*
X130084874Y-74786165D01*
X130084874Y-74565126D01*
X130084790Y-74524393D01*
X130084453Y-74475517D01*
X130083887Y-74432179D01*
X130083126Y-74395871D01*
X130082202Y-74368087D01*
X130081148Y-74350319D01*
X130079998Y-74344060D01*
X130079662Y-74344037D01*
X130070436Y-74342633D01*
X130050725Y-74339305D01*
X130022558Y-74334407D01*
X129987965Y-74328290D01*
X129948974Y-74321306D01*
X129944090Y-74320427D01*
X129905167Y-74313510D01*
X129870594Y-74307511D01*
X129842481Y-74302786D01*
X129822938Y-74299690D01*
X129814075Y-74298579D01*
X129812889Y-74299037D01*
X129810793Y-74303230D01*
X129809105Y-74312712D01*
X129807785Y-74328585D01*
X129806794Y-74351950D01*
X129806092Y-74383909D01*
X129805639Y-74425565D01*
X129805396Y-74478019D01*
X129805324Y-74542372D01*
X129641835Y-74542372D01*
X129641963Y-74521851D01*
X129642150Y-74460577D01*
X129642068Y-74405719D01*
X129641731Y-74358373D01*
X129641152Y-74319638D01*
X129640346Y-74290612D01*
X129639324Y-74272391D01*
X129638101Y-74266073D01*
X129636905Y-74266721D01*
X129629192Y-74275146D01*
X129616271Y-74291791D01*
X129599607Y-74314720D01*
X129580666Y-74341994D01*
X129529025Y-74417916D01*
X129365446Y-74417916D01*
X129367724Y-74356438D01*
X129413549Y-74289974D01*
X129459375Y-74223510D01*
X129443816Y-74205422D01*
X129443723Y-74205314D01*
X129431571Y-74181913D01*
X129428750Y-74154179D01*
X129434487Y-74125937D01*
X129448009Y-74101009D01*
X129468542Y-74083219D01*
X129476621Y-74080279D01*
X129496556Y-74076901D01*
X129519754Y-74075963D01*
X129555990Y-74076860D01*
X129611493Y-73987809D01*
X129659732Y-73909330D01*
X129709482Y-73826079D01*
X129760174Y-73738843D01*
X129812349Y-73646633D01*
X129866546Y-73548462D01*
X129923304Y-73443340D01*
X129983162Y-73330279D01*
X130046660Y-73208291D01*
X130114337Y-73076388D01*
X130186732Y-72933581D01*
X130196596Y-72914107D01*
X130222530Y-72863948D01*
X130243683Y-72824856D01*
X130260411Y-72796213D01*
X130273070Y-72777401D01*
X130282014Y-72767802D01*
X130299844Y-72758788D01*
X130328120Y-72754935D01*
X130356765Y-72760493D01*
X130381944Y-72774540D01*
X130399821Y-72796153D01*
X130403564Y-72808989D01*
X130407230Y-72834850D01*
X130410330Y-72872224D01*
X130412780Y-72920335D01*
X130418059Y-73043223D01*
X130426073Y-73196671D01*
X130435364Y-73340038D01*
X130446093Y-73474972D01*
X130458423Y-73603120D01*
X130472515Y-73726129D01*
X130488531Y-73845646D01*
X130506635Y-73963317D01*
X130526987Y-74080790D01*
X130530920Y-74101967D01*
X130538892Y-74143182D01*
X130547444Y-74185611D01*
X130556140Y-74227256D01*
X130564545Y-74266121D01*
X130572224Y-74300208D01*
X130578740Y-74327521D01*
X130583658Y-74346062D01*
X130586542Y-74353835D01*
X130586748Y-74353948D01*
X130595145Y-74353843D01*
X130613556Y-74351943D01*
X130639450Y-74348546D01*
X130670299Y-74343951D01*
X130677332Y-74342865D01*
X130747245Y-74334443D01*
X130811012Y-74331848D01*
X130873643Y-74335082D01*
X130940149Y-74344151D01*
X130940304Y-74344177D01*
X130970057Y-74349107D01*
X130994664Y-74352890D01*
X131011572Y-74355154D01*
X131018228Y-74355528D01*
X131019276Y-74352175D01*
X131022810Y-74338035D01*
X131028283Y-74314832D01*
X131035192Y-74284712D01*
X131043032Y-74249820D01*
X131052445Y-74206386D01*
X131075520Y-74088865D01*
X131096604Y-73964263D01*
X131115794Y-73831743D01*
X131133188Y-73690469D01*
X131148884Y-73539605D01*
X131162981Y-73378313D01*
X131175575Y-73205758D01*
X131186765Y-73021103D01*
X131187342Y-73010679D01*
X131190100Y-72962477D01*
X131192762Y-72918369D01*
X131195211Y-72880134D01*
X131197330Y-72849549D01*
X131199002Y-72828393D01*
X131200109Y-72818443D01*
X131203309Y-72808857D01*
X131217546Y-72787439D01*
X131238322Y-72768793D01*
X131261488Y-72757066D01*
X131264860Y-72756083D01*
X131281194Y-72753068D01*
X131296028Y-72755358D01*
X131315638Y-72763724D01*
X131321620Y-72766573D01*
X131329420Y-72770536D01*
X131336123Y-72775163D01*
X131342551Y-72781846D01*
X131349522Y-72791978D01*
X131357854Y-72806951D01*
X131368369Y-72828156D01*
X131381884Y-72856986D01*
X131399219Y-72894833D01*
X131421193Y-72943089D01*
X131443554Y-72991470D01*
X131500051Y-73108746D01*
X131562866Y-73233111D01*
X131630799Y-73362382D01*
X131702652Y-73494381D01*
X131777228Y-73626925D01*
X131853327Y-73757835D01*
X131929752Y-73884929D01*
X132005304Y-74006027D01*
X132048757Y-74074289D01*
X132082709Y-74074863D01*
X132094605Y-74075489D01*
X132116382Y-74078635D01*
X132131548Y-74083405D01*
X132150624Y-74099584D01*
X132164464Y-74123996D01*
X132170989Y-74152046D01*
X132169301Y-74179752D01*
X132158506Y-74203135D01*
X132145267Y-74219965D01*
X132189386Y-74286260D01*
X132233505Y-74352556D01*
X132233227Y-74614111D01*
X132233124Y-74710761D01*
X132232805Y-74796378D01*
X132231039Y-74940836D01*
X132227620Y-75075397D01*
X132222405Y-75202005D01*
X132215251Y-75322604D01*
X132206015Y-75439135D01*
X132194554Y-75553543D01*
X132180726Y-75667769D01*
X132164387Y-75783759D01*
X132145394Y-75903453D01*
X132145380Y-75903536D01*
X132139259Y-75941281D01*
X132134207Y-75974415D01*
X132130510Y-76000887D01*
X132128456Y-76018648D01*
X132128330Y-76025646D01*
X132135540Y-76024571D01*
X132151618Y-76016751D01*
X132174914Y-76003188D01*
X132203830Y-75984941D01*
X132236771Y-75963070D01*
X132272141Y-75938635D01*
X132308345Y-75912697D01*
X132343786Y-75886315D01*
X132376869Y-75860549D01*
X132399313Y-75842278D01*
X132510478Y-75741781D01*
X132613390Y-75631252D01*
X132708018Y-75510730D01*
X132794333Y-75380252D01*
X132872304Y-75239855D01*
X132875631Y-75233309D01*
X132891906Y-75201765D01*
X132904216Y-75179500D01*
X132914057Y-75164469D01*
X132922927Y-75154629D01*
X132932323Y-75147936D01*
X132943741Y-75142346D01*
X132951325Y-75139338D01*
X132982867Y-75134293D01*
X133011741Y-75141331D01*
X133036186Y-75159713D01*
X133054440Y-75188703D01*
X133064407Y-75211991D01*
X133082814Y-75140478D01*
X133103286Y-75055203D01*
X133124329Y-74955712D01*
X133144774Y-74847153D01*
X133164266Y-74731531D01*
X133182449Y-74610849D01*
X133198965Y-74487112D01*
X133200701Y-74473633D01*
X133206610Y-74433097D01*
X133212664Y-74398750D01*
X133218437Y-74372846D01*
X133223500Y-74357640D01*
X133226353Y-74352776D01*
X133242088Y-74336180D01*
X133263065Y-74322756D01*
X133284878Y-74314870D01*
X133303120Y-74314888D01*
X133305952Y-74315749D01*
X133310948Y-74316427D01*
X133313977Y-74314049D01*
X133314941Y-74306999D01*
X133313745Y-74293661D01*
X133310290Y-74272419D01*
X133304480Y-74241659D01*
X133296219Y-74199765D01*
X133267419Y-74064635D01*
X133229706Y-73913583D01*
X133187678Y-73771446D01*
X133140680Y-73636206D01*
X133088056Y-73505844D01*
X133029148Y-73378345D01*
X133014820Y-73348635D01*
X133000072Y-73316737D01*
X132988374Y-73289947D01*
X132980665Y-73270429D01*
X132977886Y-73260348D01*
X132978175Y-73257458D01*
X132980960Y-73242592D01*
X132986324Y-73218022D01*
X132993802Y-73185772D01*
X133002929Y-73147866D01*
X133013242Y-73106328D01*
X133047787Y-72962039D01*
X133081349Y-72806909D01*
X133111747Y-72650571D01*
X133138147Y-72497328D01*
X133159713Y-72351484D01*
X133161693Y-72336728D01*
X133166433Y-72301468D01*
X133170638Y-72270276D01*
X133173912Y-72246092D01*
X133175857Y-72231855D01*
X133178924Y-72209744D01*
X133011768Y-72213617D01*
X132927947Y-72216362D01*
X132755223Y-72227570D01*
X132590761Y-72246220D01*
X132432772Y-72272541D01*
X132279466Y-72306760D01*
X132265628Y-72310092D01*
X132235905Y-72316088D01*
X132212394Y-72319188D01*
X132198201Y-72318926D01*
X132195102Y-72317867D01*
X132180277Y-72310761D01*
X132157884Y-72298525D01*
X132130382Y-72282534D01*
X132100231Y-72264163D01*
X132075564Y-72248945D01*
X131931452Y-72166043D01*
X131786817Y-72092902D01*
X131642616Y-72029880D01*
X131499808Y-71977335D01*
X131359347Y-71935625D01*
X131222193Y-71905107D01*
X131089302Y-71886140D01*
X131058242Y-71883621D01*
X130987424Y-71881322D01*
X130910520Y-71882937D01*
X130892179Y-71883785D01*
X130859709Y-71885291D01*
X130834965Y-71886338D01*
X130814987Y-71886923D01*
X130796814Y-71887050D01*
X130777487Y-71886716D01*
X130754046Y-71885923D01*
X130723530Y-71884672D01*
X130682980Y-71882961D01*
X130663247Y-71882232D01*
X130598354Y-71881472D01*
X130537480Y-71883796D01*
X130476571Y-71889554D01*
X130411569Y-71899096D01*
X130338419Y-71912774D01*
X130248631Y-71933395D01*
X130119945Y-71970822D01*
X129988075Y-72017741D01*
X129855150Y-72073248D01*
X129723295Y-72136436D01*
X129594638Y-72206397D01*
X129471306Y-72282228D01*
X129463820Y-72287064D01*
X129435559Y-72303686D01*
X129414128Y-72312892D01*
X129397212Y-72315728D01*
X129390045Y-72315226D01*
X129369626Y-72312395D01*
X129340924Y-72307488D01*
X129306683Y-72300986D01*
X129269648Y-72293371D01*
X129192139Y-72277663D01*
X129047306Y-72252529D01*
X128901262Y-72232363D01*
X128757143Y-72217520D01*
X128618083Y-72208352D01*
X128487216Y-72205212D01*
X128466854Y-72205312D01*
X128445847Y-72206059D01*
X128433818Y-72207939D01*
X128428364Y-72211423D01*
X128427080Y-72216981D01*
X128427370Y-72222823D01*
X128429418Y-72242724D01*
X128433185Y-72272442D01*
X128438381Y-72310006D01*
X128444716Y-72353445D01*
X128451898Y-72400788D01*
X128459637Y-72450061D01*
X128467644Y-72499296D01*
X128475627Y-72546518D01*
X128475959Y-72548439D01*
X128490022Y-72627435D01*
X128504952Y-72706615D01*
X128521254Y-72788454D01*
X128539432Y-72875424D01*
X128559993Y-72970000D01*
X128583440Y-73074655D01*
X128593479Y-73119412D01*
X128602772Y-73161799D01*
X128610663Y-73198787D01*
X128616771Y-73228557D01*
X128620715Y-73249293D01*
X128622115Y-73259177D01*
X128620033Y-73267361D01*
X128612962Y-73285821D01*
X128601782Y-73311851D01*
X128587431Y-73343283D01*
X128570843Y-73377950D01*
X128518748Y-73490185D01*
X128465645Y-73619554D01*
X128418289Y-73753069D01*
X128375988Y-73892858D01*
X128338049Y-74041047D01*
X128303782Y-74199765D01*
X128299817Y-74219776D01*
X128292737Y-74256027D01*
X128288033Y-74281913D01*
X128285598Y-74299084D01*
X128285325Y-74309192D01*
X128114281Y-74309192D01*
X128123520Y-74254188D01*
X128160799Y-74069593D01*
X128202602Y-73896457D01*
X128249049Y-73734362D01*
X128300258Y-73582894D01*
X128356351Y-73441634D01*
X128417447Y-73310168D01*
X128425212Y-73294273D01*
X128436214Y-73269968D01*
X128443773Y-73250890D01*
X128446584Y-73240178D01*
X128445877Y-73234665D01*
X128442663Y-73217358D01*
X128437212Y-73190610D01*
X128429921Y-73156313D01*
X128421189Y-73116361D01*
X128411412Y-73072644D01*
X128411118Y-73071345D01*
X128389797Y-72974827D01*
X128369246Y-72877600D01*
X128349672Y-72780878D01*
X128331282Y-72685875D01*
X128314281Y-72593804D01*
X128298877Y-72505878D01*
X128285277Y-72423312D01*
X128273686Y-72347319D01*
X128264311Y-72279113D01*
X128257359Y-72219907D01*
X128253036Y-72170915D01*
X128251549Y-72133351D01*
X128251848Y-72116956D01*
X128254316Y-72099362D01*
X128260894Y-72085710D01*
X128273483Y-72070563D01*
X128295417Y-72046629D01*
X128388879Y-72041502D01*
X128472511Y-72038896D01*
X128575857Y-72039965D01*
X128686872Y-72045047D01*
X128803147Y-72053920D01*
X128922273Y-72066361D01*
X129041842Y-72082150D01*
X129159444Y-72101063D01*
X129272671Y-72122880D01*
X129373880Y-72144176D01*
X129469080Y-72086881D01*
X129556968Y-72035994D01*
X129698957Y-71961792D01*
X129842823Y-71896048D01*
X129986975Y-71839369D01*
X130129821Y-71792363D01*
X130269770Y-71755637D01*
X130405231Y-71729797D01*
X130419565Y-71727687D01*
X130465747Y-71722018D01*
X130512831Y-71718201D01*
X130564836Y-71715967D01*
X130625782Y-71715047D01*
X130638714Y-71714976D01*
X130679457Y-71714644D01*
X130709440Y-71714076D01*
X130730429Y-71713091D01*
X130744194Y-71711508D01*
X130752502Y-71709147D01*
X130757123Y-71705827D01*
X130759825Y-71701369D01*
X130765977Y-71690987D01*
X130778076Y-71673627D01*
X130793031Y-71653937D01*
X130818968Y-71625165D01*
X130868542Y-71583984D01*
X130928456Y-71547323D01*
X130997403Y-71515750D01*
X131074071Y-71489836D01*
X131157150Y-71470150D01*
X131245330Y-71457263D01*
X131273883Y-71454751D01*
X131366417Y-71451553D01*
X131465151Y-71454757D01*
X131566416Y-71464059D01*
X131666542Y-71479159D01*
X131761861Y-71499754D01*
X131770982Y-71502099D01*
X131825251Y-71517296D01*
X131879259Y-71534370D01*
X131931242Y-71552607D01*
X131979432Y-71571292D01*
X132022065Y-71589711D01*
X132057374Y-71607147D01*
X132083594Y-71622887D01*
X132098958Y-71636216D01*
X132103917Y-71643430D01*
X132113142Y-71670033D01*
X132112001Y-71698329D01*
X132101516Y-71725256D01*
X132082713Y-71747755D01*
X132056614Y-71762765D01*
X132046411Y-71766084D01*
X132037175Y-71767738D01*
X132026787Y-71767178D01*
X132013063Y-71763879D01*
X131993822Y-71757314D01*
X131966880Y-71746958D01*
X131930053Y-71732286D01*
X131830131Y-71695074D01*
X131730912Y-71664678D01*
X131634880Y-71642722D01*
X131539115Y-71628665D01*
X131440699Y-71621965D01*
X131336712Y-71622079D01*
X131298188Y-71623588D01*
X131240544Y-71627569D01*
X131190751Y-71633804D01*
X131145598Y-71642858D01*
X131101878Y-71655302D01*
X131056382Y-71671702D01*
X131042106Y-71677332D01*
X131013173Y-71689394D01*
X130996267Y-71698149D01*
X130991206Y-71704297D01*
X130997805Y-71708534D01*
X131015881Y-71711559D01*
X131045251Y-71714071D01*
X131077076Y-71716630D01*
X131222621Y-71735548D01*
X131371407Y-71766359D01*
X131522554Y-71808761D01*
X131675179Y-71862448D01*
X131828401Y-71927119D01*
X131981338Y-72002470D01*
X132133108Y-72088198D01*
X132229170Y-72146013D01*
X132328854Y-72123927D01*
X132331434Y-72123356D01*
X132444845Y-72100386D01*
X132558370Y-72081712D01*
X132674519Y-72067064D01*
X132795803Y-72056171D01*
X132924731Y-72048761D01*
X133063814Y-72044563D01*
X133067084Y-72044503D01*
X133130507Y-72043464D01*
X133182351Y-72043041D01*
X133223967Y-72043435D01*
X133256709Y-72044847D01*
X133281931Y-72047478D01*
X133300984Y-72051529D01*
X133315222Y-72057200D01*
X133325997Y-72064692D01*
X133334663Y-72074206D01*
X133342573Y-72085943D01*
X133342959Y-72086570D01*
X133347605Y-72094871D01*
X133350989Y-72103665D01*
X133353057Y-72114503D01*
X133353756Y-72128934D01*
X133353032Y-72148507D01*
X133350830Y-72174774D01*
X133347097Y-72209283D01*
X133341780Y-72253583D01*
X133334824Y-72309226D01*
X133327464Y-72365354D01*
X133300195Y-72546006D01*
X133266855Y-72732869D01*
X133228119Y-72922333D01*
X133184664Y-73110789D01*
X133151660Y-73245983D01*
X133195095Y-73336631D01*
X133232879Y-73418743D01*
X133284391Y-73543164D01*
X133331243Y-73672759D01*
X133373793Y-73808794D01*
X133412399Y-73952531D01*
X133447418Y-74105235D01*
X133479209Y-74268168D01*
X133485647Y-74306999D01*
X133508128Y-74442595D01*
G37*
D11*
%TO.C,TP1*%
X179250000Y-80000000D02*
G75*
G02*
X177350000Y-80000000I-950000J0D01*
G01*
X177350000Y-80000000D02*
G75*
G02*
X179250000Y-80000000I950000J0D01*
G01*
%TO.C,R6*%
X160207776Y-82427500D02*
X160717224Y-82427500D01*
X160207776Y-83472500D02*
X160717224Y-83472500D01*
%TO.C,TP3*%
X168520000Y-83820000D02*
X168520000Y-85090000D01*
X168520000Y-85090000D02*
X169790000Y-85090000D01*
X170950000Y-83390000D02*
X171180000Y-83390000D01*
X170950000Y-84250000D02*
X171180000Y-84250000D01*
X171180000Y-82440000D02*
X173940000Y-82440000D01*
X171180000Y-85200000D02*
X171180000Y-82440000D01*
X173940000Y-82440000D02*
X173940000Y-85200000D01*
X173940000Y-85200000D02*
X171180000Y-85200000D01*
X173940000Y-84250000D02*
X179940000Y-84250000D01*
X179940000Y-83390000D01*
X173940000Y-83390000D01*
X173940000Y-84250000D01*
G36*
X173940000Y-84250000D02*
G01*
X179940000Y-84250000D01*
X179940000Y-83390000D01*
X173940000Y-83390000D01*
X173940000Y-84250000D01*
G37*
%TO.C,C9*%
X144565835Y-83290000D02*
X144334165Y-83290000D01*
X144565835Y-84010000D02*
X144334165Y-84010000D01*
%TO.C,C16*%
X144565835Y-78540000D02*
X144334165Y-78540000D01*
X144565835Y-79260000D02*
X144334165Y-79260000D01*
%TO.C,R4*%
X144932379Y-81369999D02*
X145267621Y-81369999D01*
X144932379Y-82130001D02*
X145267621Y-82130001D01*
%TO.C,R3*%
X144932378Y-80419999D02*
X145267620Y-80419999D01*
X144932378Y-81180001D02*
X145267620Y-81180001D01*
%TO.C,JP1*%
X134300000Y-71650000D02*
X134300000Y-73050000D01*
X135000000Y-73750000D02*
X135600000Y-73750000D01*
X135600000Y-70950000D02*
X135000000Y-70950000D01*
X136300000Y-73050000D02*
X136300000Y-71650000D01*
X134300000Y-71650000D02*
G75*
G02*
X135000000Y-70950000I699999J1D01*
G01*
X135000000Y-73750000D02*
G75*
G02*
X134300000Y-73050000I0J700000D01*
G01*
X135600000Y-70950000D02*
G75*
G02*
X136300000Y-71650000I1J-699999D01*
G01*
X136300000Y-73050000D02*
G75*
G02*
X135600000Y-73750000I-700000J0D01*
G01*
%TO.C,C1*%
X132690000Y-84853733D02*
X132690000Y-85146267D01*
X133710000Y-84853733D02*
X133710000Y-85146267D01*
%TO.C,C14*%
X152784165Y-74250000D02*
X153015835Y-74250000D01*
X152784165Y-74970000D02*
X153015835Y-74970000D01*
%TO.C,TP2*%
X168520000Y-76190000D02*
X168520000Y-77460000D01*
X168520000Y-77460000D02*
X169790000Y-77460000D01*
X170950000Y-75760000D02*
X171180000Y-75760000D01*
X170950000Y-76620000D02*
X171180000Y-76620000D01*
X171180000Y-74810000D02*
X173940000Y-74810000D01*
X171180000Y-77570000D02*
X171180000Y-74810000D01*
X173940000Y-74810000D02*
X173940000Y-77570000D01*
X173940000Y-77570000D02*
X171180000Y-77570000D01*
X173940000Y-76620000D02*
X179940000Y-76620000D01*
X179940000Y-75760000D01*
X173940000Y-75760000D01*
X173940000Y-76620000D01*
G36*
X173940000Y-76620000D02*
G01*
X179940000Y-76620000D01*
X179940000Y-75760000D01*
X173940000Y-75760000D01*
X173940000Y-76620000D01*
G37*
%TO.C,C12*%
X152974165Y-85030000D02*
X153205835Y-85030000D01*
X152974165Y-85750000D02*
X153205835Y-85750000D01*
%TO.C,C8*%
X144565835Y-77590000D02*
X144334165Y-77590000D01*
X144565835Y-78310000D02*
X144334165Y-78310000D01*
%TO.C,U1*%
X134390000Y-84350000D02*
X134390000Y-83550000D01*
X134390000Y-84350000D02*
X134390000Y-85150000D01*
X137510000Y-84350000D02*
X137510000Y-83550000D01*
X137510000Y-84350000D02*
X137510000Y-85150000D01*
X134440000Y-83050000D02*
X134110000Y-83290000D01*
X134110000Y-82810000D01*
X134440000Y-83050000D01*
G36*
X134440000Y-83050000D02*
G01*
X134110000Y-83290000D01*
X134110000Y-82810000D01*
X134440000Y-83050000D01*
G37*
%TD*%
%LPC*%
%TO.C,JP1*%
G36*
X134550000Y-72200000D02*
G01*
X136050000Y-72200000D01*
X136050000Y-72500000D01*
X134550000Y-72500000D01*
X134550000Y-72200000D01*
G37*
%TD*%
D13*
%TO.C,C5*%
X163750000Y-79625000D03*
X163750000Y-81175000D03*
%TD*%
D14*
%TO.C,C4*%
X161675000Y-77900000D03*
X160125000Y-77900000D03*
%TD*%
D15*
%TO.C,SW2*%
X128000000Y-74900000D03*
X128000000Y-76700000D03*
%TD*%
D16*
%TO.C,H2*%
X136000000Y-78100000D03*
%TD*%
%TO.C,H3*%
X169800000Y-72800000D03*
%TD*%
D17*
%TO.C,J2*%
X166300000Y-76190000D03*
D18*
X166300000Y-78730000D03*
X166300000Y-81270000D03*
X166300000Y-83810000D03*
%TD*%
D15*
%TO.C,SW5*%
X133500000Y-71450000D03*
X133500000Y-73250000D03*
%TD*%
D19*
%TO.C,SW1*%
X180800000Y-72500000D03*
X175800000Y-72500000D03*
D20*
X178300000Y-72500000D03*
D21*
X183900000Y-80000000D03*
X172700000Y-80000000D03*
D19*
X180800000Y-87000000D03*
X175800000Y-87000000D03*
%TD*%
D15*
%TO.C,SW3*%
X128000000Y-79100000D03*
X128000000Y-80900000D03*
%TD*%
%TO.C,SW4*%
X128000000Y-83300000D03*
X128000000Y-85100000D03*
%TD*%
D16*
%TO.C,H1*%
X169800000Y-87200000D03*
%TD*%
D18*
%TO.C,J4*%
X138350000Y-87620000D03*
D17*
X140890000Y-87620000D03*
D18*
X143430000Y-87620000D03*
X145970000Y-87620000D03*
X148510000Y-87620000D03*
X151050000Y-87620000D03*
X153590000Y-87620000D03*
X156130000Y-87620000D03*
X158670000Y-87620000D03*
X161210000Y-87620000D03*
X163750000Y-87620000D03*
X166290000Y-87620000D03*
%TD*%
D22*
%TO.C,R5*%
X138800000Y-76812500D03*
X138800000Y-74987500D03*
%TD*%
D23*
%TO.C,C15*%
X147667500Y-75400000D03*
X146532500Y-75400000D03*
%TD*%
D24*
%TO.C,J1*%
X129100000Y-85115000D03*
X129100000Y-79335000D03*
D25*
X130545000Y-85475000D03*
X130545000Y-84675000D03*
D26*
X130545000Y-83475000D03*
X130545000Y-82475000D03*
X130545000Y-81975000D03*
X130545000Y-80975000D03*
D25*
X130545000Y-79775000D03*
X130545000Y-78975000D03*
X130545000Y-78975000D03*
X130545000Y-79775000D03*
D26*
X130545000Y-80475000D03*
X130545000Y-81475000D03*
X130545000Y-82975000D03*
X130545000Y-83975000D03*
D25*
X130545000Y-84675000D03*
X130545000Y-85475000D03*
D27*
X125450000Y-86545000D03*
D28*
X129630000Y-86545000D03*
D27*
X125450000Y-77905000D03*
D28*
X129630000Y-77905000D03*
%TD*%
D29*
%TO.C,C13*%
X156632500Y-80450000D03*
X157767500Y-80450000D03*
%TD*%
D23*
%TO.C,C3*%
X142817500Y-77950000D03*
X141682500Y-77950000D03*
%TD*%
%TO.C,C11*%
X147667500Y-84600000D03*
X146532500Y-84600000D03*
%TD*%
D30*
%TO.C,Y1*%
X159800000Y-79550000D03*
X162000000Y-79550000D03*
X162000000Y-81250000D03*
X159800000Y-81250000D03*
%TD*%
D23*
%TO.C,C6*%
X145017500Y-82700000D03*
X143882500Y-82700000D03*
%TD*%
%TO.C,C10*%
X145017500Y-84600000D03*
X143882500Y-84600000D03*
%TD*%
D31*
%TO.C,D1*%
X135800000Y-87800000D03*
X132500000Y-87800000D03*
%TD*%
D32*
%TO.C,C2*%
X138450000Y-84812500D03*
X138450000Y-83087500D03*
%TD*%
D33*
%TO.C,U2*%
X148450000Y-76562500D03*
X148850001Y-76562500D03*
X149250000Y-76562500D03*
X149650000Y-76562500D03*
X150050000Y-76562500D03*
X150449999Y-76562500D03*
X150850000Y-76562500D03*
X151250000Y-76562500D03*
X151650001Y-76562500D03*
X152050000Y-76562500D03*
X152450000Y-76562500D03*
X152850000Y-76562500D03*
X153249999Y-76562500D03*
X153650000Y-76562500D03*
D34*
X154487500Y-77400000D03*
X154487500Y-77800001D03*
X154487500Y-78200000D03*
X154487500Y-78600000D03*
X154487500Y-79000000D03*
X154487500Y-79399999D03*
X154487500Y-79800000D03*
X154487500Y-80200000D03*
X154487500Y-80600001D03*
X154487500Y-81000000D03*
X154487500Y-81400000D03*
X154487500Y-81800000D03*
X154487500Y-82199999D03*
X154487500Y-82600000D03*
D33*
X153650000Y-83437500D03*
X153249999Y-83437500D03*
X152850000Y-83437500D03*
X152450000Y-83437500D03*
X152050000Y-83437500D03*
X151650001Y-83437500D03*
X151250000Y-83437500D03*
X150850000Y-83437500D03*
X150449999Y-83437500D03*
X150050000Y-83437500D03*
X149650000Y-83437500D03*
X149250000Y-83437500D03*
X148850001Y-83437500D03*
X148450000Y-83437500D03*
D34*
X147612500Y-82600000D03*
X147612500Y-82199999D03*
X147612500Y-81800000D03*
X147612500Y-81400000D03*
X147612500Y-81000000D03*
X147612500Y-80600001D03*
X147612500Y-80200000D03*
X147612500Y-79800000D03*
X147612500Y-79399999D03*
X147612500Y-79000000D03*
X147612500Y-78600000D03*
X147612500Y-78200000D03*
X147612500Y-77800001D03*
X147612500Y-77400000D03*
D35*
X151050000Y-80000000D03*
%TD*%
D23*
%TO.C,C17*%
X145017500Y-79850000D03*
X143882500Y-79850000D03*
%TD*%
D36*
%TO.C,R1*%
X132452500Y-82750000D03*
X133647500Y-82750000D03*
%TD*%
D29*
%TO.C,C7*%
X156632500Y-81400000D03*
X157767500Y-81400000D03*
%TD*%
D18*
%TO.C,J3*%
X138350000Y-72380000D03*
X140890000Y-72380000D03*
X143430000Y-72380000D03*
X145970000Y-72380000D03*
X148510000Y-72380000D03*
X151050000Y-72380000D03*
X153590000Y-72380000D03*
X156130000Y-72380000D03*
X158670000Y-72380000D03*
X161210000Y-72380000D03*
X163750000Y-72380000D03*
X166290000Y-72380000D03*
%TD*%
D36*
%TO.C,R2*%
X132302500Y-79800000D03*
X133497500Y-79800000D03*
%TD*%
D37*
%TO.C,U3*%
X141092500Y-76950000D03*
X141092500Y-76450000D03*
X141092500Y-75950000D03*
X141092500Y-75450000D03*
X143942500Y-75450000D03*
X143942500Y-75950000D03*
X143942500Y-76450000D03*
X143942500Y-76950000D03*
D38*
X142517500Y-76200000D03*
%TD*%
D39*
%TO.C,TP1*%
X178300000Y-80000000D03*
%TD*%
D40*
%TO.C,R6*%
X159550000Y-82950000D03*
X161375000Y-82950000D03*
%TD*%
D17*
%TO.C,TP3*%
X169790000Y-83820000D03*
%TD*%
D23*
%TO.C,C9*%
X145017500Y-83650000D03*
X143882500Y-83650000D03*
%TD*%
%TO.C,C16*%
X145017500Y-78900000D03*
X143882500Y-78900000D03*
%TD*%
D36*
%TO.C,R4*%
X144502500Y-81750000D03*
X145697500Y-81750000D03*
%TD*%
%TO.C,R3*%
X144502499Y-80800000D03*
X145697499Y-80800000D03*
%TD*%
D41*
%TO.C,JP1*%
X135300000Y-71700000D03*
D42*
X135300000Y-73000000D03*
%TD*%
D43*
%TO.C,C1*%
X133200000Y-84137500D03*
X133200000Y-85862500D03*
%TD*%
D29*
%TO.C,C14*%
X152332500Y-74610000D03*
X153467500Y-74610000D03*
%TD*%
D17*
%TO.C,TP2*%
X169790000Y-76190000D03*
%TD*%
D29*
%TO.C,C12*%
X152522500Y-85390000D03*
X153657500Y-85390000D03*
%TD*%
D23*
%TO.C,C8*%
X145017500Y-77950000D03*
X143882500Y-77950000D03*
%TD*%
D44*
%TO.C,U1*%
X135000000Y-83212500D03*
X136900000Y-83212500D03*
X135950000Y-85487500D03*
%TD*%
%LPD*%
M02*
